<svg version="1.1" id="Layer_1" xmlns="http://www.w3.org/2000/svg" xmlns:xlink="http://www.w3.org/1999/xlink" x="0px" y="0px" viewBox="0 0 500 500" style="width: 287px;" xml:space="preserve" data-imageid="alien-2-83" imageName="Alien 2" class="illustrations_image">
<style type="text/css">
	.st0_alien-2-83{fill:#FFFFFF;}
	.st1_alien-2-83{fill:#231F20;}
	.st2_alien-2-83{fill:#D1D3D4;}
	.st3_alien-2-83{fill:#68E1FD;}
</style>
<g id="Frame_alien-2-83">
	<rect x="27.8" y="101.7" class="st0_alien-2-83" width="444.4" height="296.5"/>
	<path class="st1_alien-2-83" d="M472.2,101.7v296.5H27.8V101.7H472.2 M472.2,100.3H27.8c-0.8,0-1.4,0.6-1.4,1.4c0,0,0,0,0,0v296.5&#10;&#9;&#9;c0,0.8,0.6,1.4,1.4,1.4c0,0,0,0,0,0h444.3c0.8,0,1.4-0.6,1.4-1.4c0,0,0,0,0,0V101.7C473.6,101,473,100.3,472.2,100.3&#10;&#9;&#9;C472.2,100.3,472.2,100.3,472.2,100.3z"/>
</g>
<g id="UFO_alien-2-83">
	<polygon class="st2_alien-2-83" points="262.1,302.8 27.8,398.3 27.8,269 179.1,242.1 &#9;"/>
	<path class="st0_alien-2-83" d="M63.1,358.6c-0.3,0-0.6-0.2-0.7-0.5c-0.1-0.4,0.1-0.8,0.4-0.9c0,0,0,0,0,0l122.5-45.5c0.4-0.1,0.8,0.1,0.9,0.4&#10;&#9;&#9;c0.1,0.3-0.1,0.7-0.4,0.9L63.4,358.5C63.3,358.6,63.2,358.6,63.1,358.6z"/>
	<path class="st0_alien-2-83" d="M45.8,285.9c-0.4,0-0.7-0.3-0.7-0.7c0-0.3,0.2-0.6,0.5-0.7c27.8-6.2,100.6-22.7,103.2-24.1&#10;&#9;&#9;c0.3-0.2,0.8-0.1,1,0.2c0,0,0,0,0,0c0.2,0.3,0.1,0.8-0.2,1c-2.9,1.7-93.3,22-103.6,24.3L45.8,285.9z"/>
	<path class="st0_alien-2-83" d="M32.8,320c-0.4,0-0.7-0.3-0.7-0.7c0-0.3,0.2-0.6,0.5-0.7l54.9-16.5c0.4-0.1,0.8,0.1,0.8,0.5&#10;&#9;&#9;c0.1,0.4-0.1,0.7-0.4,0.8L33,320C32.9,320,32.9,320,32.8,320z"/>
	<path class="st0_alien-2-83" d="M33.3,349.9c-0.4,0-0.7-0.3-0.7-0.7c0-0.3,0.2-0.5,0.4-0.6c1.5-0.6,37.1-13.9,38.3-14.2&#10;&#9;&#9;c0.4-0.1,0.8,0.1,0.9,0.4c0.1,0.4-0.1,0.8-0.4,0.9l0,0c-1.1,0.4-37.8,14.1-38.2,14.2C33.4,349.9,33.3,349.9,33.3,349.9z"/>
	<path class="st0_alien-2-83" d="M91.7,327c-0.4,0-0.7-0.3-0.7-0.7c0-0.3,0.2-0.6,0.5-0.7l37.4-13.3c0.4-0.1,0.7,0,0.9,0.4c0,0,0,0,0,0&#10;&#9;&#9;c0.1,0.4-0.1,0.8-0.4,0.9L91.9,327C91.9,327,91.8,327,91.7,327z"/>
	
		<ellipse transform="matrix(0.984 -0.1781 0.1781 0.984 -45.5117 50.9084)" class="st1_alien-2-83" cx="260.8" cy="278.9" rx="108.4" ry="31.6"/>
	<path class="st1_alien-2-83" d="M209.5,316.3c-6.8,0-13.5-0.3-20.2-1c-21.5-2.3-34.3-8.3-35.8-16.9c-3.2-17.9,41.4-40.3,101.5-51.3&#10;&#9;&#9;c28.5-5.2,56-6.8,77.2-4.5c21.5,2.3,34.3,8.3,35.9,17c3.2,17.9-41.4,40.4-101.6,51.3C247.7,314.3,228.7,316.1,209.5,316.3z&#10;&#9;&#9; M312,243c-19,0.2-38,2-56.8,5.5c-58.4,10.6-103.4,32.8-100.4,49.6c1.4,7.9,14,13.6,34.6,15.8c21.1,2.2,48.4,0.6,76.8-4.5&#10;&#9;&#9;c58.4-10.6,103.4-32.8,100.4-49.6c-1.4-7.9-14-13.6-34.6-15.8C325.4,243.3,318.7,243,312,243z"/>
	<path class="st0_alien-2-83" d="M395.3,231.5c-25.5-6.6-80.1-4.5-141.9,6.7s-113.7,28.4-135.2,43.5l-12.9,2.3l0.9,5.2&#10;&#9;&#9;c3.1,17.1,74.7,25.9,158.4,10.8s147.7-48.6,144.6-65.6l-0.9-5.2L395.3,231.5z"/>
	<path class="st1_alien-2-83" d="M182.1,308.5c-44,0-74.5-7.8-76.6-19.1l-0.9-5.2c-0.1-0.4,0.2-0.7,0.6-0.8c0,0,0,0,0,0l12.8-2.3&#10;&#9;&#9;c22.4-15.6,75.5-32.7,135.4-43.5s115.6-13.5,142.1-6.7l12.8-2.3c0.2,0,0.4,0,0.5,0.1c0.1,0.1,0.3,0.3,0.3,0.4l0.9,5.2&#10;&#9;&#9;c3.2,17.6-60.9,51.2-145.2,66.4C237.5,305.7,209.8,308.3,182.1,308.5z M106.1,284.6l0.8,4.5c3.1,16.9,76.4,24.9,157.6,10.2&#10;&#9;&#9;c38.8-7,75.9-18.4,104.7-32c25.7-12.2,40.8-24.8,39.3-32.8l-0.8-4.5l-12.2,2.2c-0.1,0-0.2,0-0.3,0c-26.2-6.8-81.8-4.1-141.6,6.7&#10;&#9;&#9;s-112.8,27.9-135,43.4c-0.1,0.1-0.2,0.1-0.3,0.1L106.1,284.6z"/>
	<ellipse transform="matrix(0.984 -0.1781 0.1781 0.984 -41.6036 49.8327)" class="st0_alien-2-83" cx="256.7" cy="256.6" rx="154" ry="31.4"/>
	<path class="st1_alien-2-83" d="M160.4,298.6c-2.4,0-4.6,0-6.9-0.1c-30-0.7-47.4-5.8-49-14.4c-3.2-17.7,61.1-43.7,146.5-59.1&#10;&#9;&#9;c40.5-7.3,79.2-11,108.9-10.4c30,0.7,47.5,5.8,49,14.4c3.2,17.7-61.1,43.7-146.5,59.1C225,295,189.1,298.6,160.4,298.6z M353,216&#10;&#9;&#9;c-28.6,0-64.4,3.6-101.8,10.4c-40.4,7.3-77.9,17.4-105.4,28.4c-26.8,10.7-41.4,21.3-40,29.1s18.8,12.6,47.7,13.2&#10;&#9;&#9;c29.6,0.6,68.2-3,108.6-10.4s77.9-17.4,105.4-28.4c26.8-10.7,41.4-21.3,40-29.1s-18.8-12.6-47.7-13.2C357.7,216,355.4,216,353,216z&#10;&#9;&#9;"/>
	<path class="st0_alien-2-83" d="M339.1,229.9c1.1,6.1-35.4,17.9-81.5,26.2s-84.4,10.1-85.5,4s7.1-84.6,68.9-95.8S338,223.8,339.1,229.9z"/>
	<path class="st1_alien-2-83" d="M189.5,264.5c-11.4,0-17.5-1.4-18-4.2c-0.6-3.6,1.5-25.1,10.9-46.4c8.7-19.6,25.9-44.3,58.5-50.2&#10;&#9;&#9;s57.4,11.1,72.4,26.5c16.3,16.7,25.8,36.1,26.5,39.7l0,0c0.6,3.4-7.3,7.9-23.5,13.1c-15.4,5-36.2,9.9-58.5,14s-43.5,6.7-59.7,7.4&#10;&#9;&#9;C194.9,264.4,192.1,264.5,189.5,264.5z M254.1,163.8c-4.3,0-8.6,0.4-12.9,1.2c-32,5.8-48.9,30.1-57.5,49.4&#10;&#9;&#9;c-9.8,22.2-11.3,43.1-10.8,45.6c0.1,0.7,1.9,4,25.2,2.9c16.1-0.8,37.3-3.4,59.5-7.4s43-9,58.3-13.9c22.2-7.1,22.7-10.8,22.5-11.5&#10;&#9;&#9;l0,0c-0.5-2.5-9.1-21.5-26.1-38.9C299.6,178.1,279.8,163.8,254.1,163.8z"/>
	<path class="st1_alien-2-83" d="M339.1,229.9c0.8,4.3-17.1,11.5-44,18.2c-11.2,2.8-23.9,5.6-37.5,8c-14.8,2.7-28.8,4.7-40.9,6&#10;&#9;&#9;c-25.9,2.7-43.8,2.2-44.5-2c-0.8-4.5,18.4-11.9,46.7-18.9c10.5-2.6,22.3-5.1,34.8-7.4c9.1-1.6,18-3,26.3-4.2&#10;&#9;&#9;C313.5,225.1,338.2,225,339.1,229.9z"/>
	<path class="st1_alien-2-83" d="M190,264.5c-15.5,0-18.2-2.7-18.5-4.3c-0.5-2.6,3.7-5.7,12.9-9.3c8.3-3.3,20.2-6.9,34.3-10.4&#10;&#9;&#9;c10.9-2.7,22.6-5.1,34.8-7.4c9-1.6,17.8-3,26.3-4.2c28.2-3.9,58.8-5.7,60,0.8l0,0c1.2,6.8-30.7,15.6-44.5,19&#10;&#9;&#9;c-11.7,2.9-24.3,5.6-37.5,8c-14.3,2.6-28.4,4.6-41,6C207.9,263.8,199,264.4,190,264.5z M321.7,227c-9.8,0-23.9,1-41.6,3.4&#10;&#9;&#9;c-8.5,1.1-17.3,2.6-26.3,4.2c-12.2,2.2-23.9,4.7-34.8,7.4c-32.5,8-46.7,15-46.1,18.1c0.5,2.9,14.3,4.5,43.8,1.4&#10;&#9;&#9;c12.5-1.3,26.7-3.4,40.9-5.9c13.2-2.4,25.8-5.1,37.4-8c30.6-7.7,44-14.4,43.4-17.4l0,0C338.1,228.2,332.3,227,321.7,227z"/>
	<path class="st2_alien-2-83" d="M178.8,263.2c11.5-6.3,41.1-14.7,76.4-21.1s66-8.9,78.9-7c3.5-1.9,5.3-3.7,5.1-5.1c-1.1-6.1-39.4-4.4-85.5,4&#10;&#9;&#9;s-82.6,20.1-81.5,26.2C172.4,261.6,174.8,262.6,178.8,263.2z"/>
	<path class="st1_alien-2-83" d="M178.8,263.9h-0.1c-4.5-0.7-6.8-1.9-7.1-3.6c-1.4-7.7,41.2-19.7,82-27.1c22.3-4,43.5-6.7,59.7-7.4&#10;&#9;&#9;c17-0.8,26,0.6,26.6,4c0.3,1.8-1.5,3.7-5.4,5.9c-0.1,0.1-0.3,0.1-0.4,0.1c-13.4-2-44.3,0.8-78.7,7s-64.3,14.5-76.2,21&#10;&#9;&#9;C179,263.8,178.9,263.8,178.8,263.9z M321.8,226.9c-2.5,0-5.3,0.1-8.5,0.2c-16.1,0.8-37.3,3.4-59.5,7.4&#10;&#9;&#9;c-48.8,8.8-81.8,20.5-80.9,25.4c0.1,0.5,0.8,1.7,5.8,2.4c12.1-6.6,42-14.8,76.4-21.1s65.3-9,78.9-7.1c4.3-2.4,4.6-3.8,4.5-4.3&#10;&#9;&#9;S337,226.9,321.8,226.9L321.8,226.9z"/>
	<path class="st3_alien-2-83 targetColor" d="M304,197.5c0.8,4.6-2.2,9.1-6.9,9.9c-2.3,0.4-4.7-0.1-6.6-1.5c-4.5,3.7-10.4,9.3-12.6,15c-1.2,3-0.1,5.9,2,8.8&#10;&#9;&#9;c3.7,5.2,10.7,10.9,15.2,18.4c-11.2,2.8-23.9,5.6-37.5,8c-14.8,2.7-28.8,4.7-40.9,6c0-7,0.7-14,2.1-20.9c1.1-5.5,3.1-10.9,5.9-15.7&#10;&#9;&#9;c7.4-11.7,9.5-27.3,9.3-36.9c-4.7-0.7-7.9-5-7.3-9.6c0.7-4.7,5-7.9,9.6-7.3c4.7,0.7,7.9,5,7.3,9.6c-0.3,1.9-1.1,3.6-2.5,4.9&#10;&#9;&#9;c4.2,10.4,5.6,21.7,4,32.7c0,0,18.7-13.4,22.2-28.7c-4.3-1.9-6.3-6.9-4.4-11.2s6.9-6.3,11.2-4.4c4.3,1.9,6.3,6.9,4.4,11.2&#10;&#9;&#9;c-1,2.4-3.1,4.1-5.6,4.8c-0.5,8.5-3.1,16.7-7.6,23.9c0,0,12.2-9.3,21.8-13.3c-0.1-0.2-0.1-0.5-0.2-0.8c-0.6-4.7,2.6-9,7.3-9.6&#10;&#9;&#9;c4.4-0.6,8.5,2.3,9.5,6.6L304,197.5z" style="fill: rgb(142, 73, 255);"/>
	<path class="st1_alien-2-83" d="M216.7,262.8c-0.2,0-0.3-0.1-0.5-0.2c-0.1-0.1-0.2-0.3-0.2-0.5c0-7.1,0.7-14.1,2.1-21c1.1-5.6,3.1-11.1,6-16&#10;&#9;&#9;c7-11.1,9.3-26.1,9.2-35.9c-5-1-8.2-5.9-7.2-10.9c1-5,5.9-8.2,10.9-7.2c5,1,8.2,5.9,7.2,10.9c-0.3,1.6-1.1,3.1-2.2,4.4&#10;&#9;&#9;c3.9,9.8,5.3,20.5,4.1,31c4.2-3.4,17.3-14.5,20.5-26.8c-4.5-2.3-6.3-7.9-4-12.4c2.3-4.5,7.9-6.3,12.4-4s6.3,7.9,4,12.4&#10;&#9;&#9;c-1.1,2.2-3,3.8-5.3,4.6c-0.5,7.3-2.6,14.4-6,20.9c4-2.9,12-8.3,18.8-11.2c0-0.1,0-0.1,0-0.2c-0.9-5,2.4-9.8,7.4-10.7&#10;&#9;&#9;c5-0.9,9.8,2.4,10.7,7.4l0,0l0,0c0.9,5-2.4,9.8-7.4,10.7c-2.3,0.4-4.7,0-6.6-1.3c-4.4,3.6-9.9,9-12,14.3c-1,2.4-0.4,5,1.9,8.2&#10;&#9;&#9;c1.8,2.4,3.7,4.6,5.8,6.7c3.6,3.6,6.7,7.5,9.5,11.8c0.1,0.2,0.1,0.4,0,0.6c-0.1,0.2-0.3,0.4-0.5,0.4c-11.7,2.9-24.3,5.6-37.5,8&#10;&#9;&#9;C243.5,259.4,229.3,261.4,216.7,262.8L216.7,262.8z M235.2,172.3c-0.5,0-0.9,0-1.4,0.1c-4.3,0.8-7.1,4.9-6.3,9.1&#10;&#9;&#9;c0.6,3.3,3.3,5.9,6.6,6.4c0.3,0,0.6,0.3,0.6,0.7c0.2,10-2.1,25.7-9.4,37.3c-2.8,4.8-4.8,10-5.8,15.5c-1.3,6.6-2,13.2-2.1,19.9&#10;&#9;&#9;c12.3-1.3,26.2-3.4,40.1-5.9c12.9-2.3,25.1-4.9,36.5-7.8c-2.6-3.8-5.6-7.4-8.8-10.7c-2.1-2.2-4.1-4.4-5.9-6.9&#10;&#9;&#9;c-1.6-2.3-3.5-5.7-2-9.5c2.2-5.8,8.2-11.5,12.8-15.2c0.3-0.2,0.6-0.2,0.9,0c3.5,2.5,8.4,1.7,10.9-1.8c0-0.1,0.1-0.1,0.1-0.2&#10;&#9;&#9;c1.2-1.7,1.6-3.8,1.3-5.9l0,0c-0.9-4.2-5.1-6.9-9.3-6c-4,0.9-6.7,4.7-6.1,8.8c0,0.2,0.1,0.5,0.2,0.7c0.1,0.3-0.1,0.7-0.4,0.8&#10;&#9;&#9;c-9.4,3.9-21.5,13.1-21.6,13.2c-0.3,0.2-0.8,0.1-1-0.2c-0.1-0.2-0.2-0.5,0-0.7c4.4-7.1,6.9-15.2,7.5-23.6c0-0.3,0.2-0.6,0.5-0.6&#10;&#9;&#9;c3.9-1.1,6.4-5,5.6-9c-0.6-4.3-4.6-7.3-8.9-6.6c-4.3,0.6-7.3,4.6-6.6,8.9c0,0.2,0.1,0.4,0.1,0.5c0.5,2.6,2.2,4.7,4.6,5.8&#10;&#9;&#9;c0.3,0.1,0.5,0.5,0.4,0.8c-3.5,15.4-21.7,28.6-22.5,29.1c-0.3,0.2-0.8,0.2-1-0.2c-0.1-0.2-0.2-0.3-0.1-0.5&#10;&#9;&#9;c1.6-10.9,0.3-22.1-3.9-32.4c-0.1-0.3,0-0.6,0.2-0.8c3.1-3,3.1-8,0.1-11.1C239.4,173.1,237.4,172.3,235.2,172.3L235.2,172.3z"/>
	<circle class="st0_alien-2-83" cx="295.5" cy="199" r="5.4"/>
	<circle class="st0_alien-2-83" cx="235.2" cy="180.2" r="6"/>
	<circle class="st1_alien-2-83" cx="235.2" cy="180.2" r="3.5"/>
	<circle class="st0_alien-2-83" cx="270.8" cy="182.4" r="6"/>
	<circle class="st1_alien-2-83" cx="270.8" cy="182.4" r="3.5"/>
	<circle class="st1_alien-2-83" cx="295.5" cy="199" r="3.5"/>
	<path class="st1_alien-2-83" d="M234.7,189.4c-0.4,0-0.6,0-0.7,0c-0.4,0-0.7-0.4-0.6-0.8c0-0.4,0.4-0.7,0.8-0.6c1.3,0.1,2.6-0.1,3.8-0.7&#10;&#9;&#9;c0.3-0.2,0.7-0.1,1,0.2c0,0,0,0,0,0.1c0.2,0.3,0.1,0.8-0.2,1c0,0,0,0,0,0C237.4,189.1,236.1,189.4,234.7,189.4z"/>
	<path class="st2_alien-2-83" d="M191.2,217.1c-0.1,0-0.2,0-0.2,0c-0.4-0.1-0.6-0.5-0.4-0.9c7.9-23,22.2-34.2,22.4-34.3c0.3-0.2,0.8-0.2,1,0.1&#10;&#9;&#9;c0,0,0,0,0,0c0.2,0.3,0.2,0.8-0.1,1c-0.1,0.1-14.1,11.1-21.9,33.7C191.7,216.9,191.5,217.1,191.2,217.1z"/>
	<path class="st2_alien-2-83" d="M185.8,228.9L185.8,228.9c-0.5,0-0.7-0.4-0.7-0.8c0,0,0,0,0,0c0.1-1.5,2.4-5.6,2.7-6.1&#10;&#9;&#9;c0.2-0.3,0.6-0.5,0.9-0.3c0,0,0,0,0,0c0.3,0.2,0.5,0.6,0.3,0.9c0,0,0,0,0,0c-0.9,1.7-2.4,4.7-2.5,5.6&#10;&#9;&#9;C186.5,228.6,186.2,228.9,185.8,228.9z"/>
	<path class="st0_alien-2-83" d="M238,238c0,0-2.9-5.5-0.2-6.6s4.8,4.8,4.8,4.8"/>
	<path class="st1_alien-2-83" d="M238,238.6c-0.3,0-0.5-0.1-0.6-0.4c-0.2-0.4-2-4-1.2-6.1c0.2-0.6,0.7-1.2,1.4-1.4c0.6-0.3,1.4-0.2,2,0.1&#10;&#9;&#9;c2.2,1,3.6,4.7,3.7,5.1c0.1,0.4-0.1,0.8-0.4,0.9c-0.4,0.1-0.8-0.1-0.9-0.4l0,0c-0.4-1-1.6-3.7-3-4.3c-0.3-0.1-0.6-0.1-0.9,0&#10;&#9;&#9;c-0.3,0.1-0.5,0.3-0.6,0.6c-0.5,1.4,0.6,4.1,1.1,5c0.2,0.3,0.1,0.8-0.3,0.9c0,0,0,0,0,0C238.2,238.7,238.1,238.7,238,238.6z"/>
	<path class="st0_alien-2-83" d="M263.7,232.7c0,0,0.9-4.9,2.8-5s1.8,3.9,1.5,6.1"/>
	<path class="st1_alien-2-83" d="M268.1,234.5H268c-0.4,0-0.7-0.4-0.6-0.8c0.3-2.5,0.1-4.5-0.5-5.1c-0.1-0.1-0.2-0.2-0.4-0.2&#10;&#9;&#9;c-0.9,0-1.8,2.6-2.2,4.4c0,0.4-0.4,0.7-0.8,0.6c-0.4,0-0.7-0.4-0.6-0.8c0,0,0-0.1,0-0.1c0.2-0.9,1.1-5.5,3.5-5.6&#10;&#9;&#9;c0.5,0,1.1,0.2,1.4,0.6c1.1,1.2,1.1,4.1,0.8,6.2C268.7,234.2,268.4,234.5,268.1,234.5z"/>
	<path class="st1_alien-2-83" d="M233.3,240.8c-0.4,0-0.7-0.3-0.7-0.7c0-0.3,0.2-0.5,0.4-0.6c1-0.5,25.8-13,38-5c0.3,0.2,0.4,0.6,0.2,1&#10;&#9;&#9;c-0.2,0.3-0.6,0.4-1,0.2c-11.6-7.6-36.4,4.9-36.6,5.1C233.5,240.8,233.4,240.8,233.3,240.8z"/>
</g>
<g id="Stars_alien-2-83">
	<path class="st2_alien-2-83" d="M360.2,134.7c-3.4,0-3.4,5.3,0,5.3S363.6,134.7,360.2,134.7z"/>
	<path class="st2_alien-2-83" d="M149.1,204.8c-5.1,0-5.1,8,0,8S154.3,204.8,149.1,204.8z"/>
	<path class="st2_alien-2-83" d="M196.4,133.9c-5.1,0-5.1,8,0,8S201.5,133.9,196.4,133.9z"/>
	<path class="st2_alien-2-83" d="M65.7,157.3c-3.4,0-3.4,5.3,0,5.3S69.1,157.3,65.7,157.3z"/>
	<path class="st2_alien-2-83" d="M242.6,336.8c-6.9,0-6.9,10.6,0,10.6S249.5,336.8,242.6,336.8z"/>
	<path class="st2_alien-2-83" d="M265.4,372.1c-5.1,0-5.1,8,0,8S270.5,372.1,265.4,372.1z"/>
	<path class="st2_alien-2-83" d="M343.7,311.8c-0.4,0-0.7-0.3-0.7-0.7v0v-8.2c0-0.4,0.3-0.7,0.7-0.7c0.4,0,0.7,0.3,0.7,0.7v8.2&#10;&#9;&#9;C344.4,311.5,344.1,311.8,343.7,311.8z"/>
	<path class="st2_alien-2-83" d="M347.8,307.7h-8.2c-0.4,0-0.7-0.3-0.7-0.7c0-0.4,0.3-0.7,0.7-0.7h8.2c0.4,0,0.7,0.3,0.7,0.7&#10;&#9;&#9;C348.5,307.3,348.2,307.7,347.8,307.7z"/>
	<path class="st2_alien-2-83" d="M175,189.3c-0.4,0-0.7-0.3-0.7-0.7v-8.2c0-0.4,0.3-0.7,0.7-0.7c0.4,0,0.7,0.3,0.7,0.7v8.2&#10;&#9;&#9;C175.7,189,175.4,189.3,175,189.3z"/>
	<path class="st2_alien-2-83" d="M179.1,185.2h-8.2c-0.4,0-0.7-0.3-0.7-0.7c0-0.4,0.3-0.7,0.7-0.7h8.2c0.4,0,0.7,0.3,0.7,0.7&#10;&#9;&#9;C179.8,184.9,179.5,185.2,179.1,185.2C179.1,185.2,179.1,185.2,179.1,185.2z"/>
	<path class="st2_alien-2-83" d="M52.4,224.6c-0.4,0-0.7-0.3-0.7-0.7v-8.2c0-0.4,0.3-0.7,0.7-0.7s0.7,0.3,0.7,0.7v8.2&#10;&#9;&#9;C53.1,224.3,52.8,224.6,52.4,224.6z"/>
	<path class="st2_alien-2-83" d="M56.5,220.5h-8.2c-0.4,0-0.7-0.3-0.7-0.7c0-0.4,0.3-0.7,0.7-0.7h8.2c0.4,0,0.7,0.3,0.7,0.7&#10;&#9;&#9;C57.2,220.2,56.9,220.5,56.5,220.5z"/>
	<path class="st2_alien-2-83" d="M405.3,189.3c-0.4,0-0.7-0.3-0.7-0.7c0,0,0,0,0,0v-8.2c0-0.4,0.3-0.7,0.7-0.7c0.4,0,0.7,0.3,0.7,0.7&#10;&#9;&#9;c0,0,0,0,0,0v8.2C406,189,405.7,189.3,405.3,189.3z"/>
	<path class="st2_alien-2-83" d="M409.4,185.2h-8.2c-0.4,0-0.7-0.3-0.7-0.7s0.3-0.7,0.7-0.7c0,0,0,0,0,0h8.2c0.4,0,0.7,0.3,0.7,0.7&#10;&#9;&#9;C410.1,184.9,409.8,185.2,409.4,185.2z"/>
	<path class="st2_alien-2-83" d="M122.8,227.9c-0.4,0-0.7-0.3-0.7-0.7v-2.8c0-0.4,0.3-0.7,0.7-0.7c0.4,0,0.7,0.3,0.7,0.7v2.8&#10;&#9;&#9;C123.5,227.6,123.2,227.9,122.8,227.9L122.8,227.9z"/>
	<path class="st2_alien-2-83" d="M122.8,234.6c-0.4,0-0.7-0.3-0.7-0.7v-2.8c0-0.4,0.3-0.7,0.7-0.7c0.4,0,0.7,0.3,0.7,0.7v2.8&#10;&#9;&#9;C123.5,234.3,123.2,234.6,122.8,234.6L122.8,234.6z"/>
	<path class="st2_alien-2-83" d="M127.6,229.8h-2.8c-0.4,0-0.7-0.3-0.7-0.7c0-0.4,0.3-0.7,0.7-0.7c0,0,0,0,0,0h2.8c0.4,0,0.7,0.3,0.7,0.7&#10;&#9;&#9;C128.3,229.5,128,229.8,127.6,229.8C127.6,229.8,127.6,229.8,127.6,229.8z"/>
	<path class="st2_alien-2-83" d="M120.8,229.8H118c-0.4,0-0.7-0.3-0.7-0.7c0-0.4,0.3-0.7,0.7-0.7c0,0,0,0,0,0h2.8c0.4,0,0.7,0.3,0.7,0.7&#10;&#9;&#9;C121.5,229.5,121.2,229.8,120.8,229.8C120.8,229.8,120.8,229.8,120.8,229.8L120.8,229.8z"/>
	<path class="st2_alien-2-83" d="M355.4,166.7c-0.4,0-0.7-0.3-0.7-0.7c0,0,0,0,0,0v-2.8c0-0.4,0.3-0.7,0.7-0.7c0.4,0,0.7,0.3,0.7,0.7&#10;&#9;&#9;c0,0,0,0,0,0v2.8C356.1,166.4,355.8,166.7,355.4,166.7z"/>
	<path class="st2_alien-2-83" d="M355.4,173.4c-0.4,0-0.7-0.3-0.7-0.7c0,0,0,0,0,0v-2.8c0-0.4,0.3-0.7,0.7-0.7c0.4,0,0.7,0.3,0.7,0.7&#10;&#9;&#9;c0,0,0,0,0,0v2.8C356.1,173.1,355.8,173.4,355.4,173.4z"/>
	<path class="st2_alien-2-83" d="M360.2,168.6h-2.8c-0.4,0-0.7-0.3-0.7-0.7s0.3-0.7,0.7-0.7c0,0,0,0,0,0h2.8c0.4,0,0.7,0.3,0.7,0.7&#10;&#9;&#9;C360.9,168.3,360.6,168.6,360.2,168.6z"/>
	<path class="st2_alien-2-83" d="M353.5,168.6h-2.8c-0.4,0-0.7-0.3-0.7-0.7s0.3-0.7,0.7-0.7c0,0,0,0,0,0h2.8c0.4,0,0.7,0.3,0.7,0.7&#10;&#9;&#9;S353.9,168.6,353.5,168.6C353.5,168.6,353.5,168.6,353.5,168.6z"/>
	<path class="st2_alien-2-83" d="M317.5,131.2c-0.7,0.1-1.3,0.7-1.2,1.5c0.1,0.6,0.6,1.2,1.2,1.2c0.7-0.1,1.3-0.7,1.2-1.5&#10;&#9;&#9;C318.7,131.8,318.2,131.2,317.5,131.2z"/>
	<path class="st2_alien-2-83" d="M229.4,146.2c-0.4,0-0.7,0.3-0.7,0.7c0,0.4,0.3,0.7,0.7,0.7c0.4,0,0.7-0.3,0.7-0.7&#10;&#9;&#9;C230,146.5,229.7,146.2,229.4,146.2z"/>
	<path class="st2_alien-2-83" d="M201.2,162.7c-0.1-0.4-0.4-0.8-0.7-1.2l-0.5-0.4c-0.4-0.2-0.9-0.4-1.3-0.4h-0.8c-0.3,0-0.7,0.1-1,0.2&#10;&#9;&#9;c-0.3,0.1-0.6,0.3-0.9,0.6c-0.3,0.2-0.4,0.5-0.6,0.9c-0.2,0.3-0.2,0.7-0.2,1l0.1,0.7c0.1,0.4,0.4,0.9,0.7,1.2l0.5,0.4&#10;&#9;&#9;c0.4,0.2,0.9,0.4,1.4,0.4h0.8c0.3,0,0.7-0.1,1-0.2c0.3-0.1,0.6-0.3,0.9-0.6c0.3-0.2,0.4-0.5,0.6-0.9c0.2-0.3,0.2-0.7,0.2-1&#10;&#9;&#9;L201.2,162.7z"/>
	<path class="st2_alien-2-83" d="M455.8,229.6c-2.6,0-2.6,4,0,4S458.3,229.6,455.8,229.6z"/>
	<circle class="st0_alien-2-83" cx="89.1" cy="194.1" r="2.6"/>
	<path class="st2_alien-2-83" d="M89.1,197.4c-1.8,0-3.3-1.5-3.3-3.3s1.5-3.3,3.3-3.3c1.8,0,3.3,1.5,3.3,3.3c0,0,0,0,0,0&#10;&#9;&#9;C92.4,196,90.9,197.4,89.1,197.4z M89.1,192.2c-1.1,0-1.9,0.9-1.9,1.9s0.9,1.9,1.9,1.9c1.1,0,1.9-0.9,1.9-1.9&#10;&#9;&#9;C91,193.1,90.1,192.2,89.1,192.2L89.1,192.2L89.1,192.2z"/>
	<circle class="st0_alien-2-83" cx="303.6" cy="342.1" r="3.2"/>
	<path class="st2_alien-2-83" d="M303.6,346c-2.2,0-3.9-1.8-3.9-3.9s1.8-3.9,3.9-3.9s3.9,1.8,3.9,3.9C307.5,344.2,305.7,346,303.6,346z&#10;&#9;&#9; M303.6,339.5c-1.4,0-2.5,1.1-2.5,2.5c0,1.4,1.1,2.5,2.5,2.5c1.4,0,2.5-1.1,2.5-2.5c0,0,0,0,0,0C306.1,340.7,305,339.5,303.6,339.5&#10;&#9;&#9;L303.6,339.5z"/>
	<path class="st2_alien-2-83" d="M424.6,295.2c-2.6,0-2.6,4,0,4S427.1,295.2,424.6,295.2z"/>
	<path class="st2_alien-2-83" d="M406.6,264.3c-0.7,0-1.3,0.6-1.3,1.3c0,0.7,0.6,1.3,1.3,1.3s1.3-0.6,1.3-1.3&#10;&#9;&#9;C407.9,264.9,407.3,264.3,406.6,264.3L406.6,264.3z"/>
</g>
<g id="Planets_alien-2-83">
	<circle class="st0_alien-2-83" cx="385.2" cy="337.4" r="36.4"/>
	<path class="st2_alien-2-83" d="M385.2,374.5c-20.5,0-37.1-16.5-37.2-37c0-20.5,16.5-37.1,37-37.2c20.5,0,37.1,16.5,37.2,37&#10;&#9;&#9;c0,16.7-11.1,31.4-27.2,35.8C391.9,374.1,388.6,374.5,385.2,374.5z M385.2,301.8c-3.2,0-6.4,0.4-9.5,1.3&#10;&#9;&#9;c-18.9,5.2-30,24.8-24.7,43.7c5.2,18.9,24.8,30,43.7,24.7c18.9-5.2,30-24.8,24.7-43.7C415.2,312.4,401.2,301.8,385.2,301.8z"/>
	<path class="st2_alien-2-83" d="M341.4,357.4c-6.5,0-12.4-1-13.3-4.2c-1.5-5.4,12.1-12.4,20.4-16.1c0.3-0.2,0.8-0.1,1,0.3&#10;&#9;&#9;c0.2,0.3,0.1,0.8-0.3,1c0,0-0.1,0-0.1,0.1c-15.5,6.9-20.3,12-19.6,14.4s7.4,4.4,24.2,2.3c11.6-1.5,23.1-3.8,34.4-7&#10;&#9;&#9;c11.3-3,22.4-6.9,33.1-11.6c15.5-6.9,20.3-12,19.6-14.4s-7.4-4.4-24.2-2.3c-0.4,0.1-0.7-0.2-0.8-0.6s0.2-0.7,0.6-0.8c0,0,0,0,0,0&#10;&#9;&#9;c9-1.1,24.3-2.1,25.8,3.4s-12.1,12.4-20.4,16.1c-10.8,4.7-22,8.6-33.4,11.6c-11.3,3.2-22.9,5.5-34.6,7&#10;&#9;&#9;C349.8,357,345.6,357.3,341.4,357.4z"/>
	<circle class="st0_alien-2-83" cx="127.6" cy="152.1" r="24.5"/>
	<path class="st2_alien-2-83" d="M127.6,177.3c-13.9,0-25.2-11.3-25.2-25.2c0-13.9,11.3-25.2,25.2-25.2c13.9,0,25.2,11.3,25.2,25.2c0,0,0,0,0,0&#10;&#9;&#9;C152.8,166,141.5,177.3,127.6,177.3z M127.6,128.3c-13.1,0-23.8,10.6-23.8,23.8c0,13.1,10.6,23.8,23.8,23.8s23.8-10.6,23.8-23.8&#10;&#9;&#9;c0,0,0,0,0,0C151.4,139,140.7,128.4,127.6,128.3L127.6,128.3z"/>
	<circle class="st0_alien-2-83" cx="179.1" cy="376.1" r="12.4"/>
	<path class="st2_alien-2-83" d="M179.1,389.2c-7.2,0-13.1-5.9-13.1-13.1s5.9-13.1,13.1-13.1c7.2,0,13.1,5.9,13.1,13.1&#10;&#9;&#9;C192.2,383.3,186.3,389.2,179.1,389.2z M179.1,364.5c-6.4,0-11.7,5.2-11.7,11.7c0,6.4,5.2,11.7,11.7,11.7s11.7-5.2,11.7-11.7&#10;&#9;&#9;C190.8,369.7,185.6,364.5,179.1,364.5L179.1,364.5z"/>
	<path class="st2_alien-2-83" d="M462.9,192.1c-38-0.1-68.9-30.9-68.9-68.9c0-5.2,0.6-10.4,1.8-15.5c0.1-0.4,0.4-0.6,0.8-0.6&#10;&#9;&#9;c0.4,0.1,0.6,0.4,0.6,0.8c0,0,0,0.1,0,0.1c-1.2,5-1.7,10.1-1.7,15.2c0,37.3,30.3,67.5,67.5,67.5c2.5,0,4.9-0.1,7.3-0.4&#10;&#9;&#9;c0.4-0.1,0.7,0.2,0.8,0.6c0.1,0.4-0.2,0.7-0.6,0.8c0,0,0,0-0.1,0C467.9,192,465.4,192.1,462.9,192.1z"/>
</g>
</svg>