<svg id="_0377_explosion_1" xmlns="http://www.w3.org/2000/svg" xmlns:xlink="http://www.w3.org/1999/xlink" viewBox="0 0 500 500" data-imageid="explosion-1-67" imageName="Explosion 1" class="illustrations_image" style="width: 287px;"><defs><style>.cls-1_explosion-1-67{fill:url(#linear-gradient);}.cls-1_explosion-1-67,.cls-2_explosion-1-67,.cls-3_explosion-1-67,.cls-4_explosion-1-67,.cls-5_explosion-1-67,.cls-6_explosion-1-67,.cls-7_explosion-1-67,.cls-8_explosion-1-67,.cls-9_explosion-1-67,.cls-10_explosion-1-67,.cls-11_explosion-1-67,.cls-12_explosion-1-67,.cls-13_explosion-1-67,.cls-14_explosion-1-67,.cls-15_explosion-1-67,.cls-16_explosion-1-67,.cls-17_explosion-1-67,.cls-18_explosion-1-67,.cls-19_explosion-1-67,.cls-20_explosion-1-67,.cls-21_explosion-1-67,.cls-22_explosion-1-67,.cls-23_explosion-1-67,.cls-24_explosion-1-67,.cls-25_explosion-1-67,.cls-26_explosion-1-67,.cls-27_explosion-1-67,.cls-28_explosion-1-67,.cls-29_explosion-1-67,.cls-30_explosion-1-67,.cls-31_explosion-1-67,.cls-32_explosion-1-67,.cls-33_explosion-1-67,.cls-34_explosion-1-67,.cls-35_explosion-1-67,.cls-36_explosion-1-67,.cls-37_explosion-1-67,.cls-38_explosion-1-67,.cls-39_explosion-1-67,.cls-40_explosion-1-67,.cls-41_explosion-1-67,.cls-42_explosion-1-67,.cls-43_explosion-1-67,.cls-44_explosion-1-67,.cls-45_explosion-1-67,.cls-46_explosion-1-67,.cls-47_explosion-1-67,.cls-48_explosion-1-67,.cls-49_explosion-1-67,.cls-50_explosion-1-67,.cls-51_explosion-1-67,.cls-52_explosion-1-67,.cls-53_explosion-1-67{stroke-width:0px;}.cls-2_explosion-1-67{opacity:.59;}.cls-2_explosion-1-67,.cls-3_explosion-1-67,.cls-44_explosion-1-67{isolation:isolate;}.cls-2_explosion-1-67,.cls-3_explosion-1-67,.cls-44_explosion-1-67,.cls-53_explosion-1-67{fill:#68e1fd;}.cls-3_explosion-1-67{opacity:.18;}.cls-4_explosion-1-67{fill:url(#linear-gradient-38-explosion-1-67);}.cls-5_explosion-1-67{fill:url(#linear-gradient-33-explosion-1-67);}.cls-6_explosion-1-67{fill:url(#linear-gradient-29-explosion-1-67);}.cls-7_explosion-1-67{fill:url(#linear-gradient-32-explosion-1-67);}.cls-8_explosion-1-67{fill:url(#linear-gradient-30-explosion-1-67);}.cls-9_explosion-1-67{fill:url(#linear-gradient-31-explosion-1-67);}.cls-10_explosion-1-67{fill:url(#linear-gradient-36-explosion-1-67);}.cls-11_explosion-1-67{fill:url(#linear-gradient-39-explosion-1-67);}.cls-12_explosion-1-67{fill:url(#linear-gradient-34-explosion-1-67);}.cls-13_explosion-1-67{fill:url(#linear-gradient-37-explosion-1-67);}.cls-14_explosion-1-67{fill:url(#linear-gradient-35-explosion-1-67);}.cls-15_explosion-1-67{fill:url(#linear-gradient-28-explosion-1-67);}.cls-16_explosion-1-67{fill:url(#linear-gradient-25-explosion-1-67);}.cls-17_explosion-1-67{fill:url(#linear-gradient-11-explosion-1-67);}.cls-18_explosion-1-67{fill:url(#linear-gradient-12-explosion-1-67);}.cls-19_explosion-1-67{fill:url(#linear-gradient-13-explosion-1-67);}.cls-20_explosion-1-67{fill:url(#linear-gradient-10-explosion-1-67);}.cls-21_explosion-1-67{fill:url(#linear-gradient-17-explosion-1-67);}.cls-22_explosion-1-67{fill:url(#linear-gradient-16-explosion-1-67);}.cls-23_explosion-1-67{fill:url(#linear-gradient-19-explosion-1-67);}.cls-24_explosion-1-67{fill:url(#linear-gradient-15-explosion-1-67);}.cls-25_explosion-1-67{fill:url(#linear-gradient-23-explosion-1-67);}.cls-26_explosion-1-67{fill:url(#linear-gradient-21-explosion-1-67);}.cls-27_explosion-1-67{fill:url(#linear-gradient-18-explosion-1-67);}.cls-28_explosion-1-67{fill:url(#linear-gradient-14-explosion-1-67);}.cls-29_explosion-1-67{fill:url(#linear-gradient-22-explosion-1-67);}.cls-30_explosion-1-67{fill:url(#linear-gradient-20-explosion-1-67);}.cls-31_explosion-1-67{fill:url(#linear-gradient-27-explosion-1-67);}.cls-32_explosion-1-67{fill:url(#linear-gradient-24-explosion-1-67);}.cls-33_explosion-1-67{fill:url(#linear-gradient-26-explosion-1-67);}.cls-34_explosion-1-67{fill:url(#linear-gradient-45-explosion-1-67);}.cls-35_explosion-1-67{fill:url(#linear-gradient-46-explosion-1-67);}.cls-36_explosion-1-67{fill:url(#linear-gradient-44-explosion-1-67);}.cls-37_explosion-1-67{fill:url(#linear-gradient-48-explosion-1-67);}.cls-38_explosion-1-67{fill:url(#linear-gradient-49-explosion-1-67);}.cls-39_explosion-1-67{fill:url(#linear-gradient-47-explosion-1-67);}.cls-40_explosion-1-67{fill:url(#linear-gradient-42-explosion-1-67);}.cls-41_explosion-1-67{fill:url(#linear-gradient-43-explosion-1-67);}.cls-42_explosion-1-67{fill:url(#linear-gradient-40-explosion-1-67);}.cls-43_explosion-1-67{fill:url(#linear-gradient-41-explosion-1-67);}.cls-44_explosion-1-67{opacity:.26;}.cls-45_explosion-1-67{fill:url(#linear-gradient-4-explosion-1-67);}.cls-46_explosion-1-67{fill:url(#linear-gradient-2-explosion-1-67);}.cls-47_explosion-1-67{fill:url(#linear-gradient-3-explosion-1-67);}.cls-48_explosion-1-67{fill:url(#linear-gradient-8-explosion-1-67);}.cls-49_explosion-1-67{fill:url(#linear-gradient-9-explosion-1-67);}.cls-50_explosion-1-67{fill:url(#linear-gradient-7-explosion-1-67);}.cls-51_explosion-1-67{fill:url(#linear-gradient-5-explosion-1-67);}.cls-52_explosion-1-67{fill:url(#linear-gradient-6-explosion-1-67);}</style><linearGradient id="linear-gradient-explosion-1-67" x1="707.66" y1="1809.33" x2="729.46" y2="1989.5" gradientTransform="translate(-481.29 2269.39) scale(1 -1)" gradientUnits="userSpaceOnUse"><stop offset="0" stop-color="#000"/><stop offset=".13" stop-color="#000" stop-opacity=".69"/><stop offset="1" stop-color="#000" stop-opacity="0"/></linearGradient><linearGradient id="linear-gradient-2-explosion-1-67" x1="671.3" y1="1822.36" x2="678.42" y2="1816.88" xlink:href="#linear-gradient-explosion-1-67"/><linearGradient id="linear-gradient-3-explosion-1-67" x1="745.35" y1="2155.13" x2="729.11" y2="1888.47" xlink:href="#linear-gradient-explosion-1-67"/><linearGradient id="linear-gradient-4-explosion-1-67" x1="689.21" y1="2083.69" x2="753.67" y2="1917.77" xlink:href="#linear-gradient-explosion-1-67"/><linearGradient id="linear-gradient-5-explosion-1-67" x1="689.25" y1="2066.23" x2="750.88" y2="1907.59" xlink:href="#linear-gradient-explosion-1-67"/><linearGradient id="linear-gradient-6-explosion-1-67" x1="693.73" y1="1880.22" x2="813.89" y2="2198.94" xlink:href="#linear-gradient-explosion-1-67"/><linearGradient id="linear-gradient-7-explosion-1-67" x1="695.37" y1="1876.61" x2="808.27" y2="2176.07" xlink:href="#linear-gradient-explosion-1-67"/><linearGradient id="linear-gradient-8-explosion-1-67" x1="678.05" y1="1982.02" x2="523.09" y2="2032.71" gradientTransform="translate(-471 2323.65) scale(1 -1)" gradientUnits="userSpaceOnUse"><stop offset=".02" stop-color="#fff" stop-opacity="0"/><stop offset=".58" stop-color="#fff" stop-opacity=".39"/><stop offset=".68" stop-color="#fff" stop-opacity=".68"/><stop offset="1" stop-color="#fff"/></linearGradient><linearGradient id="linear-gradient-9-explosion-1-67" x1="584.76" y1="1773.64" x2="410.27" y2="1830.72" gradientTransform="translate(-698.14 1959.8) rotate(11.05) scale(1 -1)" xlink:href="#linear-gradient-8-explosion-1-67"/><linearGradient id="linear-gradient-10-explosion-1-67" x1="490.64" y1="1547.19" x2="316.16" y2="1604.27" gradientTransform="translate(-892.38 1496.21) rotate(25.57) scale(1 -1)" xlink:href="#linear-gradient-8-explosion-1-67"/><linearGradient id="linear-gradient-11-explosion-1-67" x1="576.31" y1="906.67" x2="401.82" y2="963.74" gradientTransform="translate(-836.35 227.42) rotate(61.89) scale(1 -1)" xlink:href="#linear-gradient-8-explosion-1-67"/><linearGradient id="linear-gradient-12-explosion-1-67" x1="761.83" y1="690.53" x2="587.34" y2="747.61" gradientTransform="translate(-563.37 -295.54) rotate(78.28) scale(1 -1)" xlink:href="#linear-gradient-8-explosion-1-67"/><linearGradient id="linear-gradient-13-explosion-1-67" x1="1551.78" y1="336.44" x2="1377.3" y2="393.52" gradientTransform="translate(879.86 -1156.02) rotate(124.8) scale(1 -1)" xlink:href="#linear-gradient-8-explosion-1-67"/><linearGradient id="linear-gradient-14-explosion-1-67" x1="1965.66" y1="419.49" x2="1767.13" y2="484.43" gradientTransform="translate(1608.9 -1140.52) rotate(144.47) scale(1 -1)" xlink:href="#linear-gradient-8-explosion-1-67"/><linearGradient id="linear-gradient-15-explosion-1-67" x1="677.11" y1="1837.66" x2="823.73" y2="2142.37" xlink:href="#linear-gradient-explosion-1-67"/><linearGradient id="linear-gradient-16-explosion-1-67" x1="686.1" y1="1839.23" x2="806.24" y2="2088.91" xlink:href="#linear-gradient-explosion-1-67"/><linearGradient id="linear-gradient-17-explosion-1-67" x1="673.57" y1="1910.22" x2="518.61" y2="1960.91" xlink:href="#linear-gradient-8-explosion-1-67"/><linearGradient id="linear-gradient-18-explosion-1-67" x1="594.12" y1="1702.3" x2="419.64" y2="1759.38" gradientTransform="translate(-698.14 1959.8) rotate(11.05) scale(1 -1)" xlink:href="#linear-gradient-8-explosion-1-67"/><linearGradient id="linear-gradient-19-explosion-1-67" x1="517.59" y1="1480.47" x2="343.1" y2="1537.54" gradientTransform="translate(-892.38 1496.21) rotate(25.57) scale(1 -1)" xlink:href="#linear-gradient-8-explosion-1-67"/><linearGradient id="linear-gradient-20-explosion-1-67" x1="637.55" y1="868.83" x2="463.07" y2="925.91" gradientTransform="translate(-836.35 227.42) rotate(61.89) scale(1 -1)" xlink:href="#linear-gradient-8-explosion-1-67"/><linearGradient id="linear-gradient-21-explosion-1-67" x1="831.24" y1="671.55" x2="656.75" y2="728.62" gradientTransform="translate(-563.37 -295.54) rotate(78.28) scale(1 -1)" xlink:href="#linear-gradient-8-explosion-1-67"/><linearGradient id="linear-gradient-22-explosion-1-67" x1="1613.11" y1="373.89" x2="1438.63" y2="430.97" gradientTransform="translate(879.86 -1156.02) rotate(124.8) scale(1 -1)" xlink:href="#linear-gradient-8-explosion-1-67"/><linearGradient id="linear-gradient-23-explosion-1-67" x1="2011.05" y1="475.32" x2="1812.52" y2="540.26" gradientTransform="translate(1608.9 -1140.52) rotate(144.47) scale(1 -1)" xlink:href="#linear-gradient-8-explosion-1-67"/><linearGradient id="linear-gradient-24-explosion-1-67" x1="708.61" y1="1824.06" x2="735.12" y2="2017.27" xlink:href="#linear-gradient-explosion-1-67"/><linearGradient id="linear-gradient-25-explosion-1-67" x1="707.27" y1="1828.13" x2="727.72" y2="1977.2" xlink:href="#linear-gradient-explosion-1-67"/><linearGradient id="linear-gradient-26-explosion-1-67" x1="856.19" y1="2126.26" x2="892.19" y2="2090.96" xlink:href="#linear-gradient-explosion-1-67"/><linearGradient id="linear-gradient-27-explosion-1-67" x1="809.4" y1="2119.51" x2="840.78" y2="2095.97" xlink:href="#linear-gradient-explosion-1-67"/><linearGradient id="linear-gradient-28-explosion-1-67" x1="838.3" y1="2097.91" x2="838.38" y2="2072.68" xlink:href="#linear-gradient-explosion-1-67"/><linearGradient id="linear-gradient-29-explosion-1-67" x1="3869.28" y1="506.09" x2="3905.27" y2="470.78" gradientTransform="translate(4101.51 -837.45) rotate(169.59) scale(1 -1)" xlink:href="#linear-gradient-explosion-1-67"/><linearGradient id="linear-gradient-30-explosion-1-67" x1="3822.45" y1="499.28" x2="3853.83" y2="475.74" gradientTransform="translate(4101.51 -837.45) rotate(169.59) scale(1 -1)" xlink:href="#linear-gradient-explosion-1-67"/><linearGradient id="linear-gradient-31-explosion-1-67" x1="3155.18" y1="-119.47" x2="3173.96" y2="-137.88" gradientTransform="translate(3067.74 -1060.45) rotate(151.49) scale(1 -1)" xlink:href="#linear-gradient-explosion-1-67"/><linearGradient id="linear-gradient-32-explosion-1-67" x1="3130.76" y1="-123" x2="3147.14" y2="-135.27" gradientTransform="translate(3067.74 -1060.45) rotate(151.49) scale(1 -1)" xlink:href="#linear-gradient-explosion-1-67"/><linearGradient id="linear-gradient-33-explosion-1-67" x1="3145.84" y1="-134.23" x2="3145.88" y2="-147.39" gradientTransform="translate(3067.74 -1060.45) rotate(151.49) scale(1 -1)" xlink:href="#linear-gradient-explosion-1-67"/><linearGradient id="linear-gradient-34-explosion-1-67" x1="3851.47" y1="477.77" x2="3851.55" y2="452.54" gradientTransform="translate(4101.51 -837.45) rotate(169.59) scale(1 -1)" xlink:href="#linear-gradient-explosion-1-67"/><linearGradient id="linear-gradient-35-explosion-1-67" x1="3432.47" y1="1915.85" x2="3451.25" y2="1897.43" gradientTransform="translate(3860.53 2031.14) rotate(-124.6) scale(1 -1)" xlink:href="#linear-gradient-explosion-1-67"/><linearGradient id="linear-gradient-36-explosion-1-67" x1="1664.92" y1="2729.95" x2="1683.71" y2="2711.53" gradientTransform="translate(1463.46 3184.94) rotate(-55.03) scale(1 -1)" xlink:href="#linear-gradient-explosion-1-67"/><linearGradient id="linear-gradient-37-explosion-1-67" x1="1640.48" y1="2726.4" x2="1656.85" y2="2714.11" gradientTransform="translate(1463.46 3184.94) rotate(-55.03) scale(1 -1)" xlink:href="#linear-gradient-explosion-1-67"/><linearGradient id="linear-gradient-38-explosion-1-67" x1="1655.63" y1="2715.11" x2="1655.68" y2="2701.95" gradientTransform="translate(1463.46 3184.94) rotate(-55.03) scale(1 -1)" xlink:href="#linear-gradient-explosion-1-67"/><linearGradient id="linear-gradient-39-explosion-1-67" x1="3408.05" y1="1912.3" x2="3424.42" y2="1900.02" gradientTransform="translate(3860.53 2031.14) rotate(-124.6) scale(1 -1)" xlink:href="#linear-gradient-explosion-1-67"/><linearGradient id="linear-gradient-40-explosion-1-67" x1="3423.33" y1="1901.1" x2="3423.37" y2="1887.94" gradientTransform="translate(3860.53 2031.14) rotate(-124.6) scale(1 -1)" xlink:href="#linear-gradient-explosion-1-67"/><linearGradient id="linear-gradient-41-explosion-1-67" x1="891.83" y1="695.38" x2="913.23" y2="674.4" gradientTransform="translate(-823.66 -118.92) rotate(52.49) scale(1 -1)" xlink:href="#linear-gradient-explosion-1-67"/><linearGradient id="linear-gradient-42-explosion-1-67" x1="863.99" y1="691.36" x2="882.65" y2="677.38" gradientTransform="translate(-823.66 -118.92) rotate(52.49) scale(1 -1)" xlink:href="#linear-gradient-explosion-1-67"/><linearGradient id="linear-gradient-43-explosion-1-67" x1="881.21" y1="678.39" x2="881.26" y2="663.4" gradientTransform="translate(-823.66 -118.92) rotate(52.49) scale(1 -1)" xlink:href="#linear-gradient-explosion-1-67"/><linearGradient id="linear-gradient-44-explosion-1-67" x1="2252.82" y1="2929.9" x2="2271.59" y2="2911.48" gradientTransform="translate(2118.77 3308.06) rotate(-70.95) scale(1 -1)" xlink:href="#linear-gradient-explosion-1-67"/><linearGradient id="linear-gradient-45-explosion-1-67" x1="2228.39" y1="2926.36" x2="2244.75" y2="2914.07" gradientTransform="translate(2118.77 3308.06) rotate(-70.95) scale(1 -1)" xlink:href="#linear-gradient-explosion-1-67"/><linearGradient id="linear-gradient-46-explosion-1-67" x1="2243.5" y1="2915.07" x2="2243.54" y2="2901.91" gradientTransform="translate(2118.77 3308.06) rotate(-70.95) scale(1 -1)" xlink:href="#linear-gradient-explosion-1-67"/><linearGradient id="linear-gradient-47-explosion-1-67" x1="3457.94" y1="2113.32" x2="3476.72" y2="2094.91" gradientTransform="translate(3854.63 1727.8) rotate(-128.48) scale(1 -1)" xlink:href="#linear-gradient-explosion-1-67"/><linearGradient id="linear-gradient-48-explosion-1-67" x1="3431.75" y1="2110.08" x2="3448.13" y2="2097.8" gradientTransform="translate(3854.63 1727.8) rotate(-128.48) scale(1 -1)" xlink:href="#linear-gradient-explosion-1-67"/><linearGradient id="linear-gradient-49-explosion-1-67" x1="3452.87" y1="2089.99" x2="3452.91" y2="2076.83" gradientTransform="translate(3854.63 1727.8) rotate(-128.48) scale(1 -1)" xlink:href="#linear-gradient-explosion-1-67"/></defs><g id="background_explosion-1-67"><path class="cls-3_explosion-1-67 targetColor" d="M463.83,348.08c-.41,5.09-.98,10.17-1.72,15.24-3.23,22.13-10.56,44.86-27.13,59.88-11.24,10.2-25.85,15.99-40.62,19.47-23.68,5.56-48.27,5.67-72.61,5.74-61.18.2-122.7.35-183.39-8.46-45.82-6.65-97.94-17.47-118.24-65.8-2.62-6.52-4.3-13.39-4.97-20.39-.57-4.87-.82-9.79-.93-14.68-.73-28.54,2-57.06,8.13-84.94,2.81-12.82,6.42-25.64,13.06-36.95,10.55-17.96,27.86-30.69,44.26-43.56,23.94-18.81,46.84-38.9,68.6-60.2,25.54-25,51.39-52.81,85.97-61.82,25.01-6.51,51.43-2.21,76.92,2.11,30.12,5.11,60.72,10.38,88.21,23.72,27.49,13.34,51.93,36.13,60.01,65.56,3.61,13.19,3.82,27.05,4,40.72l1.48,110.25c.25,18.06.48,36.16-1.02,54.11Z" style="fill: rgb(196, 30, 255);"/><path class="cls-2_explosion-1-67 targetColor" d="M463.83,348.08c-.41,5.09-.98,10.17-1.72,15.24-3.23,22.13-10.56,44.86-27.13,59.88-11.24,10.2-25.85,15.99-40.62,19.47-23.68,5.56-48.27,5.67-72.61,5.74-61.18.2-122.7.35-183.39-8.46-45.82-6.65-97.94-17.47-118.24-65.8-2.62-6.52-4.3-13.39-4.97-20.39,70.05-10.3,146.78-5.06,216.58-6.5,47.8-.98,95.6-1.53,143.42-1.64,29.55-.06,59.25.11,88.68,2.46Z" style="fill: rgb(196, 30, 255);"/><path class="cls-1_explosion-1-67" d="M463.83,348.08c-.41,5.09-.98,10.17-1.72,15.24-3.23,22.13-10.56,44.86-27.13,59.88-11.24,10.2-25.85,15.99-40.62,19.47-23.68,5.56-48.27,5.67-72.61,5.74-61.18.2-122.7.35-183.39-8.46-45.82-6.65-97.94-17.47-118.24-65.8-2.62-6.52-4.3-13.39-4.97-20.39,70.05-10.3,146.78-5.06,216.58-6.5,47.8-.98,95.6-1.53,143.42-1.64,29.55-.06,59.25.11,88.68,2.46Z"/></g><g id="explosion_explosion-1-67"><path class="cls-46_explosion-1-67" d="M193.58,454.29c5.81,0,5.82-9.02,0-9.02s-5.83,9.02,0,9.02Z"/><polygon class="cls-53_explosion-1-67 targetColor" points="150.89 306.84 43.5 282.29 150.47 324.74 150.89 306.84" style="fill: rgb(196, 30, 255);"/><polygon class="cls-53_explosion-1-67 targetColor" points="164.8 282.11 52.38 228.73 160.96 299.6 164.8 282.11" style="fill: rgb(196, 30, 255);"/><polygon class="cls-53_explosion-1-67 targetColor" points="176.77 245.55 81.34 165.69 168.67 261.52 176.77 245.55" style="fill: rgb(196, 30, 255);"/><polygon class="cls-53_explosion-1-67 targetColor" points="226.88 235.27 197.47 114.35 210.89 243.31 226.88 235.27" style="fill: rgb(196, 30, 255);"/><polygon class="cls-53_explosion-1-67 targetColor" points="292.59 235.62 298.3 111.31 274.98 238.85 292.59 235.62" style="fill: rgb(196, 30, 255);"/><polygon class="cls-53_explosion-1-67 targetColor" points="320.02 260.87 414.52 179.89 305.61 250.26 320.02 260.87" style="fill: rgb(196, 30, 255);"/><polygon class="cls-53_explosion-1-67 targetColor" points="303.57 325.97 440.65 271.21 314.55 301.38 303.57 325.97" style="fill: rgb(196, 30, 255);"/><path class="cls-53_explosion-1-67 targetColor" d="M122.86,262.22c-1.78-4.65-1.4-9.84,1.04-14.18.76-1.33,1.75-2.66,1.73-4.19-.12-1-.36-1.98-.71-2.93-.77-3.27.74-6.66,3.69-8.28-5.23-2.83-8.2-8.57-7.48-14.47-3.16-.57-6.38-1.72-8.47-4.2s-2.57-6.56-.37-8.94c-3.69-2.1-7.55-4.36-9.73-8.06s-1.95-9.24,1.64-11.54c-3.09-1.08-5.25-3.88-5.52-7.15.02-.97-.06-1.93-.25-2.88-.3-.79-.74-1.53-1.3-2.17l-14.17-18.23c7.29,3.23,13.71,8.13,18.75,14.3,2.29,2.81,4.32,5.9,7.08,8.25,2.37,2.01,5.22,3.43,7.31,5.74s3.23,6.03,1.41,8.57c5.84,1.58,8.79,9.7,5.39,14.75,2.79-2.39,7.38-.76,9.44,2.32s2.25,7.02,2.38,10.74c.97-2.88,5.24-3.28,7.47-1.25s2.81,5.33,2.78,8.37c3.28-4.52,10.65-5.05,14.46-1.02,2.66-1.74,5.95-2.26,9.02-1.41,2.27.63,5.47,1.58,6.34-.65.19-.6.22-1.23.1-1.84-.43-3.28-1.75-6.43-2.26-9.72s0-7.07,2.46-9.22c.45-.39.98-.75,1.12-1.33.06-.64-.15-1.27-.57-1.75-1.3-1.86-2.85-3.57-3.78-5.65s-1.11-4.7.28-6.5c.53-.68,1.29-1.27,1.42-2.14s-.57-1.79-.98-2.66c-.97-2.4.19-5.13,2.59-6.1.19-.08.38-.14.57-.19-1.69-1.72-2.03-4.36-.82-6.44-3.42-22.45-6.48-49.51-9.9-71.96,10.33,33.69,20.92,67.94,40.36,97.15,4.29-2.69,10.78,2.07,9.63,7.06-2.08-5.34,3.93-11.34,9.48-10.38,5.56.96,9.32,6.84,9.63,12.57,8.88-9.54,27.09-6.24,32.2,5.82.89-9.83,16.64-13.37,21.47-4.78l6.01-38.72c.66-4.26,1.35-8.61,3.23-12.47,1.69-3.49,4.28-6.45,6.07-9.88,7.67-14.67.89-36.96,14.46-46.19-6.15,35.4-7.8,71.43-4.92,107.25,10.37,6.65,15.1,21.14,10.71,32.78,3.19-5.87,12.89-6.12,16.39-.43-.56-5.05,2.14-9.91,6.74-12.09,4.72-1.89,10.13-.47,13.3,3.51,1.16-2.9,2.46-5.97,4.99-7.74s6.71-1.46,7.98,1.39c1.4-3.83,5.63-5.79,9.46-4.4.01,0,.02,0,.03.01.52-4.79,3.82-8.71,6.97-12.29l51.43-58.67c-11.77,16.21-21.24,33.98-28.15,52.79-2.23,6.08-5.68,13.43-12.05,13.49-2.59,12.18-8.33,24.79-19.32,30.26,3.57,8.14-1.29,18.92-9.66,21.48,2.91,6.62-.37,15.33-6.87,18.28,15.17,14.75,18.45,39.34,11.42,59.47-7.02,20.13-22.87,36.04-40.72,47.16-37.7,23.5-85.96,27.65-127.52,12.45-35.3-12.91-66.74-41.11-76.42-78.04-5.52-21-.72-42.59-8.5-62.83Z" style="fill: rgb(196, 30, 255);"/><path class="cls-47_explosion-1-67" d="M122.86,262.22c-1.78-4.65-1.4-9.84,1.04-14.18.76-1.33,1.75-2.66,1.73-4.19-.12-1-.36-1.98-.71-2.93-.77-3.27.74-6.66,3.69-8.28-5.23-2.83-8.2-8.57-7.48-14.47-3.16-.57-6.38-1.72-8.47-4.2s-2.57-6.56-.37-8.94c-3.69-2.1-7.55-4.36-9.73-8.06s-1.95-9.24,1.64-11.54c-3.09-1.08-5.25-3.88-5.52-7.15.02-.97-.06-1.93-.25-2.88-.3-.79-.74-1.53-1.3-2.17l-14.17-18.23c7.29,3.23,13.71,8.13,18.75,14.3,2.29,2.81,4.32,5.9,7.08,8.25,2.37,2.01,5.22,3.43,7.31,5.74s3.23,6.03,1.41,8.57c5.84,1.58,8.79,9.7,5.39,14.75,2.79-2.39,7.38-.76,9.44,2.32s2.25,7.02,2.38,10.74c.97-2.88,5.24-3.28,7.47-1.25s2.81,5.33,2.78,8.37c3.28-4.52,10.65-5.05,14.46-1.02,2.66-1.74,5.95-2.26,9.02-1.41,2.27.63,5.47,1.58,6.34-.65.19-.6.22-1.23.1-1.84-.43-3.28-1.75-6.43-2.26-9.72s0-7.07,2.46-9.22c.45-.39.98-.75,1.12-1.33.06-.64-.15-1.27-.57-1.75-1.3-1.86-2.85-3.57-3.78-5.65s-1.11-4.7.28-6.5c.53-.68,1.29-1.27,1.42-2.14s-.57-1.79-.98-2.66c-.97-2.4.19-5.13,2.59-6.1.19-.08.38-.14.57-.19-1.69-1.72-2.03-4.36-.82-6.44-3.42-22.45-6.48-49.51-9.9-71.96,10.33,33.69,20.92,67.94,40.36,97.15,4.29-2.69,10.78,2.07,9.63,7.06-2.08-5.34,3.93-11.34,9.48-10.38,5.56.96,9.32,6.84,9.63,12.57,8.88-9.54,27.09-6.24,32.2,5.82.89-9.83,16.64-13.37,21.47-4.78l6.01-38.72c.66-4.26,1.35-8.61,3.23-12.47,1.69-3.49,4.28-6.45,6.07-9.88,7.67-14.67.89-36.96,14.46-46.19-6.15,35.4-7.8,71.43-4.92,107.25,10.37,6.65,15.1,21.14,10.71,32.78,3.19-5.87,12.89-6.12,16.39-.43-.56-5.05,2.14-9.91,6.74-12.09,4.72-1.89,10.13-.47,13.3,3.51,1.16-2.9,2.46-5.97,4.99-7.74s6.71-1.46,7.98,1.39c1.4-3.83,5.63-5.79,9.46-4.4.01,0,.02,0,.03.01.52-4.79,3.82-8.71,6.97-12.29l51.43-58.67c-11.77,16.21-21.24,33.98-28.15,52.79-2.23,6.08-5.68,13.43-12.05,13.49-2.59,12.18-8.33,24.79-19.32,30.26,3.57,8.14-1.29,18.92-9.66,21.48,2.91,6.62-.37,15.33-6.87,18.28,15.17,14.75,18.45,39.34,11.42,59.47-7.02,20.13-22.87,36.04-40.72,47.16-37.7,23.5-85.96,27.65-127.52,12.45-35.3-12.91-66.74-41.11-76.42-78.04-5.52-21-.72-42.59-8.5-62.83Z"/><path class="cls-53_explosion-1-67 targetColor" d="M117.94,290.74c-8.92-11.56-3.84-31.22,9.48-36.77,1.64-.66,3.33-1.18,4.61-2.37,1.43-1.31,2.1-3.28,2.96-4.99,3.16-6.29,9.29-10.56,16.28-11.36,2.18-.21,4.5-.11,6.41-1.2,1.75-1,2.84-2.84,3.93-4.56,14.96-23.64,44.71-36.5,71.78-31.03,9.39-10.95,26.96-13.35,38.85-5.31,7.91-7.92,19.82-10.28,30.16-5.97,9.99,4.38,16.83,15.33,16.5,26.41,10.03-.82,19.38,9.56,17.73,19.67,6.62-2.83,14.23-2.07,20.17,2.01,5.91,4.26,9.31,11.18,9.08,18.46,5.1-2.2,10.7,2.02,13.81,6.69,6.91,10.6,8.13,23.93,3.28,35.62-1.64,3.84-3.96,7.46-4.66,11.59-.53,3.17-.07,6.41.2,9.61.95,10.87-.16,21.81-3.28,32.27-2.75,9.17-7.19,18.03-14.16,24.49-9.36,8.63-22.2,12-34.61,14.36-39.62,7.54-81.19,7.57-119.58-4.92-20.54-6.73-39.8-16.86-56.98-29.97-8.2-6.26-15.39-13.78-23.85-19.67-2.57-1.78-5.56-3.37-6.74-6.49-.53-1.69-.63-3.5-.28-5.24.48-3.56,1.03-3.28-.34-6.15-4.02-8.36-8.38-16.67-.75-25.15Z" style="fill: rgb(196, 30, 255);"/><path class="cls-45_explosion-1-67" d="M117.94,290.74c-8.92-11.56-3.84-31.22,9.48-36.77,1.64-.66,3.33-1.18,4.61-2.37,1.43-1.31,2.1-3.28,2.96-4.99,3.16-6.29,9.29-10.56,16.28-11.36,2.18-.21,4.5-.11,6.41-1.2,1.75-1,2.84-2.84,3.93-4.56,14.96-23.64,44.71-36.5,71.78-31.03,9.39-10.95,26.96-13.35,38.85-5.31,7.91-7.92,19.82-10.28,30.16-5.97,9.99,4.38,16.83,15.33,16.5,26.41,10.03-.82,19.38,9.56,17.73,19.67,6.62-2.83,14.23-2.07,20.17,2.01,5.91,4.26,9.31,11.18,9.08,18.46,5.1-2.2,10.7,2.02,13.81,6.69,6.91,10.6,8.13,23.93,3.28,35.62-1.64,3.84-3.96,7.46-4.66,11.59-.53,3.17-.07,6.41.2,9.61.95,10.87-.16,21.81-3.28,32.27-2.75,9.17-7.19,18.03-14.16,24.49-9.36,8.63-22.2,12-34.61,14.36-39.62,7.54-81.19,7.57-119.58-4.92-20.54-6.73-39.8-16.86-56.98-29.97-8.2-6.26-15.39-13.78-23.85-19.67-2.57-1.78-5.56-3.37-6.74-6.49-.53-1.69-.63-3.5-.28-5.24.48-3.56,1.03-3.28-.34-6.15-4.02-8.36-8.38-16.67-.75-25.15Z"/><path class="cls-51_explosion-1-67" d="M121.93,303.59c-8.53-11.02-3.67-29.85,9.07-35.16,1.53-.64,3.18-1.13,4.41-2.26,1.36-1.25,2-3.11,2.83-4.78,3.03-6.01,8.88-10.1,15.57-10.86,2.09-.2,4.3-.1,6.13-1.15,1.64-.96,2.72-2.72,3.76-4.37,14.3-22.6,42.74-34.9,68.63-29.67,8.97-10.47,25.77-12.76,37.13-5.07,7.55-7.59,18.95-9.85,28.83-5.74,9.56,4.19,16.1,14.65,15.78,25.25,9.59-.77,18.53,9.15,16.96,18.85,6.33-2.7,13.61-1.98,19.28,1.92,5.64,4.08,8.9,10.69,8.69,17.64,4.87-2.11,10.22,1.93,13.19,6.39,6.6,10.16,7.76,22.92,3.08,34.09-1.57,3.67-3.78,7.14-4.44,11.08-.51,3.03-.07,6.13.2,9.2.91,10.37-.16,20.83-3.13,30.81-2.63,8.77-6.87,17.26-13.54,23.41-8.95,8.25-21.23,11.47-33.09,13.74-37.88,7.2-77.63,7.24-114.33-4.73-19.62-6.44-38.02-16.12-54.44-28.64-7.85-5.98-14.75-13.18-22.81-18.8-2.46-1.7-5.32-3.22-6.45-6.2-.5-1.62-.59-3.34-.26-5.01.46-3.4.99-3.14-.33-5.88-3.85-8-7.99-15.95-.72-24.05Z"/><path class="cls-53_explosion-1-67 targetColor" d="M217.47,204.04c-6.27-8.64-18.46-12.2-28.27-8.26-9.81,3.94-16.35,15.02-15.16,25.69-9.9.18-18.68,9.74-18.19,19.82-11.47,2.7-22.65,9.4-28.09,20.08-5.43,10.68-3.52,25.52,6.11,32.48-10.17-3.84-20.63-6.86-31.28-9.02,8.57,5.49,16.55,11.83,23.83,18.93-3.74.21-7.48-.09-11.14-.9l10.38,9.02-13.37-.74,11.28,8.44-29.27-1.88c8.24,4.37,16.96,7.78,25.98,10.16-5.55,6.21-7.16,15-4.16,22.78,3.15,7.63,10.39,12.78,18.64,13.25-9.14,9.93-7.53,26.91,1.07,37.33,8.61,10.42,22.37,15.09,35.7,16.01,13.33.92,26.64-1.42,39.95-2.6,20.49-1.8,41.07-.82,61.61-.48,16.61.3,34.28-.08,48.23-9.28,1.42-1.09,3-1.96,4.67-2.6,3.03-.91,6.24.14,9.38.49,7.67.75,15.16-2.6,19.71-8.82,4.47-6.38,5.36-14.61,2.36-21.81,4.54-1.79,6.91-7.83,4.83-12.29,6.88-2.18,13.06-7.24,15.74-14.07s1.31-15.36-4-20.33c5.32-2.2,9.05-7.08,9.78-12.78.62-5.74-1.85-11.37-6.49-14.8,4.95-5.12,6.42-12.68,3.73-19.28-2.86-6.45-9.34-10.52-16.39-10.3.79-6.65-2.57-13.1-8.47-16.27-5.97-2.87-13.11-1.68-17.83,2.97-5.32-9.94-21.5-10.81-27.81-1.49-2.41-2.28-6.02-2.73-8.91-1.11,2.61-8.02-3.57-17.7-11.83-18.52,5.29-3.06,4.87-11.72.48-16.01s-11.01-5.12-17.09-4.92c.1-5.02-3.24-9.46-8.09-10.74-4.9-.97-9.82,1.6-11.83,6.17-9.02-9.27-24.82-10.59-35.24-2.93-.75-2.42-.88-4.99-.36-7.47" style="fill: rgb(196, 30, 255);"/><path class="cls-52_explosion-1-67" d="M217.47,204.04c-6.27-8.64-18.46-12.2-28.27-8.26-9.81,3.94-16.35,15.02-15.16,25.69-9.9.18-18.68,9.74-18.19,19.82-11.47,2.7-22.65,9.4-28.09,20.08-5.43,10.68-3.52,25.52,6.11,32.48-10.17-3.84-20.63-6.86-31.28-9.02,8.57,5.49,16.55,11.83,23.83,18.93-3.74.21-7.48-.09-11.14-.9l10.38,9.02-13.37-.74,11.28,8.44-29.27-1.88c8.24,4.37,16.96,7.78,25.98,10.16-5.55,6.21-7.16,15-4.16,22.78,3.15,7.63,10.39,12.78,18.64,13.25-9.14,9.93-7.53,26.91,1.07,37.33,8.61,10.42,22.37,15.09,35.7,16.01,13.33.92,26.64-1.42,39.95-2.6,20.49-1.8,41.07-.82,61.61-.48,16.61.3,34.28-.08,48.23-9.28,1.42-1.09,3-1.96,4.67-2.6,3.03-.91,6.24.14,9.38.49,7.67.75,15.16-2.6,19.71-8.82,4.47-6.38,5.36-14.61,2.36-21.81,4.54-1.79,6.91-7.83,4.83-12.29,6.88-2.18,13.06-7.24,15.74-14.07s1.31-15.36-4-20.33c5.32-2.2,9.05-7.08,9.78-12.78.62-5.74-1.85-11.37-6.49-14.8,4.95-5.12,6.42-12.68,3.73-19.28-2.86-6.45-9.34-10.52-16.39-10.3.79-6.65-2.57-13.1-8.47-16.27-5.97-2.87-13.11-1.68-17.83,2.97-5.32-9.94-21.5-10.81-27.81-1.49-2.41-2.28-6.02-2.73-8.91-1.11,2.61-8.02-3.57-17.7-11.83-18.52,5.29-3.06,4.87-11.72.48-16.01s-11.01-5.12-17.09-4.92c.1-5.02-3.24-9.46-8.09-10.74-4.9-.97-9.82,1.6-11.83,6.17-9.02-9.27-24.82-10.59-35.24-2.93-.75-2.42-.88-4.99-.36-7.47"/><path class="cls-50_explosion-1-67" d="M218.84,218.85c-5.89-8.11-17.36-11.47-26.57-7.76-9.21,3.71-15.33,14.11-14.24,24.14-9.3.16-17.55,9.15-17.1,18.62-10.81,2.54-21.31,8.83-26.39,18.85s-3.28,23.99,5.74,30.51c-9.56-3.61-19.39-6.44-29.4-8.47,8.05,5.16,15.55,11.11,22.4,17.78-3.51.21-7.03-.07-10.47-.82l9.74,8.44-12.56-.72,10.6,7.93-27.5-1.72c7.75,4.1,15.94,7.31,24.41,9.55-5.22,5.83-6.73,14.1-3.91,21.4,2.96,7.17,9.77,12.01,17.51,12.46-8.59,9.33-7.08,25.28,1.01,35.07,8.09,9.79,21.02,14.18,33.54,15.04,12.52.86,25.03-1.34,37.54-2.46,19.23-1.7,38.59-.82,57.89-.45,15.57.28,32.21-.07,45.31-8.72,1.34-1.03,2.82-1.86,4.39-2.46,2.84-.82,5.87.13,8.82.47,7.2.7,14.24-2.45,18.51-8.29,4.2-6,5.04-13.73,2.22-20.49,4.26-1.69,6.49-7.38,4.53-11.58,6.47-2.05,12.29-6.79,14.75-13.21,2.46-6.42,1.24-14.44-3.75-19.11,4.99-2.07,8.5-6.65,9.18-12.01.6-5.4-1.72-10.71-6.09-13.93,4.65-4.81,6.01-11.91,3.47-18.1-2.7-6.03-8.78-9.83-15.38-9.62.74-6.24-2.41-12.31-7.95-15.28-5.61-2.7-12.32-1.58-16.75,2.79-5-9.33-20.19-10.15-26.13-1.4-2.26-2.14-5.65-2.56-8.37-1.03,2.46-7.54-3.35-16.64-11.11-17.41,4.97-2.88,4.57-11.01.44-15.04-4.13-4.02-10.34-4.82-16.05-4.6.1-4.72-3.04-8.89-7.6-10.1-4.61-.91-9.22,1.5-11.11,5.8-8.48-8.71-23.32-9.95-33.08-2.76-.71-2.27-.83-4.69-.34-7.02"/><polygon class="cls-48_explosion-1-67" points="183.32 327.94 112.75 311.8 183.04 339.7 183.32 327.94"/><polygon class="cls-49_explosion-1-67" points="192.46 311.68 118.59 276.61 189.93 323.17 192.46 311.68"/><polygon class="cls-20_explosion-1-67" points="200.33 287.66 137.61 235.19 195 298.15 200.33 287.66"/><polygon class="cls-17_explosion-1-67" points="233.26 280.9 213.92 201.44 222.74 286.19 233.26 280.9"/><polygon class="cls-18_explosion-1-67" points="276.43 281.14 280.18 199.45 264.86 283.25 276.43 281.14"/><polygon class="cls-19_explosion-1-67" points="294.45 297.73 356.55 244.51 284.99 290.75 294.45 297.73"/><polygon class="cls-28_explosion-1-67" points="283.65 340.5 373.72 304.53 290.85 324.35 283.65 340.5"/><path class="cls-53_explosion-1-67 targetColor" d="M129.52,381.36c-1.92-12.65,3.7-26.23,13.93-33.6-3.18-7.29-2.04-15.74,2.97-21.92.97-1.16,2.12-2.34,2.24-3.85-.04-1.15-.34-2.27-.88-3.28-2.48-6.34-1.45-13.51,2.73-18.89,4.25-5.22,10.99-7.71,17.61-6.52-3.69-3.28-3.74-9.92-.1-13.28,3.64-3.35,10.1-2.65,12.95,1.42,2.58-4.19,7.59-6.22,12.37-5.02,4.73,1.47,8,5.79,8.13,10.74,1.14-4.79,5.95-7.75,10.74-6.61,2.63.63,4.84,2.42,6,4.86,4.4-10.64,16.59-15.69,27.22-11.29,5.26,2.17,9.4,6.4,11.46,11.7,2.35-3.88,6.97-5.75,11.36-4.61.06-5.43,6.41-9.67,11.32-7.58-.74-3.08,1.25-6.34,3.97-7.87,2.73-1.53,6.01-1.64,9.11-1.34,5.44.52,10.93,2.35,14.93,6.15,4,3.8,6.21,9.83,4.64,15.15,6.97-5.65,18.3-1.52,22.59,6.43,4.29,7.95,2.97,17.93-.45,26.31,6.03,5.26,8.96,13.24,7.76,21.15-1.33,7.86-6.61,14.48-13.98,17.51,3.58,3.07,5.31,7.78,4.57,12.43-.82,4.63-4,8.49-8.39,10.16,2.13,3.42,2.27,7.72.36,11.28-1.96,3.48-5.68,5.6-9.67,5.51,2.66,1.31,3.69,4.87,2.93,7.79s-2.84,5.27-5.09,7.24c-10.02,8.79-23.55,12.06-36.66,13.87-35.35,4.92-71.34,1.28-106.45-5.12-6.47-1.18-9.07-3.47-13.42-8.2-2.88-3.15-5.85-3.71-9.47-5.63-9.11-4.84-15.79-14.84-17.33-25.11Z" style="fill: rgb(196, 30, 255);"/><path class="cls-24_explosion-1-67" d="M129.52,381.36c-1.92-12.65,3.7-26.23,13.93-33.6-3.18-7.29-2.04-15.74,2.97-21.92.97-1.16,2.12-2.34,2.24-3.85-.04-1.15-.34-2.27-.88-3.28-2.48-6.34-1.45-13.51,2.73-18.89,4.25-5.22,10.99-7.71,17.61-6.52-3.69-3.28-3.74-9.92-.1-13.28,3.64-3.35,10.1-2.65,12.95,1.42,2.58-4.19,7.59-6.22,12.37-5.02,4.73,1.47,8,5.79,8.13,10.74,1.14-4.79,5.95-7.75,10.74-6.61,2.63.63,4.84,2.42,6,4.86,4.4-10.64,16.59-15.69,27.22-11.29,5.26,2.17,9.4,6.4,11.46,11.7,2.35-3.88,6.97-5.75,11.36-4.61.06-5.43,6.41-9.67,11.32-7.58-.74-3.08,1.25-6.34,3.97-7.87,2.73-1.53,6.01-1.64,9.11-1.34,5.44.52,10.93,2.35,14.93,6.15,4,3.8,6.21,9.83,4.64,15.15,6.97-5.65,18.3-1.52,22.59,6.43,4.29,7.95,2.97,17.93-.45,26.31,6.03,5.26,8.96,13.24,7.76,21.15-1.33,7.86-6.61,14.48-13.98,17.51,3.58,3.07,5.31,7.78,4.57,12.43-.82,4.63-4,8.49-8.39,10.16,2.13,3.42,2.27,7.72.36,11.28-1.96,3.48-5.68,5.6-9.67,5.51,2.66,1.31,3.69,4.87,2.93,7.79s-2.84,5.27-5.09,7.24c-10.02,8.79-23.55,12.06-36.66,13.87-35.35,4.92-71.34,1.28-106.45-5.12-6.47-1.18-9.07-3.47-13.42-8.2-2.88-3.15-5.85-3.71-9.47-5.63-9.11-4.84-15.79-14.84-17.33-25.11Z"/><path class="cls-22_explosion-1-67" d="M150.42,388.87c-1.49-10.57,2.89-21.12,11.42-27.54-2.6-5.98-1.65-12.91,2.46-17.97.82-.94,1.75-1.91,1.84-3.15-.03-.93-.28-1.85-.72-2.67-2.03-5.19-1.18-11.08,2.24-15.48,3.48-4.28,9.01-6.32,14.43-5.34-3.03-2.98-3.07-7.85-.08-10.88,0,0,0,0,0,0,3.1-2.64,7.76-2.26,10.4.84.09.1.17.21.26.32,2.12-3.43,6.22-5.09,10.13-4.1,3.88,1.2,6.56,4.74,6.66,8.8.94-3.93,4.88-6.35,8.81-5.41,2.16.52,3.96,1.98,4.91,3.99,3.6-8.72,13.58-12.86,22.29-9.27,4.31,1.78,7.71,5.25,9.4,9.6,1.93-3.17,5.71-4.71,9.31-3.77.05-4.44,5.25-7.93,9.27-6.21-.6-2.52,1.03-5.2,3.28-6.44s4.92-1.35,7.47-1.11c4.46.43,8.96,1.93,12.23,5.04,3.27,3.11,5.1,8.04,3.8,12.42,5.74-4.63,15-1.25,18.51,5.27,3.52,6.52,2.46,14.69-.37,21.56,4.94,4.31,7.34,10.84,6.36,17.33-1.09,6.45-5.43,11.88-11.47,14.36,2.94,2.51,4.36,6.37,3.75,10.19-.67,3.79-3.28,6.95-6.88,8.33,1.75,2.81,1.86,6.33.3,9.24-1.61,2.85-4.65,4.58-7.93,4.51,2.19,1.07,3.02,3.99,2.41,6.38s-2.34,4.32-4.17,5.93c-8.2,7.2-19.31,9.88-30.04,11.37-28.96,4.01-58.46,1.05-87.23-4.2-5.3-.97-7.43-2.84-10.99-6.72-2.36-2.57-4.79-3.04-7.76-4.61-7.53-3.99-13-12.18-14.28-20.6Z"/><polygon class="cls-21_explosion-1-67" points="178.83 399.74 108.27 383.61 178.56 411.5 178.83 399.74"/><polygon class="cls-27_explosion-1-67" points="187.97 383.49 114.1 348.42 185.44 394.98 187.97 383.49"/><polygon class="cls-23_explosion-1-67" points="195.84 359.48 133.12 307 190.51 369.97 195.84 359.48"/><polygon class="cls-30_explosion-1-67" points="228.77 352.71 209.43 273.26 218.25 358 228.77 352.71"/><polygon class="cls-26_explosion-1-67" points="271.94 352.95 275.69 271.26 260.37 355.07 271.94 352.95"/><polygon class="cls-29_explosion-1-67" points="289.97 369.54 352.06 316.33 280.49 362.56 289.97 369.54"/><polygon class="cls-25_explosion-1-67" points="279.16 412.32 369.23 376.34 286.36 396.16 279.16 412.32"/><path class="cls-53_explosion-1-67 targetColor" d="M175.55,404.01c-1-7.1,1.99-14.18,7.79-18.42-1.79-3.99-1.15-8.65,1.64-12.01,1.28-.82,1.64-2.53.82-3.81-.02-.03-.04-.06-.06-.09-2.16-5.2.3-11.18,5.51-13.34,1.85-.77,3.88-.98,5.85-.6-2.03-1.77-2.24-4.85-.48-6.88,1.77-2.03,4.85-2.24,6.88-.48.29.25.55.54.78.86,1.74-2.93,5.53-3.89,8.46-2.15,1.86,1.11,3,3.11,3.01,5.28.7-2.68,3.44-4.29,6.12-3.59,1.41.37,2.59,1.33,3.23,2.63,2.58-5.94,9.49-8.66,15.43-6.08,2.8,1.22,5.01,3.48,6.17,6.3,1.34-2.13,3.91-3.15,6.35-2.52,0-2.97,3.57-5.3,6.32-4.16-.28-1.77.62-3.51,2.22-4.31,1.58-.74,3.35-1,5.08-.74,3.08.18,6.01,1.37,8.34,3.38,2.24,2.08,3.47,5.38,2.59,8.3,3.89-3.1,10.23-.82,12.62,3.52s1.64,9.83-.25,14.42c5.29,4.39,6.02,12.24,1.63,17.53-1.36,1.64-3.11,2.9-5.1,3.66,3.09,2.52,3.55,7.06,1.04,10.15-.83,1.02-1.93,1.79-3.17,2.24,1.79,2.75,1.02,6.44-1.73,8.23-1.03.67-2.24,1.01-3.47.96,1.49.72,2.06,2.67,1.64,4.27-.53,1.58-1.53,2.96-2.85,3.97-5.6,4.82-13.15,6.61-20.49,7.6-19.74,2.69-39.85.7-59.47-2.8-3.61-.65-5.06-1.9-7.49-4.49-1.64-1.73-3.28-2.04-5.29-3.09-5.16-2.86-8.73-7.93-9.67-13.75Z" style="fill: rgb(196, 30, 255);"/><path class="cls-32_explosion-1-67" d="M175.55,404.01c-1-7.1,1.99-14.18,7.79-18.42-1.79-3.99-1.15-8.65,1.64-12.01,1.28-.82,1.64-2.53.82-3.81-.02-.03-.04-.06-.06-.09-2.16-5.2.3-11.18,5.51-13.34,1.85-.77,3.88-.98,5.85-.6-2.03-1.77-2.24-4.85-.48-6.88,1.77-2.03,4.85-2.24,6.88-.48.29.25.55.54.78.86,1.74-2.93,5.53-3.89,8.46-2.15,1.86,1.11,3,3.11,3.01,5.28.7-2.68,3.44-4.29,6.12-3.59,1.41.37,2.59,1.33,3.23,2.63,2.58-5.94,9.49-8.66,15.43-6.08,2.8,1.22,5.01,3.48,6.17,6.3,1.34-2.13,3.91-3.15,6.35-2.52,0-2.97,3.57-5.3,6.32-4.16-.28-1.77.62-3.51,2.22-4.31,1.58-.74,3.35-1,5.08-.74,3.08.18,6.01,1.37,8.34,3.38,2.24,2.08,3.47,5.38,2.59,8.3,3.89-3.1,10.23-.82,12.62,3.52s1.64,9.83-.25,14.42c5.29,4.39,6.02,12.24,1.63,17.53-1.36,1.64-3.11,2.9-5.1,3.66,3.09,2.52,3.55,7.06,1.04,10.15-.83,1.02-1.93,1.79-3.17,2.24,1.79,2.75,1.02,6.44-1.73,8.23-1.03.67-2.24,1.01-3.47.96,1.49.72,2.06,2.67,1.64,4.27-.53,1.58-1.53,2.96-2.85,3.97-5.6,4.82-13.15,6.61-20.49,7.6-19.74,2.69-39.85.7-59.47-2.8-3.61-.65-5.06-1.9-7.49-4.49-1.64-1.73-3.28-2.04-5.29-3.09-5.16-2.86-8.73-7.93-9.67-13.75Z"/><path class="cls-16_explosion-1-67" d="M186.04,409.38c-.77-5.48,1.54-10.95,6.02-14.21-1.38-3.08-.88-6.68,1.28-9.27.48-.44.81-1.01.96-1.64-.02-.48-.15-.95-.38-1.38-1.66-4.02.25-8.63,4.27-10.29,1.42-.59,2.99-.75,4.5-.46-1.57-1.36-1.75-3.73-.39-5.31s3.73-1.75,5.31-.39c.23.2.44.43.62.68,1.36-2.25,4.29-2.97,6.54-1.61,1.41.85,2.28,2.38,2.3,4.03.54-2.07,2.65-3.31,4.72-2.77,1.09.28,2,1.02,2.49,2.03,1.94-4.59,7.23-6.73,11.81-4.79,2.22.94,3.97,2.73,4.86,4.97,1.03-1.66,3.03-2.45,4.92-1.94.17-2.03,1.95-3.54,3.98-3.37.29.02.59.08.87.18-.21-1.36.48-2.71,1.71-3.33,1.22-.58,2.59-.77,3.93-.57,2.37.14,4.63,1.06,6.43,2.61,1.8,1.6,2.57,4.06,2,6.4,3-2.38,7.88-.64,9.74,2.72s1.28,7.58-.2,11.13c4.08,3.38,4.64,9.43,1.26,13.51-1.05,1.26-2.4,2.24-3.94,2.83,2.38,1.94,2.74,5.44.8,7.83-.64.79-1.49,1.39-2.44,1.73,1.39,2.12.79,4.97-1.33,6.35-.79.52-1.73.78-2.68.74,1.12.68,1.63,2.03,1.26,3.28-.4,1.22-1.17,2.28-2.2,3.06-4.32,3.72-10.15,5.1-15.8,5.87-15.23,2.07-30.74.54-45.89-2.16-2.79-.5-3.91-1.47-5.79-3.47-1.25-1.34-2.52-1.57-4.1-2.38-3.97-2.21-6.71-6.11-7.43-10.6Z"/><path class="cls-44_explosion-1-67 targetColor" d="M108.28,375.94c-6.93,2.8-10.42,13.6-4.21,17.76-22.89.18-45.4,5.88-65.62,16.6-2.73,1.45-5.65,3.28-6.38,6.31-1.53,6.38,7.29,9.73,13.83,10.21,121.81,8.88,244.28,11.84,366.13,3.15,9.21-.66,21.48-4.99,19.96-14.1l-18.85-2.94c11.47-1.98,23.44-8.57,26.59-19.82s-8.2-25.18-19.02-20.78l8.79-4.05c-16.13-5.91-33.35-8.24-50.48-6.83-4.51.38-10.53,3.58-8.51,7.63,15.81,4.25,31.09,10.3,45.53,18.03-12.8,13.08-28.85,22.53-46.5,27.37-20.41,5.56-41.93,4.69-63.06,3.78-47.29-2.04-94.58-4.1-141.73-8.2-13.43-1.18-27.17-2.62-39.34-8.52-3.99-1.93-8.33-5.78-6.88-9.97,1.1-3.17,4.84-4.34,7.84-5.87,14.57-7.43-11.8-12.3-18.1-9.79Z" style="fill: rgb(196, 30, 255);"/><path class="cls-44_explosion-1-67 targetColor" d="M60.67,328.86l-11.57,9.47c-2.13,1.59-4.04,3.45-5.68,5.54-5.23,7.29-2.02,19.05,6.19,22.68,5.27,2.32,11.34,1.48,17.01,2.51,5.23.94,10.01,3.46,14.97,5.36,11.9,4.56,24.82,5.59,37.53,6.38,45.44,2.83,90.97,3.33,136.54,3.68,32.87.25,65.79.43,98.54-2.29,32.52-2.7,67.56-9.73,88.98-34.34,2.59-2.97,5.01-6.34,5.61-10.24.94-5.99-2.73-11.95-7.66-15.49-4.93-3.54-10.95-5.13-16.83-6.65,3.02-1.81-.07-6.33-3.1-8.09-5.35-3.11-11.07-5.88-17.21-6.56-6.14-.68-12.84,1.06-16.92,5.74,4.83,3.65,10.39,6.21,16.31,7.49-3.28.82-3.99,5.63-2,8.35s5.49,3.81,8.79,4.56,6.8,1.42,9.29,3.7c-10.91,17.84-31.45,27.97-52.08,31.39-20.63,3.42-41.75,1.02-62.58-.92-65.97-6.11-132.26-7.6-198.49-9.09-2.31-.05-4.86,0-6.61,1.5s-1.59,5.08.67,5.56c-7.21.11-14.35-1.48-20.84-4.64-3.46-1.68-6.91-4.06-8.2-7.67s.61-8.53,4.42-9.02l-3.28-6.17c11.38-5.24,22.5-11,33.37-17.27-14.23-11.68-34.08,5.45-45.18,14.52Z" style="fill: rgb(196, 30, 255);"/><path class="cls-53_explosion-1-67 targetColor" d="M396.22,139.43c-3.2,4.92-8.46,8.06-13.78,10.51-5.32,2.45-10.92,4.4-15.75,7.7-.2.13-.4.29-.43.52,0,.24.1.46.28.61l3.91,4.55c.32.51.94.75,1.52.59,6.97-.75,13.41-4.29,20.37-5.15,1.87-.1,3.72-.41,5.52-.93.29-.08.55-.24.76-.45.2-.27.33-.58.37-.91.62-2.88,1.2-6.4.78-9.34-.18-1.25-1.1-2.34-1.68-3.45-.28-.55-2.19-3.76-1.87-4.25Z" style="fill: rgb(196, 30, 255);"/><path class="cls-33_explosion-1-67" d="M396.22,139.43c-3.2,4.92-8.46,8.06-13.78,10.51-5.32,2.45-10.92,4.4-15.75,7.7-.2.13-.4.29-.43.52,0,.24.1.46.28.61l3.91,4.55c.32.51.94.75,1.52.59,6.97-.75,13.41-4.29,20.37-5.15,1.87-.1,3.72-.41,5.52-.93.29-.08.55-.24.76-.45.2-.27.33-.58.37-.91.62-2.88,1.2-6.4.78-9.34-.18-1.25-1.1-2.34-1.68-3.45-.28-.55-2.19-3.76-1.87-4.25Z"/><polygon class="cls-53_explosion-1-67 targetColor" points="394.58 153.49 366.59 158.4 373.05 141.18 396.58 139.48 394.58 153.49" style="fill: rgb(196, 30, 255);"/><path class="cls-53_explosion-1-67 targetColor" d="M332.46,149.14c-.49.04-.96.21-1.36.49-.56.55-.9,1.29-.93,2.08-.78,5.2.29,10.51,3.02,15.01.11.21.27.39.47.52.26.11.55.14.82.07,1.64-.27,2.96-1.34,4.49-1.87,1.73-.6,3.61-.5,5.43-.61s3.77-.52,5.02-1.86c1.05-1.29,1.58-2.94,1.46-4.61.03-2.2-.72-4.35-2.13-6.04-3.37-3.75-11.59-3.94-16.28-3.19Z" style="fill: rgb(196, 30, 255);"/><path class="cls-31_explosion-1-67" d="M332.46,149.14c-.49.04-.96.21-1.36.49-.56.55-.9,1.29-.93,2.08-.78,5.2.29,10.51,3.02,15.01.11.21.27.39.47.52.26.11.55.14.82.07,1.64-.27,2.96-1.34,4.49-1.87,1.73-.6,3.61-.5,5.43-.61s3.77-.52,5.02-1.86c1.05-1.29,1.58-2.94,1.46-4.61.03-2.2-.72-4.35-2.13-6.04-3.37-3.75-11.59-3.94-16.28-3.19Z"/><path class="cls-53_explosion-1-67 targetColor" d="M343.26,142.1c-.27-.36-.78-.44-1.15-.17-.02.02-.05.04-.07.05-3.18,1.78-6.29,3.67-9.33,5.68-.4.21-.72.53-.94.93-.13.36-.17.76-.11,1.14.34,4.49,1.19,8.92,2.55,13.21,4.25-2.29,9.36-2.16,13.99-3.5,8.52-2.47-1.94-14.43-4.95-17.34Z" style="fill: rgb(196, 30, 255);"/><path class="cls-53_explosion-1-67 targetColor" d="M357.25,172.27c.14-.12.32-.17.51-.16.16.05.3.16.39.3,1.9,2.35,3.85,2.52,5.74,4.92.2.96.28,1.94.23,2.93-.08.17-.21.31-.37.39-1.36.8-2.81,1.42-4.33,1.84l-4.57,1.48-3.09-3.33c-.59-.64-1.64-1.72-1.58-2.68.06-.82-.52-2.85,0-3.28,1.87-1.51,5.08-1.24,7.08-2.43Z" style="fill: rgb(196, 30, 255);"/><path class="cls-15_explosion-1-67" d="M357.25,172.27c.14-.12.32-.17.51-.16.16.05.3.16.39.3,1.9,2.35,3.85,2.52,5.74,4.92.2.96.28,1.94.23,2.93-.08.17-.21.31-.37.39-1.36.8-2.81,1.42-4.33,1.84l-4.57,1.48-3.09-3.33c-.59-.64-1.64-1.72-1.58-2.68.06-.82-.52-2.85,0-3.28,1.87-1.51,5.08-1.24,7.08-2.43Z"/><path class="cls-53_explosion-1-67 targetColor" d="M357.01,169.36c.15-.11.33-.16.51-.16.16.05.3.16.39.3l5.74,7.06c.21.18.31.46.27.74-.07.17-.2.31-.37.4-1.36.8-2.81,1.41-4.33,1.84l-4.57,1.48-3.13-3.34c-.59-.64-1.64-1.71-1.58-2.67.06-.82.91-1.12,1.47-1.57,1.79-1.48,3.66-2.84,5.61-4.09Z" style="fill: rgb(196, 30, 255);"/><path class="cls-53_explosion-1-67 targetColor" d="M366.99,366.87c2.25-5.41,6.87-9.46,11.65-12.83,4.79-3.37,9.95-6.29,14.1-10.42.19-.14.31-.35.33-.58-.05-.23-.19-.43-.39-.56l-4.67-3.76c-.19-.18-.42-.32-.67-.4-.31-.05-.63-.02-.93.1-6.72,1.98-12.41,6.63-19.1,8.74-1.82.43-3.59,1.07-5.27,1.91-.27.13-.49.33-.66.57-.15.3-.22.64-.2.98-.09,2.93,0,6.51.92,9.32.41,1.2,1.5,2.11,2.28,3.09.37.43,2.84,3.27,2.61,3.85Z" style="fill: rgb(196, 30, 255);"/><path class="cls-6_explosion-1-67" d="M366.99,366.87c2.25-5.41,6.87-9.46,11.65-12.83,4.79-3.37,9.95-6.29,14.1-10.42.19-.14.31-.35.33-.58-.05-.23-.19-.43-.39-.56l-4.67-3.76c-.19-.18-.42-.32-.67-.4-.31-.05-.63-.02-.93.1-6.72,1.98-12.41,6.63-19.1,8.74-1.82.43-3.59,1.07-5.27,1.91-.27.13-.49.33-.66.57-.15.3-.22.64-.2.98-.09,2.93,0,6.51.92,9.32.41,1.2,1.5,2.11,2.28,3.09.37.43,2.84,3.27,2.61,3.85Z"/><polygon class="cls-53_explosion-1-67 targetColor" points="366.06 352.7 392.71 342.81 389.46 360.92 366.62 366.84 366.06 352.7" style="fill: rgb(196, 30, 255);"/><path class="cls-53_explosion-1-67 targetColor" d="M427.95,345.77c.47-.14.9-.39,1.25-.73.45-.65.65-1.44.54-2.22-.17-5.25-2.18-10.28-5.68-14.21-.15-.19-.33-.34-.55-.43-.27-.06-.56-.03-.82.08-1.52.55-2.66,1.84-4.1,2.65-1.59.9-3.46,1.15-5.24,1.59s-3.61,1.2-4.61,2.73c-.8,1.46-1.02,3.18-.6,4.79.36,2.17,1.49,4.14,3.18,5.55,4.02,3.1,12.14,1.79,16.61.2Z" style="fill: rgb(196, 30, 255);"/><path class="cls-8_explosion-1-67" d="M427.95,345.77c.47-.14.9-.39,1.25-.73.45-.65.65-1.44.54-2.22-.17-5.25-2.18-10.28-5.68-14.21-.15-.19-.33-.34-.55-.43-.27-.06-.56-.03-.82.08-1.52.55-2.66,1.84-4.1,2.65-1.59.9-3.46,1.15-5.24,1.59s-3.61,1.2-4.61,2.73c-.8,1.46-1.02,3.18-.6,4.79.36,2.17,1.49,4.14,3.18,5.55,4.02,3.1,12.14,1.79,16.61.2Z"/><path class="cls-53_explosion-1-67 targetColor" d="M418.6,354.64c.15.12.33.19.52.22.26-.02.51-.14.69-.34,2.81-2.32,5.53-4.74,8.15-7.27.73-.48,1.01-1.41.66-2.21-1.15-4.36-2.8-8.56-4.92-12.54-3.77,3.02-8.81,3.81-13.11,5.97-7.92,3.96,4.52,13.84,8.01,16.16Z" style="fill: rgb(196, 30, 255);"/><path class="cls-53_explosion-1-67 targetColor" d="M229.27,347.56c.25-3.04,1.88-5.79,3.7-8.24s3.91-4.74,5.3-7.45c.07-.1.09-.23.07-.34-.06-.11-.17-.19-.29-.21l-2.93-1.11c-.13-.06-.26-.09-.4-.09-.16.03-.32.1-.44.2-3.02,2.07-5.08,5.29-8.06,7.43-.83.51-1.61,1.12-2.3,1.8-.11.11-.19.25-.24.39-.02.17,0,.35.06.51.4,1.59,1.07,3.1,1.98,4.47.48.48,1.03.87,1.64,1.16.25.18,1.93,1.18,1.91,1.48Z" style="fill: rgb(196, 30, 255);"/><path class="cls-9_explosion-1-67" d="M229.27,347.56c.25-3.04,1.88-5.79,3.7-8.24s3.91-4.74,5.3-7.45c.07-.1.09-.23.07-.34-.06-.11-.17-.19-.29-.21l-2.93-1.11c-.13-.06-.26-.09-.4-.09-.16.03-.32.1-.44.2-3.02,2.07-5.08,5.29-8.06,7.43-.83.51-1.61,1.12-2.3,1.8-.11.11-.19.25-.24.39-.02.17,0,.35.06.51.4,1.59,1.07,3.1,1.98,4.47.48.48,1.03.87,1.64,1.16.25.18,1.93,1.18,1.91,1.48Z"/><polygon class="cls-53_explosion-1-67 targetColor" points="226.52 340.71 238.13 331.48 239.46 340.99 229.09 347.63 226.52 340.71" style="fill: rgb(196, 30, 255);"/><path class="cls-53_explosion-1-67 targetColor" d="M256.09,327.25c.21-.14.38-.34.5-.57.12-.39.09-.82-.09-1.19-.94-2.58-2.75-4.75-5.12-6.13-.1-.07-.22-.11-.34-.12-.15.01-.3.07-.41.17-.57.62-1.1,1.28-1.57,1.98-.7.65-1.49,1.2-2.34,1.64-.85.45-1.51,1.19-1.84,2.1-.16.85.02,1.73.48,2.46.53,1.02,1.4,1.81,2.46,2.25,2.48.89,6.29-1.07,8.26-2.58Z" style="fill: rgb(196, 30, 255);"/><path class="cls-7_explosion-1-67" d="M256.09,327.25c.21-.14.38-.34.5-.57.12-.39.09-.82-.09-1.19-.94-2.58-2.75-4.75-5.12-6.13-.1-.07-.22-.11-.34-.12-.15.01-.3.07-.41.17-.57.62-1.1,1.28-1.57,1.98-.7.65-1.49,1.2-2.34,1.64-.85.45-1.51,1.19-1.84,2.1-.16.85.02,1.73.48,2.46.53,1.02,1.4,1.81,2.46,2.25,2.48.89,6.29-1.07,8.26-2.58Z"/><path class="cls-53_explosion-1-67 targetColor" d="M252.89,333.16c.1.03.2.03.3,0,.13-.06.23-.16.29-.28,1.02-1.64,1.97-3.28,2.86-4.92.13-.2.2-.42.2-.66-.03-.2-.11-.39-.24-.55-1.27-1.97-2.77-3.79-4.46-5.43-1.39,2.11-3.75,3.32-5.54,5.09-3.29,3.27,4.48,6.15,6.59,6.74Z" style="fill: rgb(196, 30, 255);"/><path class="cls-53_explosion-1-67 targetColor" d="M238.97,322.81c-.03.09-.1.16-.19.2-.09.02-.18,0-.25-.04-1.46-.61-2.39-.2-3.85-.82-.33-.39-.6-.82-.82-1.29,0-.1.02-.19.07-.27.42-.71.93-1.35,1.52-1.92l1.73-1.82,2.24.75c.43.15,1.19.38,1.39.82s.95,1.17.82,1.52c-.5,1.15-2.05,1.81-2.66,2.87Z" style="fill: rgb(196, 30, 255);"/><path class="cls-5_explosion-1-67" d="M238.97,322.81c-.03.09-.1.16-.19.2-.09.02-.18,0-.25-.04-1.46-.61-2.39-.2-3.85-.82-.33-.39-.6-.82-.82-1.29,0-.1.02-.19.07-.27.42-.71.93-1.35,1.52-1.92l1.73-1.82,2.24.75c.43.15,1.19.38,1.39.82s.95,1.17.82,1.52c-.5,1.15-2.05,1.81-2.66,2.87Z"/><path class="cls-53_explosion-1-67 targetColor" d="M239.8,324.09c-.04.09-.11.16-.2.2-.09.01-.18,0-.25-.04l-4.38-1.82c-.13-.06-.28-.13-.3-.27-.01-.1.01-.2.07-.28.43-.7.94-1.35,1.53-1.92l1.72-1.82,2.25.75c.43.15,1.19.38,1.39.82s-.14.74-.29,1.08c-.44,1.13-.96,2.23-1.54,3.29Z" style="fill: rgb(196, 30, 255);"/><path class="cls-53_explosion-1-67 targetColor" d="M399.4,327.48c-.12.14-.29.23-.47.25-.17-.02-.33-.1-.44-.23-2.29-1.97-4.24-1.79-6.56-3.76-.37-.91-.63-1.86-.75-2.83.04-.18.15-.34.3-.46,1.19-1.03,2.51-1.9,3.93-2.59l4.23-2.29,3.64,2.71c.7.52,1.93,1.39,2.04,2.35.08.82,1.03,2.71.56,3.28-1.51,1.72-4.73,1.98-6.47,3.57Z" style="fill: rgb(196, 30, 255);"/><path class="cls-12_explosion-1-67" d="M399.4,327.48c-.12.14-.29.23-.47.25-.17-.02-.33-.1-.44-.23-2.29-1.97-4.24-1.79-6.56-3.76-.37-.91-.63-1.86-.75-2.83.04-.18.15-.34.3-.46,1.19-1.03,2.51-1.9,3.93-2.59l4.23-2.29,3.64,2.71c.7.52,1.93,1.39,2.04,2.35.08.82,1.03,2.71.56,3.28-1.51,1.72-4.73,1.98-6.47,3.57Z"/><path class="cls-53_explosion-1-67 targetColor" d="M400.16,330.32c-.12.14-.29.23-.47.25-.17-.02-.33-.11-.44-.23l-6.88-5.92c-.21-.18-.44-.4-.41-.68.04-.18.15-.34.3-.45,1.19-1.03,2.51-1.9,3.93-2.59l4.23-2.29,3.64,2.71c.7.52,1.93,1.39,2.04,2.34.08.82-.7,1.27-1.16,1.81-1.48,1.78-3.07,3.46-4.76,5.04Z" style="fill: rgb(196, 30, 255);"/><path class="cls-53_explosion-1-67 targetColor" d="M326.55,285.34c3.06-.08,5.97,1.25,8.6,2.8s5.12,3.39,7.97,4.48c.11.05.24.05.34,0,.1-.07.17-.18.18-.3l.82-3.02c.05-.13.07-.27.05-.41-.04-.16-.13-.3-.25-.42-2.38-2.78-5.81-4.49-8.24-7.22-.59-.77-1.27-1.48-2.02-2.1-.12-.09-.27-.16-.42-.2-.18,0-.35.04-.51.11-1.54.57-2.98,1.4-4.24,2.46-.42.52-.76,1.11-.98,1.74-.17.29-.99,2.07-1.3,2.07Z" style="fill: rgb(196, 30, 255);"/><path class="cls-14_explosion-1-67" d="M326.55,285.34c3.06-.08,5.97,1.25,8.6,2.8s5.12,3.39,7.97,4.48c.11.05.24.05.34,0,.1-.07.17-.18.18-.3l.82-3.02c.05-.13.07-.27.05-.41-.04-.16-.13-.3-.25-.42-2.38-2.78-5.81-4.49-8.24-7.22-.59-.77-1.27-1.48-2.02-2.1-.12-.09-.27-.16-.42-.2-.18,0-.35.04-.51.11-1.54.57-2.98,1.4-4.24,2.46-.42.52-.76,1.11-.98,1.74-.17.29-.99,2.07-1.3,2.07Z"/><polygon class="cls-53_explosion-1-67 targetColor" points="333.07 281.87 343.48 292.44 334.17 294.77 326.47 285.16 333.07 281.87" style="fill: rgb(196, 30, 255);"/><path class="cls-53_explosion-1-67 targetColor" d="M185.53,245.74c1.14,2.84.92,6.02.37,9.02s-1.39,5.98-1.42,9.02c-.02.12.02.24.1.34.1.07.23.09.34.07l3.11-.31c.14,0,.27-.04.39-.1.14-.1.24-.23.31-.38,1.77-3.2,2.18-7.01,3.89-10.24.52-.83.94-1.71,1.25-2.64.04-.15.04-.31,0-.46-.05-.17-.15-.32-.28-.43-1.07-1.24-2.34-2.3-3.75-3.12-.64-.21-1.31-.32-1.98-.31-.27,0-2.23-.15-2.34-.43Z" style="fill: rgb(196, 30, 255);"/><path class="cls-10_explosion-1-67" d="M185.53,245.74c1.14,2.84.92,6.02.37,9.02s-1.39,5.98-1.42,9.02c-.02.12.02.24.1.34.1.07.23.09.34.07l3.11-.31c.14,0,.27-.04.39-.1.14-.1.24-.23.31-.38,1.77-3.2,2.18-7.01,3.89-10.24.52-.83.94-1.71,1.25-2.64.04-.15.04-.31,0-.46-.05-.17-.15-.32-.28-.43-1.07-1.24-2.34-2.3-3.75-3.12-.64-.21-1.31-.32-1.98-.31-.27,0-2.23-.15-2.34-.43Z"/><polygon class="cls-53_explosion-1-67 targetColor" points="191.04 250.64 184.77 264.08 179.34 256.17 185.66 245.6 191.04 250.64" style="fill: rgb(196, 30, 255);"/><path class="cls-53_explosion-1-67 targetColor" d="M170.61,275.9c-.13.22-.2.47-.2.73.07.41.28.77.61,1.02,1.99,1.88,4.58,3.01,7.32,3.2.12.01.24,0,.36-.04.13-.08.23-.2.29-.34.25-.8.43-1.63.54-2.46.34-.89.8-1.73,1.36-2.51.57-.78.82-1.74.71-2.7-.24-.84-.79-1.56-1.53-2.01-.93-.67-2.07-.99-3.22-.89-2.62.3-5.15,3.76-6.24,5.99Z" style="fill: rgb(196, 30, 255);"/><path class="cls-13_explosion-1-67" d="M170.61,275.9c-.13.22-.2.47-.2.73.07.41.28.77.61,1.02,1.99,1.88,4.58,3.01,7.32,3.2.12.01.24,0,.36-.04.13-.08.23-.2.29-.34.25-.8.43-1.63.54-2.46.34-.89.8-1.73,1.36-2.51.57-.78.82-1.74.71-2.7-.24-.84-.79-1.56-1.53-2.01-.93-.67-2.07-.99-3.22-.89-2.62.3-5.15,3.76-6.24,5.99Z"/><path class="cls-53_explosion-1-67 targetColor" d="M170.82,269.18c-.1.01-.19.05-.27.11-.09.11-.14.24-.14.38-.19,1.9-.31,3.79-.36,5.69-.02.23.02.46.11.67.12.17.28.3.46.39,2.02,1.2,4.17,2.15,6.41,2.85.3-2.5,1.88-4.64,2.69-7.02,1.49-4.38-6.75-3.48-8.9-3.07Z" style="fill: rgb(196, 30, 255);"/><path class="cls-53_explosion-1-67 targetColor" d="M187.9,272.23c0-.1.03-.19.09-.26.07-.06.16-.09.25-.08,1.57-.11,2.23-.89,3.8-.99.47.19.92.45,1.32.77.05.08.07.18.06.28-.06.82-.23,1.63-.51,2.4l-.73,2.39-2.34.33c-.45.07-1.23.2-1.64-.12s-1.38-.63-1.4-1c-.02-1.21,1.03-2.5,1.11-3.71Z" style="fill: rgb(196, 30, 255);"/><path class="cls-4_explosion-1-67" d="M187.9,272.23c0-.1.03-.19.09-.26.07-.06.16-.09.25-.08,1.57-.11,2.23-.89,3.8-.99.47.19.92.45,1.32.77.05.08.07.18.06.28-.06.82-.23,1.63-.51,2.4l-.73,2.39-2.34.33c-.45.07-1.23.2-1.64-.12s-1.38-.63-1.4-1c-.02-1.21,1.03-2.5,1.11-3.71Z"/><path class="cls-53_explosion-1-67 targetColor" d="M186.58,271.45c0-.1.03-.19.09-.26.07-.05.16-.08.25-.07l4.73-.33c.14,0,.31,0,.39.11.05.08.07.18.06.27-.06.82-.23,1.63-.51,2.4l-.73,2.4-2.34.32c-.45.07-1.23.2-1.64-.12s-.2-.72-.23-1.09c-.1-1.21-.12-2.41-.07-3.62Z" style="fill: rgb(196, 30, 255);"/><path class="cls-53_explosion-1-67 targetColor" d="M349.61,309.84c.16.2.37.35.61.44.4.08.82,0,1.17-.21,2.46-1.21,4.42-3.24,5.55-5.74.06-.11.09-.23.09-.35-.03-.15-.1-.28-.21-.39-.67-.51-1.39-.97-2.14-1.37-.72-.63-1.35-1.36-1.87-2.16-.53-.81-1.35-1.4-2.29-1.64-.87-.07-1.73.19-2.41.74-.96.64-1.66,1.6-1.97,2.7-.61,2.59,1.75,6.18,3.46,7.97Z" style="fill: rgb(196, 30, 255);"/><path class="cls-11_explosion-1-67" d="M349.61,309.84c.16.2.37.35.61.44.4.08.82,0,1.17-.21,2.46-1.21,4.42-3.24,5.55-5.74.06-.11.09-.23.09-.35-.03-.15-.1-.28-.21-.39-.67-.51-1.39-.97-2.14-1.37-.72-.63-1.35-1.36-1.87-2.16-.53-.81-1.35-1.4-2.29-1.64-.87-.07-1.73.19-2.41.74-.96.64-1.66,1.6-1.97,2.7-.61,2.59,1.75,6.18,3.46,7.97Z"/><path class="cls-53_explosion-1-67 targetColor" d="M343.39,307.29c-.03.1-.03.2,0,.3.07.12.17.21.3.26,1.7.82,3.44,1.64,5.2,2.32.21.11.44.15.67.13.2-.05.37-.15.52-.29,1.82-1.48,3.47-3.16,4.92-5.02-2.25-1.15-3.7-3.38-5.65-4.97-3.59-2.93-5.61,5.11-5.97,7.26Z" style="fill: rgb(196, 30, 255);"/><path class="cls-53_explosion-1-67 targetColor" d="M352.21,292.35c-.09-.02-.17-.09-.21-.17-.03-.08-.03-.17,0-.25.45-1.52-.05-2.4.39-3.92.35-.37.75-.7,1.19-.97.1-.02.19,0,.28.05.75.34,1.44.78,2.07,1.31l1.99,1.52-.52,2.31c-.1.44-.25,1.21-.68,1.47s-1.07,1.07-1.43.97c-1.16-.35-1.98-1.82-3.09-2.32Z" style="fill: rgb(196, 30, 255);"/><path class="cls-42_explosion-1-67" d="M352.21,292.35c-.09-.02-.17-.09-.21-.17-.03-.08-.03-.17,0-.25.45-1.52-.05-2.4.39-3.92.35-.37.75-.7,1.19-.97.1-.02.19,0,.28.05.75.34,1.44.78,2.07,1.31l1.99,1.52-.52,2.31c-.1.44-.25,1.21-.68,1.47s-1.07,1.07-1.43.97c-1.16-.35-1.98-1.82-3.09-2.32Z"/><path class="cls-53_explosion-1-67 targetColor" d="M351.02,293.32c-.08-.04-.18-.08-.21-.17-.03-.08-.03-.17,0-.25l1.34-4.55c0-.14.11-.3.24-.34.09-.02.19,0,.28.04.75.34,1.44.79,2.07,1.32l1.99,1.52-.52,2.32c-.1.44-.25,1.21-.68,1.47s-.75-.06-1.11-.16c-1.16-.33-2.29-.72-3.4-1.19Z" style="fill: rgb(196, 30, 255);"/><path class="cls-53_explosion-1-67 targetColor" d="M280.43,173.84c-3.47.27-6.86-1.07-9.93-2.7-3.07-1.62-6.03-3.56-9.33-4.63-.13-.06-.27-.06-.4,0-.11.09-.17.21-.19.35l-.73,3.49c-.03.15-.03.31,0,.47.06.18.16.34.3.46,2.87,3.02,6.87,4.77,9.79,7.74.73.85,1.55,1.62,2.46,2.28.14.1.31.17.48.19.2,0,.4-.05.57-.16,1.72-.74,3.3-1.75,4.68-3.01.45-.62.79-1.31,1.02-2.04.11-.36.93-2.42,1.28-2.44Z" style="fill: rgb(196, 30, 255);"/><path class="cls-43_explosion-1-67" d="M280.43,173.84c-3.47.27-6.86-1.07-9.93-2.7-3.07-1.62-6.03-3.56-9.33-4.63-.13-.06-.27-.06-.4,0-.11.09-.17.21-.19.35l-.73,3.49c-.03.15-.03.31,0,.47.06.18.16.34.3.46,2.87,3.02,6.87,4.77,9.79,7.74.73.85,1.55,1.62,2.46,2.28.14.1.31.17.48.19.2,0,.4-.05.57-.16,1.72-.74,3.3-1.75,4.68-3.01.45-.62.79-1.31,1.02-2.04.11-.36.93-2.42,1.28-2.44Z"/><polygon class="cls-53_explosion-1-67 targetColor" points="273.21 178.15 260.76 166.73 271.22 163.54 280.54 174.02 273.21 178.15" style="fill: rgb(196, 30, 255);"/><path class="cls-53_explosion-1-67 targetColor" d="M252.79,147.29c-.2-.21-.45-.37-.73-.47-.46-.06-.94.05-1.32.32-2.73,1.51-4.85,3.94-5.98,6.85-.06.13-.08.27-.07.41.04.17.13.31.26.42.79.54,1.62,1.02,2.48,1.43.85.67,1.62,1.46,2.26,2.34.65.88,1.61,1.49,2.69,1.7.99.03,1.96-.32,2.7-.98,1.05-.78,1.79-1.92,2.07-3.2.57-2.93-2.35-6.88-4.37-8.82Z" style="fill: rgb(196, 30, 255);"/><path class="cls-40_explosion-1-67" d="M252.79,147.29c-.2-.21-.45-.37-.73-.47-.46-.06-.94.05-1.32.32-2.73,1.51-4.85,3.94-5.98,6.85-.06.13-.08.27-.07.41.04.17.13.31.26.42.79.54,1.62,1.02,2.48,1.43.85.67,1.62,1.46,2.26,2.34.65.88,1.61,1.49,2.69,1.7.99.03,1.96-.32,2.7-.98,1.05-.78,1.79-1.92,2.07-3.2.57-2.93-2.35-6.88-4.37-8.82Z"/><path class="cls-53_explosion-1-67 targetColor" d="M260.01,149.83c.03-.11.03-.23,0-.34-.08-.13-.22-.23-.37-.27-1.98-.86-4.01-1.64-6.05-2.34-.45-.26-1.03-.16-1.35.25-1.99,1.78-3.77,3.79-5.3,5.98,2.61,1.18,4.4,3.63,6.71,5.33,4.22,3.12,6.07-6.14,6.36-8.61Z" style="fill: rgb(196, 30, 255);"/><path class="cls-53_explosion-1-67 targetColor" d="M250.84,167.35c.18.02.31.18.29.36,0,.04-.02.08-.03.11-.42,1.75.2,2.73-.22,4.47-.38.45-.81.84-1.29,1.17-.1.03-.22.03-.32,0-.88-.35-1.7-.81-2.46-1.38l-2.35-1.64.45-2.66c.09-.51.21-1.4.69-1.71s1.16-1.29,1.57-1.18c1.37.37,2.39,1.95,3.69,2.45Z" style="fill: rgb(196, 30, 255);"/><path class="cls-41_explosion-1-67" d="M250.84,167.35c.18.02.31.18.29.36,0,.04-.02.08-.03.11-.42,1.75.2,2.73-.22,4.47-.38.45-.81.84-1.29,1.17-.1.03-.22.03-.32,0-.88-.35-1.7-.81-2.46-1.38l-2.35-1.64.45-2.66c.09-.51.21-1.4.69-1.71s1.16-1.29,1.57-1.18c1.37.37,2.39,1.95,3.69,2.45Z"/><path class="cls-53_explosion-1-67 targetColor" d="M252.14,166.17c.1.03.19.1.25.19.04.09.04.19,0,.29l-1.26,5.25c0,.16-.1.34-.25.39-.1.04-.22.04-.32,0-.88-.35-1.7-.81-2.46-1.37l-2.35-1.64.45-2.66c.08-.52.21-1.4.69-1.72s.86,0,1.27.13c1.35.3,2.68.68,3.98,1.13Z" style="fill: rgb(196, 30, 255);"/><path class="cls-53_explosion-1-67 targetColor" d="M86.49,211.16c1.88,2.41,2.53,5.54,2.84,8.58.3,3.04.31,6.14,1.11,9.08.02.12.09.23.19.3.12.04.25.02.35-.04l2.91-1.15c.13-.05.25-.12.35-.2.1-.13.17-.29.19-.45.82-3.57.17-7.33.93-10.92.27-.94.43-1.9.48-2.88,0-.16-.02-.31-.09-.45-.1-.15-.23-.27-.39-.34-1.37-.9-2.88-1.57-4.47-1.98-.67-.03-1.35.05-1.99.25-.31.07-2.23.46-2.42.2Z" style="fill: rgb(196, 30, 255);"/><path class="cls-36_explosion-1-67" d="M86.49,211.16c1.88,2.41,2.53,5.54,2.84,8.58.3,3.04.31,6.14,1.11,9.08.02.12.09.23.19.3.12.04.25.02.35-.04l2.91-1.15c.13-.05.25-.12.35-.2.1-.13.17-.29.19-.45.82-3.57.17-7.33.93-10.92.27-.94.43-1.9.48-2.88,0-.16-.02-.31-.09-.45-.1-.15-.23-.27-.39-.34-1.37-.9-2.88-1.57-4.47-1.98-.67-.03-1.35.05-1.99.25-.31.07-2.23.46-2.42.2Z"/><polygon class="cls-53_explosion-1-67 targetColor" points="93.14 214.38 90.8 229.02 83.41 222.9 86.58 211.01 93.14 214.38" style="fill: rgb(196, 30, 255);"/><path class="cls-53_explosion-1-67 targetColor" d="M80.42,244.28c-.06.25-.06.51,0,.75.18.37.49.67.88.82,2.43,1.27,5.23,1.65,7.91,1.07.12-.02.24-.07.34-.14.11-.11.17-.25.18-.4.02-.85-.03-1.69-.16-2.53.08-.95.29-1.89.62-2.79.33-.91.31-1.9-.07-2.79-.46-.74-1.18-1.27-2.02-1.5-1.08-.4-2.27-.4-3.34,0-2.43,1.04-3.91,5.06-4.34,7.51Z" style="fill: rgb(196, 30, 255);"/><path class="cls-34_explosion-1-67" d="M80.42,244.28c-.06.25-.06.51,0,.75.18.37.49.67.88.82,2.43,1.27,5.23,1.65,7.91,1.07.12-.02.24-.07.34-.14.11-.11.17-.25.18-.4.02-.85-.03-1.69-.16-2.53.08-.95.29-1.89.62-2.79.33-.91.31-1.9-.07-2.79-.46-.74-1.18-1.27-2.02-1.5-1.08-.4-2.27-.4-3.34,0-2.43,1.04-3.91,5.06-4.34,7.51Z"/><path class="cls-53_explosion-1-67 targetColor" d="M78.79,237.75c-.1.04-.18.1-.24.18-.05.13-.05.27,0,.39.34,1.88.74,3.73,1.21,5.57.04.23.14.45.3.62.16.12.35.2.54.25,2.27.6,4.6.93,6.95.98-.4-2.46.53-4.97.66-7.49.23-4.61-7.47-1.5-9.42-.51Z" style="fill: rgb(196, 30, 255);"/><path class="cls-53_explosion-1-67 targetColor" d="M96.05,236c-.03-.09-.03-.19,0-.28.06-.07.14-.12.22-.14,1.48-.53,1.9-1.47,3.38-2.01.51.07,1,.2,1.48.39.07.07.12.16.14.25.16.81.22,1.64.16,2.46l-.04,2.5-2.17.96c-.42.18-1.13.52-1.59.33s-1.49-.23-1.64-.58c-.38-1.16.32-2.69.06-3.88Z" style="fill: rgb(196, 30, 255);"/><path class="cls-35_explosion-1-67" d="M96.05,236c-.03-.09-.03-.19,0-.28.06-.07.14-.12.22-.14,1.48-.53,1.9-1.47,3.38-2.01.51.07,1,.2,1.48.39.07.07.12.16.14.25.16.81.22,1.64.16,2.46l-.04,2.5-2.17.96c-.42.18-1.13.52-1.59.33s-1.49-.23-1.64-.58c-.38-1.16.32-2.69.06-3.88Z"/><path class="cls-53_explosion-1-67 targetColor" d="M94.56,235.61c-.03-.09-.03-.19,0-.28.05-.07.13-.12.21-.14l4.46-1.64c.13-.07.28-.07.41,0,.07.07.11.16.13.25.16.81.22,1.64.16,2.46v2.5l-2.17.96c-.41.19-1.12.52-1.58.33s-.4-.64-.52-.99c-.43-1.13-.8-2.28-1.1-3.45Z" style="fill: rgb(196, 30, 255);"/><path class="cls-53_explosion-1-67 targetColor" d="M54.5,327.42c3.04-.29,6.04.82,8.76,2.22s5.34,3.04,8.25,3.94c.11.05.24.05.35,0,.1-.07.17-.19.18-.31l.59-3.07c.03-.13.03-.27,0-.4-.05-.16-.15-.29-.27-.4-2.57-2.61-6.1-4.1-8.7-6.65-.65-.74-1.37-1.39-2.17-1.96-.13-.09-.27-.15-.43-.16-.18,0-.35.05-.5.14-1.5.66-2.88,1.57-4.09,2.68-.39.55-.68,1.16-.87,1.8-.1.32-.77,2.15-1.11,2.18Z" style="fill: rgb(196, 30, 255);"/><path class="cls-39_explosion-1-67" d="M54.5,327.42c3.04-.29,6.04.82,8.76,2.22s5.34,3.04,8.25,3.94c.11.05.24.05.35,0,.1-.07.17-.19.18-.31l.59-3.07c.03-.13.03-.27,0-.4-.05-.16-.15-.29-.27-.4-2.57-2.61-6.1-4.1-8.7-6.65-.65-.74-1.37-1.39-2.17-1.96-.13-.09-.27-.15-.43-.16-.18,0-.35.05-.5.14-1.5.66-2.88,1.57-4.09,2.68-.39.55-.68,1.16-.87,1.8-.1.32-.77,2.15-1.11,2.18Z"/><polygon class="cls-53_explosion-1-67 targetColor" points="60.77 323.53 71.85 333.37 62.72 336.32 54.4 327.25 60.77 323.53" style="fill: rgb(196, 30, 255);"/><path class="cls-53_explosion-1-67 targetColor" d="M79.13,350.33c.18.18.4.32.64.39.41.05.82-.06,1.16-.3,2.38-1.37,4.2-3.52,5.15-6.1.05-.11.07-.24.07-.36-.04-.14-.12-.27-.24-.37-.71-.47-1.45-.88-2.22-1.23-.76-.58-1.44-1.26-2.02-2.02-.59-.76-1.44-1.28-2.38-1.45-.86,0-1.7.33-2.33.92-.91.7-1.54,1.71-1.78,2.84-.47,2.57,2.12,5.99,3.95,7.67Z" style="fill: rgb(196, 30, 255);"/><path class="cls-37_explosion-1-67" d="M79.13,350.33c.18.18.4.32.64.39.41.05.82-.06,1.16-.3,2.38-1.37,4.2-3.52,5.15-6.1.05-.11.07-.24.07-.36-.04-.14-.12-.27-.24-.37-.71-.47-1.45-.88-2.22-1.23-.76-.58-1.44-1.26-2.02-2.02-.59-.76-1.44-1.28-2.38-1.45-.86,0-1.7.33-2.33.92-.91.7-1.54,1.71-1.78,2.84-.47,2.57,2.12,5.99,3.95,7.67Z"/><path class="cls-53_explosion-1-67 targetColor" d="M72.76,348.2c-.06.23.07.46.3.52.01,0,.03,0,.04,0,1.76.72,3.54,1.38,5.35,1.97.21.09.45.12.68.08.19-.06.36-.17.5-.32,1.72-1.59,3.26-3.38,4.57-5.33-2.31-1-3.92-3.13-5.97-4.59-3.74-2.67-5.27,5.48-5.48,7.65Z" style="fill: rgb(196, 30, 255);"/><path class="cls-53_explosion-1-67 targetColor" d="M80.56,332.71c-.09-.02-.17-.08-.23-.16-.03-.09-.03-.18,0-.26.34-1.54-.21-2.38.13-3.93.33-.39.7-.74,1.11-1.04.09-.03.19-.03.29,0,.77.3,1.49.69,2.16,1.17l2.08,1.39-.35,2.34c-.07.45-.17,1.24-.58,1.52s-1,1.14-1.36,1.06c-1.18-.25-2.1-1.66-3.25-2.08Z" style="fill: rgb(196, 30, 255);"/><path class="cls-38_explosion-1-67" d="M80.56,332.71c-.09-.02-.17-.08-.23-.16-.03-.09-.03-.18,0-.26.34-1.54-.21-2.38.13-3.93.33-.39.7-.74,1.11-1.04.09-.03.19-.03.29,0,.77.3,1.49.69,2.16,1.17l2.08,1.39-.35,2.34c-.07.45-.17,1.24-.58,1.52s-1,1.14-1.36,1.06c-1.18-.25-2.1-1.66-3.25-2.08Z"/><path class="cls-53_explosion-1-67 targetColor" d="M79.42,333.75c-.09-.02-.17-.08-.22-.16-.03-.09-.03-.18,0-.26l1.04-4.62c0-.14.07-.3.21-.35.09-.03.19-.03.28,0,.77.3,1.49.69,2.16,1.17l2.09,1.39-.35,2.35c-.07.45-.16,1.24-.58,1.52s-.75,0-1.11-.09c-1.19-.25-2.36-.56-3.51-.95Z" style="fill: rgb(196, 30, 255);"/></g></svg>