<svg version="1.1" id="Layer_1" xmlns="http://www.w3.org/2000/svg" xmlns:xlink="http://www.w3.org/1999/xlink" x="0px" y="0px" viewBox="0 0 500 500" style="width: 287px;" xml:space="preserve" data-imageid="explosion-1-81" imageName="Explosion 1" class="illustrations_image">
<style type="text/css">
	.st0_explosion-1-81{fill:#68E1FD;}
	.st1_explosion-1-81{fill:#FFFFFF;}
	.st2_explosion-1-81{fill:#D1D3D4;}
	.st3_explosion-1-81{fill:#231F20;}
</style>
<g id="Explosion_explosion-1-81">
	<path class="st0_explosion-1-81 targetColor" d="M276.2,394.3c0,0-10.1,11.8-21.3,11.5c0,0-2.3-7.8-8.7-4.6s-10.7,8.2-23,6.5c-7.6-1-15.3-1.4-23-1&#10;&#9;&#9;c0,0-4.2-8.4-14.6-1.6c0,0,1.2-3.9-21,1.2c0,0,9.2-10.2-0.5-8.7s-23,6-23,6s16.9-15,10.6-19.3s-73.2-21.9-73.2-21.9&#10;&#9;&#9;s74.3,15.3,72.4,7.9s-15.7-13.1-5.4-36.1s-9.8-40.1-9.8-40.1s26.1,31.2,23.2,21.1S123,243.8,123,243.8s41.4,77.5,45.7,70.2&#10;&#9;&#9;s-13.5-135.7-13.5-135.7s31.3,95.9,33.6,86.9s1.3-27.2,1.3-27.2s8.8,38.8,11.5,28.3s-1.6-99-1.6-99s14.9,87.5,21.2,74.5&#10;&#9;&#9;s9.1-99.6,9.1-99.6s6.6,49.6,9.4,33.1s12.1-81.6,12.1-81.6s-1.9,103.4,10.8,104.5c12.7,1.1,36.8-121.8,36.8-121.8&#10;&#9;&#9;s-8.1,124.8,8.2,84.1s32.9-85.6,32.5-83.2s-26,162.8-10.9,158.6s30.5-38.2,30.5-38.2s-20.8,68.1-14.8,67.7s13-10.1,13-10.1&#10;&#9;&#9;s-14.1,14.8-6.1,15.8s39.8-31.3,39.8-31.3s-26,34.7-19.6,33.4s55.1-40.5,55.1-40.5s-53.8,55.8-45.1,52.5s43.6-21.2,43.6-21.2&#10;&#9;&#9;s-65.5,47.3-48.5,41.2s58.5-23.5,58.1-22.1s-77.8,60.1-69,59.2s60.8-30.7,60.8-30.7s-68.5,52.1-42.3,44.1s53.7-17.6,53.7-17.6&#10;&#9;&#9;S361.2,369.3,369,374s33,13,33,13s-46.1-4.8-45.2,3.1s8.5,10,8.5,10s-28.8-12.6-29.4-7.4s3.8,8.9,3.8,8.9s-19.4-12.7-30.4-8.3&#10;&#9;&#9;c0,0-9.3-6.5-16-1.4C293.4,391.9,280.9,389.8,276.2,394.3z" style="fill: rgb(196, 30, 255);"/>
	<path class="st1_explosion-1-81" d="M178.8,398.1c0.6-0.8,1.3-1.6,2.1-2.4c1.1-1.2,2-3.1,1.2-4.5c-0.4-0.6-1-1.1-1.7-1.4&#10;&#9;&#9;c-5.1-2.8-10.9-3.9-16.7-3.3c2.2-3.1,2.4-7.3,1.4-11c-1.9-6.8-6.9-11-7.8-18.2s0.5-14.3,1.9-21.3l3.1-16.2c0.4,3.5,2.1,6.8,4.9,9&#10;&#9;&#9;c5.1-2.2,8.4-7.4,9.8-12.7s1-11,0.5-16.5c-1.4-13.7-4-27.3-7.9-40.6l11.2,20.7c1.8,3.4,4.7,7.3,8.5,6.5c0.8-7.2,1.5-14.5,2.3-21.7&#10;&#9;&#9;c1.9,6.1,4.8,11.8,8.8,16.8c6.3-0.2,11.4-5.6,13.4-11.5s1.5-12.4,0.9-18.6c1.2,8.1,4.2,15.9,8.7,22.8c14.7-19.4,13.6-46,11.9-70.3&#10;&#9;&#9;l4.2,11.3c1.4-10,2-20.1,1.7-30.2l8.7,25c1.6,4.6,4.4,10.2,9.4,10.1c2.9-0.1,5.2-2.2,7.2-4.2c12-12.5,20.9-27.6,25.8-44.3&#10;&#9;&#9;c-0.8,9.2,0.6,18.5,4.1,27.1c10.2-14.1,18.6-29.4,24.9-45.5c-3.9,19.4-6.1,39.2-6.6,59c-0.4,14,0.6,29.2,9.9,39.6&#10;&#9;&#9;c1.6,1.8,4.1,3.5,6.3,2.4c0.9-0.5,1.6-1.3,2.2-2.2l6.5-9.5l-6.7,26.7c-0.8,3-1.2,6.8,1.5,8.4c2.9,1.8,6.3-0.9,8.6-3.4&#10;&#9;&#9;c-3.3,8.7-5.5,17.9-6.4,27.2c9.9-4.9,19.7-10.2,29.2-15.9c-0.6,0.4-1.4,5.8-1.7,6.8c-0.9,2.9-2.1,5.7-3,8.6c-2,6-3.8,12.1-5.3,18.2&#10;&#9;&#9;c-0.6,2.3-0.7,5.4,1.5,6.3c1,0.3,2,0.2,2.9-0.2c5.3-1.5,10.4-3.7,15.2-6.6c-6.3,11.1-16.4,19.2-23.5,29.7c-1.1,1.7-2.2,4-1.1,5.7&#10;&#9;&#9;c0.8,0.9,2,1.5,3.3,1.6c6.2,1.1,12.7,0.1,18.3-2.8l-17.3,16.8c2.4-0.4,4.9,0.1,7,1.4c-3.6,0.9-6.8,2.7-9.4,5.3&#10;&#9;&#9;c2.5,3.1,5.9,5.4,9.8,6.5c-4.5-1.3-10.1-0.9-11.1,4.4l-13.3-4c-2.6-0.8-5.3-1.6-8-1.3c-1.7,0.1-3.4,0.9-4.5,2.2&#10;&#9;&#9;c-1.1,1.4-0.9,3.5,0.5,4.6c-7.7-2-15.5-3.4-23.4-4c-6.4-0.5-12.6,1.2-18.9,1c-5.7-0.2-10.2-0.8-15.5,2.4c-3.8,2.3-6.8,6.3-6.7,10.8&#10;&#9;&#9;c0.2-2.6-3.1-4-5.7-4.4c-8-1.1-16.1-0.4-23.7,2c-5.3,1.7-8.1,4.3-14.3,2.9c-4-0.9-7.7-2.7-11.7-3.6c-9.3-2-18.8,1-27.8,3.9&#10;&#9;&#9;C178.2,399.2,178.4,398.6,178.8,398.1z"/>
	<path class="st2_explosion-1-81" d="M195.1,294.6l9.2,40.1c-0.7-3.6-3.6-6.3-7.3-6.7c-2.5-9.3-6.3-18.2-11.4-26.5c2.1,8.1,6.4,21.3,2.7,28.8&#10;&#9;&#9;c-0.5,1.1-4.4,3.8-5.4,5.3c-1.7,2.6-0.4,7.9-5.1,8.3c-2.7,0.2-4.6-2.4-6-4.7c-0.1,6.4,0.8,12.7,2.8,18.8c-3.2-1.8-5.7-4.5-7.4-7.8&#10;&#9;&#9;c1.3,9.3,4.8,18.5,11.4,25.2c8.3,8.5,45.7,33.1,51,10.8c0.6,1.6,1.9,2.2,2.4,3c0.6-1.5,1.9-2.9,2.4-4.4c0.4,1.2,0.7,2.5,0.9,3.8&#10;&#9;&#9;c6.2-2.6,8.6-7.1,11-13.1c6.5-16.7,13.1-34.4,9.9-52c5.9,12.7,8.4,26.7,7.3,40.6c-0.4,5.1-2.3,11.4-0.2,16.3&#10;&#9;&#9;c4-0.9,9.4-8.3,11.9-11.6c4.1-5.6,6.8-12.3,9-18.9c0.3,6.9-1,13.7-3.7,20c-0.3,0.5-0.4,1.1-0.2,1.7c0.6,1,2.1,0.1,2.8-0.7&#10;&#9;&#9;c7.4-9,12.9-19.5,16.1-30.7c3,4.7,3.1,10.8,2.6,16.4c-0.7,7.7-2.2,15.3-4.6,22.7c6.1-5.2,10.5-12.1,12.5-19.8&#10;&#9;&#9;c-1.3,4.8-0.5,11.9-0.8,16.9c2.9-3.3,4.3,0.6,5.6,3.1c0.5-1.2,1-2.4,1.3-3.6c2.7,1.5,6.1,1.1,8.3-1.2c-0.6,1.7-0.6,3.5,0.2,5.2&#10;&#9;&#9;c2.2-2.9,5.1-5,8.5-6.2c4.6,4.5,13.9,1.7,15.2-4.6c-3.1,2.6-7.2,3.9-11.3,3.3c1.4-5.9,3.4-11.6,6-17c-4.2,4.6-10.2,7.3-16.4,7.2&#10;&#9;&#9;c11.3-6.5,21.4-15.1,29.6-25.2c-8.9,3.6-18.9,6.7-27.9,3.4l23.9-31.6c-9.2,7.6-20.2,12.8-31.8,15.2l5.2-25.4&#10;&#9;&#9;c-3.9,4.8-7.4,10-10.3,15.5c2.6-18.7,7.2-37.1,13.7-54.9c-6.8,10-14,19.7-21.4,29.2l4.6-24.8l-8.3,10.7c1.9-6.4,3.1-12.9,3.7-19.5&#10;&#9;&#9;l-15.6,19.3c-1.7-27.8,15.7-52.9,21.6-80.1c-5.6,9.4-11.6,18.7-17.9,27.7c-0.4-9.2-1.8-18.2-4.3-27.1c-2,7.6-4.5,15.9-11.2,19.9&#10;&#9;&#9;c-1.9,1.1-4,1.8-5.6,3.3c-2.5,2.2-3.3,5.7-4,8.9c-3.6,15.4-8.3,30.5-14.2,45.2l-2.7-34.3c-0.8,5.6-2.5,10.9-5.2,15.9&#10;&#9;&#9;c-1.4-7.6-1.8-15.3-1.2-23c0.1,20-2,40-6.4,59.6c-2-2.1-3.3-4.9-3.5-7.8l-0.8,7.1l-1.4-3.3c0.2,10.1-1.2,20.3-4,30l-12.1-40.1&#10;&#9;&#9;l7.1,53l-13.1-31.1c1.2,10,2.6,20.1,2.9,30.1c-3.5-5.3-8.6-4.3-11.3-10.6C200.9,310.8,196.8,302.3,195.1,294.6z"/>
	<path class="st3_explosion-1-81" d="M412.8,385.6l15.7-1c-5.6,0-10.9,0.5-13.7,0.8C413.5,385.5,412.8,385.6,412.8,385.6z"/>
	<path class="st3_explosion-1-81" d="M425.4,410.2c5.8-3,39.6-14.5,39.6-14.5s-15.3-2.1-9.8-6.6s8.4-6.5,8.4-6.5l-35.2,2.1&#10;&#9;&#9;c9.1-0.1,19.1,0.9,20.1,5.3c1.8,8.1-34.8,20.6-58.8,24.8c20.8-7,33.2-17.9,33.2-17.9c-34.6,26.5-137.9,22.9-137.9,22.9&#10;&#9;&#9;s22.7,2,48.1,1.9c17.3,0.3,58.8,0.8,68-0.4c0,0-4.1-6,7.2-5.5s30.1-1,30.1-1S419.6,413.2,425.4,410.2z"/>
	<path class="st3_explosion-1-81" d="M201.2,421.1c-9.6-0.3-19.1-0.8-28.6-1.4c-7.5-0.5-14.8-1.5-22.1-2.4c-2.2-0.3-18.9-3-19.5-2.3&#10;&#9;&#9;c2.3-2.3,4.9-4.2,7.8-5.8c-16.3,5.5-36.2,4.4-50.7-5.2c-3.4-2.1-6.3-4.9-8.5-8.2c-2.1-3.4-3.4-8.2-1.2-11.6&#10;&#9;&#9;c1.1-1.7,10.1-6.8,12-6.6c-12.6-1.6-25.1,2-37.3,5.5c3.8-0.1,7.6,0.2,11.4,0.9c1.9,0.4,4.1,1.1,4.8,2.9c0.9,2.4-1.5,4.9-4,5.5&#10;&#9;&#9;c-5.2,1.2-12-0.5-17.5-0.1c-4.3,0.3-8.6,0.4-12.9,0.5c6.3,0,12.7,0.6,18.9,1.8c11.6,1.9,16.5,5.9,25.3,13.7c0.3,0.2,0.6,0.6,0.7,1&#10;&#9;&#9;c0.1,0.7-0.7,1.2-1.4,1.5l-9.4,4.1c16.1-0.2,30.7,4.1,46.4,6.1C157.5,426.4,201.2,421.1,201.2,421.1z"/>
	<path class="st3_explosion-1-81" d="M321.4,309.5c-6.5-4.1-14-8.3-21.4-6.3c-1,0.2-1.9,0.7-2.4,1.5c-0.4,1-0.4,2.2,0.1,3.2&#10;&#9;&#9;c1.5,4.6,3.8,8.9,6.8,12.7c-15.5-18.1-38.8-27.3-61.1-35.7c-9.1-3.4-19.3-6.9-28.3-3.2l1.2,4.7c-3-6.4-9-10.7-14.9-14.6&#10;&#9;&#9;c-11.1-7.3-22.4-14.1-34.1-20.4c-7.1-3.8-14.4-7.5-22.4-8.8s-16.8,0.2-22.7,5.6c-5.6,5.1-8,13-7.7,20.5s3,14.8,6.3,21.5&#10;&#9;&#9;c4,8.1,8.8,15.8,14.5,22.8l-41.8-44.5c-4.8-5.1-9.8-10.9-10-17.8c5.5,6.4,16.9,4.4,21.7-2.6s3.8-16.5-0.2-23.9s-10.5-13-16.8-18.5&#10;&#9;&#9;c16.2,9,33.6,15.3,51.8,18.8c3.9,0.7,8.3,1.2,11.3-1.4c3.9-3.3,2.8-9.7,0-14s-6.9-7.8-8.6-12.6c16,18,36.5,31.4,59.4,38.8&#10;&#9;&#9;c4.7,1.5,10.4,2.6,14.3-0.5c5.4-4.4,3-13,0.2-19.3c5.8,9.5,15.8,15.5,25.4,21.1l42.1,24.5c12.3,7.2,24.7,14.4,35.7,23.4&#10;&#9;&#9;c11.7,9.7,21.6,21.3,31.4,32.8c7.4,8.7,14.8,17.4,22.2,26.1c-7.6-3.9-14.2-10.6-21.6-15.2C341.5,322,331.2,316,321.4,309.5z"/>
	<path class="st3_explosion-1-81" d="M434.7,333.2c-4.2-4.9-10-8.1-15.7-11c-8.8-4.3-18.1-7.9-27.5-10.6c5.5,1.7,11.4,0.5,15.7-3.4&#10;&#9;&#9;c-10.2-11.7-24.4-19.2-39.8-21.1c0.4-2.9-1.7-5.5-3.7-7.6c-15-15.7-34.7-26-54-36l-19.4-10.1c12.5,5.2,24.2,12.3,36.7,17.5&#10;&#9;&#9;s26.3,8.6,39.6,5.8c-0.8,4.4-1.5,9.4,1.3,12.9c1.5,1.9,3.9,3,6.1,4c6.7,3,13.6,5.5,20.7,7.5c-1.8,5.1,3.6,9.6,8.1,12.5&#10;&#9;&#9;c17,10.8,32.5,23.8,46.1,38.6c2.3,2.5,4.5,5,6.5,7.8c0.9,1,1.5,2.4,1.6,3.8c-0.1,1-0.5,2-1.1,2.9c-7.5,12.3-22.2,15-35.2,17.4&#10;&#9;&#9;C437.7,365,445.3,345.6,434.7,333.2z"/>
	<path class="st0_explosion-1-81 targetColor" d="M342.4,196.3c0,0,0.3-5.1,4.4-14.1c2.2-4.9,4.8-9.5,7.8-13.9L342.4,196.3z" style="fill: rgb(196, 30, 255);"/>
	<path class="st1_explosion-1-81" d="M199.8,354c0.5,5.2,1.4,10.3,2.7,15.4c-6.4-7-8.1-16.9-9.2-26.2c-0.4-0.1-0.7,0.4-0.9,0.7&#10;&#9;&#9;c-2.9,7.2-3.7,15.5-0.4,22.5c1.8,3.6,4.3,6.9,7.3,9.6c4.1,3.9,14.6,11.3,9.8,0.7C205.5,368.8,200.8,363.2,199.8,354z"/>
	<path class="st0_explosion-1-81 targetColor" d="M113.1,317.1c1.6,3.6,2.8,7.4,3.5,11.3c0.3,1.4,0.4,2.9-0.5,4c-1.3,1.5-3.8,0.6-5.5-0.4&#10;&#9;&#9;c-13-8.1-20-22.9-26.2-37c-2.7,5.1,0.2,11.2,3.1,16.1c7.7,13.1,15.8,26,24.1,38.7c-0.8-4.1-1.1-8.2-0.7-12.4&#10;&#9;&#9;c-0.5,5.3,16.5,9.3,19.9,10.5C135,340.2,117.5,323.1,113.1,317.1z" style="fill: rgb(196, 30, 255);"/>
	<path class="st0_explosion-1-81 targetColor" d="M180.8,152.1c0,5.8-0.6,11.5-1.6,17.2c-6.1-10.3-11.5-21-16.2-32.1l16.9,68.5l0.2-31&#10;&#9;&#9;c2.5,4.9,4.1,10.2,4.8,15.7c-0.8-5.5,0.5-10.8-0.5-16.5C183.3,167,180.7,159.1,180.8,152.1z" style="fill: rgb(196, 30, 255);"/>
	<path class="st0_explosion-1-81 targetColor" d="M376.6,216.1c-0.9,3.8-1.3,7.8-1.2,11.7c10.2-7.5,19.1-16.7,27.9-25.9c-6.5,13.7-14.4,26.8-23.5,39l0.5-9.3&#10;&#9;&#9;c-6.1-0.1-11.1,4.8-15.3,9.3c1.1-1.3,1.7-3,1.6-4.7c-0.8,0.8-2.5,1.6-3.2,2.4C365.4,230.4,374.7,224.2,376.6,216.1z" style="fill: rgb(196, 30, 255);"/>
	<path class="st3_explosion-1-81" d="M108.9,170.1c-4.5-3.4-8.6-7.6-13.8-9.7c11.1,11,21.3,22.7,31.7,34.3c-1.9-5.2-5.6-11.9-4.6-17.5&#10;&#9;&#9;c6.1,1.1,8.1,3.6,7.6-3.5c-0.4-5.7-7.5-13.3-11.6-16.8c3.1,5.3,5.9,11.7,6,17.9C118.9,176.5,113.2,173.4,108.9,170.1z"/>
	<path class="st3_explosion-1-81" d="M388.1,217.6c8,6.3,15.5,13.3,22.5,20.7l-37.4-57.6c23.3,22.5,47.1,45.8,60.2,75.5l-19.9-25.5&#10;&#9;&#9;c-1.8-2.3-4.5-4.8-7.1-3.7c1.7-0.7,17.1,32,17.8,35.2c-7.2-1.2-12.1-13.8-16.1-19.2C401.7,234.3,394.9,226,388.1,217.6z"/>
</g>
</svg>