<svg version="1.1" id="Layer_1" xmlns="http://www.w3.org/2000/svg" xmlns:xlink="http://www.w3.org/1999/xlink" x="0px" y="0px" viewBox="0 0 500 500" style="width: 287px;" xml:space="preserve" data-imageid="global-warming-2-50" imageName="Global Warming 2" class="illustrations_image">
<style type="text/css">
	.st0_global-warming-2-50{fill:#FFFFFF;}
	.st1_global-warming-2-50{fill:#231F20;}
	.st2_global-warming-2-50{fill:#68E1FD;}
	.st3_global-warming-2-50{fill:#D1D3D4;}
</style>
<g id="frame_global-warming-2-50">
	<rect x="37.8" y="103.4" class="st0_global-warming-2-50" width="422.3" height="293.2"/>
	<path class="st1_global-warming-2-50" d="M460.1,103.4v293.3H37.8V103.4H460.1 M460.1,102H37.8c-0.8,0-1.4,0.6-1.4,1.4l0,0v293.3c0,0.8,0.6,1.4,1.4,1.4&#10;&#9;&#9;h422.3c0.8,0,1.4-0.6,1.4-1.4V103.4C461.5,102.6,460.9,102,460.1,102z"/>
</g>
<rect id="Sea_global-warming-2-50" x="37.8" y="213.5" class="st2_global-warming-2-50 targetColor" width="422.3" height="183.1" style="fill: rgb(142, 73, 255);"/>
<g id="Fleeting_ice_big_global-warming-2-50">
	<path class="st0_global-warming-2-50" d="M85.3,293.9L85.3,293.9c0-0.1,0-0.1,0-0.2c-0.1-1.1-10.2-3.1-10.2-3.1l-4-18.9l-0.4-1l-0.3-0.8l1.2,0.4&#10;&#9;&#9;l12.2,4.5l1.1,8.1l2.2,15.7C86.2,296.5,85.5,294.6,85.3,293.9z"/>
	<path class="st1_global-warming-2-50" d="M87,299.5c-0.3,0-0.6-0.2-0.7-0.5c-0.9-2.6-1.5-4.2-1.6-4.9l0,0c0,0,0,0,0,0c-0.8-0.6-5.6-1.8-9.7-2.6&#10;&#9;&#9;c-0.3-0.1-0.5-0.3-0.6-0.5L70.4,272l-0.7-1.7c-0.1-0.4,0-0.8,0.4-0.9c0.2-0.1,0.3-0.1,0.5,0l13.3,4.9c0.2,0.1,0.4,0.3,0.4,0.6&#10;&#9;&#9;l3.4,23.9c0.1,0.4-0.2,0.7-0.5,0.8L87,299.5z M75.7,290.1c6.5,1.3,8.9,2.2,9.8,2.8L83,275.4l-11.4-4.2l0.1,0.3L75.7,290.1z"/>
	<path class="st0_global-warming-2-50" d="M207.6,240.6c0,0,52.1,9.3,57.6,13.3c5.5,4,45.7,30.5,45.7,30.5l-29.1,11.7l-26.6,3.1l-15.2,16l-19.5-5.8&#10;&#9;&#9;c0,0-42.5,8-49.5,5.8s-52.2-17.8-52.2-17.8l-27.1-6l-8.9-15.3L70.3,270c0,0,60.9-25.8,74.9-26.3S207.6,240.6,207.6,240.6z"/>
	<path class="st1_global-warming-2-50" d="M175,316.3c-1.4,0.1-2.8-0.1-4.2-0.4c-6.9-2.2-51.8-17.6-52.2-17.8l-27-6c-0.2,0-0.4-0.2-0.5-0.3l-8.8-15.1&#10;&#9;&#9;l-12.4-6c-0.4-0.2-0.5-0.6-0.4-0.9c0.1-0.2,0.2-0.3,0.4-0.4c2.5-1,61.2-25.9,75.2-26.3s61.9-3.1,62.4-3.1h0.2&#10;&#9;&#9;c2.1,0.4,52.3,9.4,57.9,13.4c5.5,4,45.3,30.2,45.7,30.5c0.2,0.1,0.3,0.4,0.3,0.7c0,0.3-0.2,0.5-0.4,0.6l-29.1,11.7&#10;&#9;&#9;c-0.1,0-0.1,0-0.2,0l-26.3,3.1l-15,15.8c-0.2,0.2-0.4,0.3-0.7,0.2l-19.4-5.7C217.6,310.7,187.4,316.3,175,316.3z M92.2,290.8&#10;&#9;&#9;l26.8,6c0.5,0.2,45.4,15.6,52.3,17.8s48.7-5.7,49.1-5.8c0.1,0,0.2,0,0.3,0l19.1,5.6l14.9-15.7c0.1-0.1,0.3-0.2,0.4-0.2l26.5-3.1&#10;&#9;&#9;l27.8-11.2c-6.5-4.3-39.7-26.2-44.6-29.8c-4.2-3.1-39.2-10-57.2-13.2c-2.3,0.1-48.8,2.7-62.4,3.1c-12.6,0.4-64,21.8-73.3,25.6&#10;&#9;&#9;l11.2,5.5c0.1,0.1,0.2,0.2,0.3,0.3L92.2,290.8z"/>
	<polygon class="st0_global-warming-2-50" points="310.9,284.4 303.1,307.9 280.3,322.5 281.8,296.1 &#9;"/>
	<path class="st1_global-warming-2-50" d="M280.3,323.1c-0.1,0-0.2,0-0.4-0.1c-0.2-0.1-0.4-0.4-0.3-0.6l1.5-26.3c0-0.3,0.2-0.5,0.4-0.6l29.1-11.7&#10;&#9;&#9;c0.3-0.1,0.5,0,0.7,0.1c0.2,0.2,0.3,0.5,0.2,0.7l-7.8,23.5c-0.1,0.2-0.2,0.3-0.3,0.4L280.6,323&#10;&#9;&#9;C280.5,323.1,280.4,323.1,280.3,323.1z M282.5,296.6l-1.4,24.5l21.5-13.7l7.2-21.8L282.5,296.6z"/>
	<polygon class="st3_global-warming-2-50" points="281.8,296.1 280.3,322.5 254.3,329 251.3,329.8 255.2,299.2 &#9;"/>
	<path class="st1_global-warming-2-50" d="M251.3,330.5c-0.4,0-0.7-0.3-0.7-0.7c0,0,0-0.1,0-0.1l3.9-30.5c0-0.3,0.3-0.6,0.6-0.6l26.6-3.1&#10;&#9;&#9;c0.2,0,0.4,0,0.6,0.2c0.1,0.1,0.2,0.3,0.2,0.5l-1.5,26.3c0,0.3-0.2,0.6-0.5,0.6l-29,7.3C251.4,330.5,251.4,330.5,251.3,330.5z&#10;&#9;&#9; M255.8,299.9l-3.7,29l27.5-6.9l1.5-25L255.8,299.9z"/>
	<polygon class="st0_global-warming-2-50" points="255.2,299.2 254.3,329 251.3,329.8 240.6,345.4 240.6,345.4 240.1,315.2 &#9;"/>
	<path class="st1_global-warming-2-50" d="M240.6,346.1c-0.4,0-0.7-0.3-0.7-0.7l-0.5-30.2c0-0.2,0.1-0.4,0.2-0.5l15.2-16c0.2-0.2,0.5-0.3,0.8-0.2&#10;&#9;&#9;c0.3,0.1,0.4,0.4,0.4,0.7L255,329c0,0.3-0.2,0.6-0.5,0.7l-2.8,0.7l-10.5,15.5C241.1,346,240.9,346.1,240.6,346.1z M240.8,315.5&#10;&#9;&#9;l0.5,27.8l9.5-13.9c0.1-0.1,0.2-0.2,0.4-0.3l2.5-0.6l0.8-27.4L240.8,315.5z"/>
	<polygon class="st3_global-warming-2-50" points="240.6,345.4 227,343.8 220.5,309.5 240.1,315.2 &#9;"/>
	<path class="st1_global-warming-2-50" d="M240.6,346.1L240.6,346.1l-13.7-1.7c-0.3,0-0.6-0.3-0.6-0.6l-6.4-34.3c-0.1-0.2,0-0.5,0.2-0.6&#10;&#9;&#9;c0.2-0.2,0.4-0.2,0.7-0.1l19.5,5.8c0.3,0.1,0.5,0.4,0.5,0.7l0.5,30.2c0,0.2-0.1,0.4-0.2,0.5C240.9,346.1,240.8,346.1,240.6,346.1z&#10;&#9;&#9; M227.6,343.1l12.3,1.5l-0.5-28.9l-17.9-5.3L227.6,343.1z"/>
	<polygon class="st0_global-warming-2-50" points="227,343.8 171.1,345.4 171.1,345.4 171.1,315.2 220.4,309.5 220.5,309.5 &#9;"/>
	<path class="st1_global-warming-2-50" d="M171.1,346.1c-0.2,0-0.4-0.1-0.5-0.2c-0.1-0.1-0.2-0.3-0.2-0.5v-30.2c0-0.4,0.3-0.6,0.6-0.7l49.4-5.8&#10;&#9;&#9;c0.4,0,0.7,0.2,0.9,0.6l6.4,34.3c0,0.2,0,0.4-0.1,0.6c-0.1,0.2-0.3,0.3-0.5,0.3L171.1,346.1L171.1,346.1z M171.8,315.9v28.9&#10;&#9;&#9;l54.4-1.6l-6.1-32.9L171.8,315.9z"/>
	<path class="st3_global-warming-2-50" d="M171.1,345.4L171.1,345.4l-49.2-23.3l-3.1-24.7l2.4,0.8l1.1,0.4l1.3,0.5l0.7,0.2l45.8,15.6l0.4,0.1l0.4,0.1&#10;&#9;&#9;C171.1,315.2,171.4,329.3,171.1,345.4z"/>
	<path class="st1_global-warming-2-50" d="M171.1,346.1L171.1,346.1c-0.1,0-0.2,0-0.3-0.1l-49.2-23.3c-0.2-0.1-0.4-0.3-0.4-0.5l-3.1-24.7&#10;&#9;&#9;c0-0.2,0.1-0.5,0.2-0.6c0.2-0.2,0.4-0.2,0.7-0.1l5.6,1.9l46.6,15.8c0.3,0.1,0.5,0.4,0.5,0.6c0,0.1,0.3,14.2,0.1,30.2&#10;&#9;&#9;C171.8,345.8,171.5,346.1,171.1,346.1z M171.1,345.4L171.1,345.4z M122.6,321.7l47.9,22.6c0.2-13.8,0-26,0-28.6l-0.3-0.1&#10;&#9;&#9;l-50.4-17.2L122.6,321.7z"/>
	<polygon class="st0_global-warming-2-50" points="121.9,322.2 93.9,315.6 93.9,315.6 91.7,291.4 118.8,297.5 &#9;"/>
	<path class="st1_global-warming-2-50" d="M121.9,322.9h-0.2l-28-6.6c-0.3-0.1-0.5-0.3-0.6-0.6L91,291.5c0-0.2,0.1-0.4,0.2-0.6c0.2-0.1,0.4-0.2,0.6-0.1&#10;&#9;&#9;l27.1,6c0.3,0.1,0.5,0.3,0.5,0.6l3.1,24.7c0,0.2-0.1,0.5-0.2,0.6C122.2,322.8,122.1,322.9,121.9,322.9z M94.5,315.1l26.6,6.2&#10;&#9;&#9;l-2.9-23.3l-25.7-5.7L94.5,315.1z"/>
	<path class="st3_global-warming-2-50" d="M93.9,315.6c0,0-5.3-12.2-6.9-16.9c-0.8-2.2-1.5-4.1-1.6-4.8l0,0l-1.4-9.5l-1.2-8.2l8.9,15.3L93.9,315.6z"/>
	<path class="st1_global-warming-2-50" d="M93.9,316.3c-0.3,0-0.5-0.2-0.6-0.4c-0.1-0.1-5.3-12.3-6.9-16.9c-0.9-2.6-1.5-4.2-1.6-4.9c0-0.1,0-0.1,0-0.2&#10;&#9;&#9;l-2.5-17.7c-0.1-0.3,0.1-0.6,0.5-0.8c0.3-0.1,0.7,0,0.8,0.3l8.9,15.3c0,0.1,0.1,0.2,0.1,0.3l2.2,24.2c0,0.3-0.2,0.7-0.5,0.7&#10;&#9;&#9;L93.9,316.3z M84,279.6l2,14.2c0.1,0.4,0.4,1.6,1.6,4.7c1,2.9,3.5,8.8,5.2,12.8L91,291.7L84,279.6z"/>
</g>
<g id="bear_global-warming-2-50">
	<path class="st1_global-warming-2-50" d="M119.6,244.7c0.1,6.6,0.4,13.3,2.2,19.6s5.4,12.4,10.8,16.1c1.9,1.3,4.3,2.3,6.4,1.5c3.3-1.4,3.3-5.9,2.9-9.4&#10;&#9;&#9;c-1.5-11.6-3.1-23.7-8.6-34.2c-1.7-3.2-5.7-11.6-10.3-9.3C118.8,231.1,119.6,241.1,119.6,244.7z"/>
	<path class="st1_global-warming-2-50" d="M137.4,282.9c-1.9-0.1-3.7-0.8-5.1-1.9c-5-3.5-9-9.4-11.1-16.5c-1.9-6.7-2.2-13.7-2.3-19.8l0,0&#10;&#9;&#9;c0-0.4,0-0.8,0-1.2c-0.1-4.6-0.3-13.1,3.9-15.2c5-2.5,9,5.4,11,9.1l0.3,0.5c5.5,10.7,7.1,22.8,8.7,34.4c0.7,5.4-0.4,8.9-3.3,10.1&#10;&#9;&#9;C138.8,282.8,138.1,283,137.4,282.9z M120.3,244.7c0.1,6,0.3,12.9,2.2,19.4c2,6.8,5.7,12.4,10.5,15.8c1.6,1.1,3.8,2.2,5.8,1.4&#10;&#9;&#9;c2.8-1.2,2.9-5.4,2.5-8.7c-1.5-11.6-3.1-23.5-8.5-34l-0.3-0.5c-1.7-3.4-5.3-10.4-9.1-8.5c-3.4,1.7-3.2,9.9-3.1,13.9&#10;&#9;&#9;C120.3,243.9,120.3,244.3,120.3,244.7L120.3,244.7z"/>
	<path class="st1_global-warming-2-50" d="M285.7,157.4c0,0,11.6-6.5,10.3-1s-5.7,9.8-6,10.4"/>
	<path class="st1_global-warming-2-50" d="M289.9,167.4c-0.1,0-0.3,0-0.4-0.1c-0.3-0.2-0.4-0.6-0.2-0.9c0,0,0,0,0-0.1c0.1-0.2,0.3-0.4,0.5-0.6&#10;&#9;&#9;c1.2-1.4,4.4-5.1,5.5-9.6c0.1-0.4,0.2-0.9-0.1-1.1c-1-0.8-5.5,0.9-9.2,3c-0.3,0.2-0.8,0.1-1-0.2c0,0,0,0,0,0&#10;&#9;&#9;c-0.2-0.3-0.1-0.8,0.3-0.9c1.4-0.8,8.4-4.6,10.7-2.9c0.7,0.6,1,1.7,0.6,2.6c-1.2,4.8-4.5,8.7-5.8,10.1c-0.1,0.1-0.3,0.3-0.4,0.4&#10;&#9;&#9;C290.3,167.3,290.1,167.4,289.9,167.4z"/>
	<path class="st1_global-warming-2-50" d="M180.6,281.2c8.7-2.4,14.9-5.1,24.2-2.5c8.3,2.3,16.2,7.8,24.8,6.9c-3.5-5.9-7-11.8-9.9-17.9&#10;&#9;&#9;c-3.8-8-6.6-16.4-10.8-24.2c-1.3-2.5-3.8-4.2-6.6-4.7c-5.3-1.2-10.7,1.9-14.8,5.5c-6.5,5.7-11.5,12.9-14.4,21.1&#10;&#9;&#9;c-1.1,2.7-1.6,5.7-1.5,8.6c0.2,3,1.8,5.7,4.4,7.3"/>
	<path class="st1_global-warming-2-50" d="M227.6,286.4c-5.2,0-10.1-2-14.9-4c-2.7-1.2-5.4-2.2-8.1-3c-7.7-2.1-13.2-0.6-20.1,1.4&#10;&#9;&#9;c-1.2,0.4-2.4,0.7-3.7,1.1c-0.4,0.1-0.8-0.1-0.9-0.5c0,0,0,0,0,0c-0.1-0.4,0.1-0.7,0.5-0.8c0,0,0,0,0,0c1.3-0.4,2.5-0.7,3.7-1&#10;&#9;&#9;c6.8-2,12.8-3.7,20.9-1.5c2.8,0.8,5.6,1.8,8.3,3c5.1,2.1,9.9,4.1,15.1,3.9c-3.3-5.5-6.6-11.1-9.4-17c-1.6-3.3-3-6.8-4.4-10.1&#10;&#9;&#9;c-1.9-4.7-3.9-9.5-6.4-14c-1.2-2.3-3.5-3.9-6.1-4.4c-5.3-1.2-10.6,2.2-14.2,5.3c-6.4,5.6-11.3,12.8-14.2,20.8&#10;&#9;&#9;c-1.1,2.6-1.6,5.5-1.4,8.4c0.2,2.8,1.7,5.3,4,6.7c0.4,0.1,0.5,0.5,0.4,0.9c-0.1,0.4-0.5,0.5-0.9,0.4c0,0-0.1,0-0.1-0.1&#10;&#9;&#9;c-2.8-1.7-4.5-4.6-4.8-7.8c-0.2-3.1,0.3-6.1,1.5-9c3-8.2,8-15.6,14.6-21.4c3.8-3.3,9.5-6.9,15.4-5.6c3,0.5,5.6,2.4,7,5.1&#10;&#9;&#9;c2.5,4.6,4.5,9.4,6.4,14.1c1.4,3.3,2.8,6.8,4.4,10.1c2.9,6.1,6.4,12.1,9.9,17.9c0.2,0.3,0.1,0.8-0.3,1c-0.1,0.1-0.2,0.1-0.3,0.1&#10;&#9;&#9;C229,286.3,228.3,286.4,227.6,286.4z"/>
	<path class="st1_global-warming-2-50" d="M247.5,192.4c0,0-8.3,62.6-6,68.3s17.4,17,12.5,21.1s-23.4-2.6-23.4-2.6s-24.5-32.1-21.9-52.8&#10;&#9;&#9;s24.5-45.7,27.9-44.5S247.5,192.4,247.5,192.4z"/>
	<path class="st1_global-warming-2-50" d="M248.6,283.8c-7.3,0-17.8-3.8-18.3-4c-0.1,0-0.2-0.1-0.3-0.2c-1-1.3-24.7-32.5-22-53.3&#10;&#9;&#9;c2.4-18.5,19.7-40.2,26.4-44.4c0.7-0.6,1.6-0.8,2.5-0.7c3.5,1.2,10.5,9.8,11.2,10.8c0.1,0.1,0.2,0.3,0.1,0.5&#10;&#9;&#9;c-2.3,17.4-7.9,63.4-6.1,68c0.8,1.9,3.2,4.7,5.9,7.6c3.9,4.3,7.8,8.7,7.6,12c-0.1,0.9-0.5,1.8-1.2,2.4&#10;&#9;&#9;C253.1,283.4,251,283.8,248.6,283.8z M230.9,278.6c5.2,1.9,18.8,5.9,22.5,2.7c0.4-0.3,0.7-0.9,0.7-1.4c0.2-2.6-3.8-7-7.3-10.9&#10;&#9;&#9;c-2.7-3-5.2-5.8-6.1-8c-2.2-5.6,5.3-63.1,6-68.4c-2.2-2.7-7.9-9.2-10.4-10.1l0,0c0,0-0.4-0.1-1.7,0.8c-6.7,4.6-23.2,25.7-25.4,43.1&#10;&#9;&#9;C206.8,245.9,229.1,276.1,230.9,278.6z"/>
	<path class="st0_global-warming-2-50" d="M131.2,273.6c-4.7-7.9-7.6-16.7-8.6-25.9c-1.5-12.5-4.2-24.4,1.2-36.5c3.3-7.4,10.8-13.7,17.8-17.5&#10;&#9;&#9;c7.3-4.1,15.6-3,23-8.1c5.3-3.7,9.7-8.6,14-13.5l11.7-13.2c2.6-2.9,5.2-5.9,8.6-8c7.8-4.9,17.7-4.3,26.4-3.6&#10;&#9;&#9;c15.8,1.3,29.2-2.5,44.9,1.8c11.9,3.3,25.1,9.8,27.4,23.2c0.7,3.6,0.7,7.3,0,10.9c0,0,6.8,10.2,4.9,16.2c-1.2,3.8-11,3.3-13.9,2.5&#10;&#9;&#9;c-5.1-1.4-9.5-5.6-14.8-6.2c-6.2-0.7-11.6,0.2-17.4-2.6c-2.2,2.6-4.6,5.1-7.2,7.2c-3.5,2.7-7.8,3.4-11.2,5.5&#10;&#9;&#9;c-1.9,1.1-10.6,21.2-10.6,31.7s5.3,35.1,5.3,35.1s17.4,8.6,16.3,13.2s-25.7,3.4-29.1,0s-3.8-11.7-8.7-16.2s-13.6-15.1-13.6-15.1&#10;&#9;&#9;s4.1,15.9-7.9,26.4c0,0,20,2.2,19.6,7.9s-9.4,2.7-13.6,3c-8.1,0.7-58.9,2.2-56.7-8.6C136,280.5,133.4,277.2,131.2,273.6z"/>
	<path class="st1_global-warming-2-50" d="M179.6,293.2c-15,0-35.4-1.1-40.1-6.4c-0.8-0.8-1.2-2-1.1-3.1c-3-2.9-5.6-6.1-7.8-9.7&#10;&#9;&#9;c-4.7-8-7.6-16.9-8.7-26.2c-0.2-1.6-0.4-3.2-0.6-4.8c-1.5-11-2.9-21.3,1.9-32c2.9-6.5,9.7-13.2,18.1-17.9c3.4-1.7,6.9-2.9,10.6-3.5&#10;&#9;&#9;c4.1-0.9,8.4-1.9,12.4-4.6c5.3-3.7,9.7-8.6,13.9-13.3l11.7-13.2c2.6-2.9,5.3-6,8.7-8.1c7.7-4.8,17.5-4.5,26.9-3.7&#10;&#9;&#9;c5.8,0.4,11.7,0.4,17.5,0c9.2-0.4,17.9-0.8,27.6,1.9c16.6,4.6,26,12.6,27.9,23.8c0.7,3.6,0.7,7.3,0.1,10.9&#10;&#9;&#9;c1.1,1.7,6.6,10.8,4.8,16.6c-1.4,4.5-11.8,3.8-14.7,2.9c-2.3-0.8-4.5-1.8-6.6-3c-2.7-1.5-5.3-2.9-8.1-3.2c-1.9-0.2-3.7-0.3-5.4-0.3&#10;&#9;&#9;c-4-0.1-7.7-0.3-11.7-2.1c-2.1,2.5-4.4,4.9-7,6.9c-2.1,1.5-4.3,2.6-6.7,3.4c-1.6,0.6-3.1,1.3-4.6,2.1c-1.4,1-10.3,20.4-10.3,31.1&#10;&#9;&#9;c0,9.7,4.6,31.7,5.2,34.6c3.6,1.8,17.5,9.2,16.3,13.9c-0.3,1.1-1.5,2-3.6,2.6c-6.7,1.9-23.5,0.9-26.6-2.2c-1.6-1.6-2.6-4.2-3.6-7&#10;&#9;&#9;c-1.2-3.4-2.5-6.8-5.1-9.2c-4.2-4.2-8.2-8.6-12-13.2c0.6,4.8,0.7,15.4-7.5,23.5c5,0.7,19.1,3,18.8,8.4c0,1.1-0.5,2.2-1.4,2.9&#10;&#9;&#9;c-2,1.7-5.6,1.3-8.8,1c-1.3-0.2-2.7-0.2-4-0.2C193.9,292.9,187.5,293.2,179.6,293.2z M216.1,147.6c-6.1,0-11.9,0.9-16.8,4&#10;&#9;&#9;c-3.3,2-5.9,5-8.4,7.9l-11.7,13.2c-4.3,4.8-8.7,9.8-14.1,13.6c-4.2,2.9-8.6,3.9-12.9,4.8c-3.6,0.8-7,1.6-10.2,3.4&#10;&#9;&#9;c-8.1,4.5-14.7,11-17.5,17.2c-4.6,10.4-3.2,20.5-1.8,31.3c0.2,1.6,0.4,3.2,0.6,4.8c1,9,3.9,17.8,8.5,25.6c2.2,3.5,4.8,6.8,7.8,9.6&#10;&#9;&#9;c0.2,0.2,0.3,0.4,0.2,0.6c-0.2,0.8,0.1,1.7,0.7,2.3c6.4,7.1,47,6.2,55.3,5.4c1.4-0.1,2.9,0,4.3,0.2c2.9,0.3,6.3,0.6,7.8-0.7&#10;&#9;&#9;c0.6-0.5,0.9-1.2,0.9-1.9c0.2-3.7-11.5-6.3-19-7.1c-0.3,0-0.5-0.2-0.6-0.5c-0.1-0.3,0-0.6,0.2-0.7c11.6-10.2,7.7-25.6,7.7-25.8&#10;&#9;&#9;c-0.1-0.3,0.1-0.6,0.4-0.8c0.3-0.2,0.7-0.1,0.9,0.2c0.1,0.1,8.7,10.6,13.5,15c2.8,2.6,4.2,6.4,5.4,9.8c0.9,2.6,1.9,5.1,3.3,6.5&#10;&#9;&#9;c2.3,2.3,18.1,3.9,25.3,1.9c1.5-0.4,2.5-1,2.6-1.6c0.7-2.7-8.9-8.9-15.9-12.4c-0.2-0.1-0.3-0.3-0.4-0.5c-0.2-1-5.3-24.7-5.3-35.2&#10;&#9;&#9;c0-10.7,8.7-31,10.9-32.3c1.5-0.9,3.1-1.6,4.8-2.2c2.3-0.8,4.4-1.9,6.4-3.2c2.6-2.1,5-4.5,7.1-7.1c0.2-0.2,0.6-0.3,0.8-0.2&#10;&#9;&#9;c3.9,1.9,7.7,2,11.6,2.2c1.8,0.1,3.6,0.1,5.5,0.4c3.1,0.4,5.9,1.9,8.6,3.4c2,1.2,4.1,2.1,6.3,2.9c2.8,0.8,12,1.1,13-2&#10;&#9;&#9;c1.8-5.6-4.8-15.5-4.8-15.6c-0.1-0.2-0.1-0.4-0.1-0.6c0.7-3.5,0.7-7.1,0-10.6c-1.9-10.6-11-18.2-27-22.7&#10;&#9;&#9;c-9.5-2.6-18.1-2.2-27.1-1.8c-5.9,0.4-11.8,0.4-17.6,0C222.1,147.8,219.1,147.6,216.1,147.6z"/>
	<path class="st0_global-warming-2-50" d="M197.7,254.6c-1.8-6.5-1.9-13.4-0.4-20c0,0-18.9-18.1-13.6-36.6"/>
	<path class="st1_global-warming-2-50" d="M197.7,255.4c-0.3,0-0.6-0.2-0.7-0.5c-1.8-6.5-2-13.4-0.5-20c-2.5-2.5-18.5-19.4-13.5-37&#10;&#9;&#9;c0.1-0.4,0.5-0.6,0.9-0.5s0.6,0.5,0.5,0.9l0,0c-5.1,17.9,13.2,35.7,13.4,35.9c0.2,0.2,0.3,0.4,0.2,0.7c-1.5,6.5-1.4,13.2,0.4,19.6&#10;&#9;&#9;c0.1,0.4-0.1,0.8-0.5,0.9C197.8,255.3,197.7,255.3,197.7,255.4z"/>
	<path class="st0_global-warming-2-50" d="M272.2,166.7c0,0-0.6-9.4-7.9-7.6s-4,12.1-1.3,16.4c-1.4,1.7-2,4-1.7,6.2"/>
	<path class="st1_global-warming-2-50" d="M261.2,182.5c-0.3,0-0.6-0.3-0.7-0.6c-0.3-2.2,0.2-4.5,1.5-6.4c-1.9-3.4-4-9.4-2.4-13.4&#10;&#9;&#9;c0.8-1.9,2.4-3.3,4.4-3.7c1.8-0.6,3.8-0.3,5.4,0.8c3.1,2.2,3.4,7.2,3.4,7.4c0.1,0.4-0.2,0.7-0.6,0.8c-0.4,0.1-0.7-0.2-0.8-0.6&#10;&#9;&#9;c0,0,0-0.1,0-0.1c0,0-0.3-4.5-2.8-6.4c-1.2-0.8-2.8-1-4.2-0.6c-1.6,0.3-2.9,1.4-3.4,2.8c-1.5,3.6,0.8,9.6,2.5,12.5&#10;&#9;&#9;c0.2,0.3,0.1,0.6-0.1,0.8c-1.3,1.6-1.8,3.6-1.5,5.6c0.1,0.4-0.2,0.7-0.6,0.8c0,0,0,0,0,0L261.2,182.5z"/>
	<path class="st1_global-warming-2-50" d="M301.3,196.9c0.8-0.1,1.5,0.2,2,0.8c0.3,0.7,0.2,1.5-0.3,2.1c-0.8,1.2-1.9,2.1-3.3,2.5&#10;&#9;&#9;c-1.7,0.6-3.5,0.3-4.9-0.8C290,197.1,299,196.8,301.3,196.9z"/>
	<path class="st3_global-warming-2-50" d="M219.4,184.4c-0.1,0-0.3,0-0.4-0.1c-0.1-0.1-12.4-8.1-4.9-20.4c0.2-0.3,0.6-0.4,1-0.2s0.4,0.6,0.2,1&#10;&#9;&#9;c-6.7,11.1,4,18.2,4.5,18.5c0.3,0.2,0.4,0.6,0.2,1C219.8,184.3,219.6,184.4,219.4,184.4L219.4,184.4z"/>
	<path class="st0_global-warming-2-50" d="M147.2,233.5c0,0,20.2-6.3,33,0s17.5,21.2,17.5,21.2"/>
	<path class="st1_global-warming-2-50" d="M197.7,255.4c-0.3,0-0.6-0.2-0.7-0.5c0-0.1-4.7-14.6-17.1-20.8s-32.3,0-32.5,0c-0.4,0.1-0.8-0.1-0.9-0.5&#10;&#9;&#9;c-0.1-0.4,0.1-0.8,0.5-0.9c0.8-0.3,20.6-6.3,33.5,0s17.6,21,17.9,21.6c0.1,0.4-0.1,0.8-0.5,0.9&#10;&#9;&#9;C197.8,255.3,197.7,255.3,197.7,255.4z"/>
	<path class="st3_global-warming-2-50" d="M251.2,192c-0.1,0-0.3,0-0.4-0.1c-0.3-0.2-7.1-4.7-10.7-9.7c-0.2-0.3-0.2-0.7,0.1-1c0,0,0,0,0.1,0&#10;&#9;&#9;c0.3-0.2,0.7-0.2,1,0.1c0,0,0,0,0,0c3.4,4.8,10.2,9.3,10.3,9.4c0.3,0.2,0.4,0.7,0.2,1c0,0,0,0,0,0C251.7,191.9,251.5,192,251.2,192&#10;&#9;&#9;z"/>
	<path class="st1_global-warming-2-50" d="M269.9,168.7c0,0.1,0,0.2,0,0.3c-0.1,0.1-0.1,0.2-0.2,0.2l-2.8,1.9c-0.7,0.6-1.5,0.9-2.4,0.9&#10;&#9;&#9;c-0.4-1.2-0.7-2.4-0.9-3.7c-0.3-1.7-0.4-5.4,2.1-5.1C267.9,163.5,269.4,166.9,269.9,168.7z"/>
	<path class="st1_global-warming-2-50" d="M264.6,172.7h-0.2c-0.3,0-0.5-0.2-0.6-0.5c-0.4-1.2-0.7-2.5-0.9-3.8c-0.2-1.4-0.4-3.9,0.8-5.2&#10;&#9;&#9;c0.5-0.6,1.3-0.8,2.1-0.7c3.1,0.3,4.6,5.3,4.8,5.9l0,0c0.1,0.3,0.1,0.5,0,0.8c-0.1,0.2-0.3,0.4-0.5,0.5l-2.8,1.9&#10;&#9;&#9;C266.5,172.3,265.6,172.6,264.6,172.7z M265.5,163.9c-0.3,0-0.5,0.1-0.7,0.3c-0.7,0.7-0.7,2.5-0.5,4c0.2,1,0.4,2,0.7,3&#10;&#9;&#9;c0.6-0.2,1.1-0.4,1.5-0.8l2.7-1.8c-0.6-1.9-1.9-4.6-3.5-4.8L265.5,163.9z M269.2,168.9L269.2,168.9l0.7-0.2L269.2,168.9z"/>
	<path class="st1_global-warming-2-50" d="M287.7,179.5c0.2,1.8-1.1,3.4-2.9,3.6c-1.6,0.2-3.2-0.9-3.6-2.5L287.7,179.5z"/>
	<path class="st1_global-warming-2-50" d="M297.8,180.9c-0.5,1.7-2.3,2.8-4.1,2.3c-1.6-0.5-2.6-2.1-2.3-3.7L297.8,180.9z"/>
</g>
<g id="Fleeting_ice_small_global-warming-2-50">
	<polygon class="st0_global-warming-2-50" points="418.3,280 397.2,295.5 353.6,287.7 367.4,273.1 395.2,266.4 &#9;"/>
	<path class="st1_global-warming-2-50" d="M397.2,296.2H397l-43.5-7.8c-0.2-0.1-0.4-0.2-0.5-0.4c-0.1-0.2,0-0.5,0.2-0.7l13.8-14.7&#10;&#9;&#9;c0.1-0.1,0.2-0.2,0.3-0.2l27.7-6.7c0.2,0,0.4,0,0.5,0.1l23.1,13.5c0.2,0.1,0.3,0.3,0.4,0.6c0,0.2-0.1,0.5-0.3,0.6l-21.1,15.5&#10;&#9;&#9;C397.5,296.2,397.3,296.2,397.2,296.2z M355,287.3l42,7.5l20-14.8l-21.9-12.9l-27.3,6.5L355,287.3z"/>
	<polygon class="st0_global-warming-2-50" points="353.6,287.7 363,302.4 397.2,311.1 397.2,295.5 &#9;"/>
	<path class="st1_global-warming-2-50" d="M397.2,311.8H397l-34.2-8.7c-0.2,0-0.3-0.2-0.4-0.3l-9.3-14.7c-0.1-0.2-0.1-0.5,0-0.8c0.2-0.2,0.4-0.3,0.7-0.3&#10;&#9;&#9;l43.5,7.8c0.3,0.1,0.6,0.4,0.6,0.7v15.5C397.9,311.5,397.6,311.8,397.2,311.8L397.2,311.8L397.2,311.8z M363.4,301.8l33.1,8.4v-14&#10;&#9;&#9;l-41.4-7.4L363.4,301.8z"/>
	<polygon class="st3_global-warming-2-50" points="397.2,311.1 412.7,298.4 418.3,280 397.2,295.5 &#9;"/>
	<path class="st1_global-warming-2-50" d="M397.2,311.8c-0.1,0-0.2,0-0.3-0.1c-0.2-0.1-0.4-0.4-0.4-0.6v-15.5c0-0.2,0.1-0.4,0.3-0.6l21.1-15.5&#10;&#9;&#9;c0.3-0.2,0.7-0.2,1,0.1c0.1,0.2,0.2,0.4,0.1,0.6l-5.6,18.4c0,0.1-0.1,0.3-0.2,0.3l-15.6,12.7C397.5,311.7,397.3,311.8,397.2,311.8z&#10;&#9;&#9; M397.9,295.9v13.7l14.2-11.6l4.9-16.2L397.9,295.9z"/>
</g>
<g id="iceberg_global-warming-2-50">
	<path class="st3_global-warming-2-50" d="M316.7,210.8c-0.1,0-0.3,0-0.4-0.1c-0.3-0.2-0.4-0.6-0.2-1c0,0,0,0,0,0l14.8-20.8c1-1.6,2.2-3,3.6-4.1&#10;&#9;&#9;c1-0.7,2.2-1.2,3.4-1.5c0.4-0.1,0.9-0.3,1.3-0.4c6-2.3,10.9-10.1,15.6-17.7c2.2-3.7,4.6-7.3,7.2-10.8c1.4-1.7,2.9-3.3,4.7-3.1&#10;&#9;&#9;c1.4,0.2,2.6,1.4,3.7,2.7c5.7,6.7,10.8,13.8,15.3,21.3l8.9-18.4c0.1-0.2,0.3-0.4,0.6-0.4c0.3,0,0.5,0.1,0.6,0.4&#10;&#9;&#9;c11.8,21.9,26.4,38.9,42.1,49c0.3,0.2,0.4,0.7,0.2,1c-0.2,0.3-0.6,0.4-0.9,0.2c-15.7-10-30.2-26.7-42-48.3l-8.8,18.3&#10;&#9;&#9;c-0.1,0.2-0.3,0.4-0.6,0.4c-0.3,0-0.5-0.1-0.6-0.3c-4.7-7.8-10-15.3-15.9-22.2c-1-1.1-1.9-2.1-2.8-2.2c-1.2-0.1-2.4,1.2-3.4,2.6&#10;&#9;&#9;c-2.6,3.4-5,7-7.1,10.6c-4.9,7.8-9.9,15.8-16.3,18.3c-0.5,0.2-0.9,0.3-1.4,0.5c-1.1,0.3-2.1,0.7-3,1.3c-1.3,1.1-2.4,2.4-3.3,3.8&#10;&#9;&#9;l-14.8,20.8C317.1,210.7,316.9,210.8,316.7,210.8z"/>
	<path class="st3_global-warming-2-50" d="M407.7,172.2c-0.4,0-0.7-0.3-0.7-0.7c0-0.1,0-0.3,0.1-0.4l13.6-20.2c2.1-3,4-6.2,5.6-9.4&#10;&#9;&#9;c0.4-0.9,0.8-1.7,1.1-2.6c0.9-2.2,2-4.4,3.3-6.4c0.3-0.5,0.8-0.9,1.4-1c1-0.1,1.6,0.8,1.8,1.1c0.9,1.4,1.6,3,2.1,4.6&#10;&#9;&#9;c0.5,1.6,1.2,3.1,2.1,4.4c0.8,1.2,2.2,1.8,3.6,1.7c1.6-0.2,3-1.2,3.7-2.7c0.2-0.3,0.6-0.5,0.9-0.3c0.1,0,0.1,0.1,0.2,0.2&#10;&#9;&#9;c2.9,3.2,5.9,6.3,9.1,9.2c0.3,0.2,0.4,0.6,0.3,1c-0.2,0.3-0.6,0.4-1,0.3c-0.1-0.1-0.2-0.1-0.2-0.2c-3-2.7-5.9-5.6-8.6-8.6&#10;&#9;&#9;c-1,1.5-2.6,2.4-4.3,2.6c-1.9,0.1-3.7-0.7-4.8-2.2c-1-1.5-1.8-3.1-2.3-4.8c-0.5-1.5-1.1-2.9-1.9-4.2c-0.3-0.5-0.5-0.5-0.5-0.5&#10;&#9;&#9;s-0.1,0.1-0.4,0.4c-1.3,1.9-2.3,3.9-3.1,6.1c-0.4,0.9-0.8,1.8-1.2,2.7c-1.7,3.4-3.6,6.6-5.8,9.6l-13.6,20.2&#10;&#9;&#9;C408.2,172.1,408,172.2,407.7,172.2z"/>
	<path class="st3_global-warming-2-50" d="M102.4,204.1c-0.2,0-0.4-0.1-0.6-0.3l-13.6-20.2c-2.2-3-4.1-6.2-5.8-9.6c-0.4-0.9-0.8-1.8-1.1-2.6&#10;&#9;&#9;c-1.5-3.9-2.4-5.8-6.1-5c-1.7,0.4-2.9,2.3-4.2,4.2c-1.5,2.4-3.1,4.8-5.7,4.9c-0.8,0-1.6-0.3-2.3-0.8c-5.2-3.5-8.8-8.8-12.2-14&#10;&#9;&#9;c-3.2-4.9-6.6-10-11.4-13.3c-0.3-0.2-0.4-0.6-0.2-1c0,0,0,0,0,0c0.2-0.3,0.7-0.4,1-0.2c0,0,0,0,0,0c5,3.5,8.4,8.7,11.7,13.7&#10;&#9;&#9;S59,170.2,64,173.5c0.4,0.3,0.9,0.5,1.4,0.6c1.9-0.1,3.2-2.1,4.6-4.3s2.8-4.3,5-4.8c5-1.1,6.4,2.4,7.7,5.9c0.3,0.9,0.7,1.7,1.1,2.6&#10;&#9;&#9;c1.6,3.3,3.5,6.5,5.6,9.4L103,203c0.2,0.3,0.1,0.8-0.2,1C102.7,204,102.6,204.1,102.4,204.1L102.4,204.1z"/>
	<path class="st3_global-warming-2-50" d="M68,197.6c-0.3,0-0.6-0.2-0.7-0.5c-2.4-8.5-4.4-22.7-4.4-22.9c-0.1-0.4,0.2-0.7,0.6-0.8c0.4,0,0.7,0.2,0.8,0.6&#10;&#9;&#9;c0,0.1,2,14.2,4.4,22.7c0.1,0.4-0.1,0.8-0.5,0.9C68.1,197.5,68.1,197.6,68,197.6z"/>
	<path class="st3_global-warming-2-50" d="M341.9,200.4c-0.4,0-0.7-0.3-0.7-0.7c-0.3-6.1,4.3-21.1,4.5-21.7c0.1-0.4,0.5-0.6,0.8-0.5s0.6,0.5,0.5,0.8&#10;&#9;&#9;c0,0,0,0.1,0,0.1c0,0.1-4.8,15.4-4.4,21.2C342.6,200.1,342.3,200.4,341.9,200.4C341.9,200.4,341.9,200.4,341.9,200.4L341.9,200.4z"/>
	<path class="st3_global-warming-2-50" d="M444.6,174.7c-0.3,0-0.6-0.2-0.7-0.5c-1.8-7.2-6.9-24.1-6.9-24.3c-0.1-0.4,0.2-0.7,0.6-0.8&#10;&#9;&#9;c0.3-0.1,0.6,0.1,0.8,0.4c0.1,0.2,5.2,17.2,7,24.3c0.1,0.4-0.1,0.7-0.5,0.8C444.7,174.7,444.7,174.7,444.6,174.7z"/>
</g>
<g id="waves_global-warming-2-50">
	<path class="st0_global-warming-2-50" d="M259.3,383.7c-0.4,0-0.7-0.3-0.7-0.7s0.3-0.7,0.7-0.7c9.7-1.1,19.1-4,27.7-8.6c0.3-0.1,0.6-0.1,0.8,0.1&#10;&#9;&#9;c8.5,7.8,21,9.2,31.1,3.5c0.2-0.1,0.4-0.1,0.6,0c9.9,3.9,20.9,3.9,30.8,0c0.4-0.1,0.8,0,0.9,0.4c0,0,0,0,0,0c0.1,0.4,0,0.8-0.4,0.9&#10;&#9;&#9;c0,0,0,0,0,0c-10.1,4-21.4,4.1-31.5,0.1c-10.4,5.7-23.2,4.3-32.1-3.5C278.5,379.8,269.1,382.7,259.3,383.7L259.3,383.7z"/>
	<path class="st0_global-warming-2-50" d="M339.8,337.1c-0.3,0-0.6-0.2-0.7-0.5c-0.1-0.4,0.1-0.8,0.4-0.9c8.5-3.2,16.2-8.2,22.6-14.6&#10;&#9;&#9;c0.3-0.3,0.7-0.3,1,0c0,0,0,0,0,0c3.7,3.5,8.1,7.4,13.4,8.7c4.8,1.2,11.1-0.1,13.6-4.9c0.1-0.2,0.3-0.3,0.5-0.4&#10;&#9;&#9;c0.2,0,0.5,0,0.6,0.2c8.1,8.7,22.4,10.7,32.5,4.5c0.3-0.2,0.8-0.1,1,0.2c0,0,0,0,0,0c0.2,0.3,0.1,0.8-0.2,1c0,0,0,0,0,0&#10;&#9;&#9;c-10.4,6.3-25,4.5-33.6-4.1c-3.1,4.8-9.7,6.1-14.7,4.8c-5.4-1.4-9.8-5.1-13.5-8.6c-6.5,6.3-14.2,11.2-22.7,14.4&#10;&#9;&#9;C339.9,337.1,339.9,337.1,339.8,337.1z"/>
	<path class="st0_global-warming-2-50" d="M63,370.4c-0.2,0-0.4-0.1-0.5-0.2c-0.3-0.3-0.2-0.7,0-1c0,0,0,0,0,0l19.9-17.8c0.5-0.5,1-0.8,1.7-1&#10;&#9;&#9;c1.8-0.4,3.1,1.2,3.8,2.2c7.9,9,21.4,10.2,30.8,2.7c0.6-0.7,1.4-1.1,2.3-1.2l0,0c0.6,0.1,1.3,0.3,1.8,0.7c8.6,5,19.1,5.1,27.8,0.3&#10;&#9;&#9;c0.3-0.2,0.8,0,0.9,0.3c0.2,0.3,0.1,0.7-0.2,0.9c-9.1,5.1-20.2,5-29.2-0.3c-0.3-0.2-0.7-0.4-1.1-0.5c-0.4,0-0.9,0.4-1.4,0.8&#10;&#9;&#9;c-9.9,8-24.4,6.8-32.8-2.9c-0.7-0.9-1.6-1.9-2.4-1.7c-0.4,0.2-0.7,0.4-1,0.7l-19.9,17.8C63.3,370.4,63.2,370.4,63,370.4z"/>
	<path class="st0_global-warming-2-50" d="M342.3,249.4c-2,0-3.9-0.5-5.7-1.2c-2.9-1.2-8.6-3.9-9.8-7.5c-3.1,4.1-8.5,5.8-13.5,4.3&#10;&#9;&#9;c-3.8-1.3-6.6-4.5-8.9-7.2c-5.9,7.3-14.8,11.3-24.2,10.9c-0.4-0.1-0.6-0.4-0.6-0.8c0.1-0.3,0.3-0.6,0.7-0.6&#10;&#9;&#9;c9.2,0.4,18-3.8,23.5-11.1c0.1-0.2,0.3-0.3,0.5-0.3c0.2,0,0.4,0.1,0.6,0.2c2.3,2.8,5.1,6.2,8.9,7.5c5.2,1.6,10.9-0.9,13.1-5.9&#10;&#9;&#9;c0.1-0.4,0.6-0.5,0.9-0.4c0.4,0.1,0.5,0.6,0.4,0.9l0,0c-1.6,4.1,7.1,7.9,8.9,8.6c7,2.8,12.3,0.3,16.7-7.8c0.1-0.2,0.3-0.4,0.6-0.4&#10;&#9;&#9;c0.2,0,0.5,0.1,0.6,0.3c3.9,5.6,11.1,7.7,17.4,5.2c0.4-0.1,0.8,0.1,0.9,0.4c0.1,0.3,0,0.7-0.3,0.9c-6.5,2.6-14,0.7-18.4-4.8&#10;&#9;&#9;C351.1,246.5,347,249.4,342.3,249.4z"/>
	<path class="st0_global-warming-2-50" d="M50.1,235.2c-0.4,0-0.7-0.3-0.7-0.7c0-0.3,0.2-0.6,0.6-0.7c6.5-1.1,12.5-4.2,17.2-8.8c0.2-0.2,0.4-0.2,0.7-0.2&#10;&#9;&#9;c0.2,0.1,0.4,0.3,0.5,0.5c1.3,4.1,5.3,6.7,9.5,6.3c2.4-0.3,4.4-1.5,6.6-2.8c1.2-0.7,2.4-1.4,3.7-2c0.3-0.2,0.8,0,0.9,0.3&#10;&#9;&#9;c0,0,0,0,0,0c0.1,0.4,0,0.8-0.4,0.9c-1.2,0.6-2.4,1.2-3.6,1.9c-2.2,1.5-4.6,2.5-7.1,3c-4.5,0.5-8.8-2.1-10.7-6.2&#10;&#9;&#9;c-4.8,4.4-10.8,7.4-17.2,8.5L50.1,235.2z"/>
	<path class="st0_global-warming-2-50" d="M168.6,381.2c-2.1,0-4.3-0.3-6.3-0.9c-0.4-0.1-0.6-0.4-0.5-0.8s0.4-0.6,0.8-0.5c0,0,0.1,0,0.1,0&#10;&#9;&#9;c10,2.9,20.7-2.4,28.9-7.3c1-0.8,2.4-0.7,3.2,0.2c0.2,0.2,0.3,0.4,0.4,0.6l0.1,0.1c1.9,2.3,4.7,3.6,7.7,3.5h0.1&#10;&#9;&#9;c3.1-0.1,6.1-1.1,8.8-2.7c1.4-0.8,5.2-2.9,7.3-0.5c0.3,0.3,0.3,0.7,0,1c0,0,0,0,0,0c-0.3,0.3-0.7,0.2-1,0c0,0,0,0,0,0&#10;&#9;&#9;c-0.9-1.1-2.7-0.8-5.6,0.8c-2.9,1.7-6.1,2.7-9.4,2.8c-3.5,0.2-6.8-1.4-9-4.1l-0.1-0.1c-0.3-0.4-0.6-0.8-0.8-0.8&#10;&#9;&#9;c-0.3,0-0.7,0.1-0.9,0.4C185.6,376.9,177.1,381.2,168.6,381.2z"/>
	<path class="st0_global-warming-2-50" d="M274.9,347.5c-1.9,0-3.7-0.2-5.6-0.6c-0.4-0.1-0.6-0.5-0.5-0.8c0.1-0.4,0.5-0.6,0.8-0.5&#10;&#9;&#9;c9.9,2,20.1-1.7,26.5-9.5c0.2-0.2,0.4-0.3,0.6-0.3c0.2,0,0.4,0.1,0.5,0.3c3.4,5.1,10.1,6.9,15.5,4.1c0.3-0.2,0.8-0.1,1,0.2&#10;&#9;&#9;c0.2,0.3,0.1,0.8-0.2,1c0,0-0.1,0-0.1,0c-5.8,3-12.9,1.4-16.9-3.8C291.1,343.9,283.2,347.5,274.9,347.5z"/>
	<path class="st0_global-warming-2-50" d="M404.1,254h-0.4c-0.4,0-0.7-0.3-0.7-0.7c0-0.4,0.3-0.7,0.7-0.7l0,0c5.9,0.1,11.6-2.2,15.8-6.4&#10;&#9;&#9;c0.2-0.2,0.4-0.2,0.6-0.2c0.2,0,0.4,0.2,0.5,0.3c3.8,5.9,11.7,7.5,17.5,3.7c0.3-0.2,0.5-0.3,0.7-0.5c0.3-0.3,0.7-0.2,1,0&#10;&#9;&#9;c0.3,0.3,0.2,0.7,0,1c0,0,0,0-0.1,0c-3.1,2.5-7.1,3.5-11,2.7c-3.6-0.6-6.8-2.5-9-5.5C415.5,251.8,409.9,253.9,404.1,254z"/>
	<path class="st0_global-warming-2-50" d="M415.1,379.9c-5.1,0-9.8-2.5-12-6.3c-0.2-0.3-0.1-0.8,0.2-1c0.3-0.2,0.8-0.1,1,0.2c0,0,0,0,0,0.1&#10;&#9;&#9;c2.1,3.7,6.9,5.9,11.8,5.6c4.1-0.3,8.4-2.1,12.8-5.5c0.2-0.1,0.3-0.2,0.5-0.1c0.2,0,0.4,0.2,0.5,0.3c1.4,2.2,4.5,2.9,6.8,2.5&#10;&#9;&#9;c2.7-0.4,5.3-1.8,7.5-3.1c0.3-0.2,0.7-0.1,1,0.2c0,0,0,0,0,0.1c0.2,0.3,0.1,0.8-0.2,1c0,0,0,0,0,0c-2.4,1.3-5.1,2.9-8,3.3&#10;&#9;&#9;c-2.8,0.5-5.8-0.5-7.7-2.6c-4.5,3.3-8.8,5.1-13,5.4C415.8,379.8,415.5,379.9,415.1,379.9z"/>
	<path class="st0_global-warming-2-50" d="M80.6,329.5c-2.3,0-4.5-0.3-6.7-1c-5-1.5-9.2-5.1-11.5-9.8c-4.3,4.5-10.2,6.9-16.4,6.8c-0.4,0-0.7-0.3-0.7-0.7&#10;&#9;&#9;c0,0,0,0,0,0c0-0.4,0.3-0.7,0.6-0.7c0,0,0.1,0,0.1,0c6.1,0.2,12-2.5,16-7.1c0.2-0.2,0.4-0.3,0.7-0.2c0.2,0,0.5,0.2,0.5,0.5&#10;&#9;&#9;c1.9,4.9,6,8.5,11,10c5.1,1.4,10.5,1.2,15.4-0.7c0.4-0.1,0.8,0.1,0.9,0.4c0.1,0.4-0.1,0.8-0.4,0.9&#10;&#9;&#9;C87.1,328.9,83.8,329.5,80.6,329.5z"/>
	<path class="st0_global-warming-2-50" d="M377.6,228.8c-0.4,0-0.7-0.3-0.7-0.7c0-0.3,0.2-0.6,0.6-0.7c4.6-0.8,9-2.6,12.8-5.3c0.6-0.5,1.4-0.9,2.2-1&#10;&#9;&#9;c0.6,0,1.2,0.2,1.8,0.5l1.2,0.6c1.7,0.9,3.6,1.6,5.5,2.1c2.2,0.6,4.6,0.1,6.3-1.4c0.3-0.3,0.7-0.3,1,0s0.3,0.7,0,1l0,0&#10;&#9;&#9;c-2.1,1.8-4.9,2.4-7.6,1.7c-2-0.5-4-1.2-5.8-2.2l-1.2-0.6c-0.3-0.2-0.7-0.3-1.1-0.3c-0.5,0.1-1,0.3-1.4,0.7&#10;&#9;&#9;c-4,2.8-8.6,4.7-13.5,5.5L377.6,228.8z"/>
</g>
</svg>