<svg version="1.1" id="Layer_1" xmlns="http://www.w3.org/2000/svg" xmlns:xlink="http://www.w3.org/1999/xlink" x="0px" y="0px" viewBox="0 0 500 500" style="width: 287px;" xml:space="preserve" data-imageid="moscow-56" imageName="Moscow" class="illustrations_image">
<style type="text/css">
	.st0_moscow-56{fill:#FFFFFF;}
	.st1_moscow-56{fill:#68E1FD;}
	.st2_moscow-56{fill:#093F68;}
</style>
<g id="circle_moscow-56">
	<path class="st0_moscow-56" d="M428.3,272.3c0,63.1-33.3,121.5-87.6,153.7c-6.4,3.9-13.1,7.3-20,10.2c-2.1,1-4.3,1.8-6.5,2.7&#10;&#9;&#9;c-0.7,0.3-1.4,0.5-2,0.8c-7.7,2.9-15.6,5.2-23.6,7l-2.1,0.5l-6.3,1.2l-1.9,0.3c-7.8,1.3-15.7,2-23.6,2.2h-10.3&#10;&#9;&#9;c-7.9-0.2-15.8-0.9-23.6-2.2c-0.8-0.1-1.5-0.2-2.3-0.4l-6.3-1.2l-1.8-0.4c-8-1.8-15.9-4.1-23.6-7l-2.4-0.9&#10;&#9;&#9;c-2.2-0.8-4.3-1.7-6.5-2.7c-6.9-3-13.6-6.4-20-10.3c-50.6-30-83.1-83.1-86.9-141.8c-0.2-3.9-0.4-7.8-0.4-11.7&#10;&#9;&#9;c0-97,77.3-175.9,173.6-178.6h9.8C350.8,96.2,428.3,175.2,428.3,272.3z"/>
	<path class="st1_moscow-56 targetColor" d="M249.6,452.9h-5.2c-8-0.2-15.9-0.9-23.8-2.3c-0.8-0.1-1.5-0.2-2.3-0.4c-2.1-0.4-4.3-0.8-6.3-1.2&#10;&#9;&#9;c-0.6-0.1-1.2-0.2-1.8-0.4c-8.1-1.8-16-4.2-23.8-7.1l-2.4-0.9c-2.3-0.9-4.4-1.8-6.6-2.7c-7-3-13.7-6.5-20.2-10.4&#10;&#9;&#9;C123,407,96.4,375.8,81.6,338.8c-6.9-17.5-11-35.9-12.2-54.6c-0.2-4-0.4-8-0.4-11.8c-0.1-97.8,77.7-177.8,175.5-180.6h2.3&#10;&#9;&#9;c1.8-0.1,3.7-0.1,5.5,0h2.2c99.7,2.7,178.4,85.6,175.7,185.4c-1.7,62-35,118.9-88.4,150.5c-6.5,3.9-13.2,7.4-20.2,10.4&#10;&#9;&#9;c-2.2,1-4.4,1.9-6.6,2.7l-2,0.8c-7.8,2.9-15.7,5.3-23.8,7.1l-2.1,0.5c-2.2,0.5-4.4,0.9-6.4,1.2c-0.5,0.1-1.1,0.2-1.7,0.3h-0.2&#10;&#9;&#9;c-7.9,1.3-15.8,2.1-23.8,2.3h-2.2C251.7,452.9,250.6,452.9,249.6,452.9z" style="fill: rgb(142, 73, 255);"/>
	<path class="st2_moscow-56" d="M252.8,455h-0.2c-1-0.1-2-0.1-3-0.1h-5.2c-8.1-0.2-16.2-0.9-24.1-2.3h-0.2c-0.7-0.1-1.5-0.2-2.2-0.4l-2.1-0.4&#10;&#9;&#9;c-1.4-0.3-2.9-0.5-4.2-0.8c-0.7-0.1-1.3-0.2-1.9-0.4c-8.2-1.8-16.2-4.2-24-7.2l-2.4-0.9c-1.6-0.6-3-1.2-4.5-1.8l-2.2-0.9&#10;&#9;&#9;c-7.1-3-13.9-6.6-20.5-10.5c-34.5-20.8-61.4-52.3-76.4-89.7c-7-17.7-11.1-36.3-12.3-55.2c-0.2-4-0.4-8.1-0.4-11.9&#10;&#9;&#9;c-0.1-98.9,78.6-179.8,177.4-182.6h2.3c1.9-0.1,3.7-0.1,5.6,0h2.1c98.9,2.6,177.8,83.5,177.8,182.5c-0.2,64.4-34.2,124-89.5,157.1&#10;&#9;&#9;c-6.6,3.9-13.4,7.5-20.4,10.5c-2.2,1-4.5,1.9-6.7,2.8l-1.9,0.8c-7.9,3-15.9,5.4-24.1,7.2l-2.1,0.5c-2.1,0.5-4.4,0.9-6.6,1.2&#10;&#9;&#9;l-1.7,0.3H279l0,0c-7.9,1.3-15.9,2.1-23.9,2.3L252.8,455z M252.9,451h2.1c7.9-0.2,15.7-1,23.5-2.3h0.3l0,0l1.5-0.3&#10;&#9;&#9;c2.2-0.3,4.4-0.7,6.4-1.2l2.1-0.5c8-1.8,15.9-4.1,23.6-7l2-0.8c2.2-0.8,4.4-1.7,6.5-2.7c6.9-3,13.6-6.4,20-10.3&#10;&#9;&#9;c54.1-32.4,87.3-90.7,87.5-153.7c0-96.8-77.1-175.9-173.8-178.5h-2.2c-1.8-0.1-3.5-0.1-5.3,0h-2.4C147.8,96.5,70.9,175.7,71,272.4&#10;&#9;&#9;c0,3.7,0.2,7.8,0.4,11.7c1.2,18.5,5.3,36.7,12.1,54c14.7,36.6,41,67.4,74.8,87.7c6.4,3.9,13.1,7.3,20,10.3l2.2,0.9&#10;&#9;&#9;c1.4,0.6,2.9,1.2,4.4,1.8l2.4,0.9c7.7,2.9,15.5,5.2,23.5,7h0.2c0.5,0.1,1,0.3,1.5,0.3l4.2,0.8l2.1,0.4h0.1c0.6,0.1,1.2,0.2,1.8,0.3&#10;&#9;&#9;h0.3c7.8,1.4,15.7,2.1,23.6,2.3h5.1C250.6,450.9,251.7,450.9,252.9,451z"/>
	<path class="st2_moscow-56" d="M252.8,454.6h-0.1c-1-0.1-2.1-0.1-3.1-0.1h-5.2c-8.1-0.2-16.1-0.9-24.1-2.3h-0.2c-0.7-0.1-1.5-0.2-2.2-0.4&#10;&#9;&#9;l-2-0.4c-1.4-0.3-2.9-0.5-4.2-0.8c-0.6-0.1-1.3-0.2-1.9-0.4c-8.1-1.8-16.1-4.3-23.9-7.2l-2.4-0.9c-1.6-0.6-3-1.2-4.5-1.8l-2.2-0.9&#10;&#9;&#9;c-7-3-13.9-6.5-20.4-10.5c-34.5-20.7-61.2-52.1-76.3-89.5c-7-17.6-11.1-36.2-12.3-55.1c-0.2-4-0.4-8.1-0.4-11.9&#10;&#9;&#9;C67.3,173.7,145.8,93,244.4,90.2h2.4c1.9-0.1,3.7-0.1,5.6,0h2.1c98.7,2.6,177.4,83.4,177.4,182.1c-0.2,64.3-34.1,123.8-89.3,156.8&#10;&#9;&#9;c-6.6,3.9-13.4,7.4-20.4,10.5c-2.2,1-4.5,1.9-6.7,2.7l-2,0.8c-7.8,2.9-15.9,5.3-24,7.2l-2.1,0.5c-2.1,0.5-4.3,0.9-6.5,1.2&#10;&#9;&#9;c-0.4,0.1-1,0.2-1.7,0.3h-0.4c-7.9,1.3-15.9,2.1-23.9,2.3L252.8,454.6z M252.9,451.4h2.1c7.9-0.2,15.8-1,23.5-2.3h0.3&#10;&#9;&#9;c0.5-0.1,1.1-0.2,1.5-0.3c2.2-0.3,4.4-0.7,6.4-1.2l2.1-0.5c8-1.8,15.9-4.1,23.6-7l2-0.8c2.2-0.8,4.4-1.7,6.5-2.7&#10;&#9;&#9;c6.9-3,13.6-6.4,20-10.3c54.2-32.4,87.5-90.8,87.7-154c0-97-77.3-176.4-174.2-179h-2.2c-1.8-0.1-3.6-0.1-5.4,0h-2.4&#10;&#9;&#9;c-96.9,2.7-174,82.1-173.9,179c0,3.8,0.2,7.8,0.4,11.7c1.2,18.5,5.3,36.8,12.1,54.1c14.8,36.7,41,67.5,74.9,87.9&#10;&#9;&#9;c6.4,3.9,13.1,7.3,20,10.3l2.1,0.9c1.4,0.6,2.9,1.2,4.4,1.8l2.5,0.9c7.7,2.9,15.6,5.2,23.6,7l0.2,0c0.5,0.1,1,0.3,1.6,0.3l4.2,0.8&#10;&#9;&#9;l2.1,0.4c0.7,0.2,1.3,0.3,2,0.4h0.3c7.8,1.4,15.7,2.1,23.6,2.3h5.2C250.6,451.3,251.7,451.3,252.9,451.4L252.9,451.4z"/>
</g>
<g id="building_5_moscow-56">
	<rect x="313.2" y="214.3" class="st1_moscow-56 targetColor" width="76.4" height="81.3" style="fill: rgb(142, 73, 255);"/>
	<path class="st2_moscow-56" d="M389.7,297.6h-76.4c-1.1,0-2-0.9-2-2v-81.3c0-1.1,0.9-2,2-2h76.4c1.1,0,2,0.9,2,2v81.3&#10;&#9;&#9;C391.7,296.7,390.8,297.6,389.7,297.6z M315.2,293.6h72.4v-77.3h-72.4V293.6z"/>
	<path class="st2_moscow-56" d="M391.3,297.2h-79.6v-84.5h79.6L391.3,297.2z M314.9,294H388v-78.1h-73.1V294z"/>
	<path class="st1_moscow-56 targetColor" d="M389.7,296.5h-76.4c-0.5,0-0.9-0.4-0.9-0.8c0,0,0,0,0,0v-81.3c0-0.5,0.4-0.9,0.8-0.9c0,0,0,0,0,0h76.4&#10;&#9;&#9;c0.5,0,0.9,0.4,0.9,0.8c0,0,0,0,0,0v81.3C390.5,296.1,390.2,296.5,389.7,296.5C389.7,296.5,389.7,296.5,389.7,296.5z M314.1,294.8&#10;&#9;&#9;h74.7v-79.6h-74.7V294.8z" style="fill: rgb(142, 73, 255);"/>
	<path class="st2_moscow-56" d="M389.7,298.5h-76.4c-1.6,0-2.9-1.3-2.9-2.9v-81.3c0-1.6,1.3-2.9,2.9-2.9h76.4c1.6,0,2.9,1.3,2.9,2.9v81.3&#10;&#9;&#9;C392.5,297.2,391.2,298.5,389.7,298.5z M316.1,292.8h70.7v-75.6h-70.7V292.8z"/>
	<path class="st2_moscow-56" d="M389.7,298.1h-76.4c-1.4,0-2.5-1.1-2.5-2.5v-81.3c0-1.4,1.1-2.5,2.5-2.5h76.4c1.4,0,2.5,1.1,2.5,2.5v81.3&#10;&#9;&#9;C392.1,297,391,298.1,389.7,298.1z M315.7,293.1h71.4v-76.3h-71.5L315.7,293.1z"/>
	<polygon class="st1_moscow-56 targetColor" points="344.6,83.6 362.4,83.6 361.7,108.2 345.3,108.2 &#9;" style="fill: rgb(142, 73, 255);"/>
	<path class="st2_moscow-56" d="M361.7,110.2h-16.4c-1.1,0-2-0.9-2-1.9l-0.7-24.7c0-0.5,0.2-1.1,0.6-1.4c0.4-0.4,0.9-0.6,1.4-0.6h17.8&#10;&#9;&#9;c0.5,0,1.1,0.2,1.4,0.6c0.4,0.4,0.6,0.9,0.6,1.4l-0.7,24.7C363.7,109.3,362.8,110.2,361.7,110.2z M347.2,106.2h12.5l0.6-20.7h-13.7&#10;&#9;&#9;L347.2,106.2z"/>
	<path class="st2_moscow-56" d="M363.3,109.8h-19.5L343,81.9h21L363.3,109.8z M346.9,106.6h13.2l0.6-21.4h-14.4L346.9,106.6z"/>
	<path class="st1_moscow-56 targetColor" d="M361.7,109.1h-16.4c-0.5,0-0.8-0.4-0.9-0.8l-0.7-24.7c0-0.2,0.1-0.4,0.2-0.6c0.2-0.2,0.4-0.3,0.6-0.3h17.8&#10;&#9;&#9;c0.5,0,0.9,0.4,0.9,0.8c0,0,0,0,0,0l-0.7,24.7C362.5,108.7,362.2,109.1,361.7,109.1L361.7,109.1z M346.1,107.3h14.7l0.6-22.9h-16&#10;&#9;&#9;L346.1,107.3L346.1,107.3z" style="fill: rgb(142, 73, 255);"/>
	<path class="st2_moscow-56" d="M361.7,111.1h-16.4c-1.6,0-2.8-1.2-2.9-2.8l-0.7-24.7c0-0.7,0.3-1.5,0.8-2c0.5-0.6,1.3-0.9,2.1-0.9h17.8&#10;&#9;&#9;c1.6,0,2.9,1.3,2.9,2.8c0,0,0,0,0,0l-0.7,24.7C364.5,109.9,363.2,111.1,361.7,111.1z M348.1,105.3h10.8l0.5-18.9h-11.9L348.1,105.3&#10;&#9;&#9;z"/>
	<path class="st2_moscow-56" d="M361.7,110.7h-16.4c-1.3,0-2.5-1.1-2.5-2.4l-0.7-24.7c0-0.7,0.2-1.3,0.7-1.8c0.5-0.5,1.1-0.8,1.8-0.8h17.8&#10;&#9;&#9;c1.4,0,2.5,1.1,2.5,2.5c0,0,0,0,0,0l-0.7,24.7C364.1,109.6,363,110.7,361.7,110.7z M347.7,105.7h11.6l0.5-19.7h-12.7L347.7,105.7z"/>
	<polygon class="st0_moscow-56" points="362.8,126 344.4,126 313.5,193.9 313.5,209.5 393.7,209.5 393.7,193.9 &#9;"/>
	<path class="st2_moscow-56" d="M395.3,211.1h-83.4v-17.5l0.1-0.3l31.3-68.9h20.5l31.5,69.2V211.1z M315.1,207.9h77v-13.6l-30.3-66.7h-16.4&#10;&#9;&#9;l-30.3,66.7V207.9z"/>
	<path class="st1_moscow-56 targetColor" d="M371,210.3h-35c-0.5,0-0.9-0.4-0.9-0.9c0,0,0,0,0,0v-15.5l13.5-68.1c0.1-0.4,0.4-0.7,0.9-0.7h8&#10;&#9;&#9;c0.4,0,0.8,0.3,0.9,0.7l13.5,67.9v15.7C371.9,209.9,371.5,210.3,371,210.3C371,210.3,371,210.3,371,210.3L371,210.3z M336.9,208.6&#10;&#9;&#9;h33.2v-14.7l-13.3-67.1h-6.6l-13.3,67.2L336.9,208.6L336.9,208.6z" style="fill: rgb(142, 73, 255);"/>
	<path class="st2_moscow-56" d="M371,212.3h-35c-1.6,0-2.9-1.3-2.9-2.9v-15.5c0-0.1,0-0.3,0-0.4l13.5-68.1c0.3-1.3,1.4-2.3,2.8-2.3h8&#10;&#9;&#9;c1.3,0,2.5,0.9,2.8,2.3l13.5,68c0,0.1,0,0.3,0,0.4v15.7c0,0.7-0.3,1.5-0.8,2c-0.4,0.5-1,0.7-1.6,0.8&#10;&#9;&#9;C371.2,212.3,371.1,212.3,371,212.3z M338.9,206.6h29.3v-12.5l-13-65.2h-3.3l-13,65.4L338.9,206.6z"/>
	<path class="st2_moscow-56" d="M371,212h-35c-1.4,0-2.5-1.1-2.5-2.5l0,0v-15.9l13.5-68.1c0.2-1.2,1.2-2,2.4-2h8c1.2,0,2.2,0.8,2.4,2&#10;&#9;&#9;l13.5,68.1v15.9c0,0.6-0.2,1.3-0.7,1.7l-0.2,0.1v0.6L371,212z M338.5,207h30v-12.9l-13-65.6h-4l-13,65.8V207z"/>
	<path class="st1_moscow-56 targetColor" d="M397.4,196.9c-5.3,0-10,3.3-11.9,8.2l0,0c-2.5-6.6-9.8-9.9-16.3-7.5c-3.5,1.3-6.2,4-7.5,7.5&#10;&#9;&#9;c-2.5-6.6-9.8-9.9-16.3-7.5c-3.5,1.3-6.2,4-7.5,7.5c-2.5-6.6-9.8-9.9-16.3-7.5c-3.5,1.3-6.2,4-7.5,7.5l0,0c-1.9-5-6.6-8.3-11.9-8.3&#10;&#9;&#9;c-0.9,0-1.8,0.1-2.7,0.3l1.2,4.8l1.9,7.4H397l1.9-7.4l1.2-4.8C399.2,197,398.3,196.9,397.4,196.9L397.4,196.9z" style="fill: rgb(142, 73, 255);"/>
	<path class="st2_moscow-56" d="M397,211.5h-94.5c-0.9,0-1.7-0.6-1.9-1.5l-3.1-12.3c-0.1-0.5,0-1.1,0.2-1.5c0.3-0.5,0.7-0.8,1.3-0.9&#10;&#9;&#9;c1-0.2,2.1-0.3,3.1-0.3c4.7,0,9.1,2.3,11.9,6.1c4.7-6.6,13.9-8.1,20.5-3.3c1.3,0.9,2.4,2,3.3,3.3c4.7-6.6,13.9-8.1,20.5-3.3&#10;&#9;&#9;c1.3,0.9,2.4,2,3.3,3.3c4.7-6.6,13.9-8.1,20.5-3.3c1.3,0.9,2.4,2,3.3,3.3c2.7-3.7,7-6,11.7-6.1h0.2c1,0,2.1,0.1,3.1,0.3&#10;&#9;&#9;c0.5,0.1,1,0.4,1.3,0.9c0.3,0.5,0.4,1,0.2,1.6L399,210C398.8,210.9,398,211.5,397,211.5z M304,207.5h91.4l2.1-8.6h-0.2&#10;&#9;&#9;c-4.4,0-8.4,2.8-10,6.9c-0.2,0.7-0.8,1.2-1.5,1.3c-0.9,0.2-1.9-0.4-2.2-1.2c-2.1-5.5-8.2-8.4-13.8-6.3c-2.9,1.1-5.2,3.4-6.3,6.3&#10;&#9;&#9;c-0.3,0.8-1,1.3-1.9,1.3l0,0c-0.8,0-1.6-0.5-1.9-1.3c-2.1-5.5-8.2-8.4-13.8-6.3c-2.9,1.1-5.2,3.4-6.3,6.3c-0.3,0.8-1,1.3-1.9,1.3&#10;&#9;&#9;l0,0c-0.8,0-1.6-0.5-1.9-1.3c-2.1-5.5-8.2-8.4-13.8-6.3c-2.9,1.1-5.2,3.4-6.3,6.3c-0.4,1-1.5,1.6-2.6,1.2c-0.6-0.2-1-0.7-1.2-1.3&#10;&#9;&#9;c-1.6-4.1-5.6-6.8-10-6.9H302L304,207.5z"/>
	<path class="st2_moscow-56" d="M301.3,211.1l-3.5-14c-0.1-0.6,0.2-1.2,0.8-1.3c0,0,0,0,0,0l0.5-0.1c1-0.2,2-0.3,3-0.3c4.8,0,9.2,2.4,11.9,6.4&#10;&#9;&#9;c4.4-6.6,13.3-8.4,19.8-4c1.6,1,2.9,2.4,4,4c4.4-6.6,13.3-8.4,19.9-4c1.6,1,2.9,2.4,4,4c4.4-6.6,13.3-8.4,19.8-4c1.6,1,2.9,2.4,4,4&#10;&#9;&#9;c2-2.9,5-5,8.4-5.9l-0.5-0.5h4c1,0,2,0.1,3,0.3l0.4,0.1c0.7,0.1,1.1,0.8,0.9,1.4c0,0,0,0,0,0l-3.5,13.9L301.3,211.1z M387.1,207.9&#10;&#9;&#9;h8.7l2.3-9.3h-0.2h-0.5c-4.5,0-8.6,2.8-10.3,6.9V207.9z M362.4,207.9h22.4l-0.8-2.1c-2.1-5.7-8.5-8.7-14.3-6.5&#10;&#9;&#9;c-3,1.1-5.4,3.5-6.5,6.5L362.4,207.9z M338.6,207.9H361l-0.8-2.1c-2.1-5.7-8.5-8.7-14.3-6.5c-3,1.1-5.4,3.5-6.5,6.5L338.6,207.9z&#10;&#9;&#9; M314.8,207.9h22.4l-0.8-2.1c-2.1-5.7-8.5-8.7-14.3-6.5c-3,1.1-5.4,3.5-6.5,6.5L314.8,207.9z M303.8,207.9h8.7v-2.4&#10;&#9;&#9;c-1.7-4.2-5.8-7-10.3-7h-0.7L303.8,207.9z"/>
	<path class="st1_moscow-56 targetColor" d="M398.9,202l-1.9,7.4h-7.4c0.1-4.2,3.5-7.6,7.8-7.6C397.9,201.8,398.4,201.9,398.9,202L398.9,202z" style="fill: rgb(142, 73, 255);"/>
	<path class="st2_moscow-56" d="M397,211.5h-7.4c-0.5,0-1.1-0.2-1.4-0.6c-0.4-0.4-0.6-0.9-0.6-1.4c0.1-5.3,4.4-9.6,9.8-9.6&#10;&#9;&#9;c0.6,0,1.2,0.1,1.9,0.2c1.1,0.2,1.8,1.3,1.6,2.3c0,0,0,0.1,0,0.1L399,210C398.8,210.9,398,211.5,397,211.5z M392,207.5h3.4l0.9-3.5&#10;&#9;&#9;C394.4,204.3,392.8,205.7,392,207.5L392,207.5z"/>
	<path class="st2_moscow-56" d="M398.3,211.1H388v-1.6c0.1-5.1,4.3-9.2,9.4-9.2c0.6,0,1.1,0,1.6,0.1h2L398.3,211.1z M391.5,207.9h4.3l1.1-4.3&#10;&#9;&#9;C394.4,203.7,392.2,205.4,391.5,207.9z"/>
	<path class="st1_moscow-56 targetColor" d="M397,210.4h-7.4c-0.2,0-0.5-0.1-0.6-0.3c-0.2-0.2-0.2-0.4-0.2-0.6c0.1-4.7,3.9-8.5,8.6-8.4&#10;&#9;&#9;c0.6,0,1.1,0.1,1.6,0.2c0.2,0.1,0.4,0.2,0.6,0.4c0.1,0.2,0.2,0.4,0.1,0.7l-1.9,7.4C397.8,210.1,397.4,210.3,397,210.4L397,210.4z&#10;&#9;&#9; M390.6,208.6h5.8l1.5-5.9C394.3,202.5,391.1,205.1,390.6,208.6L390.6,208.6z" style="fill: rgb(142, 73, 255);"/>
	<path class="st2_moscow-56" d="M397,212.4h-7.4c-0.8,0-1.5-0.3-2-0.9c-0.5-0.5-0.8-1.3-0.8-2c0.1-5.9,4.9-10.5,10.8-10.4&#10;&#9;&#9;c0.6,0,1.3,0.1,1.9,0.2c0.7,0.2,1.4,0.6,1.8,1.2c0.4,0.7,0.6,1.5,0.4,2.2l-1.9,7.5c-0.3,1.1-1.2,2-2.4,2.1&#10;&#9;&#9;C397.3,212.4,397.2,212.4,397,212.4z M393.6,206.6h1.2l0.3-1.3C394.5,205.6,394,206.1,393.6,206.6L393.6,206.6z"/>
	<path class="st2_moscow-56" d="M397,212h-7.4c-0.7,0-1.3-0.3-1.8-0.7c-0.5-0.5-0.7-1.1-0.7-1.8c0.1-5.6,4.7-10,10.2-10c0.7,0,1.3,0.1,2,0.2&#10;&#9;&#9;c1.3,0.3,2.2,1.6,1.9,2.9c0,0,0,0.1,0,0.1l-1.9,7.5c-0.1,0.5-0.4,0.9-0.8,1.3v0.6L397,212z M392.8,207h2.3l0.6-2.4&#10;&#9;&#9;C394.5,205,393.5,205.9,392.8,207z"/>
	<path class="st1_moscow-56 targetColor" d="M309.9,209.5h-7.4l-1.9-7.5c0.5-0.1,1-0.1,1.5-0.1C306.4,201.9,309.8,205.2,309.9,209.5L309.9,209.5z" style="fill: rgb(142, 73, 255);"/>
	<path class="st2_moscow-56" d="M309.9,211.5h-7.4c-0.9,0-1.7-0.6-1.9-1.5l-1.9-7.4c-0.1-0.5,0-1.1,0.3-1.6c0.3-0.5,0.8-0.8,1.3-0.9&#10;&#9;&#9;c0.6-0.1,1.2-0.2,1.9-0.2c5.3,0,9.7,4.2,9.8,9.5C312,210.6,311.1,211.5,309.9,211.5C310,211.5,309.9,211.5,309.9,211.5L309.9,211.5&#10;&#9;&#9;z M304.1,207.5h3.4c-0.7-1.8-2.3-3.2-4.3-3.5L304.1,207.5z"/>
	<path class="st2_moscow-56" d="M311.6,211.1h-10.3l-2.6-10.3l1.6-0.3c0.6-0.1,1.2-0.2,1.8-0.2c5.1,0,9.3,4.1,9.4,9.2L311.6,211.1z&#10;&#9;&#9; M303.8,207.9h4.2c-0.7-2.4-2.8-4.1-5.3-4.3L303.8,207.9z"/>
	<path class="st1_moscow-56 targetColor" d="M309.9,210.4h-7.4c-0.4,0-0.7-0.3-0.8-0.7l-1.9-7.4c-0.1-0.2,0-0.5,0.1-0.7c0.1-0.2,0.3-0.3,0.6-0.4&#10;&#9;&#9;c0.5-0.1,1.1-0.2,1.6-0.2c4.7,0,8.5,3.7,8.6,8.4c0,0.2-0.1,0.5-0.2,0.6C310.4,210.3,310.2,210.4,309.9,210.4L309.9,210.4z&#10;&#9;&#9; M303.2,208.6h5.8c-0.5-3.5-3.7-6.1-7.2-5.9L303.2,208.6z" style="fill: rgb(142, 73, 255);"/>
	<path class="st2_moscow-56" d="M309.9,212.4h-7.4c-1.3,0-2.4-0.9-2.8-2.2l-1.9-7.4c-0.2-0.8-0.1-1.6,0.4-2.2c0.4-0.6,1.1-1.1,1.8-1.2&#10;&#9;&#9;c0.7-0.1,1.4-0.2,2.1-0.2c5.8,0,10.5,4.6,10.6,10.4c0,0.7-0.3,1.5-0.8,2C311.5,212,310.7,212.3,309.9,212.4z M304.8,206.6h1.2&#10;&#9;&#9;c-0.4-0.5-1-1-1.6-1.3L304.8,206.6z"/>
	<path class="st2_moscow-56" d="M309.9,212h-7.4c-1.1,0-2.1-0.8-2.4-1.9l-1.9-7.5c-0.2-0.7-0.1-1.4,0.3-1.9c0.4-0.6,0.9-0.9,1.6-1.1&#10;&#9;&#9;c0.7-0.1,1.3-0.2,2-0.2c5.6,0,10.1,4.4,10.2,10c0,0.7-0.2,1.3-0.7,1.8C311.3,211.7,310.6,212,309.9,212z M304.5,207h2.3&#10;&#9;&#9;c-0.6-1.1-1.6-2-2.9-2.4L304.5,207z"/>
	<path class="st1_moscow-56 targetColor" d="M333.7,209.5c-0.2-4.3-3.8-7.6-8-7.5c-4.1,0.1-7.3,3.4-7.5,7.5H333.7z" style="fill: rgb(142, 73, 255);"/>
	<path class="st2_moscow-56" d="M333.7,211.5h-15.5c-0.5,0-1.1-0.2-1.4-0.6c-0.4-0.4-0.6-0.9-0.6-1.4c0.2-5.4,4.7-9.6,10.1-9.5&#10;&#9;&#9;c5.2,0.2,9.3,4.3,9.5,9.5c0,0.5-0.2,1.1-0.6,1.4C334.8,211.3,334.3,211.5,333.7,211.5z M320.6,207.5h10.7c-1.2-2.9-4.5-4.4-7.5-3.2&#10;&#9;&#9;C322.4,204.9,321.2,206,320.6,207.5z"/>
	<path class="st2_moscow-56" d="M335.4,211.1h-18.8v-1.6c0.2-5.2,4.5-9.2,9.7-9.1c4.9,0.2,8.9,4.1,9.1,9.1L335.4,211.1z M320.1,207.9h11.8&#10;&#9;&#9;c-1-3.3-4.4-5.1-7.7-4.1C322.2,204.4,320.7,205.9,320.1,207.9z"/>
	<path class="st1_moscow-56 targetColor" d="M333.7,210.3h-15.5c-0.2,0-0.4-0.1-0.6-0.3c-0.2-0.2-0.3-0.4-0.2-0.6c0.2-4.8,4.2-8.5,8.9-8.3&#10;&#9;&#9;c4.5,0.2,8.2,3.8,8.3,8.3c0,0.2-0.1,0.5-0.2,0.6C334.2,210.2,334,210.3,333.7,210.3L333.7,210.3z M319.1,208.6h13.6&#10;&#9;&#9;c-0.6-3.8-4.1-6.4-7.8-5.8C321.9,203.2,319.6,205.6,319.1,208.6L319.1,208.6z" style="fill: rgb(142, 73, 255);"/>
	<path class="st2_moscow-56" d="M333.7,212.3h-15.5c-1.6,0-2.9-1.3-2.9-2.9c0,0,0,0,0,0c0.2-5.9,5.1-10.5,11-10.3c5.6,0.2,10.1,4.7,10.3,10.3&#10;&#9;&#9;C336.6,211,335.4,212.4,333.7,212.3C333.8,212.4,333.8,212.4,333.7,212.3L333.7,212.3z M322.1,206.6h7.7c-1.7-2.1-4.7-2.5-6.9-0.8&#10;&#9;&#9;C322.6,206,322.4,206.3,322.1,206.6z"/>
	<path class="st2_moscow-56" d="M333.7,212h-15.5c-1.4,0-2.5-1.1-2.5-2.5c0,0,0,0,0,0c0.2-5.7,4.9-10.1,10.6-9.9c5.4,0.2,9.7,4.5,9.9,9.9&#10;&#9;&#9;C336.2,210.9,335.1,212,333.7,212C333.8,212,333.8,212,333.7,212L333.7,212z M321.4,207h9.1c-1.5-2.5-4.7-3.4-7.2-1.9&#10;&#9;&#9;C322.5,205.5,321.9,206.2,321.4,207z"/>
	<path class="st1_moscow-56 targetColor" d="M357.5,209.5c0-4.3-3.5-7.8-7.8-7.8c-4.3,0-7.7,3.5-7.8,7.8H357.5z" style="fill: rgb(142, 73, 255);"/>
	<path class="st2_moscow-56" d="M357.5,211.5H342c-0.5,0-1.1-0.2-1.4-0.6c-0.4-0.4-0.6-0.9-0.6-1.4c0-5.4,4.4-9.8,9.8-9.7&#10;&#9;&#9;c5.4,0,9.7,4.4,9.7,9.7c0,0.5-0.2,1.1-0.6,1.4C358.6,211.2,358.1,211.5,357.5,211.5z M344.5,207.5h10.7c-1.2-2.9-4.5-4.4-7.5-3.2&#10;&#9;&#9;C346.2,204.9,345,206,344.5,207.5z"/>
	<path class="st2_moscow-56" d="M359.2,211.1h-18.8v-1.6c0-5.2,4.2-9.4,9.4-9.4c5.2,0,9.4,4.2,9.4,9.4L359.2,211.1z M343.9,207.9h11.8&#10;&#9;&#9;c-1-3.2-4.4-5.1-7.6-4.1C346,204.3,344.5,205.9,343.9,207.9z"/>
	<path class="st1_moscow-56 targetColor" d="M357.5,210.3H342c-0.2,0-0.5-0.1-0.6-0.3c-0.2-0.2-0.2-0.4-0.2-0.6c0-4.8,3.9-8.6,8.6-8.6&#10;&#9;&#9;c4.8,0,8.6,3.9,8.6,8.6c0,0.2-0.1,0.5-0.2,0.6C358,210.2,357.8,210.3,357.5,210.3L357.5,210.3z M343,208.6h13.6&#10;&#9;&#9;c-0.6-3.8-4.1-6.4-7.8-5.8C345.8,203.2,343.4,205.6,343,208.6L343,208.6z" style="fill: rgb(142, 73, 255);"/>
	<path class="st2_moscow-56" d="M357.5,212.3H342c-0.8,0-1.5-0.3-2-0.9c-0.5-0.5-0.8-1.3-0.8-2c0-5.9,4.8-10.6,10.6-10.6&#10;&#9;&#9;c5.9,0,10.6,4.8,10.6,10.6C360.4,211.1,359.2,212.4,357.5,212.3C357.6,212.4,357.6,212.4,357.5,212.3L357.5,212.3z M346,206.6h7.7&#10;&#9;&#9;c-1.7-2.1-4.7-2.5-6.8-0.8C346.5,206,346.2,206.3,346,206.6z"/>
	<path class="st2_moscow-56" d="M357.5,212H342c-0.7,0-1.3-0.3-1.8-0.7c-0.5-0.5-0.7-1.1-0.7-1.8c0-5.7,4.6-10.2,10.2-10.2&#10;&#9;&#9;c5.7,0,10.2,4.6,10.2,10.2l0,0C360,210.9,358.9,212,357.5,212C357.5,212,357.5,212,357.5,212L357.5,212z M345.2,207h9.1&#10;&#9;&#9;c-1.5-2.5-4.7-3.4-7.2-1.9C346.3,205.5,345.7,206.2,345.2,207z"/>
	<path class="st1_moscow-56 targetColor" d="M381.4,209.5c-0.2-4.3-3.8-7.6-8-7.5c-4.1,0.1-7.3,3.4-7.5,7.5H381.4z" style="fill: rgb(142, 73, 255);"/>
	<path class="st2_moscow-56" d="M381.4,211.5h-15.5c-0.5,0-1.1-0.2-1.4-0.6c-0.4-0.4-0.6-0.9-0.6-1.4c0.2-5.4,4.7-9.6,10.1-9.5&#10;&#9;&#9;c5.2,0.2,9.3,4.3,9.5,9.5c0,0.5-0.2,1.1-0.6,1.4C382.4,211.3,381.9,211.5,381.4,211.5z M368.3,207.5h10.7c-1.2-2.9-4.5-4.4-7.5-3.2&#10;&#9;&#9;C370,204.9,368.9,206,368.3,207.5z"/>
	<path class="st2_moscow-56" d="M383,211.1h-18.8v-1.6c0.2-5.2,4.5-9.2,9.7-9.1c4.9,0.2,8.9,4.1,9.1,9.1L383,211.1z M367.7,207.9h11.8&#10;&#9;&#9;c-1-3.2-4.4-5.1-7.6-4.1C369.8,204.3,368.3,205.9,367.7,207.9z"/>
	<path class="st1_moscow-56 targetColor" d="M381.4,210.3h-15.5c-0.2,0-0.4-0.1-0.6-0.3c-0.2-0.2-0.2-0.4-0.2-0.6c0.2-4.8,4.2-8.5,8.9-8.3&#10;&#9;&#9;c4.5,0.2,8.2,3.8,8.3,8.3c0,0.2-0.1,0.5-0.2,0.6C381.8,210.2,381.6,210.3,381.4,210.3L381.4,210.3z M366.8,208.6h13.6&#10;&#9;&#9;c-0.6-3.8-4.1-6.4-7.8-5.8C369.6,203.2,367.2,205.6,366.8,208.6L366.8,208.6z" style="fill: rgb(142, 73, 255);"/>
	<path class="st2_moscow-56" d="M381.4,212.3h-15.5c-0.8,0-1.5-0.3-2-0.9c-0.5-0.5-0.8-1.3-0.8-2c0.2-5.9,5.1-10.5,11-10.3&#10;&#9;&#9;c5.6,0.2,10.1,4.7,10.3,10.3C384.3,211.1,383,212.4,381.4,212.3C381.4,212.4,381.4,212.4,381.4,212.3L381.4,212.3z M369.8,206.6&#10;&#9;&#9;h7.7c-1.7-2.1-4.7-2.5-6.9-0.8C370.3,206,370,206.3,369.8,206.6z"/>
	<path class="st2_moscow-56" d="M381.4,212h-15.5c-0.7,0-1.3-0.3-1.8-0.7c-0.5-0.5-0.7-1.1-0.7-1.8c0.2-5.7,4.9-10.1,10.6-9.9&#10;&#9;&#9;c5.4,0.2,9.7,4.5,9.9,9.9C383.9,210.9,382.8,212,381.4,212C381.4,212,381.4,212,381.4,212L381.4,212z M369,207h9.1&#10;&#9;&#9;c-1.5-2.5-4.7-3.4-7.2-1.9C370.1,205.5,369.5,206.2,369,207z"/>
	<rect x="302.5" y="209.5" class="st1_moscow-56 targetColor" width="94.6" height="5.5" style="fill: rgb(142, 73, 255);"/>
	<path class="st2_moscow-56" d="M397.1,217h-94.6c-1.1,0-2-0.9-2-2v-5.5c0-1.1,0.9-2,2-2h94.6c1.1,0,2,0.9,2,2v5.5&#10;&#9;&#9;C399.1,216.1,398.2,217,397.1,217z M304.5,213h90.6v-1.5h-90.6V213z"/>
	<path class="st2_moscow-56" d="M398.7,216.6h-97.8v-8.7h97.8V216.6z M304.2,213.3h91.3v-2.2h-91.3L304.2,213.3z"/>
	<path class="st1_moscow-56 targetColor" d="M397.1,215.8h-94.6c-0.5,0-0.9-0.4-0.9-0.9c0,0,0,0,0,0v-5.5c0-0.5,0.4-0.9,0.8-0.9c0,0,0,0,0,0h94.6&#10;&#9;&#9;c0.5,0,0.9,0.4,0.9,0.8c0,0,0,0,0,0v5.5C398,215.4,397.6,215.8,397.1,215.8C397.1,215.8,397.1,215.8,397.1,215.8z M303.4,214.1&#10;&#9;&#9;h92.8v-3.7h-92.8V214.1z" style="fill: rgb(142, 73, 255);"/>
	<path class="st2_moscow-56" d="M302.5,206.6h94.6c1.6,0,2.9,1.3,2.9,2.9v5.5c0,1.6-1.3,2.9-2.9,2.9h-94.6c-1.6,0-2.9-1.3-2.9-2.9v-5.5&#10;&#9;&#9;C299.7,207.9,301,206.6,302.5,206.6z"/>
	<path class="st2_moscow-56" d="M397.1,217.4h-94.6c-1.4,0-2.5-1.1-2.5-2.5v-5.5c0-1.4,1.1-2.5,2.5-2.5h94.6c1.4,0,2.5,1.1,2.5,2.5v5.5&#10;&#9;&#9;C399.6,216.3,398.5,217.4,397.1,217.4z M305,212.5h89.6V212H305V212.5z"/>
	<polygon class="st1_moscow-56 targetColor" points="397.1,214.9 302.5,214.9 306.7,220.7 392.9,220.7 &#9;" style="fill: rgb(142, 73, 255);"/>
	<path class="st2_moscow-56" d="M392.9,222.7h-86.2c-0.6,0-1.2-0.3-1.6-0.8l-4.2-5.8c-0.7-0.9-0.5-2.1,0.4-2.8c0.3-0.3,0.8-0.4,1.2-0.4h94.5&#10;&#9;&#9;c1.1,0,2,0.9,2,2c0,0.4-0.1,0.8-0.4,1.2l-4.2,5.8C394.1,222.4,393.5,222.7,392.9,222.7z M307.8,218.7h84.1l1.3-1.8h-86.7&#10;&#9;&#9;L307.8,218.7z"/>
	<path class="st2_moscow-56" d="M393.7,222.4h-87.8l-4.6-6.3c-0.6-0.8-0.4-1.8,0.4-2.4c0.3-0.2,0.6-0.3,1-0.3h94.2c0.9,0,1.7,0.8,1.7,1.7&#10;&#9;&#9;c0,0.4-0.1,0.7-0.3,1L393.7,222.4z M307.6,219.1h84.5l1.9-2.6h-88.2L307.6,219.1z"/>
	<path class="st1_moscow-56 targetColor" d="M392.9,221.6h-86.2c-0.3,0-0.5-0.1-0.7-0.4l-4.2-5.8c-0.3-0.4-0.2-0.9,0.2-1.2c0.1-0.1,0.3-0.2,0.5-0.2h94.6&#10;&#9;&#9;c0.3,0,0.6,0.2,0.8,0.5c0.2,0.3,0.1,0.6-0.1,0.9l-4.2,5.8C393.4,221.5,393.1,221.6,392.9,221.6L392.9,221.6z M307.2,219.9h85.3&#10;&#9;&#9;l3-4.1h-91.2L307.2,219.9L307.2,219.9z" style="fill: rgb(142, 73, 255);"/>
	<path class="st2_moscow-56" d="M392.9,223.6h-86.2c-0.9,0-1.7-0.4-2.3-1.1l-4.2-5.8c-0.9-1.3-0.7-3.1,0.6-4c0.5-0.4,1.1-0.6,1.7-0.6h94.5&#10;&#9;&#9;c1.6,0,2.9,1.3,2.9,2.8c0,0.6-0.2,1.2-0.6,1.7l-4.2,5.8c-0.5,0.7-1.3,1.1-2.2,1.2L392.9,223.6z M308.2,217.9h83.2v-0.1L308.2,217.9&#10;&#9;&#9;L308.2,217.9z"/>
	<path class="st2_moscow-56" d="M392.9,223.2h-86.2c-0.8,0-1.5-0.4-2-1l-4.2-5.8c-0.5-0.8-0.6-1.7-0.2-2.6c0.4-0.8,1.3-1.4,2.2-1.4H397&#10;&#9;&#9;c1.4,0,2.5,1,2.5,2.4c0,0.6-0.2,1.1-0.5,1.6l-4.2,5.8C394.4,222.8,393.7,223.2,392.9,223.2L392.9,223.2z M308,218.2h83.6l0.6-0.8&#10;&#9;&#9;h-84.8L308,218.2z"/>
	<rect x="344.4" y="113.4" class="st1_moscow-56 targetColor" width="18.4" height="12.6" style="fill: rgb(142, 73, 255);"/>
	<path class="st2_moscow-56" d="M362.8,128h-18.4c-1.1,0-2-0.9-2-2v-12.6c0-1.1,0.9-2,2-2h18.4c1.1,0,2,0.9,2,2V126&#10;&#9;&#9;C364.8,127.1,363.9,128,362.8,128z M346.4,124h14.4v-8.6h-14.4V124z"/>
	<path class="st2_moscow-56" d="M364.4,127.6h-21.6v-15.8h21.6V127.6z M346,124.4h15.2V115H346V124.4z"/>
	<path class="st1_moscow-56 targetColor" d="M364.6,104.1v-3.8c-2.1,0-3.8,1.7-3.8,3.8l0,0c0-2.1-1.7-3.8-3.8-3.8c-2.1,0-3.8,1.7-3.8,3.8&#10;&#9;&#9;c0-2.1-1.7-3.8-3.8-3.8c-2.1,0-3.8,1.7-3.8,3.8c0-2.1-1.7-3.8-3.8-3.8v3.8l0,0v9.3h23L364.6,104.1L364.6,104.1L364.6,104.1z" style="fill: rgb(142, 73, 255);"/>
	<path class="st2_moscow-56" d="M364.6,115.4h-23c-1.1,0-2-0.9-2-2v-13.2c0-0.5,0.2-1,0.6-1.4c0.4-0.4,0.9-0.6,1.4-0.6c1.4,0,2.7,0.5,3.8,1.4&#10;&#9;&#9;c2.2-1.9,5.5-1.9,7.7,0c2.2-1.9,5.5-1.9,7.7,0c1-0.9,2.4-1.4,3.8-1.4c1.1,0,2,0.9,2,2v3.5c0,0.1,0,0.2,0,0.3v9.3&#10;&#9;&#9;C366.5,114.5,365.7,115.4,364.6,115.4z M343.6,111.4h19v-6.6c-0.4,1-1.6,1.5-2.6,1c-0.7-0.3-1.2-1-1.2-1.8c0-1-0.8-1.8-1.8-1.8&#10;&#9;&#9;c-1,0-1.8,0.8-1.8,1.8c0,1.1-0.9,2-2,2s-2-0.9-2-2c0-1-0.8-1.8-1.8-1.8c-1,0-1.8,0.8-1.8,1.8c0,1.1-0.9,2-2,2&#10;&#9;&#9;c-0.8,0-1.5-0.4-1.8-1.1L343.6,111.4z"/>
	<path class="st2_moscow-56" d="M364.6,115h-23c-0.9,0-1.6-0.7-1.6-1.6v-13.2c0-0.9,0.7-1.6,1.6-1.6l0,0c1.4,0,2.8,0.6,3.8,1.6&#10;&#9;&#9;c2.1-2.1,5.5-2.1,7.7,0c0,0,0,0,0,0c2.1-2.1,5.5-2.1,7.7,0c0,0,0,0,0,0c1-1,2.4-1.6,3.8-1.6l0,0c0.9,0,1.6,0.7,1.6,1.6c0,0,0,0,0,0&#10;&#9;&#9;v13.2C366.2,114.3,365.5,115,364.6,115z M343.3,111.8H363v-9.2c-0.4,0.4-0.6,0.9-0.6,1.5h-3.2c0-1.2-1-2.2-2.2-2.2s-2.2,1-2.2,2.2&#10;&#9;&#9;h-3.2c0-1.2-1-2.2-2.2-2.2s-2.2,1-2.2,2.2h-3.2c0-0.6-0.2-1.1-0.6-1.5L343.3,111.8z"/>
	<path class="st1_moscow-56 targetColor" d="M344.6,83.6c0,0-5.1-0.5-6.7-4.1s-1.4-7.8,2.5-10.8s8-4.7,11-11h3.6c0,0,3,6.1,7.3,8.8c4.3,2.7,7.4,6,6.3,11&#10;&#9;&#9;s-6.3,6.1-6.3,6.1L344.6,83.6L344.6,83.6z" style="fill: rgb(142, 73, 255);"/>
	<path class="st2_moscow-56" d="M362.4,85.6h-17.8c-0.2,0-0.3,0-0.5,0c-1.2-0.2-6.2-1.1-8-5.2c-2.2-5.1-1-10,3.1-13.2c0.8-0.6,1.7-1.2,2.5-1.8&#10;&#9;&#9;c3.1-2.1,5.8-4,7.9-8.5c0.3-0.7,1-1.1,1.8-1.2h3.6c0.8,0,1.5,0.4,1.8,1.1c0,0.1,2.8,5.7,6.6,8s8.7,6.3,7.2,13.1&#10;&#9;&#9;c-1.4,6.2-7.5,7.6-7.8,7.7C362.7,85.6,362.5,85.6,362.4,85.6z M344.9,81.6h17.3c2.2-0.6,4-2.3,4.6-4.6c0.8-3.4-0.9-6-5.4-8.8&#10;&#9;&#9;c-3.6-2.2-6.3-6.5-7.5-8.5h-1.2c-2.5,4.7-5.6,6.8-8.7,8.9c-0.8,0.5-1.6,1.1-2.3,1.7c-3.6,2.8-2.7,6.5-1.9,8.4&#10;&#9;&#9;C340.8,81.1,344.8,81.6,344.9,81.6L344.9,81.6z"/>
	<path class="st2_moscow-56" d="M362.5,85.2H343v-0.3c-1.9-0.5-5.2-1.7-6.5-4.8c-2.1-4.9-1-9.7,3-12.8c0.8-0.6,1.7-1.2,2.5-1.8&#10;&#9;&#9;c3-2.1,5.9-4,8-8.6l0.4-0.9h5.6l0.4,0.9c0,0.1,2.9,5.8,6.7,8.1c3.7,2.3,8.5,6.1,7,12.7c-1.3,6-7.2,7.3-7.5,7.4L362.5,85.2z&#10;&#9;&#9; M344.8,82h17.4c2.4-0.6,4.3-2.5,4.9-4.9c0.8-3.6-0.9-6.4-5.5-9.3c-3.7-2.3-6.4-6.7-7.4-8.5h-1.6c-2.5,4.7-5.6,6.9-8.7,9&#10;&#9;&#9;c-0.8,0.5-1.6,1.1-2.4,1.7c-3.8,2.9-2.9,6.8-2,8.9C340.6,81.5,344.7,82,344.8,82L344.8,82z"/>
	<polygon class="st1_moscow-56 targetColor" points="355.1,57.6 354,49.8 352.5,49.8 351.5,57.6 &#9;" style="fill: rgb(142, 73, 255);"/>
	<path class="st2_moscow-56" d="M355.1,59.6h-3.6c-1.1,0-2-0.9-2-2c0-0.1,0-0.2,0-0.3l1.1-7.8c0.1-1,1-1.7,2-1.7h1.4c1,0,1.9,0.7,2,1.7l1,7.8&#10;&#9;&#9;c0.2,1.1-0.6,2.1-1.7,2.3C355.2,59.6,355.1,59.6,355.1,59.6L355.1,59.6z"/>
	<polygon class="st2_moscow-56" points="356.9,59.2 349.6,59.2 351.1,48.2 355.4,48.2 &#9;"/>
	<path class="st1_moscow-56 targetColor" d="M352.2,46.6h1.8c0.4,0,0.7,0.3,0.7,0.7v1.8c0,0.4-0.3,0.7-0.7,0.7h-1.8c-0.4,0-0.7-0.3-0.7-0.7v-1.8&#10;&#9;&#9;C351.5,46.9,351.8,46.6,352.2,46.6z" style="fill: rgb(142, 73, 255);"/>
	<path class="st2_moscow-56" d="M353.9,51.8h-1.8c-1.5,0-2.7-1.2-2.7-2.7v-1.8c0-1.5,1.2-2.7,2.7-2.7h1.8c1.5,0,2.7,1.2,2.7,2.7v1.8&#10;&#9;&#9;C356.6,50.6,355.4,51.8,353.9,51.8L353.9,51.8z M353.9,48.6L353.9,48.6z M353,48.2L353,48.2h0.1H353L353,48.2z"/>
	<path class="st2_moscow-56" d="M352.2,45h1.8c1.3,0,2.3,1,2.3,2.3v1.8c0,1.3-1,2.3-2.3,2.3h-1.8c-1.3,0-2.3-1-2.3-2.3v-1.8&#10;&#9;&#9;C349.8,46,350.9,45,352.2,45z"/>
	<path class="st1_moscow-56 targetColor" d="M354.4,255.7c3.7-12.2-3.2-25.1-15.4-28.8c-12.2-3.7-25.1,3.2-28.8,15.4c-1.3,4.4-1.3,9,0,13.4H354.4z" style="fill: rgb(142, 73, 255);"/>
	<path class="st2_moscow-56" d="M354.4,257.7h-44.2c-0.9,0-1.7-0.6-1.9-1.4c-4-13.3,3.5-27.3,16.8-31.3s27.3,3.5,31.3,16.8&#10;&#9;&#9;c0.7,2.3,1.1,4.8,1.1,7.2c0,2.5-0.4,4.9-1.1,7.2C356.1,257.1,355.3,257.7,354.4,257.7z M354.4,255.7L354.4,255.7z M311.7,253.7&#10;&#9;&#9;h41.1c2.6-11.4-4.6-22.7-15.9-25.2s-22.7,4.6-25.2,15.9c-0.3,1.5-0.5,3.1-0.5,4.6C311.2,250.6,311.4,252.2,311.7,253.7z"/>
	<path class="st2_moscow-56" d="M355.6,257.3H309l-0.4-1.1c-4-13.1,3.3-26.9,16.4-30.9s26.9,3.3,30.9,16.4c0.7,2.4,1.1,4.9,1.1,7.4&#10;&#9;&#9;c0,2.4-0.4,4.8-1.1,7.1L355.6,257.3z M311.4,254.1h41.8c2.8-11.5-4.3-23.2-15.8-26s-23.2,4.3-26,15.8c-0.4,1.7-0.6,3.4-0.6,5.1&#10;&#9;&#9;C310.8,250.7,311,252.4,311.4,254.1L311.4,254.1z"/>
	<path class="st1_moscow-56 targetColor" d="M310.8,254.8h42.9c0.5-1.9,0.8-3.8,0.8-5.8c0.3-12.3-9.5-22.4-21.8-22.7c-12.3-0.3-22.4,9.5-22.7,21.8&#10;&#9;&#9;c0,0.3,0,0.6,0,0.9C310,251,310.3,252.9,310.8,254.8L310.8,254.8z" style="fill: rgb(142, 73, 255);"/>
	<path class="st2_moscow-56" d="M353.7,256.8h-42.9c-0.9,0-1.7-0.6-1.9-1.5c-3.5-12.9,4.1-26.2,17-29.8c12.9-3.5,26.2,4.1,29.8,17&#10;&#9;&#9;c1.1,4.2,1.1,8.6,0,12.7C355.4,256.2,354.6,256.8,353.7,256.8z M312.4,252.8h39.8c2.1-11-5.1-21.6-16-23.7&#10;&#9;&#9;c-11-2.1-21.6,5.1-23.7,16C311.9,247.7,311.9,250.3,312.4,252.8z"/>
	<path class="st2_moscow-56" d="M355,256.4h-45.4l-0.3-1.2c-3.5-12.7,4-25.8,16.7-29.3c12.7-3.5,25.8,4,29.3,16.7c1.1,4.1,1.1,8.5,0,12.6&#10;&#9;&#9;L355,256.4z M312.1,253.2h40.4c0.3-1.4,0.4-2.8,0.4-4.2c0.3-11.4-8.8-20.8-20.2-21.1s-20.8,8.8-21.1,20.2c0,0.3,0,0.6,0,0.9&#10;&#9;&#9;C311.7,250.4,311.8,251.8,312.1,253.2L312.1,253.2z"/>
	<path class="st1_moscow-56 targetColor" d="M318.2,249c-0.2-7.8,5.9-14.3,13.7-14.5c7.8-0.2,14.3,5.9,14.5,13.7c0,0.3,0,0.5,0,0.8l-19,11.7L318.2,249&#10;&#9;&#9;L318.2,249z" style="fill: rgb(142, 73, 255);"/>
	<path class="st2_moscow-56" d="M327.3,262.7c-0.6,0-1.2-0.3-1.6-0.8l-9.2-11.7c-0.3-0.4-0.5-0.9-0.4-1.5c0.3-8.9,7.7-15.9,16.6-15.6&#10;&#9;&#9;c8.6,0.3,15.5,7.2,15.6,15.8c0,0.7-0.4,1.3-1,1.7l-19,11.7C328.1,262.6,327.7,262.7,327.3,262.7z M320.2,248.4l7.6,9.7l16.5-10.1&#10;&#9;&#9;c-0.6-6.7-6.4-11.6-13.1-11C325.2,237.4,320.5,242.3,320.2,248.4L320.2,248.4z"/>
	<path class="st2_moscow-56" d="M327,262.8l-12.1-15.4h1.8c1.1-8.6,8.9-14.7,17.5-13.7c7.8,1,13.6,7.5,13.8,15.3v0.9L327,262.8z M319.9,248.5&#10;&#9;&#9;l7.9,10.1l17-10.4c-0.5-6.9-6.4-12.1-13.3-11.6C325.1,237,320.1,242.1,319.9,248.5L319.9,248.5z"/>
	<path class="st1_moscow-56 targetColor" d="M319,248.7l8.5,10.8l18-11c-0.3-7.3-6.5-13-13.8-12.6C324.8,236.2,319.3,241.8,319,248.7L319,248.7z" style="fill: rgb(142, 73, 255);"/>
	<path class="st2_moscow-56" d="M327.5,261.5c-0.6,0-1.2-0.3-1.6-0.8l-8.5-10.9c-0.3-0.4-0.4-0.8-0.4-1.3c0.2-8.4,7.3-15,15.7-14.8&#10;&#9;&#9;c8,0.2,14.5,6.6,14.8,14.6c0,0.7-0.3,1.4-1,1.8l-18,11C328.3,261.4,327.9,261.5,327.5,261.5z M321.1,248.1l6.9,8.8l15.4-9.4&#10;&#9;&#9;c-0.9-6.1-6.5-10.4-12.7-9.6C325.5,238.6,321.5,242.8,321.1,248.1L321.1,248.1z"/>
	<path class="st2_moscow-56" d="M327.2,261.7l-9.8-12.4v-0.6c0.2-8.2,6.9-14.7,15.1-14.6c7.9,0.1,14.3,6.5,14.6,14.4v0.9L327.2,261.7z&#10;&#9;&#9; M320.7,248.2l7.2,9.2l15.9-9.8c-0.7-5.9-5.6-10.3-11.5-10.3C326.2,237.4,321.2,242.1,320.7,248.2L320.7,248.2z"/>
	<path class="st1_moscow-56 targetColor" d="M392.8,255.7c3.7-12.2-3.2-25.1-15.4-28.8c-12.2-3.7-25.1,3.2-28.8,15.4c-1.3,4.4-1.3,9,0,13.4H392.8z" style="fill: rgb(142, 73, 255);"/>
	<path class="st2_moscow-56" d="M392.8,257.7h-44.2c-0.9,0-1.7-0.6-1.9-1.4c-4-13.3,3.5-27.3,16.8-31.3s27.3,3.5,31.3,16.8&#10;&#9;&#9;c0.7,2.3,1.1,4.7,1.1,7.2c0,2.5-0.4,4.9-1.1,7.2C394.5,257.1,393.7,257.7,392.8,257.7z M392.8,255.7L392.8,255.7z M350.1,253.7&#10;&#9;&#9;h41.1c2.6-11.4-4.5-22.7-15.9-25.3s-22.7,4.5-25.3,15.9C349.4,247.4,349.4,250.6,350.1,253.7z"/>
	<path class="st2_moscow-56" d="M394,257.3h-46.6l-0.4-1.1c-0.7-2.3-1-4.7-1-7.1c0-13.7,11-24.7,24.7-24.8c13.7,0,24.7,11,24.8,24.7&#10;&#9;&#9;c0,2.5-0.4,4.9-1.1,7.2L394,257.3z M349.8,254.1h41.8c2.8-11.5-4.3-23.2-15.8-26s-23.2,4.3-26,15.8c-0.4,1.7-0.6,3.4-0.6,5.1&#10;&#9;&#9;C349.2,250.7,349.4,252.4,349.8,254.1L349.8,254.1z"/>
	<path class="st1_moscow-56 targetColor" d="M356.6,249c-0.2-7.8,5.9-14.3,13.7-14.5c7.8-0.2,14.3,5.9,14.5,13.7c0,0.3,0,0.5,0,0.8l-11.2,7.5L356.6,249&#10;&#9;&#9;L356.6,249z" style="fill: rgb(142, 73, 255);"/>
	<path class="st2_moscow-56" d="M373.5,258.6c-0.3,0-0.6-0.1-0.8-0.2l-17-7.6c-0.8-0.4-1.3-1.2-1.2-2.1c0.3-8.9,7.7-15.9,16.6-15.6&#10;&#9;&#9;c8.6,0.3,15.5,7.2,15.6,15.8c0,0.7-0.3,1.3-0.9,1.7l-11.2,7.5C374.3,258.4,373.9,258.6,373.5,258.6z M358.7,247.7l14.7,6.5l9.4-6.3&#10;&#9;&#9;c-0.6-6.7-6.4-11.6-13.1-11C363.9,237.4,359.3,242,358.7,247.7z"/>
	<path class="st2_moscow-56" d="M373.7,258.4l-24.7-11h6.1c0.9-8.6,8.7-14.9,17.3-13.9c8,0.9,14,7.5,14,15.5v0.9L373.7,258.4z M358.2,248&#10;&#9;&#9;l15.1,6.7l9.8-6.6c-0.5-6.9-6.4-12.1-13.3-11.6C363.7,237,358.8,241.8,358.2,248z"/>
	<path class="st1_moscow-56 targetColor" d="M357.5,248.4l16,7.1l10.5-7c-0.3-7.3-6.5-13-13.8-12.6C363.3,236.2,357.8,241.7,357.5,248.4L357.5,248.4z" style="fill: rgb(142, 73, 255);"/>
	<path class="st2_moscow-56" d="M373.5,257.6c-0.3,0-0.6-0.1-0.8-0.2l-16-7.1c-0.7-0.3-1.2-1.1-1.2-1.9c0.4-8.4,7.5-14.9,16-14.5&#10;&#9;&#9;c7.9,0.4,14.2,6.7,14.5,14.6c0,0.7-0.3,1.3-0.9,1.7l-10.5,7C374.2,257.4,373.9,257.6,373.5,257.6z M359.6,247.2l13.7,6.1l8.6-5.8&#10;&#9;&#9;c-0.8-5.6-5.5-9.7-11.1-9.8C365.2,237.8,360.5,241.8,359.6,247.2z"/>
	<path class="st2_moscow-56" d="M373.6,257.4l-17.8-7.9v-1.1c0.3-8.2,7.2-14.6,15.4-14.2c7.8,0.3,14,6.6,14.2,14.4v0.9L373.6,257.4z&#10;&#9;&#9; M359.2,247.4l14.1,6.3l8.9-6c-0.7-5.9-5.7-10.3-11.6-10.3C364.8,237.3,359.9,241.7,359.2,247.4L359.2,247.4z"/>
	<path class="st1_moscow-56 targetColor" d="M374.7,270.7c0.7-2.3,1-4.6,1-7c0-13.4-10.9-24.3-24.3-24.3c-13.4,0-24.3,10.9-24.3,24.3c0,2.4,0.3,4.7,1,7&#10;&#9;&#9;H374.7z" style="fill: rgb(142, 73, 255);"/>
	<path class="st2_moscow-56" d="M374.7,272.7h-46.5c-0.9,0-1.7-0.6-1.9-1.4c-4.2-13.9,3.7-28.5,17.6-32.7c13.9-4.2,28.5,3.7,32.7,17.6&#10;&#9;&#9;c1.5,4.9,1.5,10.2,0,15.2C376.4,272.1,375.6,272.7,374.7,272.7z M329.8,268.7h43.4c0.4-1.6,0.6-3.3,0.6-5&#10;&#9;&#9;c-0.1-12.3-10.1-22.2-22.4-22.1c-12.3,0.1-22.2,10.1-22.1,22.4C329.2,265.5,329.4,267.1,329.8,268.7L329.8,268.7z"/>
	<path class="st2_moscow-56" d="M375.9,272.3H327l-0.3-1.2c-4.1-13.7,3.6-28.1,17.3-32.2c13.7-4.1,28.1,3.6,32.2,17.3c1.5,4.9,1.5,10.1,0,14.9&#10;&#9;&#9;L375.9,272.3z M329.5,269.1h44c3-12.2-4.4-24.4-16.5-27.5c-12.2-3-24.4,4.4-27.5,16.5C328.6,261.7,328.6,265.5,329.5,269.1z"/>
	<path class="st1_moscow-56 targetColor" d="M336.7,263.7c0-8.2,6.6-14.8,14.8-14.8c8.2,0,14.8,6.6,14.8,14.8c0,0,0,0,0,0H336.7z" style="fill: rgb(142, 73, 255);"/>
	<path class="st2_moscow-56" d="M366.3,265.7h-29.6c-1.1,0-2-0.9-2-2c0-0.1,0-0.2,0-0.2c0.1-9.3,7.6-16.8,16.9-16.7s16.8,7.6,16.7,16.9&#10;&#9;&#9;C368.3,264.8,367.4,265.7,366.3,265.7z M338.8,261.7h25.3c-1.1-7-7.7-11.8-14.6-10.7C344,251.9,339.7,256.2,338.8,261.7z"/>
	<path class="st2_moscow-56" d="M367.9,265.3h-31.2v-1.6h-1.6c0-9.1,7.3-16.4,16.4-16.4c9.1,0,16.4,7.3,16.4,16.4c0,0,0,0,0,0V265.3z&#10;&#9;&#9; M338.4,262.1h26.2c-0.9-7.2-7.5-12.4-14.7-11.5C343.9,251.3,339.1,256.1,338.4,262.1z"/>
	<path class="st1_moscow-56 targetColor" d="M366.3,264.5h-29.6c-0.5,0-0.9-0.4-0.9-0.8c0,0,0,0,0,0c0-8.7,7-15.7,15.7-15.7c8.7,0,15.7,7,15.7,15.7&#10;&#9;&#9;c0,0,0,0,0,0C367.2,264.1,366.8,264.5,366.3,264.5C366.3,264.5,366.3,264.5,366.3,264.5L366.3,264.5z M337.6,262.8h27.9&#10;&#9;&#9;c-0.5-7.7-7.1-13.5-14.8-13C343.6,250.3,338,255.8,337.6,262.8L337.6,262.8z" style="fill: rgb(142, 73, 255);"/>
	<path class="st2_moscow-56" d="M366.3,266.5h-29.6c-1.6,0-2.9-1.3-2.9-2.9c0-9.8,7.9-17.7,17.7-17.7c9.8,0,17.7,7.9,17.7,17.7c0,0,0,0,0,0&#10;&#9;&#9;C369.2,265.2,367.9,266.5,366.3,266.5L366.3,266.5z M339.9,260.8h23.2c-1.6-6.4-8.1-10.3-14.5-8.7&#10;&#9;&#9;C344.3,253.1,341,256.5,339.9,260.8z"/>
	<path class="st2_moscow-56" d="M366.3,266.1h-29.6c-1.4,0-2.5-1.1-2.5-2.5c-0.2-9.5,7.3-17.5,16.9-17.7c9.5-0.2,17.5,7.3,17.7,16.9&#10;&#9;&#9;c0,0.3,0,0.6,0,0.8C368.8,265,367.7,266.1,366.3,266.1L366.3,266.1z M337.4,262.9h0.1v-0.1h-0.1&#10;&#9;&#9;C337.4,262.8,337.4,262.9,337.4,262.9L337.4,262.9z M339.4,261.2h24.2c-1.4-6.7-7.9-11-14.6-9.6&#10;&#9;&#9;C344.2,252.6,340.4,256.3,339.4,261.2z"/>
	<path class="st1_moscow-56 targetColor" d="M327.2,263.6c0,2.4-0.4,4.7-1,7h-20.5l-0.6-7l-1.3-14.8l-0.9-9.5C316.3,239.4,327.2,250.3,327.2,263.6&#10;&#9;&#9;L327.2,263.6z" style="fill: rgb(142, 73, 255);"/>
	<path class="st2_moscow-56" d="M326.2,272.7h-20.5c-1,0-1.9-0.8-2-1.8l-2.8-31.3c-0.1-1.1,0.7-2.1,1.8-2.2c0.1,0,0.1,0,0.2,0&#10;&#9;&#9;c14.5,0,26.2,11.7,26.3,26.2l0,0l0,0l0,0c0,2.6-0.4,5.1-1.1,7.6C327.8,272.1,327.1,272.7,326.2,272.7z M307.6,268.7h17.1&#10;&#9;&#9;c2.8-11.9-4.6-23.9-16.5-26.7c-1-0.2-2-0.4-3-0.5L307.6,268.7z"/>
	<path class="st2_moscow-56" d="M327.4,272.3h-23.1l-2.9-32.8c-0.1-0.9,0.6-1.7,1.5-1.7c0,0,0.1,0,0.1,0l0,0c14.3,0,25.9,11.6,25.9,25.9l0,0&#10;&#9;&#9;c0,2.5-0.4,5.1-1.1,7.5L327.4,272.3z M307.2,269.1h17.7c3-12.1-4.3-24.4-16.4-27.4c-1.2-0.3-2.5-0.5-3.8-0.6L307.2,269.1z"/>
	<path class="st1_moscow-56 targetColor" d="M317.8,263.6l-12,7l-0.6-7l-1.3-14.8C311.7,249.3,317.8,255.8,317.8,263.6L317.8,263.6z" style="fill: rgb(142, 73, 255);"/>
	<path class="st2_moscow-56" d="M305.7,272.7c-1,0-1.9-0.8-2-1.8l-1.9-21.8c-0.1-0.6,0.2-1.2,0.6-1.6c0.4-0.4,1-0.6,1.5-0.6&#10;&#9;&#9;c8.9,0.5,15.8,7.9,15.9,16.8c0,0.8-0.4,1.5-1.1,1.8l-11.9,7C306.4,272.6,306.1,272.7,305.7,272.7z M306,251.2l1.4,16.1l8.3-4.8&#10;&#9;&#9;C315.2,257.1,311.3,252.5,306,251.2z"/>
	<path class="st2_moscow-56" d="M304.3,273.4l-2.3-26.2l1.9,0.1c8.7,0.5,15.5,7.7,15.5,16.4v1.6h-1.2L304.3,273.4z M305.6,250.7l1.5,17.3&#10;&#9;&#9;l9-5.3C315.7,256.8,311.4,251.9,305.6,250.7L305.6,250.7z"/>
	<path class="st1_moscow-56 targetColor" d="M305.7,271.5c-0.1,0-0.3,0-0.4-0.1c-0.3-0.1-0.4-0.4-0.5-0.7l-1.9-21.8c0-0.3,0.1-0.5,0.2-0.7&#10;&#9;&#9;c0.2-0.2,0.4-0.3,0.7-0.3c8.3,0.5,14.8,7.3,14.8,15.6c0,0.3-0.2,0.6-0.4,0.7l-12,7C306,271.5,305.9,271.6,305.7,271.5L305.7,271.5z&#10;&#9;&#9; M304.7,249.8l1.7,19.4l10.4-6.1C316.6,256.4,311.5,250.7,304.7,249.8L304.7,249.8z M317.7,263.7L317.7,263.7z" style="fill: rgb(142, 73, 255);"/>
	<path class="st2_moscow-56" d="M305.7,273.5L305.7,273.5c-0.5,0-0.9-0.1-1.3-0.3c-0.9-0.4-1.4-1.3-1.6-2.2l-2-21.9c-0.2-1.6,1-2.9,2.6-3.1&#10;&#9;&#9;c0.1,0,0.3,0,0.4,0c9.4,0.5,16.7,8.3,16.7,17.6c0,1-0.6,2-1.5,2.5l-12,7C306.7,273.4,306.2,273.5,305.7,273.5L305.7,273.5z&#10;&#9;&#9; M307,252.4l1.2,13.5l6.6-3.9C314.2,257.6,311.2,253.9,307,252.4z"/>
	<path class="st2_moscow-56" d="M305.7,273.2L305.7,273.2c-0.4,0-0.8-0.1-1.1-0.3c-0.7-0.4-1.3-1.1-1.4-1.9l-2-21.9c-0.1-0.7,0.2-1.4,0.6-1.9&#10;&#9;&#9;c0.5-0.5,1.2-0.8,1.9-0.8c9.1,0.5,16.3,8.1,16.3,17.2c0,0.9-0.5,1.7-1.3,2.1l-12,7C306.6,273,306.1,273.2,305.7,273.2L305.7,273.2z&#10;&#9;&#9; M306.5,251.9l1.3,14.7l7.4-4.3C314.7,257.4,311.3,253.3,306.5,251.9L306.5,251.9z"/>
	<path class="st1_moscow-56 targetColor" d="M400,239.4l-0.9,9.5l-1.3,14.8l-0.6,7h-20.5c-0.7-2.3-1-4.6-1-7C375.7,250.2,386.6,239.4,400,239.4&#10;&#9;&#9;C400,239.4,400,239.4,400,239.4L400,239.4z" style="fill: rgb(142, 73, 255);"/>
	<path class="st2_moscow-56" d="M397.2,272.7h-20.5c-0.9,0-1.7-0.6-1.9-1.4c-0.7-2.5-1.1-5-1.1-7.6c0-14.5,11.8-26.3,26.3-26.2&#10;&#9;&#9;c0.5,0,1,0.2,1.4,0.6c0.4,0.4,0.6,1,0.6,1.6l-2.8,31.3C399.1,271.9,398.2,272.7,397.2,272.7z M378.3,268.7h17.1l2.4-27.2&#10;&#9;&#9;c-12.2,1.2-21.2,12.1-20,24.3C377.9,266.8,378,267.7,378.3,268.7z"/>
	<path class="st2_moscow-56" d="M398.6,272.3h-23.1l-0.3-1.2c-0.7-2.4-1.1-5-1.1-7.5c0-14.3,11.6-25.9,25.9-25.9h0.7l1,1l0,0.8L398.6,272.3z&#10;&#9;&#9; M378,269.1h17.7l2.5-28c-11.8,0.9-20.9,10.7-20.9,22.6C377.3,265.5,377.6,267.3,378,269.1z"/>
	<path class="st1_moscow-56 targetColor" d="M399.1,248.9l-1.3,14.8l-0.7,8.4l-12-8.4C385.2,255.8,391.3,249.3,399.1,248.9L399.1,248.9z" style="fill: rgb(142, 73, 255);"/>
	<path class="st2_moscow-56" d="M397.1,274c-0.4,0-0.8-0.1-1.1-0.4l-12-8.4c-0.5-0.4-0.9-1-0.9-1.6c0-8.9,7-16.2,15.9-16.8&#10;&#9;&#9;c1.1-0.1,2,0.8,2.1,1.9c0,0.1,0,0.2,0,0.3l-2,23.2c-0.1,0.7-0.5,1.3-1.1,1.6C397.7,274,397.4,274,397.1,274z M387.2,262.6l8.2,5.8&#10;&#9;&#9;l0.4-4.9l1.1-12.3C391.6,252.5,387.7,257.1,387.2,262.6L387.2,262.6z"/>
	<path class="st2_moscow-56" d="M398.5,275l-14.9-10.5v-0.8c0-8.7,6.8-15.9,15.4-16.4l1.9-0.1l-1.5,16.6L398.5,275z M386.8,262.8l8.9,6.3&#10;&#9;&#9;l0.5-5.6l1.1-12.8C391.5,251.9,387.2,256.9,386.8,262.8z"/>
	<path class="st1_moscow-56 targetColor" d="M354.6,283.9c3.9-12.9-3.4-26.5-16.3-30.4c-12.9-3.9-26.5,3.4-30.4,16.3c-0.7,2.3-1,4.7-1,7&#10;&#9;&#9;c0,2.4,0.3,4.8,1,7.1H354.6z" style="fill: rgb(142, 73, 255);"/>
	<path class="st2_moscow-56" d="M354.6,285.9h-46.7c-0.9,0-1.7-0.6-1.9-1.4c-4.2-14,3.7-28.7,17.6-32.9c14-4.2,28.7,3.7,32.9,17.6&#10;&#9;&#9;c1.5,5,1.5,10.3,0,15.3C356.2,285.4,355.4,285.9,354.6,285.9z M309.4,281.9H353c0.4-1.7,0.6-3.4,0.6-5.1c0-12.4-10-22.4-22.4-22.4&#10;&#9;&#9;c-12.4,0-22.4,10-22.4,22.4c0,0,0,0,0,0C308.8,278.6,309,280.3,309.4,281.9z"/>
	<path class="st2_moscow-56" d="M355.8,285.5h-49.1l-0.4-1.1c-4.2-13.7,3.6-28.3,17.4-32.4s28.3,3.6,32.4,17.4c1.5,4.9,1.5,10.1,0,15&#10;&#9;&#9;L355.8,285.5z M309.1,282.3h44.2c0.4-1.8,0.7-3.6,0.7-5.4c0-12.6-10.2-22.8-22.8-22.8c-12.6,0-22.8,10.2-22.8,22.8&#10;&#9;&#9;C308.4,278.7,308.7,280.5,309.1,282.3z"/>
	<path class="st1_moscow-56 targetColor" d="M316.3,276.9c0-8.2,6.7-14.9,14.9-14.9s14.9,6.7,14.9,14.9l-18.4,14L316.3,276.9L316.3,276.9z" style="fill: rgb(142, 73, 255);"/>
	<path class="st2_moscow-56" d="M327.7,292.9c-0.6,0-1.2-0.3-1.5-0.7l-11.4-14c-0.3-0.4-0.5-1-0.4-1.5c0.1-9.3,7.7-16.8,17-16.8&#10;&#9;&#9;s16.8,7.7,16.8,17c0,0.6-0.3,1.2-0.8,1.6l-18.4,14C328.6,292.8,328.2,292.9,327.7,292.9z M318.4,276.2l9.7,12l16-12.2&#10;&#9;&#9;c-0.5-7.1-6.7-12.4-13.8-11.9C323.8,264.5,318.7,269.7,318.4,276.2L318.4,276.2z"/>
	<path class="st2_moscow-56" d="M327.5,293.2l-14.5-17.9h1.9c0.9-9.1,9-15.7,18-14.8c8.4,0.8,14.9,7.9,14.9,16.4v0.8L327.5,293.2z M318,276.3&#10;&#9;&#9;l10,12.4l16.5-12.6c-0.4-7.3-6.7-12.9-14-12.5C323.7,264,318.2,269.5,318,276.3L318,276.3z"/>
	<path class="st1_moscow-56 targetColor" d="M327.7,291.8c-0.3,0-0.5-0.1-0.7-0.3l-11.4-14.1c-0.1-0.2-0.2-0.3-0.2-0.5c-0.2-8.7,6.7-15.9,15.3-16.1&#10;&#9;&#9;c8.7-0.2,15.9,6.7,16.1,15.3c0,0.3,0,0.5,0,0.8c0,0.3-0.1,0.5-0.3,0.7l-18.4,14C328.1,291.7,327.9,291.8,327.7,291.8L327.7,291.8z&#10;&#9;&#9; M317.2,276.6l10.7,13.2l17.4-13.3c0-7.7-6.3-14-14.1-13.9S317.2,268.8,317.2,276.6L317.2,276.6z" style="fill: rgb(142, 73, 255);"/>
	<path class="st2_moscow-56" d="M327.7,293.8c-0.9,0-1.7-0.4-2.2-1.1l-11.4-14c-0.4-0.5-0.6-1.1-0.6-1.8c-0.2-9.8,7.5-17.9,17.3-18.2&#10;&#9;&#9;s17.9,7.5,18.2,17.3c0,0.3,0,0.6,0,0.8c0,0.9-0.4,1.7-1.1,2.2l-18.4,14.1C329,293.6,328.3,293.8,327.7,293.8z M319.2,275.9l9,11.1&#10;&#9;&#9;l15-11.5c-0.6-6.6-6.4-11.5-13-10.9C324.3,265.2,319.6,270,319.2,275.9L319.2,275.9z"/>
	<path class="st2_moscow-56" d="M327.7,293.4c-0.8,0-1.5-0.4-1.9-1l-11.4-14c-0.4-0.4-0.6-1-0.6-1.5c0-9.6,7.8-17.4,17.4-17.4&#10;&#9;&#9;c9.6,0,17.4,7.8,17.4,17.4c0,0.7-0.3,1.5-0.9,1.9l-18.4,14.1C328.8,293.2,328.3,293.4,327.7,293.4z M318.8,276l9.3,11.5l15.4-11.8&#10;&#9;&#9;c-0.6-6.8-6.7-11.8-13.5-11.2C324,265,319.2,269.9,318.8,276z"/>
	<path class="st1_moscow-56 targetColor" d="M395.1,283.9c3.9-12.9-3.4-26.5-16.2-30.4c-12.9-3.9-26.5,3.4-30.4,16.2c-1.4,4.6-1.4,9.6,0,14.2H395.1z" style="fill: rgb(142, 73, 255);"/>
	<path class="st2_moscow-56" d="M395.1,285.9h-46.7c-0.9,0-1.7-0.6-1.9-1.4c-0.8-2.5-1.1-5-1.1-7.6c-0.1-14.6,11.7-26.4,26.3-26.5&#10;&#9;&#9;c14.6-0.1,26.4,11.7,26.5,26.3c0,2.7-0.4,5.3-1.2,7.8C396.7,285.4,396,285.9,395.1,285.9z M349.9,281.9h43.6&#10;&#9;&#9;c0.4-1.7,0.6-3.4,0.6-5.1c0.3-12.4-9.6-22.6-21.9-22.9s-22.6,9.6-22.9,21.9c0,0.3,0,0.6,0,0.9C349.4,278.6,349.6,280.3,349.9,281.9&#10;&#9;&#9;z"/>
	<path class="st2_moscow-56" d="M396.3,285.5h-49.1l-0.3-1.1c-4.2-13.7,3.6-28.3,17.4-32.4s28.3,3.6,32.4,17.4c1.5,4.9,1.5,10.1,0,15&#10;&#9;&#9;L396.3,285.5z M349.6,282.3h44.2c0.4-1.8,0.7-3.6,0.7-5.4c0-12.6-10.2-22.8-22.8-22.8c-12.6,0-22.8,10.2-22.8,22.8&#10;&#9;&#9;C349,278.7,349.2,280.5,349.6,282.3z"/>
	<path class="st1_moscow-56 targetColor" d="M395.1,284.8h-46.7c-0.4,0-0.7-0.3-0.8-0.6c-0.7-2.4-1.1-4.8-1.1-7.3c0.3-13.9,11.8-25,25.8-24.8&#10;&#9;&#9;c13.6,0.3,24.5,11.2,24.8,24.8c0,2.5-0.4,4.9-1.1,7.3C395.8,284.5,395.5,284.8,395.1,284.8L395.1,284.8z M349.1,283.1h45.4&#10;&#9;&#9;c0.6-2,0.8-4.1,0.8-6.2c0-13-10.5-23.5-23.5-23.5c-13,0-23.5,10.5-23.5,23.5C348.3,279,348.6,281,349.1,283.1L349.1,283.1z" style="fill: rgb(142, 73, 255);"/>
	<path class="st2_moscow-56" d="M395.1,286.8h-46.7c-1.3,0-2.4-0.8-2.7-2c-4.4-14.4,3.8-29.6,18.2-34c14.4-4.4,29.6,3.8,34,18.2&#10;&#9;&#9;c1.6,5.1,1.6,10.6,0,15.8C397.5,286,396.4,286.8,395.1,286.8z M350.7,281.1h42.2c0.3-1.4,0.4-2.8,0.4-4.2&#10;&#9;&#9;c0-11.9-9.6-21.5-21.5-21.5c-11.9,0-21.5,9.6-21.5,21.5C350.2,278.3,350.4,279.7,350.7,281.1z"/>
	<path class="st2_moscow-56" d="M395.1,286.4h-46.7c-1.1,0-2.1-0.7-2.4-1.8c-4.3-14.2,3.7-29.2,17.9-33.5s29.2,3.7,33.5,17.9&#10;&#9;&#9;c1.6,5.1,1.6,10.6,0,15.7C397.2,285.7,396.2,286.4,395.1,286.4z M349,283.2L349,283.2l0.1-0.1H349C349,283.1,349,283.1,349,283.2z&#10;&#9;&#9; M350.4,281.5h42.8c2.5-11.8-5-23.5-16.8-26c-1.5-0.3-3-0.5-4.6-0.5c-12.1,0-21.9,9.8-21.9,21.9C349.9,278.4,350,280,350.4,281.5&#10;&#9;&#9;L350.4,281.5z"/>
	<path class="st1_moscow-56 targetColor" d="M356.9,276.9c-0.2-8.2,6.3-15.1,14.5-15.3c8.2-0.2,15.1,6.3,15.3,14.5c0,0.3,0,0.5,0,0.8l-10.9,15.7&#10;&#9;&#9;L356.9,276.9L356.9,276.9z" style="fill: rgb(142, 73, 255);"/>
	<path class="st2_moscow-56" d="M375.7,294.6c-0.5,0-0.9-0.2-1.3-0.5l-18.8-15.7c-0.5-0.4-0.7-0.9-0.7-1.5c-0.2-9.3,7.1-17.1,16.5-17.3&#10;&#9;&#9;c9.3-0.2,17.1,7.1,17.3,16.5c0,0.3,0,0.5,0,0.8c0,0.4-0.1,0.8-0.4,1.1l-10.9,15.7c-0.3,0.5-0.8,0.8-1.4,0.8L375.7,294.6z&#10;&#9;&#9; M358.9,276l16.4,13.7l9.3-13.4c-0.4-7.1-6.4-12.6-13.5-12.2C364.6,264.4,359.4,269.5,358.9,276L358.9,276z"/>
	<path class="st2_moscow-56" d="M376,294.9l-20.8-17.3v-0.8c0-9.1,7.4-16.5,16.5-16.5s16.5,7.4,16.5,16.5v0.5L376,294.9z M358.5,276.1&#10;&#9;&#9;l16.9,14.1l9.6-13.8c-0.3-7.3-6.4-13-13.8-12.8C364.4,263.9,358.9,269.3,358.5,276.1z"/>
	<path class="st1_moscow-56 targetColor" d="M375.7,293.4c-0.2,0-0.4-0.1-0.6-0.2l-18.8-15.7c-0.2-0.2-0.3-0.4-0.3-0.7c0.2-8.7,7.4-15.6,16.1-15.3&#10;&#9;&#9;c8.4,0.2,15.1,7,15.3,15.3c0,0.2-0.1,0.4-0.2,0.5L376.4,293c-0.1,0.2-0.4,0.3-0.6,0.4L375.7,293.4L375.7,293.4z M357.7,276.5&#10;&#9;&#9;l17.8,14.8l10.2-14.7c0-7.7-6.2-14-13.9-14.1S357.8,268.7,357.7,276.5L357.7,276.5z" style="fill: rgb(142, 73, 255);"/>
	<path class="st2_moscow-56" d="M375.7,295.4c-0.6,0-1.3-0.2-1.8-0.6L355,279.1c-0.6-0.6-1-1.4-1-2.2c0.2-9.8,8.4-17.6,18.2-17.3&#10;&#9;&#9;c9.5,0.2,17.1,7.9,17.3,17.3c0,0.6-0.2,1.2-0.6,1.7L378,294.2c-0.5,0.7-1.2,1.1-2,1.2l0,0L375.7,295.4z M359.8,275.6l15.3,12.8&#10;&#9;&#9;l8.6-12.4c-0.5-6.3-5.7-11.1-12-11.2C365.6,264.8,360.4,269.5,359.8,275.6L359.8,275.6z"/>
	<path class="st2_moscow-56" d="M375.7,295c-0.6,0-1.1-0.2-1.5-0.5l-18.9-15.7c-0.6-0.5-0.9-1.2-0.9-1.9c0-9.6,7.8-17.4,17.4-17.4&#10;&#9;&#9;c9.6,0,17.4,7.8,17.4,17.4c0,0.5-0.2,1-0.5,1.5L377.7,294c-0.1,0.2-0.2,0.3-0.4,0.5v0.5H375.7z M359.4,275.7l15.8,13.2l8.9-12.8&#10;&#9;&#9;c-0.4-6.5-5.8-11.6-12.4-11.7C365.3,264.4,359.9,269.3,359.4,275.7L359.4,275.7z"/>
	<path class="st1_moscow-56 targetColor" d="M376.5,283.3c-5.1-13.8-20.4-20.9-34.2-15.8c-7.3,2.7-13.1,8.5-15.8,15.9c-3.9-10.5-13.8-17.4-25-17.5&#10;&#9;&#9;l0.9,10.4l1.5,16.2l0.7,7.7h93.8l0.7-7.7l1.5-16.2l0.9-10.4C390.2,265.9,380.3,272.8,376.5,283.3L376.5,283.3z" style="fill: rgb(142, 73, 255);"/>
	<path class="st2_moscow-56" d="M398.3,302.3h-93.8c-1,0-1.9-0.8-2-1.8l-3.1-34.4c-0.1-1.1,0.7-2.1,1.8-2.2c0.1,0,0.1,0,0.2,0&#10;&#9;&#9;c10.4,0,19.9,5.7,25,14.7c7.7-13.8,25.1-18.8,38.9-11.1c4.7,2.6,8.5,6.4,11.1,11.1c5.1-9,14.6-14.6,25-14.6c1.1,0,2,0.9,2,2&#10;&#9;&#9;c0,0.1,0,0.1,0,0.2l-3.1,34.4C400.3,301.5,399.4,302.3,398.3,302.3z M306.4,298.3h90.1l2.7-30.3c-9.4,0.9-17.5,7.1-20.9,15.9&#10;&#9;&#9;c-0.2,0.7-0.8,1.2-1.5,1.3c-0.9,0.2-1.9-0.4-2.2-1.3c-4.7-12.8-18.9-19.3-31.7-14.5c-6.8,2.5-12.1,7.8-14.6,14.6&#10;&#9;&#9;c-0.4,1-1.5,1.6-2.6,1.2c-0.5-0.2-1-0.6-1.2-1.2c-3.3-8.9-11.5-15.1-20.9-16L306.4,298.3z"/>
	<path class="st2_moscow-56" d="M399.8,301.9h-96.7l-3.4-37.6h1.8c10.5,0,20.1,5.8,25,15.1c7.2-13.8,24.3-19.2,38.1-11.9&#10;&#9;&#9;c5.1,2.7,9.2,6.8,11.9,11.9c4.9-9.2,14.5-15,25-15h1.8L399.8,301.9z M306,298.7h90.8l2.8-31.1c-9.7,0.7-18.1,6.9-21.6,16l-3.1,0.3&#10;&#9;&#9;c-4.8-13-19.2-19.6-32.1-14.8c-6.9,2.5-12.3,8-14.8,14.9h-3c-3.4-9.2-11.9-15.6-21.7-16.3L306,298.7z"/>
	<path class="st1_moscow-56 targetColor" d="M326,301.1h-21.5c-0.4,0-0.8-0.3-0.9-0.8l-3.1-34.4c0-0.2,0.1-0.5,0.2-0.7c0.2-0.2,0.4-0.3,0.6-0.3&#10;&#9;&#9;c10.7,0,20.5,6.3,25,16c6.3-13.8,22.6-19.9,36.4-13.6c6,2.7,10.8,7.5,13.6,13.6c4.5-9.7,14.3-16,25-16c0.2,0,0.5,0.1,0.6,0.3&#10;&#9;&#9;c0.2,0.2,0.3,0.4,0.2,0.7l-3.1,34.4c0,0.4-0.4,0.8-0.9,0.8H326z M305.4,299.4h92.2l2.9-32.6c-10.4,0.4-19.6,7-23.2,16.8&#10;&#9;&#9;c-0.2,0.4-0.7,0.6-1.2,0.4c-0.2-0.1-0.3-0.2-0.4-0.4c-4.9-13.3-19.8-20.2-33.1-15.2c-7.1,2.6-12.6,8.2-15.2,15.3&#10;&#9;&#9;c-0.2,0.4-0.7,0.6-1.2,0.4c-0.2-0.1-0.3-0.2-0.4-0.4c-3.6-9.8-12.8-16.4-23.2-16.9L305.4,299.4L305.4,299.4z" style="fill: rgb(142, 73, 255);"/>
	<path class="st2_moscow-56" d="M398.3,303.2h-93.8c-1.5,0-2.7-1.1-2.9-2.6l-3.1-34.4c-0.1-0.8,0.2-1.6,0.8-2.2c0.5-0.6,1.3-0.9,2.1-0.9&#10;&#9;&#9;c10.2,0,19.6,5.3,25,13.9c8.6-13.8,26.8-18,40.6-9.4c3.8,2.4,7,5.6,9.4,9.4c5.4-8.6,14.9-13.8,25-13.8c0.8,0,1.6,0.3,2.1,0.9&#10;&#9;&#9;c0.6,0.6,0.8,1.4,0.7,2.2l-3.1,34.3C401.1,302.1,399.8,303.2,398.3,303.2z M307.2,297.4h88.6l2.5-28.4c-8.7,1.2-16,7.1-19.1,15.3&#10;&#9;&#9;c-0.6,1.5-2.3,2.2-3.8,1.6c-0.7-0.3-1.3-0.9-1.6-1.6c-4.6-12.3-18.3-18.6-30.6-14c-6.5,2.4-11.6,7.6-14,14.1&#10;&#9;&#9;c-0.6,1.5-2.3,2.2-3.8,1.6c-0.7-0.3-1.3-0.9-1.6-1.6c-3.1-8.2-10.4-14.1-19.2-15.4L307.2,297.4z M325.4,283L325.4,283z M327.6,283&#10;&#9;&#9;L327.6,283z M377.5,282.9L377.5,282.9z"/>
	<path class="st2_moscow-56" d="M398.3,302.8h-93.8c-1.3,0-2.4-1-2.5-2.3l-3.1-34.4c-0.1-0.7,0.2-1.4,0.6-1.9c0.5-0.5,1.1-0.8,1.8-0.8&#10;&#9;&#9;c10.2,0,19.7,5.4,25,14.2c8.2-13.8,26-18.4,39.9-10.2c4.2,2.5,7.7,6,10.1,10.1c5.3-8.8,14.8-14.1,25-14.2c1.4,0,2.5,1.1,2.5,2.5&#10;&#9;&#9;c0,0.1,0,0.2,0,0.2l-3.1,34.4C400.8,301.8,399.6,302.8,398.3,302.8z M306.8,297.8h89.3l2.6-29.3c-9,1.1-16.7,7.1-19.9,15.6&#10;&#9;&#9;c-0.4,1-1.3,1.6-2.3,1.6l0,0c-1,0-1.9-0.6-2.3-1.6c-4.6-12.5-18.5-18.9-31-14.2c-6.6,2.5-11.8,7.7-14.3,14.3&#10;&#9;&#9;c-0.5,1.3-2,1.9-3.3,1.4c-0.6-0.3-1.1-0.8-1.4-1.4c-3.2-8.5-10.9-14.6-20-15.7L306.8,297.8z"/>
	<path class="st1_moscow-56 targetColor" d="M400.5,276.3l-1.5,16.2h-13.9C385.2,283.9,391.9,276.8,400.5,276.3L400.5,276.3z" style="fill: rgb(142, 73, 255);"/>
	<path class="st2_moscow-56" d="M399,294.5h-13.9c-1.1,0-2-0.9-2-2c0-9.7,7.6-17.7,17.2-18.2c1.1-0.1,2.1,0.8,2.1,1.9c0,0.1,0,0.2,0,0.3&#10;&#9;&#9;l-1.5,16.2C400.9,293.7,400.1,294.5,399,294.5z M387.3,290.5h9.9l1.1-11.9C392.5,280,388.1,284.7,387.3,290.5L387.3,290.5z"/>
	<path class="st2_moscow-56" d="M400.5,294.2h-17v-1.6c0-9.5,7.4-17.3,16.9-17.8h1.9L400.5,294.2z M386.8,290.9h10.7l1.1-12.8&#10;&#9;&#9;C392.4,279.3,387.6,284.5,386.8,290.9L386.8,290.9z"/>
	<path class="st1_moscow-56 targetColor" d="M399,293.4h-13.9c-0.5,0-0.9-0.4-0.9-0.8c0,0,0,0,0,0c0-9.1,7.1-16.6,16.1-17.1c0.2,0,0.5,0.1,0.7,0.3&#10;&#9;&#9;c0.2,0.2,0.3,0.4,0.2,0.7l-1.5,16.2C399.8,293.1,399.5,293.4,399,293.4L399,293.4z M386,291.7h12.2l1.3-14.4&#10;&#9;&#9;C392.2,278.2,386.5,284.3,386,291.7L386,291.7z" style="fill: rgb(142, 73, 255);"/>
	<path class="st2_moscow-56" d="M399,295.4h-13.9c-1.6,0-2.9-1.3-2.9-2.9c0-10.1,7.9-18.5,18-19.1c0.8-0.1,1.6,0.3,2.2,0.8&#10;&#9;&#9;c0.6,0.6,0.9,1.4,0.8,2.3l-1.5,16.2C401.7,294.2,400.6,295.3,399,295.4L399,295.4z M388.3,289.7h8.1l0.9-9.9&#10;&#9;&#9;C392.8,281.3,389.3,285,388.3,289.7z"/>
	<path class="st2_moscow-56" d="M399,295h-13.9c-1.4,0-2.5-1.1-2.5-2.5c0-9.9,7.8-18.1,17.7-18.7c0.7,0,1.4,0.2,1.9,0.7c0.5,0.5,0.8,1.3,0.7,2&#10;&#9;&#9;l-1.5,16.2C401.4,294,400.3,295,399,295L399,295z M385.9,291.8L385.9,291.8l0.1-0.1h-0.1L385.9,291.8z M387.9,290h8.9l1-10.8&#10;&#9;&#9;C392.7,280.6,388.8,284.9,387.9,290L387.9,290z"/>
	<path class="st1_moscow-56 targetColor" d="M335.2,292.6c0-9,7.3-16.3,16.3-16.3c9,0,16.3,7.3,16.3,16.3H335.2z" style="fill: rgb(142, 73, 255);"/>
	<path class="st2_moscow-56" d="M367.8,294.6h-32.5c-1.1,0-2-0.9-2-2c0-10.1,8.2-18.3,18.3-18.3c10.1,0,18.3,8.2,18.3,18.3&#10;&#9;&#9;C369.8,293.7,368.9,294.6,367.8,294.6C367.8,294.6,367.8,294.6,367.8,294.6z M337.4,290.6h28.3c-1.1-7.8-8.4-13.2-16.2-12.1&#10;&#9;&#9;C343.2,279.4,338.3,284.3,337.4,290.6z"/>
	<path class="st2_moscow-56" d="M369.4,294.2h-35.8v-1.6c0-9.9,8-17.9,17.9-17.9c9.9,0,17.9,8,17.9,17.9L369.4,294.2z M336.9,291h29.1&#10;&#9;&#9;c-0.9-8-8.1-13.8-16.2-12.9C343.1,278.8,337.7,284.2,336.9,291L336.9,291z"/>
	<path class="st1_moscow-56 targetColor" d="M367.8,293.4h-32.5c-0.5,0-0.9-0.4-0.9-0.8c0,0,0,0,0,0c0-9.5,7.7-17.1,17.1-17.1c9.5,0,17.1,7.7,17.1,17.1&#10;&#9;&#9;C368.6,293,368.2,293.4,367.8,293.4C367.8,293.4,367.8,293.4,367.8,293.4L367.8,293.4z M336.1,291.7h30.8&#10;&#9;&#9;c-0.4-8.5-7.7-15-16.2-14.6C342.8,277.5,336.5,283.8,336.1,291.7z" style="fill: rgb(142, 73, 255);"/>
	<path class="st2_moscow-56" d="M367.8,295.4h-32.5c-1.6,0-2.9-1.3-2.9-2.9c0-10.6,8.6-19.1,19.1-19.1c10.6,0,19.1,8.6,19.1,19.1&#10;&#9;&#9;C370.6,294.2,369.3,295.4,367.8,295.4z M338.4,289.7h26.2c-1.6-7.2-8.7-11.8-15.9-10.3C343.5,280.6,339.5,284.6,338.4,289.7z"/>
	<path class="st2_moscow-56" d="M367.8,295h-32.6c-1.4,0-2.5-1.1-2.5-2.5c0-10.4,8.4-18.8,18.8-18.8s18.8,8.4,18.8,18.8&#10;&#9;&#9;C370.2,293.9,369.1,295,367.8,295z M337.9,290.1h27.1c-1.4-7.5-8.6-12.5-16.1-11.1C343.4,280,339,284.5,337.9,290.1z"/>
	<path class="st1_moscow-56 targetColor" d="M317.8,292.6h-13.9l-1.5-16.2C311,276.8,317.7,283.9,317.8,292.6L317.8,292.6z" style="fill: rgb(142, 73, 255);"/>
	<path class="st2_moscow-56" d="M317.8,294.6h-13.9c-1,0-1.9-0.8-2-1.8l-1.5-16.2c-0.1-0.6,0.1-1.2,0.5-1.6c0.4-0.4,1-0.6,1.6-0.6&#10;&#9;&#9;c9.6,0.6,17.1,8.4,17.2,18c0,0.1,0,0.2,0,0.2C319.7,293.7,318.9,294.5,317.8,294.6z M305.7,290.6h9.9c-0.9-5.9-5.2-10.6-11-11.9&#10;&#9;&#9;L305.7,290.6z"/>
	<path class="st2_moscow-56" d="M317.8,294.2h-15.4l-1.8-19.6l1.9,0.1c9.5,0.6,16.8,8.4,16.9,17.8h-1.6V294.2z M305.4,291h10.7&#10;&#9;&#9;c-0.7-6.4-5.5-11.6-11.9-12.8L305.4,291z"/>
	<path class="st1_moscow-56 targetColor" d="M317.8,293.4h-13.9c-0.4,0-0.8-0.3-0.9-0.8l-1.5-16.2c0-0.2,0.1-0.5,0.2-0.7c0.2-0.2,0.4-0.3,0.7-0.3&#10;&#9;&#9;c9.1,0.5,16.1,8,16.1,17.1C318.6,293,318.2,293.4,317.8,293.4C317.8,293.4,317.8,293.4,317.8,293.4L317.8,293.4z M304.7,291.7h12.2&#10;&#9;&#9;c-0.4-7.4-6.1-13.5-13.5-14.4L304.7,291.7L304.7,291.7z" style="fill: rgb(142, 73, 255);"/>
	<path class="st2_moscow-56" d="M317.8,295.4h-13.9c-1.5,0-2.7-1.1-2.9-2.6l-1.5-16.2c-0.1-0.8,0.2-1.6,0.8-2.2c0.6-0.6,1.4-0.9,2.2-0.9&#10;&#9;&#9;c10.1,0.6,18,9,18,19.1C320.6,294.1,319.4,295.3,317.8,295.4L317.8,295.4z M306.5,289.7h8.1c-1-4.7-4.5-8.4-9-9.9L306.5,289.7z"/>
	<path class="st2_moscow-56" d="M317.8,295h-13.9c-1.3,0-2.4-1-2.5-2.3l-1.4-16.2c-0.1-0.7,0.2-1.4,0.7-1.9c0.5-0.5,1.2-0.8,1.9-0.8&#10;&#9;&#9;c9.9,0.5,17.7,8.7,17.8,18.7C320.3,293.9,319.2,295,317.8,295L317.8,295z M304.6,292.5L304.6,292.5z M304.6,291.8h0.1v-0.1h-0.1&#10;&#9;&#9;L304.6,291.8z M306.1,290h8.9c-1-5.2-4.8-9.4-9.9-10.8L306.1,290z"/>
	<rect x="302.9" y="300.3" class="st1_moscow-56 targetColor" width="97.1" height="3.4" style="fill: rgb(142, 73, 255);"/>
	<path class="st2_moscow-56" d="M302.9,298.3H400c1.1,0,2,0.9,2,2v3.4c0,1.1-0.9,2-2,2h-97.1c-1.1,0-2-0.9-2-2v-3.4&#10;&#9;&#9;C300.9,299.2,301.8,298.3,302.9,298.3z"/>
	<path class="st2_moscow-56" d="M401.6,305.3H301.3v-6.6h100.3V305.3z M304.5,302.1h93.8v-0.2h-93.8V302.1z"/>
	<path class="st1_moscow-56 targetColor" d="M400,304.6h-97.1c-0.5,0-0.9-0.4-0.9-0.8c0,0,0,0,0,0v-3.4c0-0.5,0.4-0.9,0.8-0.9c0,0,0,0,0,0H400&#10;&#9;&#9;c0.5,0,0.9,0.4,0.9,0.8c0,0,0,0,0,0v3.4C400.9,304.2,400.5,304.6,400,304.6C400,304.6,400,304.6,400,304.6z M303.8,302.8h95.3v-1.7&#10;&#9;&#9;h-95.4L303.8,302.8z" style="fill: rgb(142, 73, 255);"/>
	<path class="st2_moscow-56" d="M302.9,297.4H400c1.6,0,2.9,1.3,2.9,2.9v3.4c0,1.6-1.3,2.9-2.9,2.9h-97.1c-1.6,0-2.9-1.3-2.9-2.9v-3.4&#10;&#9;&#9;C300.1,298.7,301.3,297.4,302.9,297.4z"/>
	<path class="st2_moscow-56" d="M302.9,297.8h97c1.4,0,2.5,1.1,2.5,2.5v3.4c0,1.4-1.1,2.5-2.5,2.5h-97c-1.4,0-2.5-1.1-2.5-2.5v-3.4&#10;&#9;&#9;C300.5,298.9,301.6,297.8,302.9,297.8z"/>
	<polygon class="st1_moscow-56 targetColor" points="295.6,313.1 407.3,313.1 400,303.7 302.9,303.7 &#9;" style="fill: rgb(142, 73, 255);"/>
	<path class="st2_moscow-56" d="M407.3,315.1H295.6c-1.1,0-2-0.9-2-2c0-0.4,0.1-0.9,0.4-1.2l7.3-9.4c0.4-0.5,1-0.8,1.6-0.8h97&#10;&#9;&#9;c0.6,0,1.2,0.3,1.6,0.8l7.3,9.4c0.7,0.9,0.5,2.1-0.3,2.8C408.1,314.9,407.7,315.1,407.3,315.1L407.3,315.1z M299.7,311.1h103.5&#10;&#9;&#9;l-4.2-5.4h-95.1L299.7,311.1z"/>
	<path class="st2_moscow-56" d="M407.1,314.7H295.8c-0.9,0-1.7-0.8-1.7-1.7c0-0.4,0.1-0.7,0.4-1l7.7-9.9h98.6l7.7,9.9c0.6,0.7,0.4,1.8-0.3,2.4&#10;&#9;&#9;C407.9,314.6,407.5,314.7,407.1,314.7z M298.9,311.5H404l-4.8-6.2h-95.5L298.9,311.5z"/>
	<path class="st1_moscow-56 targetColor" d="M407.3,314H295.6c-0.3,0-0.6-0.2-0.8-0.5c-0.1-0.3-0.1-0.7,0.1-0.9l7.3-9.4c0.2-0.2,0.4-0.3,0.7-0.3H400&#10;&#9;&#9;c0.3,0,0.5,0.1,0.7,0.3l7.3,9.4c0.2,0.3,0.2,0.6,0.1,0.9C407.9,313.8,407.6,314,407.3,314L407.3,314z M297.4,312.2h108.1l-6-7.7&#10;&#9;&#9;h-96.2L297.4,312.2L297.4,312.2z" style="fill: rgb(142, 73, 255);"/>
	<path class="st2_moscow-56" d="M407.3,316H295.6c-1.6,0-2.9-1.3-2.9-2.9c0-0.7,0.2-1.3,0.6-1.8l7.3-9.4c0.5-0.7,1.4-1.1,2.3-1.1H400&#10;&#9;&#9;c0.9,0,1.7,0.4,2.3,1.1l7.3,9.4c1,1.2,0.8,3-0.5,4C408.6,315.8,407.9,316,407.3,316L407.3,316z M301.5,310.3h99.9l-2.9-3.7h-94.2&#10;&#9;&#9;L301.5,310.3z"/>
	<path class="st2_moscow-56" d="M407.3,315.6H295.6c-1.4,0-2.5-1.1-2.5-2.5c0-0.6,0.2-1.1,0.5-1.5l7.3-9.4c0.5-0.6,1.2-1,2-1H400&#10;&#9;&#9;c0.8,0,1.5,0.4,2,1l7.3,9.4c0.6,0.7,0.7,1.7,0.3,2.6C409.2,315,408.3,315.6,407.3,315.6z M300.7,310.6h101.5l-3.5-4.4h-94.6&#10;&#9;&#9;L300.7,310.6z"/>
	<rect x="295.6" y="313.1" class="st2_moscow-56" width="110" height="59.3"/>
	<path class="st1_moscow-56 targetColor" d="M405.7,373.2h-110c-0.5,0-0.9-0.4-0.9-0.8c0,0,0,0,0,0v-59.3c0-0.5,0.4-0.9,0.8-0.9c0,0,0,0,0,0h110&#10;&#9;&#9;c0.5,0,0.9,0.4,0.9,0.8c0,0,0,0,0,0v59.3C406.5,372.8,406.2,373.2,405.7,373.2C405.7,373.2,405.7,373.2,405.7,373.2L405.7,373.2z&#10;&#9;&#9; M296.5,371.5h108.3V314H296.5V371.5z" style="fill: rgb(142, 73, 255);"/>
	<path class="st2_moscow-56" d="M405.7,375.2h-110c-1.6,0-2.9-1.3-2.9-2.9v-59.3c0-1.6,1.3-2.9,2.9-2.9h110c1.6,0,2.9,1.3,2.9,2.9v59.3&#10;&#9;&#9;C408.5,373.9,407.3,375.2,405.7,375.2z M298.5,369.5h104.3V316H298.5V369.5z"/>
	<path class="st2_moscow-56" d="M405.7,374.8h-110c-1.4,0-2.5-1.1-2.5-2.5v-59.3c0-1.4,1.1-2.5,2.5-2.5h110c1.4,0,2.5,1.1,2.5,2.5c0,0,0,0,0,0&#10;&#9;&#9;v59.3C408.1,373.7,407,374.8,405.7,374.8z M298.1,369.9h105.1v-54.3H298.1V369.9z"/>
	<rect x="295.6" y="372.4" class="st1_moscow-56 targetColor" width="110" height="83.7" style="fill: rgb(142, 73, 255);"/>
	<path class="st2_moscow-56" d="M405.7,458h-110c-1.1,0-2-0.9-2-2v-83.6c0-1.1,0.9-2,2-2h110c1.1,0,2,0.9,2,2V456&#10;&#9;&#9;C407.7,457.1,406.8,458,405.7,458z M297.7,454h106v-79.6h-106V454z"/>
	<path class="st2_moscow-56" d="M407.3,457.6H294v-86.9h113.3V457.6z M297.3,454.4h106.8V374H297.3L297.3,454.4z"/>
	<path class="st1_moscow-56 targetColor" d="M405.7,456.9h-110c-0.5,0-0.9-0.4-0.9-0.9c0,0,0,0,0,0v-83.7c0-0.5,0.4-0.9,0.8-0.9c0,0,0,0,0,0h110&#10;&#9;&#9;c0.5,0,0.9,0.4,0.9,0.9V456C406.6,456.5,406.2,456.9,405.7,456.9C405.7,456.9,405.7,456.9,405.7,456.9z M296.5,455.2h108.3v-81.9&#10;&#9;&#9;H296.5V455.2z" style="fill: rgb(142, 73, 255);"/>
	<path class="st2_moscow-56" d="M405.7,458.9h-110c-1.6,0-2.9-1.3-2.9-2.9v-83.7c0-1.6,1.3-2.9,2.9-2.9h110c1.6,0,2.9,1.3,2.9,2.9V456&#10;&#9;&#9;C408.5,457.6,407.3,458.9,405.7,458.9L405.7,458.9z M298.5,453.2h104.3v-77.9H298.5V453.2z"/>
	<path class="st2_moscow-56" d="M405.7,458.5h-110c-1.4,0-2.5-1.1-2.5-2.5v-83.7c0-1.4,1.1-2.5,2.5-2.5h110c1.4,0,2.5,1.1,2.5,2.5c0,0,0,0,0,0&#10;&#9;&#9;V456C408.2,457.4,407.1,458.5,405.7,458.5C405.7,458.5,405.7,458.5,405.7,458.5z M298.1,453.5h105.1v-78.7H298.1V453.5z"/>
	<rect x="295.6" y="372.4" class="st1_moscow-56 targetColor" width="110" height="6.2" style="fill: rgb(142, 73, 255);"/>
	<path class="st2_moscow-56" d="M405.7,380.6h-110c-1.1,0-2-0.9-2-2v-6.2c0-1.1,0.9-2,2-2h110c1.1,0,2,0.9,2,2v6.2&#10;&#9;&#9;C407.7,379.7,406.8,380.6,405.7,380.6z M297.7,376.6h106v-2.2h-106V376.6z"/>
	<path class="st2_moscow-56" d="M407.3,380.2H294v-9.5h113.3V380.2z M297.3,377h106.8v-3H297.3L297.3,377z"/>
	<path class="st1_moscow-56 targetColor" d="M405.7,379.4h-110c-0.5,0-0.9-0.4-0.9-0.8c0,0,0,0,0,0v-6.2c0-0.5,0.4-0.9,0.8-0.9c0,0,0,0,0,0h110&#10;&#9;&#9;c0.5,0,0.9,0.4,0.9,0.9v6.2C406.5,379.1,406.2,379.4,405.7,379.4C405.7,379.4,405.7,379.4,405.7,379.4z M296.5,377.7h108.3v-4.5&#10;&#9;&#9;H296.5V377.7z" style="fill: rgb(142, 73, 255);"/>
	<path class="st2_moscow-56" d="M405.7,381.4h-110c-1.6,0-2.9-1.3-2.9-2.9v-6.2c0-1.6,1.3-2.9,2.9-2.9h110c1.6,0,2.9,1.3,2.9,2.9v6.2&#10;&#9;&#9;C408.5,380.2,407.3,381.4,405.7,381.4z M298.5,375.7h104.3v-0.5H298.5V375.7z"/>
	<path class="st2_moscow-56" d="M405.7,381h-110c-1.4,0-2.5-1.1-2.5-2.5v-6.2c0-1.4,1.1-2.5,2.5-2.5h110c1.4,0,2.5,1.1,2.5,2.5c0,0,0,0,0,0&#10;&#9;&#9;v6.2C408.1,379.9,407,381.1,405.7,381z M298.1,376.1h105.1v-1.3H298.1V376.1z"/>
	<path class="st1_moscow-56 targetColor" d="M322.9,318.5h3.4c1.7,0,3,1.4,3,3.1v50.8h-9.5v-50.8C319.9,319.9,321.2,318.5,322.9,318.5&#10;&#9;&#9;C322.9,318.5,322.9,318.5,322.9,318.5L322.9,318.5z" style="fill: rgb(142, 73, 255);"/>
	<path class="st2_moscow-56" d="M329.4,374.4h-9.5c-1.1,0-2-0.9-2-2v-50.8c0-2.8,2.3-5.1,5-5.1h3.4c2.8,0,5,2.3,5,5.1v50.8&#10;&#9;&#9;C331.4,373.5,330.5,374.4,329.4,374.4z M321.9,370.4h5.5v-48.8c0-0.6-0.5-1.1-1-1.1c0,0,0,0,0,0h-3.4c-0.6,0-1.1,0.5-1.1,1&#10;&#9;&#9;c0,0,0,0,0,0L321.9,370.4z"/>
	<path class="st2_moscow-56" d="M331,374h-12.7v-52.5c0-2.6,2.1-4.7,4.7-4.7h3.4c2.6,0,4.7,2.1,4.7,4.7L331,374z M321.5,370.8h6.3v-49.2&#10;&#9;&#9;c0-0.8-0.6-1.4-1.4-1.5h-3.4c-0.8,0-1.4,0.7-1.4,1.5V370.8z"/>
	<path class="st1_moscow-56 targetColor" d="M329.4,373.2h-9.5c-0.5,0-0.9-0.4-0.9-0.8c0,0,0,0,0,0v-49.6c0-2.8,2.3-5.1,5.1-5.1h1c2.8,0,5.1,2.3,5.1,5.1&#10;&#9;&#9;v49.6C330.3,372.8,329.9,373.2,329.4,373.2C329.4,373.2,329.4,373.2,329.4,373.2z" style="fill: rgb(142, 73, 255);"/>
	<path class="st2_moscow-56" d="M329.4,375.2h-9.5c-1.6,0-2.9-1.3-2.9-2.9v-49.6c0-3.9,3.2-7.1,7.1-7.1h1c3.9,0,7.1,3.2,7.1,7.1v49.6&#10;&#9;&#9;C332.3,373.9,331,375.2,329.4,375.2C329.4,375.2,329.4,375.2,329.4,375.2z M321,371.2h7.3v-48.5c0-1.7-1.4-3.1-3.1-3.1h-1&#10;&#9;&#9;c-1.7,0-3.1,1.4-3.1,3.1L321,371.2z"/>
	<path class="st2_moscow-56" d="M329.4,374.8h-9.5c-1.4,0-2.5-1.1-2.5-2.5v-49.6c0-3.7,3-6.7,6.8-6.8h1c3.7,0,6.7,3,6.8,6.8v49.6&#10;&#9;&#9;C331.9,373.7,330.8,374.8,329.4,374.8L329.4,374.8z M320.6,371.6h8v-48.8c0-1.9-1.6-3.5-3.5-3.5h-1c-1.9,0-3.5,1.6-3.5,3.5&#10;&#9;&#9;L320.6,371.6z"/>
	<path class="st1_moscow-56 targetColor" d="M338.7,318.5h3.4c1.7,0,3.1,1.4,3.1,3.1v50.8h-9.5v-50.8C335.6,319.9,337,318.5,338.7,318.5L338.7,318.5z" style="fill: rgb(142, 73, 255);"/>
	<path class="st2_moscow-56" d="M345.1,374.4h-9.5c-1.1,0-2-0.9-2-2v-50.8c0-2.8,2.3-5.1,5.1-5.1h3.4c2.8,0,5.1,2.3,5.1,5.1v50.8&#10;&#9;&#9;C347.1,373.5,346.3,374.4,345.1,374.4z M337.6,370.4h5.5v-48.8c0-0.6-0.5-1.1-1.1-1.1h-3.4c-0.6,0-1.1,0.5-1.1,1c0,0,0,0,0,0&#10;&#9;&#9;L337.6,370.4z"/>
	<path class="st2_moscow-56" d="M346.8,374H334v-52.5c0-2.6,2.1-4.7,4.7-4.7h0h3.4c2.6,0,4.7,2.1,4.7,4.7L346.8,374z M337.2,370.8h6.3v-49.2&#10;&#9;&#9;c0-0.8-0.6-1.4-1.4-1.5h-3.4c-0.8,0-1.5,0.6-1.5,1.4v0L337.2,370.8z"/>
	<path class="st1_moscow-56 targetColor" d="M345.2,373.2h-9.5c-0.5,0-0.9-0.4-0.9-0.8c0,0,0,0,0,0v-49.6c0-2.8,2.3-5.1,5.1-5.1h1c2.8,0,5.1,2.3,5.1,5.1&#10;&#9;&#9;v49.6C346,372.8,345.6,373.2,345.2,373.2C345.2,373.2,345.2,373.2,345.2,373.2L345.2,373.2z" style="fill: rgb(142, 73, 255);"/>
	<path class="st2_moscow-56" d="M345.2,375.2h-9.5c-1.6,0-2.9-1.3-2.9-2.9v-49.6c0-3.9,3.2-7.1,7.1-7.1h1c3.9,0,7.1,3.2,7.1,7.1v0v49.6&#10;&#9;&#9;C348,373.9,346.8,375.2,345.2,375.2L345.2,375.2z M336.8,371.2h7.2v-48.5c0-1.7-1.4-3.1-3.1-3.1h-1c-1.7,0-3.1,1.4-3.1,3.1&#10;&#9;&#9;L336.8,371.2z"/>
	<path class="st2_moscow-56" d="M345.2,374.8h-9.5c-1.4,0-2.5-1.1-2.5-2.5v-49.6c0-3.7,3-6.7,6.8-6.8h1c3.7,0,6.7,3,6.8,6.8v49.6&#10;&#9;&#9;C347.6,373.7,346.5,374.8,345.2,374.8L345.2,374.8z M336.4,371.6h8v-48.8c0-1.9-1.6-3.5-3.5-3.5h-1c-1.9,0-3.5,1.6-3.5,3.5&#10;&#9;&#9;L336.4,371.6z"/>
	<path class="st1_moscow-56 targetColor" d="M354.4,318.5h3.4c1.7,0,3.1,1.4,3.1,3.1v50.8h-9.5v-50.8C351.3,319.9,352.7,318.5,354.4,318.5z" style="fill: rgb(142, 73, 255);"/>
	<path class="st2_moscow-56" d="M360.9,374.4h-9.5c-1.1,0-2-0.9-2-2v-50.8c0-2.8,2.3-5.1,5.1-5.1h3.4c2.8,0,5.1,2.3,5.1,5.1v50.8&#10;&#9;&#9;C362.9,373.5,362,374.4,360.9,374.4z M353.3,370.4h5.5v-48.8c0-0.6-0.5-1.1-1.1-1.1h-3.4c-0.6,0-1.1,0.5-1.1,1.1V370.4z"/>
	<path class="st2_moscow-56" d="M362.5,374h-12.8v-52.5c0-2.6,2.1-4.7,4.7-4.7h0h3.4c2.6,0,4.7,2.1,4.7,4.7v0L362.5,374z M353,370.7h6.3v-49.2&#10;&#9;&#9;c0-0.8-0.6-1.4-1.4-1.4c0,0,0,0,0,0h-3.5c-0.8,0-1.4,0.6-1.4,1.4c0,0,0,0,0,0L353,370.7z"/>
	<path class="st1_moscow-56 targetColor" d="M360.9,373.2h-9.5c-0.5,0-0.9-0.4-0.9-0.8c0,0,0,0,0,0v-49.6c0-2.8,2.3-5.1,5.1-5.1h1c2.8,0,5.1,2.3,5.1,5.1&#10;&#9;&#9;v49.6C361.8,372.8,361.4,373.2,360.9,373.2C360.9,373.2,360.9,373.2,360.9,373.2z" style="fill: rgb(142, 73, 255);"/>
	<path class="st2_moscow-56" d="M360.9,375.2h-9.5c-1.6,0-2.9-1.3-2.9-2.9v-49.6c0-3.9,3.2-7.1,7.1-7.1h0h1c3.9,0,7.1,3.2,7.1,7.1v49.6&#10;&#9;&#9;C363.8,373.9,362.5,375.2,360.9,375.2C360.9,375.2,360.9,375.2,360.9,375.2z M352.5,371.2h7.3v-48.5c0-1.7-1.4-3.1-3.1-3.1h-1&#10;&#9;&#9;c-1.7,0-3.1,1.4-3.1,3.1L352.5,371.2z"/>
	<path class="st2_moscow-56" d="M360.9,374.8h-9.5c-1.4,0-2.5-1.1-2.5-2.5v-49.6c0-3.7,3-6.7,6.8-6.8h1c3.7,0,6.7,3,6.8,6.8v49.6&#10;&#9;&#9;C363.4,373.7,362.3,374.8,360.9,374.8L360.9,374.8z M352.1,371.6h8v-48.8c0-1.9-1.6-3.5-3.5-3.5h-1c-1.9,0-3.5,1.6-3.5,3.5&#10;&#9;&#9;L352.1,371.6z"/>
	<path class="st1_moscow-56 targetColor" d="M313.7,456v-66.4c0-2.1-2.1-3.8-4.8-3.8s-4.8,1.7-4.8,3.8V456H313.7z" style="fill: rgb(142, 73, 255);"/>
	<path class="st2_moscow-56" d="M313.7,458h-9.5c-1.1,0-2-0.9-2-2v-66.4c0-3.2,3-5.8,6.8-5.8s6.8,2.6,6.8,5.8V456&#10;&#9;&#9;C315.7,457.1,314.8,458,313.7,458z M306.2,454h5.5v-64.4c0-1-1.3-1.8-2.8-1.8s-2.8,0.9-2.8,1.8V454z"/>
	<path class="st2_moscow-56" d="M315.3,457.6h-12.8v-68c0-3,2.9-5.5,6.4-5.5s6.4,2.5,6.4,5.5L315.3,457.6z M305.8,454.4h6.3v-64.8&#10;&#9;&#9;c0-1.2-1.5-2.2-3.2-2.2s-3.1,1-3.1,2.2V454.4z"/>
	<path class="st1_moscow-56 targetColor" d="M313.7,456.9h-9.5c-0.5,0-0.9-0.4-0.9-0.9v-66.4c0-2.6,2.5-4.7,5.6-4.7s5.6,2.1,5.6,4.7V456&#10;&#9;&#9;C314.6,456.5,314.2,456.9,313.7,456.9C313.7,456.9,313.7,456.9,313.7,456.9z M305,455.2h7.8v-65.5c0-1.6-1.8-3-3.9-3&#10;&#9;&#9;s-3.9,1.3-3.9,3V455.2z" style="fill: rgb(142, 73, 255);"/>
	<path class="st2_moscow-56" d="M313.7,458.9h-9.5c-1.6,0-2.9-1.3-2.9-2.9v-66.4c0-3.7,3.4-6.7,7.6-6.7s7.6,3,7.6,6.7V456&#10;&#9;&#9;C316.6,457.6,315.3,458.9,313.7,458.9C313.7,458.9,313.7,458.9,313.7,458.9z M307,453.2h3.8v-63.5c0-0.3-0.7-1-1.9-1&#10;&#9;&#9;s-1.9,0.6-1.9,1V453.2z"/>
	<path class="st2_moscow-56" d="M313.7,458.5h-9.5c-1.4,0-2.5-1.1-2.5-2.5c0,0,0,0,0,0v-66.4c0-3.5,3.2-6.3,7.2-6.3s7.2,2.8,7.2,6.3V456&#10;&#9;&#9;C316.2,457.4,315.1,458.5,313.7,458.5C313.7,458.5,313.7,458.5,313.7,458.5z M306.6,453.5h4.6v-63.9c0-0.6-1-1.4-2.3-1.4&#10;&#9;&#9;s-2.3,0.7-2.3,1.4V453.5z"/>
	<path class="st1_moscow-56 targetColor" d="M329.4,456v-66.4c0-2.1-2.1-3.8-4.8-3.8s-4.8,1.7-4.8,3.8V456H329.4z" style="fill: rgb(142, 73, 255);"/>
	<path class="st2_moscow-56" d="M329.4,458h-9.5c-1.1,0-2-0.9-2-2v-66.4c0-3.2,3-5.8,6.8-5.8s6.8,2.6,6.8,5.8V456&#10;&#9;&#9;C331.4,457.1,330.5,458,329.4,458z M321.9,454h5.5v-64.4c0-1-1.3-1.8-2.8-1.8s-2.8,0.9-2.8,1.8V454z"/>
	<path class="st2_moscow-56" d="M331,457.6h-12.7v-68c0-3,2.9-5.5,6.4-5.5s6.4,2.5,6.4,5.5L331,457.6z M321.5,454.4h6.3v-64.8&#10;&#9;&#9;c0-1.2-1.4-2.2-3.1-2.2s-3.2,1-3.2,2.2V454.4z"/>
	<path class="st1_moscow-56 targetColor" d="M329.4,456.9h-9.5c-0.5,0-0.9-0.4-0.9-0.8c0,0,0,0,0-0.1v-66.4c0-2.6,2.5-4.7,5.6-4.7s5.6,2.1,5.6,4.7V456&#10;&#9;&#9;C330.3,456.5,329.9,456.9,329.4,456.9C329.4,456.9,329.4,456.9,329.4,456.9z M320.8,455.2h7.8v-65.5c0-1.6-1.8-3-3.9-3&#10;&#9;&#9;s-3.9,1.3-3.9,3V455.2z" style="fill: rgb(142, 73, 255);"/>
	<path class="st2_moscow-56" d="M329.4,458.9h-9.5c-1.6,0-2.9-1.3-2.9-2.8c0,0,0,0,0,0v-66.4c0-3.7,3.4-6.7,7.6-6.7s7.6,3,7.6,6.7V456&#10;&#9;&#9;C332.3,457.6,331,458.9,329.4,458.9z M322.8,453.2h3.8v-63.5c0-0.3-0.7-1-1.9-1s-1.9,0.6-1.9,1V453.2z"/>
	<path class="st2_moscow-56" d="M329.4,458.5h-9.5c-1.4,0-2.5-1.1-2.5-2.5c0,0,0,0,0,0v-66.4c0-3.5,3.2-6.3,7.2-6.3s7.2,2.8,7.2,6.3V456&#10;&#9;&#9;C331.9,457.4,330.8,458.5,329.4,458.5C329.4,458.5,329.4,458.5,329.4,458.5z M322.4,453.5h4.6v-63.9c0-0.6-1-1.4-2.3-1.4&#10;&#9;&#9;s-2.3,0.7-2.3,1.4L322.4,453.5z"/>
	<path class="st1_moscow-56 targetColor" d="M345.2,456v-66.4c0-2.1-2.1-3.8-4.8-3.8s-4.8,1.7-4.8,3.8V456H345.2z" style="fill: rgb(142, 73, 255);"/>
	<path class="st2_moscow-56" d="M345.2,458h-9.5c-1.1,0-2-0.9-2-2v-66.4c0-3.2,3-5.8,6.8-5.8s6.8,2.6,6.8,5.8V456&#10;&#9;&#9;C347.2,457.1,346.3,458,345.2,458z M337.6,454h5.5v-64.4c0-1-1.3-1.8-2.8-1.8s-2.8,0.9-2.8,1.8L337.6,454z"/>
	<path class="st2_moscow-56" d="M346.8,457.6H334v-68c0-3,2.9-5.5,6.4-5.5s6.4,2.5,6.4,5.5L346.8,457.6z M337.2,454.4h6.3v-64.8&#10;&#9;&#9;c0-1.2-1.4-2.2-3.1-2.2s-3.1,1-3.1,2.2V454.4z"/>
	<path class="st1_moscow-56 targetColor" d="M345.2,456.9h-9.5c-0.5,0-0.9-0.4-0.9-0.9c0,0,0,0,0,0v-66.4c0-2.6,2.5-4.7,5.6-4.7s5.6,2.1,5.6,4.7V456&#10;&#9;&#9;C346,456.5,345.6,456.9,345.2,456.9C345.1,456.9,345.1,456.9,345.2,456.9L345.2,456.9z M336.5,455.2h7.8v-65.5c0-1.6-1.8-3-3.9-3&#10;&#9;&#9;s-3.9,1.3-3.9,3L336.5,455.2L336.5,455.2z" style="fill: rgb(142, 73, 255);"/>
	<path class="st2_moscow-56" d="M345.2,458.9h-9.5c-1.6,0-2.9-1.3-2.9-2.9v-66.4c0-3.7,3.4-6.7,7.6-6.7s7.6,3,7.6,6.7V456&#10;&#9;&#9;C348,457.6,346.8,458.8,345.2,458.9L345.2,458.9z M338.5,453.2h3.8v-63.5c0-0.3-0.7-1-1.9-1s-1.9,0.6-1.9,1V453.2z"/>
	<path class="st2_moscow-56" d="M345.2,458.5h-9.5c-1.4,0-2.5-1.1-2.5-2.5c0,0,0,0,0,0v-66.4c0-3.5,3.2-6.3,7.2-6.3s7.2,2.8,7.2,6.3V456&#10;&#9;&#9;C347.6,457.4,346.5,458.5,345.2,458.5L345.2,458.5z M336.4,455.3h0.1v-0.1h-0.1V455.3z M338.1,453.5h4.6v-63.9c0-0.6-1-1.4-2.3-1.4&#10;&#9;&#9;s-2.3,0.7-2.3,1.4L338.1,453.5z"/>
	<path class="st1_moscow-56 targetColor" d="M360.9,456v-66.4c0-2.1-2.1-3.8-4.8-3.8s-4.8,1.7-4.8,3.8V456H360.9z" style="fill: rgb(142, 73, 255);"/>
	<path class="st2_moscow-56" d="M360.9,458h-9.5c-1.1,0-2-0.9-2-2v-66.4c0-3.2,3-5.8,6.8-5.8s6.8,2.6,6.8,5.8V456&#10;&#9;&#9;C362.9,457.1,362,458,360.9,458z M353.4,454h5.5v-64.4c0-1-1.3-1.8-2.8-1.8s-2.8,0.9-2.8,1.8L353.4,454z"/>
	<path class="st2_moscow-56" d="M362.5,457.6h-12.8v-68c0-3,2.9-5.5,6.4-5.5s6.4,2.5,6.4,5.5V457.6z M353,454.4h6.3v-64.8&#10;&#9;&#9;c0-1.2-1.5-2.2-3.2-2.2s-3.1,1-3.1,2.2V454.4z"/>
	<path class="st1_moscow-56 targetColor" d="M360.9,456.9h-9.5c-0.5,0-0.9-0.4-0.9-0.9c0,0,0,0,0,0v-66.4c0-2.6,2.5-4.7,5.6-4.7s5.6,2.1,5.6,4.7V456&#10;&#9;&#9;C361.7,456.5,361.4,456.9,360.9,456.9C360.9,456.9,360.9,456.9,360.9,456.9L360.9,456.9z M352.2,455.2h7.8v-65.5c0-1.6-1.8-3-3.9-3&#10;&#9;&#9;s-3.9,1.3-3.9,3L352.2,455.2L352.2,455.2z" style="fill: rgb(142, 73, 255);"/>
	<path class="st2_moscow-56" d="M360.9,458.9h-9.5c-1.6,0-2.9-1.3-2.9-2.9v-66.4c0-3.7,3.4-6.7,7.6-6.7s7.6,3,7.6,6.7V456&#10;&#9;&#9;C363.7,457.6,362.5,458.8,360.9,458.9L360.9,458.9z M354.2,453.2h3.8v-63.5c0-0.3-0.7-1-1.9-1s-1.9,0.6-1.9,1L354.2,453.2z"/>
	<path class="st2_moscow-56" d="M360.9,458.5h-9.5c-1.4,0-2.5-1.1-2.5-2.5v-66.4c0-3.5,3.2-6.3,7.2-6.3s7.2,2.8,7.2,6.3V456&#10;&#9;&#9;C363.4,457.4,362.3,458.5,360.9,458.5L360.9,458.5z M352.1,455.3h0.1v-0.1h-0.1V455.3z M353.8,453.5h4.6v-63.9c0-0.6-1-1.4-2.3-1.4&#10;&#9;&#9;s-2.3,0.7-2.3,1.4V453.5z"/>
	<path class="st1_moscow-56 targetColor" d="M376.6,456v-66.4c0-2.1-2.1-3.8-4.8-3.8s-4.8,1.7-4.8,3.8V456H376.6z" style="fill: rgb(142, 73, 255);"/>
	<path class="st2_moscow-56" d="M376.6,458h-9.5c-1.1,0-2-0.9-2-2v-66.4c0-3.2,3-5.8,6.8-5.8s6.8,2.6,6.8,5.8V456&#10;&#9;&#9;C378.6,457.1,377.7,458,376.6,458z M369.1,454h5.5v-64.4c0-1-1.3-1.8-2.8-1.8s-2.8,0.9-2.8,1.8V454z"/>
	<path class="st2_moscow-56" d="M378.2,457.6h-12.8v-68c0-3,2.9-5.5,6.4-5.5s6.4,2.5,6.4,5.5L378.2,457.6z M368.7,454.4h6.3v-64.8&#10;&#9;&#9;c0-1.2-1.4-2.2-3.1-2.2s-3.2,1-3.2,2.2L368.7,454.4z"/>
	<path class="st1_moscow-56 targetColor" d="M376.6,456.9h-9.5c-0.5,0-0.9-0.4-0.9-0.9v-66.4c0-2.6,2.5-4.7,5.6-4.7s5.6,2.1,5.6,4.7V456&#10;&#9;&#9;C377.5,456.5,377.1,456.9,376.6,456.9C376.6,456.9,376.6,456.9,376.6,456.9z M368,455.2h7.8v-65.5c0-1.6-1.8-3-3.9-3&#10;&#9;&#9;s-3.9,1.3-3.9,3V455.2z" style="fill: rgb(142, 73, 255);"/>
	<path class="st2_moscow-56" d="M376.6,458.9h-9.5c-1.6,0-2.9-1.3-2.9-2.9v-66.4c0-3.7,3.4-6.7,7.6-6.7s7.6,3,7.6,6.7V456&#10;&#9;&#9;C379.5,457.6,378.2,458.9,376.6,458.9C376.6,458.9,376.6,458.9,376.6,458.9z M370,453.2h3.8v-63.5c0-0.3-0.7-1-1.9-1&#10;&#9;&#9;s-1.9,0.6-1.9,1V453.2z"/>
	<path class="st2_moscow-56" d="M376.6,458.5h-9.5c-1.4,0-2.5-1.1-2.5-2.5c0,0,0,0,0,0v-66.4c0-3.5,3.2-6.3,7.2-6.3s7.2,2.8,7.2,6.3V456&#10;&#9;&#9;C379.1,457.4,378,458.5,376.6,458.5C376.6,458.5,376.6,458.5,376.6,458.5z M369.6,453.5h4.6v-63.9c0-0.6-1-1.4-2.3-1.4&#10;&#9;&#9;s-2.3,0.7-2.3,1.4V453.5z"/>
	<path class="st1_moscow-56 targetColor" d="M392.4,456v-66.4c0-2.1-2.1-3.8-4.8-3.8s-4.8,1.7-4.8,3.8V456H392.4z" style="fill: rgb(142, 73, 255);"/>
	<path class="st2_moscow-56" d="M392.4,458h-9.5c-1.1,0-2-0.9-2-2v-66.4c0-3.2,3-5.8,6.8-5.8s6.8,2.6,6.8,5.8V456&#10;&#9;&#9;C394.4,457.1,393.5,458,392.4,458z M384.8,454h5.5v-64.4c0-1-1.3-1.8-2.8-1.8s-2.8,0.9-2.8,1.8L384.8,454z"/>
	<path class="st2_moscow-56" d="M394,457.6h-12.8v-68c0-3,2.9-5.5,6.4-5.5s6.4,2.5,6.4,5.5L394,457.6z M384.5,454.4h6.3v-64.8&#10;&#9;&#9;c0-1.2-1.4-2.2-3.1-2.2s-3.2,1-3.2,2.2V454.4z"/>
	<path class="st1_moscow-56 targetColor" d="M392.4,456.9h-9.5c-0.5,0-0.8-0.4-0.8-0.9v-66.4c0-2.6,2.5-4.7,5.6-4.7s5.6,2.1,5.6,4.7V456&#10;&#9;&#9;C393.3,456.5,392.9,456.9,392.4,456.9C392.4,456.9,392.4,456.9,392.4,456.9z M383.7,455.2h7.8v-65.5c0-1.6-1.8-3-3.9-3&#10;&#9;&#9;s-3.9,1.3-3.9,3V455.2z" style="fill: rgb(142, 73, 255);"/>
	<path class="st2_moscow-56" d="M392.4,458.9h-9.5c-1.6,0-2.8-1.3-2.8-2.9v-66.4c0-3.7,3.4-6.7,7.6-6.7s7.6,3,7.6,6.7V456&#10;&#9;&#9;C395.3,457.6,394,458.9,392.4,458.9C392.4,458.9,392.4,458.9,392.4,458.9z M385.7,453.2h3.8v-63.5c0-0.3-0.7-1-1.9-1&#10;&#9;&#9;s-1.9,0.6-1.9,1V453.2z"/>
	<path class="st2_moscow-56" d="M392.4,458.5h-9.5c-1.4,0-2.5-1.1-2.5-2.5v-66.4c0-3.5,3.2-6.3,7.2-6.3s7.2,2.8,7.2,6.3V456&#10;&#9;&#9;C394.8,457.4,393.7,458.5,392.4,458.5C392.4,458.5,392.4,458.5,392.4,458.5z M385.3,453.5h4.6v-63.9c0-0.6-1-1.4-2.3-1.4&#10;&#9;&#9;s-2.3,0.7-2.3,1.4L385.3,453.5z"/>
	<g id="building_1_moscow-56">
		<path class="st0_moscow-56" d="M202,249.2c-1.5,1.2-3.1,2.2-4.7,3.2h-83.3c0,0-19.2-5.9-21.8-25.8c-2.2-17,7.9-27.8,21.7-39.5&#10;&#9;&#9;&#9;c2.4-2,4.9-4.1,7.4-6.2c17.1-14.2,27.7-28.7,30.8-42.2c0.1-0.2,0.1-0.4,0.1-0.6h8.9c0,0,6.2,16.6,17.5,30.2c2.7,3.3,5.7,6.3,9,9&#10;&#9;&#9;&#9;c0.2,0.2,0.4,0.4,0.6,0.5c4.9,3.9,9.1,7.3,12.5,10.5c9,8.4,13.4,15.2,14.5,22.9C216.9,223.1,215,238.9,202,249.2L202,249.2z"/>
		<path class="st2_moscow-56" d="M197.7,254.1h-84l-0.2-0.1c-0.2-0.1-20.2-6.4-22.9-27.1c-2.4-18.3,9.2-29.8,22.3-40.9c2.4-2,4.9-4.1,7.4-6.2&#10;&#9;&#9;&#9;c16.8-13.9,27.2-28.2,30.3-41.3c0.1-0.2,0.1-0.4,0.1-0.6l0.3-1.3h11.3l0.4,1c0.1,0.2,6.3,16.5,17.2,29.7c2.6,3.2,5.6,6.2,8.8,8.8&#10;&#9;&#9;&#9;l0.2,0.2c0.1,0.1,0.2,0.2,0.3,0.3c5.2,4,9.3,7.5,12.7,10.6c9.4,8.8,13.9,15.9,15,23.9c1,7.2,1.7,24.3-10.7,36.6h0.4l-3.7,2.9&#10;&#9;&#9;&#9;c-1.6,1.2-3.2,2.3-4.9,3.3L197.7,254.1z M114.2,250.8h82.7c1.3-0.7,2.5-1.6,3.6-2.4l0.5-0.4c14.5-11.4,13.7-29.3,12.8-36.5&#10;&#9;&#9;&#9;s-5.2-13.7-14-21.9c-3.3-3.1-7.4-6.5-12.4-10.4l-0.4-0.4l-0.2-0.1c-3.4-2.8-6.5-5.9-9.2-9.3c-9.8-11.9-15.8-25.7-17.4-29.6h-6.5&#10;&#9;&#9;&#9;c-3.4,13.6-14.1,28.2-31.2,42.4c-2.6,2.1-5,4.2-7.4,6.2c-12.9,10.9-23.3,21.4-21.2,38.1C96,244,112.1,250.1,114.2,250.8z"/>
		<path class="st2_moscow-56" d="M141.6,180.9c-16.6,17.7-31.7,17.7-33.2,43.5c-0.7,12.5,2.4,21.7,5.9,28h-0.4c0,0-19.2-5.9-21.8-25.8&#10;&#9;&#9;&#9;c-2.2-17,7.9-27.8,21.7-39.5c9.8-5.2,19.4-9.6,25.5-14.7c10-8.4,12.3-24.2,12.8-33.7c0.1-0.2,0.1-0.4,0.1-0.6h2.6&#10;&#9;&#9;&#9;C155.4,150,153.9,167.7,141.6,180.9L141.6,180.9z"/>
		<path class="st2_moscow-56" d="M140.8,224c-2,13.6-0.1,22.9,2.1,28.4H129c-4.1-6.2-6.1-13.6-5.6-21c1.4-18,9.3-26.6,19.6-41.1&#10;&#9;&#9;&#9;c9.7-13.7,18.8-24,13.1-52.2h3.7c0.4,1.3,0.9,2.8,1.3,4.4c2.1,7.5,4.1,18.3,2.5,28.2C161,188.4,144.5,199.4,140.8,224L140.8,224z"/>
		<path class="st2_moscow-56" d="M181.6,200.4c-1.4,19.7-8.4,31.6-8.2,52h-19.6c-1.3-8.6-0.4-17.4,2.8-25.4c6.5-17,13.5-23.1,15.1-37.1&#10;&#9;&#9;&#9;c3.5-30.6-10.6-47.4-10.6-47.4c-0.7-1.6-1.4-3.1-2-4.4h1.8c0,0,6.2,16.6,17.5,30.2C181,175.8,182.6,185.9,181.6,200.4L181.6,200.4&#10;&#9;&#9;&#9;z"/>
		<path class="st2_moscow-56" d="M208.4,217.9c0.3,11.4-3,22.7-6.4,31.4c-1.5,1.2-3.1,2.2-4.7,3.2h-11.6c4.1-9.4,6.7-19.4,7.7-29.7&#10;&#9;&#9;&#9;c2-23.1-1.5-32.4-5.7-45.4c0.2,0.2,0.4,0.3,0.6,0.5c4.9,3.9,4.6,3.3,8,6.5C196.3,184.4,207.9,200.8,208.4,217.9L208.4,217.9z"/>
		<rect x="150.4" y="125.2" class="st2_moscow-56" width="12.5" height="17.6"/>
		<circle class="st2_moscow-56" cx="156.7" cy="103.3" r="7.1"/>
		<rect x="114.3" y="252.4" class="st1_moscow-56 targetColor" width="82.8" height="6.3" style="fill: rgb(142, 73, 255);"/>
		<path class="st2_moscow-56" d="M197.1,260.7h-82.8c-1.1,0-2-0.9-2-2v-6.3c0-1.1,0.9-2,2-2h82.8c1.1,0,2,0.9,2,2v6.3&#10;&#9;&#9;&#9;C199.1,259.8,198.2,260.7,197.1,260.7z M116.3,256.7h78.8v-2.3h-78.8L116.3,256.7z"/>
		<path class="st2_moscow-56" d="M196.5,260.3h-81.6c-1.2,0-2.2-1-2.2-2.2c0,0,0,0,0,0V253c0-1.2,1-2.2,2.2-2.2h81.6c1.2,0,2.2,1,2.2,2.2v5.1&#10;&#9;&#9;&#9;C198.7,259.3,197.7,260.3,196.5,260.3C196.5,260.3,196.5,260.3,196.5,260.3z M115.9,257.1h79.6v-3.1h-79.6V257.1z"/>
		<rect x="124.5" y="278.3" class="st1_moscow-56 targetColor" width="62.4" height="93" style="fill: rgb(142, 73, 255);"/>
		<path class="st2_moscow-56" d="M186.9,373.3h-62.4c-1.1,0-2-0.9-2-2v-93c0-1.1,0.9-2,2-2h62.4c1.1,0,2,0.9,2,2v93&#10;&#9;&#9;&#9;C188.9,372.4,188,373.3,186.9,373.3z M126.5,369.3h58.4v-89h-58.4L126.5,369.3z"/>
		<path class="st2_moscow-56" d="M188.5,372.9h-65.7v-96.2h65.7V372.9z M126.1,369.6h59.2v-89.7h-59.2L126.1,369.6z"/>
		<polygon class="st1_moscow-56 targetColor" points="187.3,278.3 124.1,278.3 118.9,268.5 192.4,268.5 &#9;&#9;" style="fill: rgb(142, 73, 255);"/>
		<path class="st2_moscow-56" d="M187.3,280.3h-63.3c-0.7,0-1.4-0.4-1.8-1.1l-5.1-9.8c-0.5-1-0.1-2.2,0.9-2.7c0.3-0.1,0.6-0.2,0.9-0.2h73.5&#10;&#9;&#9;&#9;c1.1,0,2,0.9,2,2c0,0.3-0.1,0.6-0.2,0.9l-5.1,9.8C188.8,279.9,188.1,280.3,187.3,280.3z M125.3,276.3h60.9l3-5.8h-66.9&#10;&#9;&#9;&#9;L125.3,276.3z"/>
		<path class="st2_moscow-56" d="M188.3,279.9h-65.2l-5.1-9.8c-0.6-1.1-0.1-2.4,0.9-3c0.3-0.2,0.7-0.3,1.1-0.2h71.5c1.2,0,2.2,0.9,2.2,2.2&#10;&#9;&#9;&#9;c0,0.4-0.1,0.7-0.2,1.1L188.3,279.9z M125,276.7h61.3l3.4-6.6h-68.2L125,276.7z"/>
		<path class="st1_moscow-56 targetColor" d="M188.5,342.1c-5.3-9.7-17.5-13.3-27.2-7.9c-3.3,1.8-6.1,4.6-7.9,7.9c-5.3-9.7-17.6-13.3-27.3-7.9&#10;&#9;&#9;&#9;c-3.3,1.8-6.1,4.6-7.9,7.9c-3.5-6.4-10.3-10.4-17.6-10.4v25.9h105.5v-25.9C198.7,331.7,192,335.7,188.5,342.1L188.5,342.1z" style="fill: rgb(142, 73, 255);"/>
		<path class="st2_moscow-56" d="M206.1,359.6H100.6c-1.1,0-2-0.9-2-2v-25.9c0-1.1,0.9-2,2-2c6.9,0,13.4,3.2,17.6,8.7&#10;&#9;&#9;&#9;c7.4-9.7,21.2-11.6,30.9-4.3c1.6,1.2,3,2.7,4.3,4.3c7.4-9.7,21.2-11.6,30.9-4.2c1.6,1.2,3,2.6,4.2,4.2c4.2-5.5,10.7-8.7,17.6-8.7&#10;&#9;&#9;&#9;c1.1,0,2,0.9,2,2v25.9C208,358.7,207.1,359.6,206.1,359.6z M102.6,355.6h101.5v-21.8c-5.8,0.6-10.9,4-13.7,9.1&#10;&#9;&#9;&#9;c0,0.1-0.1,0.2-0.1,0.2c-0.4,0.6-1,1-1.7,1l0,0c-0.7,0-1.4-0.4-1.7-1c0-0.1-0.1-0.2-0.1-0.2c-4.9-8.7-15.9-11.7-24.6-6.8&#10;&#9;&#9;&#9;c-2.9,1.7-5.3,4.1-6.9,7c-0.4,0.6-1,1-1.8,1l0,0c-0.7,0-1.4-0.4-1.8-1c-4.8-8.7-15.8-11.9-24.5-7.1c-3,1.7-5.5,4.1-7.1,7.1&#10;&#9;&#9;&#9;c-0.4,0.6-1,1-1.8,1l0,0c-0.7,0-1.4-0.4-1.8-1c-2.8-5.2-8-8.6-13.8-9.3L102.6,355.6z"/>
		<path class="st2_moscow-56" d="M207.7,359.2H99v-29.1h1.6c7,0,13.5,3.4,17.6,9c7-9.7,20.5-11.9,30.3-4.9c1.9,1.4,3.6,3,4.9,4.9&#10;&#9;&#9;&#9;c7-9.7,20.5-11.9,30.3-4.9c1.9,1.4,3.5,3,4.9,4.9c4.1-5.6,10.6-9,17.6-9h1.6L207.7,359.2z M102.2,356h102.3v-22.6&#10;&#9;&#9;&#9;c-5.8,0.5-11,3.8-14.1,8.7h-3.7c-5.3-8.7-16.7-11.4-25.4-6.1c-2.7,1.7-5,4-6.5,6.8h-2.8c-4.9-8.9-16.1-12.2-25.1-7.3&#10;&#9;&#9;&#9;c-3.1,1.7-5.6,4.2-7.3,7.3h-2.8c-3-5.4-8.4-9-14.6-9.5L102.2,356z"/>
		<rect x="94.3" y="368.1" class="st1_moscow-56 targetColor" width="121.1" height="85.4" style="fill: rgb(142, 73, 255);"/>
		<path class="st2_moscow-56" d="M215.4,455.5H94.3c-1.1,0-2-0.9-2-2v-85.4c0-1.1,0.9-2,2-2h121.1c1.1,0,2,0.9,2,2v85.4&#10;&#9;&#9;&#9;C217.4,454.6,216.5,455.5,215.4,455.5z M96.3,451.5h117.1v-81.4H96.3L96.3,451.5z"/>
		<path class="st2_moscow-56" d="M217,455.1H92.7v-88.7H217V455.1z M95.9,451.9h117.9v-82.2H95.9V451.9z"/>
		<path class="st1_moscow-56 targetColor" d="M212.1,387h-116c-0.5,0.1-1-0.3-1-0.8c-0.1-0.5,0.3-1,0.8-1c0.1,0,0.1,0,0.2,0h116c0.5-0.1,1,0.3,1,0.8&#10;&#9;&#9;&#9;c0.1,0.5-0.3,1-0.8,1C212.2,387,212.2,387,212.1,387z" style="fill: rgb(142, 73, 255);"/>
		<path class="st2_moscow-56" d="M212.1,389h-116c-1.6,0.1-3-1.1-3.1-2.8c-0.1-1.6,1.1-3,2.8-3.1c0.1,0,0.2,0,0.3,0h116c1.6-0.1,3,1.1,3.1,2.8&#10;&#9;&#9;&#9;c0.1,1.6-1.1,3-2.8,3.1C212.3,389,212.2,389,212.1,389z M212.1,387.1L212.1,387.1z"/>
		<path class="st2_moscow-56" d="M212.1,388.6h-116c-1.4-0.1-2.5-1.3-2.4-2.7c0.1-1.3,1.1-2.3,2.4-2.4h116c1.4,0.1,2.5,1.3,2.4,2.7&#10;&#9;&#9;&#9;C214.4,387.5,213.4,388.5,212.1,388.6z"/>
	</g>
	<path class="st2_moscow-56" d="M156.7,127.2c-1.1,0-2-0.9-2-2V56.7c0-1.1,0.9-2,2-2s2,0.9,2,2v68.5C158.7,126.3,157.8,127.2,156.7,127.2z"/>
	<rect x="155.1" y="56.7" class="st2_moscow-56" width="3.2" height="68.5"/>
	<rect x="117.5" y="258.7" class="st2_moscow-56" width="74.9" height="8.1"/>
	<path class="st2_moscow-56" d="M143.8,320.2c-1.1,0-2-0.9-2-2v-30.4c0-1.1,0.9-2,2-2s2,0.9,2,2v30.4C145.8,319.3,144.9,320.2,143.8,320.2&#10;&#9;&#9;C143.8,320.2,143.8,320.2,143.8,320.2z"/>
	<rect x="142.2" y="287.8" class="st2_moscow-56" width="3.2" height="30.4"/>
	<path class="st2_moscow-56" d="M167.6,320.2c-1.1,0-2-0.9-2-2v-30.4c0-1.1,0.9-2,2-2s2,0.9,2,2v30.4C169.6,319.3,168.7,320.2,167.6,320.2&#10;&#9;&#9;C167.6,320.2,167.6,320.2,167.6,320.2z"/>
	<rect x="166" y="287.8" class="st2_moscow-56" width="3.2" height="30.4"/>
	<rect x="105.7" y="400.7" class="st2_moscow-56" width="24.2" height="37.7"/>
	<rect x="143.6" y="400.7" class="st2_moscow-56" width="24.2" height="37.7"/>
	<rect x="182.6" y="400.7" class="st2_moscow-56" width="24.2" height="37.7"/>
	<g id="building_1-2_moscow-56">
		<path class="st1_moscow-56 targetColor" d="M286.8,320.9c-1,0.8-2,1.5-3.1,2.1h-54.3c0,0-12.5-3.8-14.2-16.8c-1.4-11.1,5.2-18.1,14.1-25.7&#10;&#9;&#9;&#9;c1.6-1.3,3.2-2.7,4.8-4c11.1-9.2,18-18.7,20.1-27.4c0-0.1,0.1-0.3,0.1-0.4h5.8c2.8,7.1,6.7,13.7,11.4,19.6&#10;&#9;&#9;&#9;c1.7,2.2,3.7,4.1,5.9,5.9c0.1,0.1,0.3,0.2,0.4,0.3c3.2,2.5,5.9,4.8,8.2,6.9c5.9,5.5,8.7,9.9,9.4,14.9&#10;&#9;&#9;&#9;C296.6,303.9,295.3,314.2,286.8,320.9L286.8,320.9z" style="fill: rgb(142, 73, 255);"/>
		<path class="st2_moscow-56" d="M283.7,324.9h-54.2c-0.2,0-0.4,0-0.6-0.1c-0.6-0.2-13.7-4.4-15.6-18.5c-1.6-12.4,6.1-20.1,14.8-27.5&#10;&#9;&#9;&#9;c1.5-1.3,3.1-2.7,4.8-4c10.8-9,17.5-18.1,19.5-26.4c0-0.2,0.1-0.2,0.1-0.3c0.2-1,1-1.6,2-1.6h5.8c0.8,0,1.6,0.5,1.9,1.3&#10;&#9;&#9;&#9;c2.8,6.9,6.5,13.3,11.1,19.1c1.7,2.1,3.5,3.9,5.6,5.6l0.1,0.1l0.2,0.1c3.4,2.7,6.1,5,8.3,7c6.3,5.9,9.3,10.7,10,16.1&#10;&#9;&#9;&#9;c0.7,5.2,1.2,18.1-9.3,26.5l-0.1,0.1c-1,0.8-2.2,1.6-3.3,2.2C284.5,324.8,284.1,324.9,283.7,324.9z M229.8,320.9h53.4&#10;&#9;&#9;&#9;c0.8-0.5,1.5-1,2.3-1.6l0.1-0.1c8.7-6.9,8.7-17.3,8-22.9c-0.6-4.4-3.2-8.5-8.8-13.7c-2.1-2-4.8-4.2-8-6.7l-0.3-0.3l-0.1-0.1&#10;&#9;&#9;&#9;c-2.3-1.8-4.3-3.9-6.1-6.2c-4.6-5.8-8.4-12.1-11.2-18.9H256c-2.4,8.8-9.5,18.3-20.4,27.4c-1.7,1.4-3.3,2.7-4.8,4&#10;&#9;&#9;&#9;c-9.7,8.2-14.7,14.5-13.4,23.9C218.7,316.5,228.1,320.3,229.8,320.9L229.8,320.9z"/>
		<path class="st2_moscow-56" d="M284.2,324.5h-54.9l-0.2-0.1c-0.6-0.2-13.5-4.3-15.3-18.1c-1.6-12.2,6-19.8,14.7-27.2c1.6-1.3,3.2-2.7,4.9-4&#10;&#9;&#9;&#9;c10.8-9,17.6-18.2,19.5-26.6c0-0.2,0.1-0.3,0.1-0.4l0.2-1.3h8.2l0.4,1c2.8,6.9,6.5,13.4,11.1,19.2c1.7,2.1,3.6,4,5.6,5.6l0.1,0.1&#10;&#9;&#9;&#9;l0.2,0.2c3.4,2.7,6.1,4.9,8.3,7c6.2,5.8,9.2,10.5,9.9,15.9c0.6,4.6,1.1,15.2-6.2,23.3h0.6l-3.7,2.9c-1,0.8-2.1,1.5-3.3,2.2&#10;&#9;&#9;&#9;L284.2,324.5z M229.8,321.3h53.6c0.8-0.5,1.5-0.9,2.2-1.5l0.3-0.2c8.9-7,8.9-17.6,8.1-23.2c-0.6-4.5-3.3-8.7-8.9-14&#10;&#9;&#9;&#9;c-2.1-2-4.8-4.2-8.1-6.8c-0.1-0.1-0.2-0.2-0.3-0.2l-0.1-0.1c-2.2-1.8-4.3-3.9-6.1-6.1c-4.6-5.8-8.4-12.2-11.2-19.1h-3.4&#10;&#9;&#9;&#9;c-2.4,8.9-9.4,18.3-20.4,27.5c-1.7,1.4-3.3,2.7-4.8,4c-9.8,8.3-14.8,14.6-13.6,24.3C218.4,316.9,228.1,320.7,229.8,321.3&#10;&#9;&#9;&#9;L229.8,321.3z"/>
		<path class="st2_moscow-56" d="M247.5,276.4c-10.8,11.5-20.6,11.5-21.6,28.3c-0.5,6.3,0.8,12.7,3.9,18.2h-0.2c0,0-12.5-3.8-14.2-16.8&#10;&#9;&#9;&#9;c-1.4-11.1,5.2-18.1,14.1-25.7c6.4-3.4,12.6-6.2,16.6-9.5c6.5-5.5,8-15.7,8.3-21.9c0-0.1,0.1-0.3,0.1-0.4h1.7&#10;&#9;&#9;&#9;C256.5,256.2,255.5,267.8,247.5,276.4L247.5,276.4z"/>
		<path class="st2_moscow-56" d="M247,304.4c-1.3,8.9-0.1,14.9,1.4,18.5h-9c-2.7-4-4-8.8-3.6-13.7c0.9-11.7,6.1-17.3,12.8-26.7&#10;&#9;&#9;&#9;c6.3-8.9,12.2-15.6,8.6-34h2.4c0.3,0.9,0.6,1.8,0.9,2.9c1.4,4.9,2.7,11.9,1.6,18.3C260.2,281.2,249.4,288.4,247,304.4L247,304.4z"/>
		<path class="st2_moscow-56" d="M273.6,289.1c-0.9,12.9-5.5,20.6-5.3,33.9h-12.7c-0.9-5.6-0.2-11.3,1.8-16.5c4.2-11.1,8.8-15.1,9.8-24.1&#10;&#9;&#9;&#9;c2.3-19.9-6.9-30.9-6.9-30.9c-0.5-1.1-0.9-2-1.3-2.9h1.2c2.8,7.1,6.7,13.7,11.4,19.6C273.1,273,274.2,279.6,273.6,289.1&#10;&#9;&#9;&#9;L273.6,289.1z"/>
		<path class="st2_moscow-56" d="M291,300.4c0.2,7.4-2,14.8-4.2,20.4c-1,0.8-2,1.5-3.1,2.1h-7.5c2.7-6.1,4.4-12.7,5-19.3&#10;&#9;&#9;&#9;c1.3-15-1-21.1-3.7-29.6c0.1,0.1,0.3,0.2,0.4,0.3c1.8,1.3,3.6,2.7,5.2,4.3C283.1,278.6,290.7,289.3,291,300.4L291,300.4z"/>
		<rect x="253.2" y="240.1" class="st2_moscow-56" width="8.2" height="11.5"/>
		<circle class="st2_moscow-56" cx="257.3" cy="225.9" r="4.6"/>
		<rect x="229.7" y="322.9" class="st1_moscow-56 targetColor" width="53.9" height="4.1" style="fill: rgb(142, 73, 255);"/>
		<path class="st2_moscow-56" d="M283.6,329h-53.9c-1.1,0-2-0.9-2-2v-4.1c0-1.1,0.9-2,2-2h53.9c1.1,0,2,0.9,2,2v4.1&#10;&#9;&#9;&#9;C285.6,328.1,284.7,329,283.6,329z M231.7,325h49.9v-0.1L231.7,325L231.7,325z"/>
		<path class="st2_moscow-56" d="M282.9,328.6h-52.5c-1.3,0-2.3-1-2.3-2.3l0,0v-2.7c0-1.3,1-2.3,2.3-2.3h0h52.5c1.3,0,2.3,1,2.3,2.3&#10;&#9;&#9;&#9;c0,0,0,0,0,0v2.7C285.2,327.6,284.2,328.6,282.9,328.6C282.9,328.6,282.9,328.6,282.9,328.6z M231.3,325.4H282v-0.9h-50.7V325.4z"/>
		<rect x="236.4" y="339.8" class="st1_moscow-56 targetColor" width="40.6" height="60.5" style="fill: rgb(142, 73, 255);"/>
		<path class="st2_moscow-56" d="M277,402.3h-40.6c-1.1,0-2-0.9-2-2v-60.5c0-1.1,0.9-2,2-2H277c1.1,0,2,0.9,2,2v60.5&#10;&#9;&#9;&#9;C279,401.4,278.1,402.3,277,402.3z M238.4,398.3H275v-56.5h-36.6V398.3z"/>
		<path class="st2_moscow-56" d="M278.6,401.9h-43.9v-63.7h43.9V401.9z M238,398.7h37.4v-57.3H238V398.7z"/>
		<polygon class="st1_moscow-56 targetColor" points="277.3,339.8 236.1,339.8 232.8,333.4 280.6,333.4 &#9;&#9;" style="fill: rgb(142, 73, 255);"/>
		<path class="st2_moscow-56" d="M277.3,341.8h-41.2c-0.7,0-1.4-0.4-1.8-1.1l-3.3-6.4c-0.3-0.6-0.3-1.4,0.1-2c0.4-0.6,1-1,1.7-1h47.8&#10;&#9;&#9;&#9;c1.1,0,2,0.9,2,2c0,0.3-0.1,0.6-0.2,0.9l-3.4,6.5C278.7,341.3,278,341.7,277.3,341.8z M237.3,337.8H276l1.2-2.4h-41.2L237.3,337.8&#10;&#9;&#9;&#9;z"/>
		<path class="st2_moscow-56" d="M278.2,341.4h-43.1l-3.6-7c-0.5-0.9-0.1-2,0.8-2.4c0.3-0.1,0.5-0.2,0.8-0.2h47.2c1,0,1.8,0.8,1.8,1.8&#10;&#9;&#9;&#9;c0,0.3-0.1,0.6-0.2,0.8L278.2,341.4z M237.1,338.1h39.2l1.6-3.1h-42.5L237.1,338.1z"/>
		<path class="st1_moscow-56 targetColor" d="M278,381.3c-3.5-6.3-11.4-8.6-17.7-5.2c-2.2,1.2-4,3-5.2,5.2c-3.5-6.3-11.4-8.6-17.7-5.2&#10;&#9;&#9;&#9;c-2.2,1.2-4,3-5.2,5.2c-2.3-4.2-6.7-6.8-11.4-6.8v16.8h68.7v-16.8C284.7,374.5,280.3,377.1,278,381.3z" style="fill: rgb(142, 73, 255);"/>
		<path class="st2_moscow-56" d="M289.5,393.4h-68.7c-1.1,0-2-0.9-2-2v-16.8c0-1.1,0.9-2,2-2c4.4,0,8.6,1.9,11.4,5.3&#10;&#9;&#9;&#9;c5.4-6.3,14.9-7.1,21.2-1.7c0.6,0.5,1.2,1.1,1.7,1.7c5.4-6.3,14.8-7.1,21.1-1.7c0.6,0.5,1.2,1.1,1.7,1.7c2.9-3.3,7-5.3,11.5-5.3&#10;&#9;&#9;&#9;c1.1,0,2,0.9,2,2v16.8C291.5,392.5,290.6,393.4,289.5,393.4z M222.8,389.4h64.7v-12.7c-3.2,0.6-6,2.6-7.6,5.4&#10;&#9;&#9;&#9;c0,0.1-0.1,0.1-0.1,0.2c-0.4,0.6-1,1-1.7,1l0,0c-0.7,0-1.4-0.4-1.7-1c0-0.1-0.1-0.1-0.1-0.2c-3-5.3-9.8-7.2-15.1-4.2&#10;&#9;&#9;&#9;c-1.8,1-3.2,2.5-4.2,4.3c-0.4,0.6-1,1-1.8,1l0,0c-0.7,0-1.4-0.4-1.8-1c-2.9-5.4-9.7-7.3-15-4.4c-1.8,1-3.4,2.5-4.4,4.4&#10;&#9;&#9;&#9;c-0.5,1-1.8,1.3-2.7,0.8c-0.3-0.2-0.6-0.5-0.8-0.8c-1.6-2.9-4.4-5-7.7-5.6L222.8,389.4z"/>
		<path class="st2_moscow-56" d="M289.2,393h-68.2c-1,0-1.9-0.8-1.9-1.8c0,0,0,0,0,0v-16.6c0-0.9,0.7-1.6,1.6-1.6l0,0c4.4,0,8.7,2,11.4,5.5&#10;&#9;&#9;&#9;c5.1-6.3,14.3-7.3,20.6-2.3c0.8,0.7,1.6,1.4,2.3,2.3c5.1-6.3,14.3-7.3,20.6-2.3c0.8,0.7,1.6,1.4,2.3,2.3c2.8-3.5,7-5.5,11.5-5.5&#10;&#9;&#9;&#9;l0,0c0.9,0,1.6,0.7,1.6,1.6v16.6C291.1,392.2,290.2,393,289.2,393C289.2,393,289.2,393,289.2,393z M222.4,389.8h65.4v-13.5&#10;&#9;&#9;&#9;c-3.3,0.5-6.2,2.3-8,5.1h-3.7c-3.5-5.3-10.5-6.8-15.8-3.3c-1.6,1-2.9,2.4-3.8,4.1h-2.8c-3-5.5-10-7.6-15.5-4.5&#10;&#9;&#9;&#9;c-1.9,1-3.5,2.6-4.5,4.5h-2.8c-1.7-3.2-4.9-5.3-8.4-5.8L222.4,389.8z"/>
		<rect x="216.7" y="398.2" class="st1_moscow-56 targetColor" width="78.8" height="55.6" style="fill: rgb(142, 73, 255);"/>
		<path class="st2_moscow-56" d="M295.5,455.8h-78.8c-1.1,0-2-0.9-2-2v-55.6c0-1.1,0.9-2,2-2h78.8c1.1,0,2,0.9,2,2v55.6&#10;&#9;&#9;&#9;C297.5,454.9,296.6,455.8,295.5,455.8z M218.7,451.8h74.8v-51.6h-74.8V451.8z"/>
		<path class="st2_moscow-56" d="M297.1,455.4h-82v-58.8h82V455.4z M218.3,452.2h75.6v-52.4h-75.6L218.3,452.2z"/>
		<path class="st1_moscow-56 targetColor" d="M293.4,410.5h-75.5c-0.3,0-0.6-0.3-0.5-0.7c0-0.3,0.3-0.5,0.5-0.5h75.5c0.3,0,0.6,0.3,0.5,0.7&#10;&#9;&#9;&#9;C293.9,410.3,293.7,410.5,293.4,410.5z" style="fill: rgb(142, 73, 255);"/>
		<path class="st2_moscow-56" d="M293.4,412.5h-75.5c-1.4-0.1-2.5-1.3-2.4-2.8c0.1-1.3,1.1-2.4,2.4-2.4h75.5c1.4,0.1,2.5,1.3,2.4,2.8&#10;&#9;&#9;&#9;C295.8,411.4,294.7,412.4,293.4,412.5z M293.4,411.3L293.4,411.3z"/>
		<path class="st2_moscow-56" d="M293.4,412.1h-75.5c-1.2,0.1-2.3-0.8-2.4-2.1c-0.1-1.2,0.8-2.3,2.1-2.4c0.1,0,0.2,0,0.3,0h75.5&#10;&#9;&#9;&#9;c1.2,0.1,2.1,1.1,2.1,2.4C295.4,411.2,294.5,412.1,293.4,412.1z"/>
	</g>
	<path class="st2_moscow-56" d="M257.3,242.1c-1.1,0-2-0.9-2-2v-44.6c0-1.1,0.9-2,2-2s2,0.9,2,2v44.6C259.3,241.2,258.4,242.1,257.3,242.1z"/>
	<rect x="255.7" y="195.5" class="st2_moscow-56" width="3.2" height="44.6"/>
	<rect x="231.8" y="327" class="st2_moscow-56" width="48.8" height="5.3"/>
	<path class="st2_moscow-56" d="M249,367.7c-1.1,0-2-0.9-2-2v-19.8c0-1.1,0.9-2,2-2s2,0.9,2,2v19.8C251,366.8,250.1,367.7,249,367.7z"/>
	<rect x="247.3" y="345.9" class="st2_moscow-56" width="3.2" height="19.8"/>
	<path class="st2_moscow-56" d="M264.4,367.7c-1.1,0-2-0.9-2-2v-19.8c0-1.1,0.9-2,2-2s2,0.9,2,2v19.8C266.4,366.8,265.5,367.7,264.4,367.7z"/>
	<rect x="262.8" y="345.9" class="st2_moscow-56" width="3.2" height="19.8"/>
	<rect x="224.1" y="419.4" class="st2_moscow-56" width="15.7" height="24.5"/>
	<rect x="248.8" y="419.4" class="st2_moscow-56" width="15.7" height="24.5"/>
	<rect x="274.2" y="419.4" class="st2_moscow-56" width="15.7" height="24.5"/>
</g>
</svg>