<svg id="_0226_statue_of_liberty" xmlns="http://www.w3.org/2000/svg" xmlns:xlink="http://www.w3.org/1999/xlink" viewBox="0 0 500 500" data-imageid="statue-of-liberty-55" imageName="Statue of Liberty" class="illustrations_image" style="width: 150px;"><defs><style>.cls-1_statue-of-liberty-55{fill:url(#linear-gradient);}.cls-1_statue-of-liberty-55,.cls-2_statue-of-liberty-55,.cls-3_statue-of-liberty-55,.cls-4_statue-of-liberty-55,.cls-5_statue-of-liberty-55,.cls-6_statue-of-liberty-55,.cls-7_statue-of-liberty-55,.cls-8_statue-of-liberty-55,.cls-9_statue-of-liberty-55,.cls-10_statue-of-liberty-55,.cls-11_statue-of-liberty-55,.cls-12_statue-of-liberty-55,.cls-13_statue-of-liberty-55,.cls-14_statue-of-liberty-55,.cls-15_statue-of-liberty-55,.cls-16_statue-of-liberty-55,.cls-17_statue-of-liberty-55,.cls-18_statue-of-liberty-55,.cls-19_statue-of-liberty-55{stroke-width:0px;}.cls-2_statue-of-liberty-55{fill:url(#linear-gradient-11-statue-of-liberty-55);}.cls-3_statue-of-liberty-55{fill:url(#linear-gradient-12-statue-of-liberty-55);}.cls-4_statue-of-liberty-55{fill:url(#linear-gradient-13-statue-of-liberty-55);}.cls-5_statue-of-liberty-55{fill:url(#linear-gradient-10-statue-of-liberty-55);}.cls-6_statue-of-liberty-55{fill:url(#linear-gradient-17-statue-of-liberty-55);}.cls-7_statue-of-liberty-55{fill:url(#linear-gradient-16-statue-of-liberty-55);}.cls-8_statue-of-liberty-55{fill:url(#linear-gradient-15-statue-of-liberty-55);}.cls-9_statue-of-liberty-55{fill:url(#linear-gradient-14-statue-of-liberty-55);}.cls-10_statue-of-liberty-55{fill:url(#linear-gradient-4-statue-of-liberty-55);}.cls-11_statue-of-liberty-55{fill:url(#linear-gradient-2-statue-of-liberty-55);}.cls-12_statue-of-liberty-55{fill:url(#linear-gradient-3-statue-of-liberty-55);}.cls-13_statue-of-liberty-55{fill:url(#linear-gradient-8-statue-of-liberty-55);}.cls-14_statue-of-liberty-55{fill:url(#linear-gradient-9-statue-of-liberty-55);}.cls-15_statue-of-liberty-55{fill:url(#linear-gradient-7-statue-of-liberty-55);}.cls-16_statue-of-liberty-55{fill:url(#linear-gradient-5-statue-of-liberty-55);}.cls-17_statue-of-liberty-55{fill:url(#linear-gradient-6-statue-of-liberty-55);}.cls-18_statue-of-liberty-55{isolation:isolate;opacity:.24;}.cls-18_statue-of-liberty-55,.cls-19_statue-of-liberty-55{fill:#68e6fd;}</style><linearGradient id="linear-gradient-statue-of-liberty-55" x1="478.73" y1="648.52" x2="805.31" y2="1039.56" gradientTransform="translate(-365.12 -326.28)" gradientUnits="userSpaceOnUse"><stop offset="0" stop-color="#010101" stop-opacity="0"/><stop offset=".95" stop-color="#010101"/></linearGradient><linearGradient id="linear-gradient-2-statue-of-liberty-55" x1="658.21" y1="693.45" x2="875.35" y2="953.46" xlink:href="#linear-gradient-statue-of-liberty-55"/><linearGradient id="linear-gradient-3-statue-of-liberty-55" x1="639.29" y1="462.33" x2="596.89" y2="602.18" xlink:href="#linear-gradient-statue-of-liberty-55"/><linearGradient id="linear-gradient-4-statue-of-liberty-55" x1="671.3" y1="472.02" x2="628.9" y2="611.89" xlink:href="#linear-gradient-statue-of-liberty-55"/><linearGradient id="linear-gradient-5-statue-of-liberty-55" x1="631.1" y1="437.57" x2="488.99" y2="544.5" xlink:href="#linear-gradient-statue-of-liberty-55"/><linearGradient id="linear-gradient-6-statue-of-liberty-55" x1="614.47" y1="348.97" x2="420.02" y2="511.83" xlink:href="#linear-gradient-statue-of-liberty-55"/><linearGradient id="linear-gradient-7-statue-of-liberty-55" x1="643.24" y1="463.16" x2="640.83" y2="555.79" xlink:href="#linear-gradient-statue-of-liberty-55"/><linearGradient id="linear-gradient-8-statue-of-liberty-55" x1="624.11" y1="641.72" x2="805.48" y2="576.3" gradientTransform="translate(-365.12 -326.28)" gradientUnits="userSpaceOnUse"><stop offset="0" stop-color="#fff" stop-opacity="0"/><stop offset=".95" stop-color="#fff"/></linearGradient><linearGradient id="linear-gradient-9-statue-of-liberty-55" x1="563.37" y1="388.45" x2="454.8" y2="490.41" gradientTransform="translate(-322.49 -329.58)" xlink:href="#linear-gradient-statue-of-liberty-55"/><linearGradient id="linear-gradient-10-statue-of-liberty-55" x1="614.96" y1="394.7" x2="506.39" y2="496.66" xlink:href="#linear-gradient-statue-of-liberty-55"/><linearGradient id="linear-gradient-11-statue-of-liberty-55" x1="668.75" y1="472.19" x2="583.64" y2="614.15" xlink:href="#linear-gradient-statue-of-liberty-55"/><linearGradient id="linear-gradient-12-statue-of-liberty-55" x1="703.65" y1="483.5" x2="656.73" y2="1181.28" xlink:href="#linear-gradient-statue-of-liberty-55"/><linearGradient id="linear-gradient-13-statue-of-liberty-55" x1="658.19" y1="638.74" x2="683.46" y2="1017.69" xlink:href="#linear-gradient-statue-of-liberty-55"/><linearGradient id="linear-gradient-14-statue-of-liberty-55" x1="641.83" y1="479.34" x2="594.91" y2="1177.12" xlink:href="#linear-gradient-statue-of-liberty-55"/><linearGradient id="linear-gradient-15-statue-of-liberty-55" x1="628.97" y1="478.47" x2="582.05" y2="1176.25" xlink:href="#linear-gradient-statue-of-liberty-55"/><linearGradient id="linear-gradient-16-statue-of-liberty-55" x1="632.8" y1="478.72" x2="585.89" y2="1176.52" xlink:href="#linear-gradient-statue-of-liberty-55"/><linearGradient id="linear-gradient-17-statue-of-liberty-55" x1="584.44" y1="499.84" x2="782.35" y2="664.06" xlink:href="#linear-gradient-statue-of-liberty-55"/></defs><g id="background_statue-of-liberty-55"><path class="cls-18_statue-of-liberty-55" d="M7.64,411c-9.12-24-8.53-50.29-6.07-75.81,1.5-15.77,3.82-32.05,12.29-45.42,23.8-37.51,81.88-34.82,113.24-66.25,18.7-18.75,25.6-47.5,46.19-64.14,14.16-11.43,32.66-15.41,50.55-19.07l116.39-23.92c15.39-3.15,31.91-6.21,46.35,0,13.91,6.07,22.93,19.29,33.18,30.33,8.61,9.38,18.73,17.79,24.47,29.16,16.3,32.19-8.49,70.88-2.99,106.55,3.94,25.62,22.79,45.92,37.92,66.97,15.13,21.05,27.38,48.71,16.56,72.29-6.81,14.84-21.74,24.69-37.43,29.28-15.69,4.59-32.35,4.57-48.53,4.51l-178.54-.38c-56.52-.12-114.9,3.94-170.85,2.02-24.89-.79-44.65-24.43-52.74-46.13Z"/></g><g id="building_statue-of-liberty-55"><path class="cls-19_statue-of-liberty-55" d="M63.67,456.19v-34.26h3.4v-26h3.38v-3.36h3.09v-2.33l3.03-3.52h13.1l3.01,3.52v2.33h2.77v3.36h3.4v12.58h3.01v-60.44h-2.29v-1.52h3.44v-17.13h1.38v-5.38h1.23v-5.14h1.23v-5.14h1.31v-5.24h1.6v-5.14h1.38v-5.14h1.31v-5.14h.55l1.03-20.36,1.01,20.36h.59v5.14h1.31v5.14h1.38v5.14h1.6v5.16h1.31v5.14h1.23v5.14h1.23v5.4h1.35v17.19h3.5v1.6h-2.29v60.52h2.02v-33.81h4.39v-4.55h3.05s-.49-5.8,10.66-7.04v-97.61l10.76-1.33v-4.73h5.04v-5.46l4.21.12,1.76-22.51,1.76,22.51,3.82-.12v5.46h5.22v4.25l10.98,1.82v97.06h4.65l.36,3.6,1.76.55v-18.95h1.58v-18.52h2.49v-13.04h.69v-3.52h1.68v-3.6h2.02v-3.01h2.12v-2.31h1.82v-1.76h1.25v-12.9h1.52v-4.25l1.82.22.99-35.73,1.01,35.71,1.84-.22v4.25h1.54v12.92h1.25v1.92h1.82v2.31h2.12v3.01h2.02v3.6h1.58v3.52h.87v12.88h2.65v18.66h1.27v70.29h1.4v-2.02h2.51v-1.68h4.85v-33.41l7.87-6.29,15.89,6.29v27.99h2.59v-2.02h9.52v2.39h2.51v2.02h2.85v2.41h1.76v42.16H63.67Z"/><path class="cls-1_statue-of-liberty-55" d="M63.67,456.19v-34.26h3.4v-26h3.38v-3.36h3.09v-2.33l3.03-3.52h13.1l3.01,3.52v2.33h2.77v3.36h3.4v12.58h3.01v-60.44h-2.29v-1.52h3.44v-17.13h1.38v-5.38h1.23v-5.14h1.23v-5.14h1.31v-5.24h1.6v-5.14h1.38v-5.14h1.31v-5.14h.55l1.03-20.36,1.01,20.36h.59v5.14h1.31v5.14h1.38v5.14h1.6v5.16h1.31v5.14h1.23v5.14h1.23v5.4h1.35v17.19h3.5v1.6h-2.29v60.52h2.02v-33.81h4.39v-4.55h3.05s-.49-5.8,10.66-7.04v-97.61l10.76-1.33v-4.73h5.04v-5.46l4.21.12,1.76-22.51,1.76,22.51,3.82-.12v5.46h5.22v4.25l10.98,1.82v97.06h4.65l.36,3.6,1.76.55v-18.95h1.58v-18.52h2.49v-13.04h.69v-3.52h1.68v-3.6h2.02v-3.01h2.12v-2.31h1.82v-1.76h1.25v-12.9h1.52v-4.25l1.82.22.99-35.73,1.01,35.71,1.84-.22v4.25h1.54v12.92h1.25v1.92h1.82v2.31h2.12v3.01h2.02v3.6h1.58v3.52h.87v12.88h2.65v18.66h1.27v70.29h1.4v-2.02h2.51v-1.68h4.85v-33.41l7.87-6.29,15.89,6.29v27.99h2.59v-2.02h9.52v2.39h2.51v2.02h2.85v2.41h1.76v42.16H63.67Z"/><path class="cls-19_statue-of-liberty-55" d="M259.92,456.19v-22.83h2.24v-17.23h2.29v-2.24h2.02v-1.54l2.02-2.37h8.7l2.02,2.37v1.54h1.84v2.24h2.24v8.35h2.02v-40.16h-1.52v-1.05h2.31v-11.43h.87v-3.56h.83v-3.54h.81v-3.42h.89v-3.42h1.05v-3.28h.89v-3.42h.87v-3.42h.44l.67-13.55.69,13.55h.38v3.42h.89v3.42h.87v3.42h1.07v3.42h.87v3.28h.87v3.42h.87v3.6h.91v11.43h2.29v1.07h-1.52v40.22h1.25v-22.45h2.93v-2.91h2.02s-.32-3.86,7.08-4.65v-65.05l7.16-.89v-3.15h3.34v-3.6h2.81l1.19-14.92,1.17,14.92h2.55v3.64h3.48v2.81l7.26,1.23v64.61h3.07l.26,2.39,1.15.36v-12.58h1.03v-12.31h1.66v-8.67h.44v-2.33h1.11v-2.39h1.35v-2.02h1.42v-1.54h1.19v-1.15h.91v-8.61h.97v-2.71l1.21.14.67-23.72.67,23.72,1.23-.14v2.81h1.03v8.59h.83v1.15h1.19v1.54h1.4v2.02h1.35v2.39h1.03v2.35h.55v8.59h1.76v12.44h.87v46.71h.93v-1.33h1.68v-1.11h3.22v-22.24l5.24-4.19,10.54,4.19v18.64h1.76v-1.29h6.37v1.56h1.62v1.31h1.88v1.64h1.19v27.99l-146.73-.06Z"/><path class="cls-11_statue-of-liberty-55" d="M259.92,456.19v-22.83h2.24v-17.23h2.29v-2.24h2.02v-1.54l2.02-2.37h8.7l2.02,2.37v1.54h1.84v2.24h2.24v8.35h2.02v-40.16h-1.52v-1.05h2.31v-11.43h.87v-3.56h.83v-3.54h.81v-3.42h.89v-3.42h1.05v-3.28h.89v-3.42h.87v-3.42h.44l.67-13.55.69,13.55h.38v3.42h.89v3.42h.87v3.42h1.07v3.42h.87v3.28h.87v3.42h.87v3.6h.91v11.43h2.29v1.07h-1.52v40.22h1.25v-22.45h2.93v-2.91h2.02s-.32-3.86,7.08-4.65v-65.05l7.16-.89v-3.15h3.34v-3.6h2.81l1.19-14.92,1.17,14.92h2.55v3.64h3.48v2.81l7.26,1.23v64.61h3.07l.26,2.39,1.15.36v-12.58h1.03v-12.31h1.66v-8.67h.44v-2.33h1.11v-2.39h1.35v-2.02h1.42v-1.54h1.19v-1.15h.91v-8.61h.97v-2.71l1.21.14.67-23.72.67,23.72,1.23-.14v2.81h1.03v8.59h.83v1.15h1.19v1.54h1.4v2.02h1.35v2.39h1.03v2.35h.55v8.59h1.76v12.44h.87v46.71h.93v-1.33h1.68v-1.11h3.22v-22.24l5.24-4.19,10.54,4.19v18.64h1.76v-1.29h6.37v1.56h1.62v1.31h1.88v1.64h1.19v27.99l-146.73-.06Z"/></g><g id="liberty_statue-of-liberty-55"><path class="cls-19_statue-of-liberty-55" d="M231.59,160.01s-8.61,12.13-8.8,21.88c-.18,9.75,1.19,12.64,2.91,12.48s24.1-21.88,24.1-21.88l-18.22-12.48Z"/><rect class="cls-19_statue-of-liberty-55" x="223.54" y="54.74" width="10.09" height="13.27"/><path class="cls-19_statue-of-liberty-55" d="M340.12,271.39v1.07h-.2l.2-1.07Z"/><path class="cls-19_statue-of-liberty-55" d="M315.69,297.19l.81,11.95-1.25.65.44-12.6Z"/><path class="cls-19_statue-of-liberty-55" d="M340.12,271.39v1.07h-.2l.2-1.07Z"/><path class="cls-19_statue-of-liberty-55" d="M255.19,176.05c.76-1.34,2.11-2.24,3.64-2.43.68-.09,1.27-.48,1.62-1.07.33-.59.56-1.24.69-1.9.13-1.02.45-2,.95-2.89,1.85,1.33,3.62,2.78,5.28,4.35l-2.12,16.02c-3.38-4.02-6.65-8.07-10.05-12.07Z"/><path class="cls-19_statue-of-liberty-55" d="M294.42,169.31c.55.42-.18,1.48,0,3.34.34,7.26.75,14.68,3.72,21.43,1.19,2.71,3.62,5.44-.24,6.65-2.49.46-5.01.66-7.54.61l-1.46-21.35v-10.01c1.32-.41,2.67-.71,4.04-.89.5-.06,1.01.02,1.48.22Z"/><path class="cls-12_statue-of-liberty-55" d="M255.19,176.05c.76-1.34,2.11-2.24,3.64-2.43.68-.09,1.27-.48,1.62-1.07.33-.59.56-1.24.69-1.9.13-1.02.45-2,.95-2.89,1.85,1.33,3.62,2.78,5.28,4.35l-2.12,16.02c-3.38-4.02-6.65-8.07-10.05-12.07Z"/><path class="cls-10_statue-of-liberty-55" d="M294.42,169.31c.55.42-.18,1.48,0,3.34.34,7.26.75,14.68,3.72,21.43,1.19,2.71,3.62,5.44-.24,6.65-2.49.46-5.01.66-7.54.61l-1.46-21.35v-10.01c1.32-.41,2.67-.71,4.04-.89.5-.06,1.01.02,1.48.22Z"/><polygon class="cls-19_statue-of-liberty-55" points="275.65 140.62 277.61 120.07 279.57 140.62 275.65 140.62"/><polygon class="cls-19_statue-of-liberty-55" points="295.08 155.14 315.65 157.12 295.08 159.08 295.08 155.14"/><polygon class="cls-19_statue-of-liberty-55" points="260.26 155.14 239.72 157.12 260.26 159.08 260.26 155.14"/><polygon class="cls-19_statue-of-liberty-55" points="286.27 142.46 301.68 128.73 289.16 145.13 286.27 142.46"/><polygon class="cls-19_statue-of-liberty-55" points="293.12 148.16 312.72 141.65 294.7 151.76 293.12 148.16"/><polygon class="cls-19_statue-of-liberty-55" points="261.44 148.16 241.84 141.65 259.84 151.76 261.44 148.16"/><polygon class="cls-19_statue-of-liberty-55" points="268.19 142.46 252.78 128.73 265.3 145.13 268.19 142.46"/><path class="cls-19_statue-of-liberty-55" d="M231.02,91.36s7.04,5.78,7.36,10.11,0,4.71.24,7.04,5.68,25.9,6.29,29.32.55,11.47,1.38,13.97,7.52,26.29,7.52,26.29l-18,6.23s-1.82-9.83-2.97-16.5-2.43-15.43-2.95-18.46-2.51-8.49-3.28-14.88c-.77-6.39-.22-28.98-.22-28.98l4.63-14.13Z"/><path class="cls-16_statue-of-liberty-55" d="M239.58,113.58c-.55-2.57-.89-4.41-.95-5.01-.16-2.18,0-2.55-.2-6.51,2.39-1.62-.24-13.65-.87-13.33s-9.18,11.12-9.5,11.97l-1.11,3.38c-.26,1.34-.43,2.69-.51,4.04v4.67c.31,2.25,2.18,3.95,4.45,4.04,2.51,0,4.41-1.35,6.43,1.17,1.19,1.75,1.84,3.81,1.86,5.92.21,2.18.3,4.38.26,6.57-.08,1.87-.08,3.75,0,5.64.4,4.47,2.37,8.61,2.87,13.06.42,3.5.39,7.04-.1,10.54-.75,5.22-1.76,10.39-2.85,15.53l8.33-19.33c-.61-2.02-1.07-3.68-1.25-4.23-.83-2.51-.75-10.54-1.35-13.97-.61-2.47-3.86-16.46-5.5-24.16Z"/><polygon class="cls-19_statue-of-liberty-55" points="232.96 103.67 224.23 103.67 223.1 77.55 234.1 77.55 232.96 103.67"/><rect class="cls-19_statue-of-liberty-55" x="223.78" y="103.37" width="9.52" height="2.55"/><polygon class="cls-19_statue-of-liberty-55" points="231.06 111.28 226.13 111.28 224.13 105.7 233.04 105.7 231.06 111.28"/><rect class="cls-19_statue-of-liberty-55" x="226.51" y="109.92" width="4.08" height="2.69" rx="1.19" ry="1.19"/><rect class="cls-19_statue-of-liberty-55" x="221.07" y="73.89" width="15.04" height="3.76" rx="1.48" ry="1.48"/><polygon class="cls-19_statue-of-liberty-55" points="234.66 76.5 222.43 76.5 214.8 70.41 242.37 70.41 234.66 76.5"/><rect class="cls-19_statue-of-liberty-55" x="214.72" y="67.98" width="27.74" height="2.41"/><polygon class="cls-19_statue-of-liberty-55" points="242.47 60.38 228.6 60.38 214.72 60.38 215.86 64.18 214.72 68 228.6 68 242.47 68 241.32 64.18 242.47 60.38"/><path class="cls-19_statue-of-liberty-55" d="M223.56,54.72c-2.84-4.58-3.09-10.32-.65-15.13,1.45-2.73,2.69-5.57,3.7-8.49.76-3.31,1.03-6.72.79-10.11.12,2.92,1.36,5.68,3.46,7.7,2.06,2.01,3.95,4.18,5.64,6.51,2.02,3.3,4.39,19.49-2.87,19.49l-10.07.02Z"/><path class="cls-17_statue-of-liberty-55" d="M223.56,54.72c-2.84-4.58-3.09-10.32-.65-15.13,1.45-2.73,2.69-5.57,3.7-8.49.76-3.31,1.03-6.72.79-10.11.12,2.92,1.36,5.68,3.46,7.7,2.06,2.01,3.95,4.18,5.64,6.51,2.02,3.3,4.39,19.49-2.87,19.49l-10.07.02Z"/><path class="cls-19_statue-of-liberty-55" d="M262.43,164.28s-3.11-2.97-3.11-10.25,8.35-13.67,18-13.67c11.47,0,18.6,7.6,18.6,14.72s-2.35,9.89-2.35,9.89c0,0-31.14-.59-31.14-.69Z"/><path class="cls-15_statue-of-liberty-55" d="M262.89,165.51s-3.01-2.87-3.01-9.93,8.09-13.27,17.43-13.27c11.12,0,18.04,7.38,18.04,14.3s-2.29,9.56-2.29,9.56c0,0-30.07-.55-30.17-.67Z"/><path class="cls-19_statue-of-liberty-55" d="M265.88,155.85s.3,17.17,1.9,20.97-1.9,11.16-1.9,11.16l13.29,15.65,14.44-4.04s-4.63-3.88-4.71-7.04c-.1-4.44.08-8.87.55-13.29.97-4.56,1.35-9.23,1.13-13.89-.47-4.55-2.02-11.49-2.02-11.49-3.12-2.36-6.93-3.61-10.84-3.56-5.82.38-11.83,5.52-11.83,5.52Z"/><path class="cls-19_statue-of-liberty-55" d="M251.57,170.08s10.11,9.58,12.42,12.84,10.41,15.21,15.37,17.43,11.79-2.22,15.55-1.54,12.31,3.24,16.08,11.1c3.76,7.87,20.22,143.03,18.79,144.75s-5.12,3.58-5.12,5.8,1.88,41.19,1.19,41.86-4.29,1.72-4.29,2.41,3.76,35.37,2.22,35.37h-94.17s7.68-16.18,8.72-21.19-1.88-28.71-.89-41.86,4.29-24.1,4.45-29.56c0-2.02-.28-10.47-.67-20.67-.32-8.53-5.88-11.99-6.07-20.36,0-7.91,5.2-20.93,5.64-24.08s-9.12,0-9.56-8.55c-.69-13.16,10.54-25.54,10.82-31.24.57-13.45-8.57-9.97-9.67-15.23-.95-4.79,2.81-10.72,3.07-18.44.36-10.21-7.34-18.62-7.34-18.62l23.46-20.2Z"/><path class="cls-13_statue-of-liberty-55" d="M251.57,170.08s10.11,9.58,12.42,12.84,10.41,15.21,15.37,17.43,11.79-2.22,15.55-1.54,12.31,3.24,16.08,11.1c3.76,7.87,20.22,143.03,18.79,144.75s-5.12,3.58-5.12,5.8,1.88,41.19,1.19,41.86-4.29,1.72-4.29,2.41,3.76,35.37,2.22,35.37h-94.17s7.68-16.18,8.72-21.19-1.88-28.71-.89-41.86,4.29-24.1,4.45-29.56c0-2.02-.28-10.47-.67-20.67-.32-8.53-5.88-11.99-6.07-20.36,0-7.91,5.2-20.93,5.64-24.08s-9.12,0-9.56-8.55c-.69-13.16,10.54-25.54,10.82-31.24.57-13.45-8.57-9.97-9.67-15.23-.95-4.79,2.81-10.72,3.07-18.44.36-10.21-7.34-18.62-7.34-18.62l23.46-20.2Z"/><path class="cls-19_statue-of-liberty-55" d="M261.03,163.97c-.07-1.46.39-2.9,1.29-4.04.24-.22.32-1.42.42-1.74.5-1.47,1.25-2.84,2.22-4.04,2.53-3,6.03-5.01,9.89-5.7.78-.15,1.57-.22,2.37-.2,3.2.2,6.33.99,9.24,2.35.82.28,1.6.67,2.31,1.17,1.74,1.51,3.05,3.45,3.8,5.62.49,1.27.67,2.57,1.03,3.86.14.53,2.29,3.52,2.02,5.86s-5.16,5.26-5.16,5.26l-23.58-.3s-6.17-2.99-5.86-8.09Z"/><path class="cls-19_statue-of-liberty-55" d="M358.15,241.71c-.92,2.99-2.47,5.75-4.55,8.09h.18c.42.4.75.89.97,1.44.62,1.3,1.14,2.66,1.54,4.04-.14.32-6.63,13.57-7.72,14.6-2.76,1.15-5.62,2.03-8.55,2.63-.02-.36-.02-.73,0-1.09l-.3,1.11h.2c-.65,6.53-2.65,24.06-6.41,26.91-2.85,1.96-5.8,3.76-8.84,5.4-3.34,1.82-6.55,3.52-8.27,4.39l-.81-12.01-5.86-89.26c.43.65.81,1.32,1.15,2.02,1.23,4.16,2.13,8.41,2.69,12.72l16.4,17.05-11.24,18.34c.69,4.93,1.35,10.11,2.02,15.21l6.07-1.01c5.54-12.85,13.56-24.47,23.62-34.19,1.42-1.46,3.28-2.95,5.2-2.41,1.17.38,2.06,1.33,2.37,2.53.37,1.13.42,2.34.16,3.5Z"/><path class="cls-19_statue-of-liberty-55" d="M338.01,228.72c-.45.12-.89.27-1.31.47-2.95,1.38-4.31,4.73-6.27,7.34-1.29,1.76-2.95,3.19-4.39,4.81-3.36,3.68-7.28,9.87-7.91,14.78-.01,3.13.28,6.26.87,9.34.16,1.7.69,19.37,1.84,19.7l6.07,1.7c.18-.26.34-.53.49-.81l16.44-27.74,9.34-15.81c1.23-1.51,2.24-3.2,2.97-5.01.53-3.5-7.28-6.07-10.41-7.44-2.39-1.18-5.08-1.64-7.72-1.31Z"/><polygon class="cls-19_statue-of-liberty-55" points="294.54 227.57 287 369.57 309.83 357.05 294.54 227.57"/><path class="cls-19_statue-of-liberty-55" d="M329.74,354.64c-1.33,1.72-5.12,3.6-5.12,5.8s1.9,41.19,1.21,41.86-4.29,1.76-4.29,2.41,3.78,35.37,2.22,35.37h-29.87c-5.44,0-12.48,1.21-17.77,0-4.67-1.07-3.88.26-3.19-5.08.18-1.52,4.51-13.75,2.33-14.56l-7.46-2.75c-.56-.17-1.07-.47-1.48-.89-1.15-1.31.18-3.32,1.44-4.55,7.83-7.64,15.25-15.67,22.24-24.08,2.73-3.28,7.54-6.98,5.64-11.43-1.35-3.19-8.51-3.38-8.78-7.22-.2-3.17,32.11-20.22,32.11-20.22l-2.65-40.14c1.76-.89,4.93-2.55,8.27-4.41,3.38,26.93,5.7,49.22,5.14,49.89Z"/><path class="cls-19_statue-of-liberty-55" d="M239.37,360.45s4.67-1.15,4.95-1.25c3.79-1.25,7.05-3.72,9.26-7.04,2.55-4.29,4.04-9.28,6.75-13.67,2.73-4.54,5.82-8.86,9.24-12.9,3.86-4.55,8.09-8.8,11.16-13.97,1.91-3.47,3.38-7.17,4.39-11,2.35-8.81,4.02-17.79,4.97-26.85.14-1.17,2.73-18.44,2.22-18.58,1.29.47-.71,19.7-.79,21.25-.63,12.56-1.35,25.12-2.35,37.67-.3,4.04-.59,7.91-1.11,11.83-.1.79,0,2.63-.51,3.3-1.42,1.88-5.64.71-8.09,2.63-2.04,1.73-3.69,3.88-4.85,6.29-6.67,12.38-10.11,26.69-19.47,37.49-3.3,3.74-6.45,7.2-11,2.81s-5.18-12.17-4.79-18Z"/><path class="cls-19_statue-of-liberty-55" d="M247.12,154.55s-8.92,22.59-12.13,25.48-11.85,10.33-10.54,13.83c3.78,9.91,21.31-1.35,25.8-20.85,2.39-10.15,2.33-9.58-3.13-18.46Z"/><path class="cls-19_statue-of-liberty-55" d="M234.12,77.61l-10.31-.12s-.2-1.21-.71-.87c-.87.84-1.29,2.04-1.13,3.24,0,1.99-.27,3.98-.79,5.9,0,.47.22,3.88.22,3.88,0,0,2.63.65,2.24,1.64s-2.33,2.02-2.51,2.39c.8,2.39,1.76,4.72,2.87,6.98,0,0,.14-1.56.22-2.85.72-1.97,2.83-3.06,4.85-2.51,2.12.77,4.17,5.64,4.17,5.64l.87-23.32Z"/><polygon class="cls-14_statue-of-liberty-55" points="234.66 76.5 222.43 76.5 214.8 70.41 242.37 70.41 234.66 76.5"/><path class="cls-5_statue-of-liberty-55" d="M234.12,77.61l-10.31-.12s-.2-1.21-.71-.87c-.87.84-1.29,2.04-1.13,3.24,0,1.99-.27,3.98-.79,5.9,0,.47.22,3.88.22,3.88,0,0,2.63.65,2.24,1.64s-2.33,2.02-2.51,2.39c.8,2.39,1.76,4.72,2.87,6.98,0,0,.14-1.56.22-2.85.72-1.97,2.83-3.06,4.85-2.51,2.12.77,4.17,5.64,4.17,5.64l.87-23.32Z"/><path class="cls-2_statue-of-liberty-55" d="M275.45,171.94c-.67.14.47-1.27,1.6-1.13s2.75,0,2.51-.99-.83-7.28.38-8.09,6.98-.18,6.75-.63-.53-.51-.75-.67c-.57-.39-1.11-.82-1.62-1.29-.44-.49-.77-1.07-1.17-1.6-.79-.97-1.83-1.71-3.01-2.14-.55-.22-1.13-.34-1.72-.36-.57.06-1.13.2-1.66.42l-1.03.34c-.95.39-1.78,1.02-2.43,1.82-.29.43-.55.88-.79,1.33-.25.3-.47.62-.65.97-.11.28-.29.53-.51.73-.21.24-.44.47-.69.67-.35.23-.7.44-1.07.63-.2.12-.71.34-.42.53.3.08.63.08.93,0,1.17,0,2.33-.22,3.52-.22.69,0,2.02,0,2.02,1.03,0,2.02-.83,2.89-3.34,2.81s-4.89.22-5.28,2.02c-.18,2.14-.14,4.3.14,6.43l-.67,3.9s-4.55-7.28-4.63-10.8,2.51-6.47,5.08-8.7c1.08-1.16,2.25-2.23,3.5-3.22,1.49-.87,3.12-1.49,4.81-1.84,2.83-.61,5.84.67,8.55,1.54,2.59.77,5.14,1.7,7.62,2.77.42.2,1.33.51,1.54.99.34.72.55,1.51.61,2.31,0,.61,2.02,3.03,2.02,5.08s-.71,2.29-.71,2.29l-5.46,10.49s-1.01,12.38-.47,13.89,11.85,7.48,11.85,7.48c0,0-8.09-1.13-9.32-1.4-5.87-1.32-11.12-4.59-14.88-9.28-7.77-9.26-8.29-10.7-7.3-10.78.63,0,1.27.09,1.88.24,1.48.26,2.95.55,4.41.75.72.11,1.44.18,2.16.2.75.13,1.51-.13,2.02-.69,1.05-.71,2.22-1.21,3.46-1.48,1.02-.41,1.9-1.12,2.53-2.02.36-.51.67-1.05.93-1.62.47-.91.85-1.86,1.11-2.85.26-.99.26-2.04,0-3.03-.06-.24-.17-.46-.32-.65-.16-.18-.34-.33-.55-.44-1.05-.55-2.24-.76-3.42-.61-.58.05-1.14.26-1.62.61-.48.34-.78.89-.81,1.48.05.5.19.98.4,1.44.14.49.25.99.32,1.5l.3,1.82c.36.9-.07,1.92-.97,2.29-.15.06-.31.1-.47.12-.37.15-.76.22-1.15.22-.14,0-.32,0-.36-.18-.02-.06-.02-.12,0-.18.1-.33.16-.67.18-1.01,0-1.68-3.78-.69-4.75-.44.79-.56,1.65-1.01,2.57-1.33.77-.16-.61-1.68-1.74-1.46Z"/><path class="cls-19_statue-of-liberty-55" d="M234.68,99.35c0,2.02-2.14-4.65-1.76-7.3s-3.56-7.36-3.34-9.79,1.76-2.53,2.29-2.2c1.45,1.11,2.69,2.48,3.64,4.04.82,1.47,1.53,2.99,2.14,4.55.14.91-3.24,1.72-2.97,10.7Z"/><path class="cls-19_statue-of-liberty-55" d="M339.98,256.97c-.55.75,1.21,3.07,1.86,4.04s1.9,3.07,2.55,3.07c.82-.18,1.54-.66,2.02-1.35-.72-1.31-1.53-2.57-2.43-3.76-.67-.85-3.13-3.17-4-2Z"/><path class="cls-19_statue-of-liberty-55" d="M341.29,253.54c-.38.89,2.02,2.85,2.91,3.74s2.69,2.69,3.36,2.53,1.84-1.54,1.76-1.9c-1.07-1.16-2.21-2.24-3.42-3.26-.79-.71-3.94-2.47-4.61-1.11Z"/><path class="cls-19_statue-of-liberty-55" d="M344.12,250.22c-.38.87,2.02,2.89,2.97,3.82s2.75,2.73,3.42,2.57,1.88-1.58,1.82-2.02c-1.1-1.18-2.27-2.29-3.52-3.32-.89-.71-4.06-2.51-4.69-1.05Z"/><path class="cls-19_statue-of-liberty-55" d="M347.36,245.55c-.51.89,1.6,3.17,2.41,4.21s2.33,3.09,3.01,3.03,2.02-1.29,2.02-1.66c-.9-1.33-1.9-2.59-2.97-3.78-.73-.91-3.72-3.13-4.47-1.8Z"/><path class="cls-19_statue-of-liberty-55" d="M221.17,85.7c-.68-.31-1.18-.93-1.35-1.66-.09-1.27.68-2.43,1.88-2.85,1.25-.34,6.67,0,6.79,1.15.09,1.03-.67,1.95-1.7,2.04-.17.02-.34,0-.5-.02-1.82-.34-3.69.15-5.12,1.33Z"/><path class="cls-19_statue-of-liberty-55" d="M220.91,85.7c2.04-.15,4.09.05,6.07.59,1.26.24,2.48.66,3.62,1.23.44.59.34,2.02-.3,2.18-3,.14-6,.1-9-.12-.49-.22-2-2.51-.38-3.88Z"/><path class="cls-19_statue-of-liberty-55" d="M221.3,89.84c.38-.4,3.78.36,4.79.59.93.1,1.82.4,2.63.87.42.47.42,1.7,0,1.88-2.49.3-5,.43-7.5.38-.83-1.11-.8-2.65.08-3.72Z"/><rect class="cls-19_statue-of-liberty-55" x="222.31" y="440.1" width="106.99" height="15.73"/><path class="cls-19_statue-of-liberty-55" d="M232.54,271.09c-.51,2.26-.43,4.62.24,6.83,2.55,2.99,7.64,2.02,8.09,3.9,0-1.35.49-5.62,4.04-16.04,2.26-6.75,16.18-17.86,25.2-26.77,4.75-4.55,8.92-9.68,12.4-15.27,0,0-3.13,4.04-16.18,13.61-13.04,9.56-32.21,28.96-33.79,33.73Z"/><path class="cls-19_statue-of-liberty-55" d="M268.25,260.69c-2.7,6.35-5.49,12.65-8.39,18.91-2.95,6.6-6.41,12.96-10.33,19.03-2,3.03-4.26,5.89-6.75,8.53-2.12,2.24-4.57,3.82-5.86,6.61,1.42,3.38,2.91,6.61,4.04,10.11,2.24-1.5,3.9-6.21,5.14-8.67,1.56-3.07,2.99-6.07,4.41-9.32,2.77-6.27,5.34-12.64,8.23-18.89,4.25-9.26,9.16-18.2,13.55-27.38,2.14-4.53,4.33-9.04,6.07-13.71.94-2.35,1.75-4.75,2.45-7.18.42-1.56,2.02-5.62,1.13-7.04-4.85,4.59-7.22,12.76-9.65,18.81-1.27,3.37-2.61,6.77-4.02,10.19Z"/><path class="cls-3_statue-of-liberty-55" d="M358.15,241.71c-.92,2.99-2.47,5.75-4.55,8.09h.18c.42.4.75.89.97,1.44.62,1.3,1.14,2.66,1.54,4.04-.14.32-6.63,13.57-7.72,14.6-2.76,1.15-5.62,2.03-8.55,2.63-.02-.36-.02-.73,0-1.09l-.3,1.11h.2c-.65,6.53-2.65,24.06-6.41,26.91-2.85,1.96-5.8,3.76-8.84,5.4-3.34,1.82-6.55,3.52-8.27,4.39l-.81-12.01-5.86-89.26c.43.65.81,1.32,1.15,2.02,1.23,4.16,2.13,8.41,2.69,12.72l16.4,17.05-11.24,18.34c.69,4.93,1.35,10.11,2.02,15.21l6.07-1.01c5.54-12.85,13.56-24.47,23.62-34.19,1.42-1.46,3.28-2.95,5.2-2.41,1.17.38,2.06,1.33,2.37,2.53.37,1.13.42,2.34.16,3.5Z"/><path class="cls-4_statue-of-liberty-55" d="M329.74,354.64c-1.33,1.72-5.12,3.6-5.12,5.8s1.9,41.19,1.21,41.86-4.29,1.76-4.29,2.41,3.78,35.37,2.22,35.37h-29.87c-5.44,0-12.5,1.23-17.77,0-4.69-1.05-3.88.26-3.22-5.06.2-1.54,4.53-13.79,2.35-14.58l-7.46-2.77c-.55-.15-1.06-.43-1.48-.83-1.15-1.33.16-3.32,1.44-4.53,7.82-7.66,15.24-15.71,22.24-24.12,2.75-3.26,7.56-6.98,5.64-11.4-1.35-3.22-8.49-3.38-8.78-7.22h0l7.52-141.97,15.09,126.89c5.38-2.97,9.58-5.22,9.58-5.22l-2.63-40.16c1.76-.87,4.93-2.53,8.27-4.39,3.28,26.98,5.6,49.26,5.04,49.93Z"/><path class="cls-9_statue-of-liberty-55" d="M239.37,360.45s4.67-1.15,4.95-1.25c3.79-1.25,7.05-3.72,9.26-7.04,2.55-4.29,4.04-9.28,6.75-13.67,2.73-4.54,5.82-8.86,9.24-12.9,3.86-4.55,8.09-8.8,11.16-13.97,1.91-3.47,3.38-7.17,4.39-11,2.35-8.81,4.02-17.79,4.97-26.85.14-1.17,2.73-18.44,2.22-18.58,1.29.47-.71,19.7-.79,21.25-.63,12.56-1.35,25.12-2.35,37.67-.3,4.04-.59,7.91-1.11,11.83-.1.79,0,2.63-.51,3.3-1.42,1.88-5.64.71-8.09,2.63-2.04,1.73-3.69,3.88-4.85,6.29-6.67,12.38-10.11,26.69-19.47,37.49-3.3,3.74-6.45,7.2-11,2.81s-5.18-12.17-4.79-18Z"/><path class="cls-8_statue-of-liberty-55" d="M232.54,271.09c-.51,2.26-.43,4.62.24,6.83,2.55,2.99,7.64,2.02,8.09,3.9,0-1.35.49-5.62,4.04-16.04,2.26-6.75,16.18-17.86,25.2-26.77,4.75-4.55,8.92-9.68,12.4-15.27,0,0-3.13,4.04-16.18,13.61-13.04,9.56-32.21,28.96-33.79,33.73Z"/><path class="cls-7_statue-of-liberty-55" d="M268.25,260.69c-2.7,6.35-5.49,12.65-8.39,18.91-2.95,6.6-6.41,12.96-10.33,19.03-2,3.03-4.26,5.89-6.75,8.53-2.12,2.24-4.57,3.82-5.86,6.61,1.42,3.38,2.91,6.61,4.04,10.11,2.24-1.5,3.9-6.21,5.14-8.67,1.56-3.07,2.99-6.07,4.41-9.32,2.77-6.27,5.34-12.64,8.23-18.89,4.25-9.26,9.16-18.2,13.55-27.38,2.14-4.53,4.33-9.04,6.07-13.71.94-2.35,1.75-4.75,2.45-7.18.42-1.56,2.02-5.62,1.13-7.04-4.85,4.59-7.22,12.76-9.65,18.81-1.27,3.37-2.61,6.77-4.02,10.19Z"/><path class="cls-19_statue-of-liberty-55" d="M221.26,81.51c-.75-1.02-1.16-2.25-1.19-3.52.24-1.52,2.73-5.46,3.32-5.36s1.19,2.16.95,3.26-1.19,2.79-1.17,3.42,0,1.76,0,1.76l-1.9.44Z"/><path class="cls-6_statue-of-liberty-55" d="M239.54,207.03c.46,2.68.46,5.41,0,8.09-1.25,7.04-.2,13,5.01,18.3.49.63,1.23,1.02,2.02,1.05.55-.09,1.07-.34,1.48-.73,5.64-4.73,6.07-13.1,6.07-20.44,0-7.77,0-15.53,0-23.3,0-1.4,2.16-15.57,1.6-16.18l-3.86-3.76s1.05-6.07-.49-8.59l-.2-.49s-4.04,18.81-6.21,23.64c-3.44,7.54-9.83,10.11-9.22,11.16,1.9,3.5,3.18,7.31,3.8,11.24Z"/></g></svg>