<svg id="visual" viewBox="0 0 900 600" width="900" height="600" xmlns="http://www.w3.org/2000/svg" xmlns:xlink="http://www.w3.org/1999/xlink" version="1.1"><rect x="0" y="0" width="900" height="600" fill="#FFFFFF"></rect><path d="M0 277L21.5 268.3C43 259.7 86 242.3 128.8 218C171.7 193.7 214.3 162.3 257.2 160.8C300 159.3 343 187.7 385.8 210C428.7 232.3 471.3 248.7 514.2 236.5C557 224.3 600 183.7 642.8 185.5C685.7 187.3 728.3 231.7 771.2 249.3C814 267 857 258 878.5 253.5L900 249L900 601L878.5 601C857 601 814 601 771.2 601C728.3 601 685.7 601 642.8 601C600 601 557 601 514.2 601C471.3 601 428.7 601 385.8 601C343 601 300 601 257.2 601C214.3 601 171.7 601 128.8 601C86 601 43 601 21.5 601L0 601Z" fill="#c62368"></path><path d="M0 332L21.5 315.3C43 298.7 86 265.3 128.8 254C171.7 242.7 214.3 253.3 257.2 252C300 250.7 343 237.3 385.8 237.8C428.7 238.3 471.3 252.7 514.2 253.3C557 254 600 241 642.8 248.3C685.7 255.7 728.3 283.3 771.2 299.5C814 315.7 857 320.3 878.5 322.7L900 325L900 601L878.5 601C857 601 814 601 771.2 601C728.3 601 685.7 601 642.8 601C600 601 557 601 514.2 601C471.3 601 428.7 601 385.8 601C343 601 300 601 257.2 601C214.3 601 171.7 601 128.8 601C86 601 43 601 21.5 601L0 601Z" fill="#da678b"></path><path d="M0 423L21.5 409C43 395 86 367 128.8 361C171.7 355 214.3 371 257.2 379.7C300 388.3 343 389.7 385.8 374.3C428.7 359 471.3 327 514.2 313.5C557 300 600 305 642.8 325.2C685.7 345.3 728.3 380.7 771.2 380C814 379.3 857 342.7 878.5 324.3L900 306L900 601L878.5 601C857 601 814 601 771.2 601C728.3 601 685.7 601 642.8 601C600 601 557 601 514.2 601C471.3 601 428.7 601 385.8 601C343 601 300 601 257.2 601C214.3 601 171.7 601 128.8 601C86 601 43 601 21.5 601L0 601Z" fill="#ea9bb0"></path><path d="M0 386L21.5 390.3C43 394.7 86 403.3 128.8 400.7C171.7 398 214.3 384 257.2 387.5C300 391 343 412 385.8 411C428.7 410 471.3 387 514.2 394C557 401 600 438 642.8 452.2C685.7 466.3 728.3 457.7 771.2 457C814 456.3 857 463.7 878.5 467.3L900 471L900 601L878.5 601C857 601 814 601 771.2 601C728.3 601 685.7 601 642.8 601C600 601 557 601 514.2 601C471.3 601 428.7 601 385.8 601C343 601 300 601 257.2 601C214.3 601 171.7 601 128.8 601C86 601 43 601 21.5 601L0 601Z" fill="#f7cdd7"></path><path d="M0 525L21.5 528.3C43 531.7 86 538.3 128.8 531.7C171.7 525 214.3 505 257.2 497.2C300 489.3 343 493.7 385.8 492.3C428.7 491 471.3 484 514.2 486.7C557 489.3 600 501.7 642.8 499.8C685.7 498 728.3 482 771.2 476.7C814 471.3 857 476.7 878.5 479.3L900 482L900 601L878.5 601C857 601 814 601 771.2 601C728.3 601 685.7 601 642.8 601C600 601 557 601 514.2 601C471.3 601 428.7 601 385.8 601C343 601 300 601 257.2 601C214.3 601 171.7 601 128.8 601C86 601 43 601 21.5 601L0 601Z" fill="#ffffff"></path></svg>