<svg id="visual" viewBox="0 0 900 450" width="900" height="450" xmlns="http://www.w3.org/2000/svg" xmlns:xlink="http://www.w3.org/1999/xlink" version="1.1"><path d="M0 158L21.5 159.2C43 160.3 86 162.7 128.8 155.8C171.7 149 214.3 133 257.2 129.5C300 126 343 135 385.8 142.5C428.7 150 471.3 156 514.2 153C557 150 600 138 642.8 140.7C685.7 143.3 728.3 160.7 771.2 162.2C814 163.7 857 149.3 878.5 142.2L900 135L900 0L878.5 0C857 0 814 0 771.2 0C728.3 0 685.7 0 642.8 0C600 0 557 0 514.2 0C471.3 0 428.7 0 385.8 0C343 0 300 0 257.2 0C214.3 0 171.7 0 128.8 0C86 0 43 0 21.5 0L0 0Z" fill="#59e3ff"></path><path d="M0 135L21.5 136C43 137 86 139 128.8 141.7C171.7 144.3 214.3 147.7 257.2 139.2C300 130.7 343 110.3 385.8 101.8C428.7 93.3 471.3 96.7 514.2 106.3C557 116 600 132 642.8 136.2C685.7 140.3 728.3 132.7 771.2 133C814 133.3 857 141.7 878.5 145.8L900 150L900 0L878.5 0C857 0 814 0 771.2 0C728.3 0 685.7 0 642.8 0C600 0 557 0 514.2 0C471.3 0 428.7 0 385.8 0C343 0 300 0 257.2 0C214.3 0 171.7 0 128.8 0C86 0 43 0 21.5 0L0 0Z" fill="#4cc0ff"></path><path d="M0 118L21.5 116.5C43 115 86 112 128.8 103.8C171.7 95.7 214.3 82.3 257.2 77.7C300 73 343 77 385.8 78.7C428.7 80.3 471.3 79.7 514.2 79.8C557 80 600 81 642.8 86.2C685.7 91.3 728.3 100.7 771.2 104.5C814 108.3 857 106.7 878.5 105.8L900 105L900 0L878.5 0C857 0 814 0 771.2 0C728.3 0 685.7 0 642.8 0C600 0 557 0 514.2 0C471.3 0 428.7 0 385.8 0C343 0 300 0 257.2 0C214.3 0 171.7 0 128.8 0C86 0 43 0 21.5 0L0 0Z" fill="#8895f2"></path><path d="M0 85L21.5 82.8C43 80.7 86 76.3 128.8 75.2C171.7 74 214.3 76 257.2 73.8C300 71.7 343 65.3 385.8 66.2C428.7 67 471.3 75 514.2 73.5C557 72 600 61 642.8 57.5C685.7 54 728.3 58 771.2 64.2C814 70.3 857 78.7 878.5 82.8L900 87L900 0L878.5 0C857 0 814 0 771.2 0C728.3 0 685.7 0 642.8 0C600 0 557 0 514.2 0C471.3 0 428.7 0 385.8 0C343 0 300 0 257.2 0C214.3 0 171.7 0 128.8 0C86 0 43 0 21.5 0L0 0Z" fill="#ba60ba"></path><path d="M0 20L21.5 24C43 28 86 36 128.8 41.7C171.7 47.3 214.3 50.7 257.2 48.2C300 45.7 343 37.3 385.8 35.2C428.7 33 471.3 37 514.2 37.3C557 37.7 600 34.3 642.8 34.5C685.7 34.7 728.3 38.3 771.2 39C814 39.7 857 37.3 878.5 36.2L900 35L900 0L878.5 0C857 0 814 0 771.2 0C728.3 0 685.7 0 642.8 0C600 0 557 0 514.2 0C471.3 0 428.7 0 385.8 0C343 0 300 0 257.2 0C214.3 0 171.7 0 128.8 0C86 0 43 0 21.5 0L0 0Z" fill="#c62368"></path></svg>