<svg id="visual" viewBox="0 0 960 540" width="960" height="540" xmlns="http://www.w3.org/2000/svg" xmlns:xlink="http://www.w3.org/1999/xlink" version="1.1"><rect x="0" y="0" width="960" height="540" fill="#ffffff"></rect><path d="M0 122L22.8 120.8C45.7 119.7 91.3 117.3 137 127.7C182.7 138 228.3 161 274 170.3C319.7 179.7 365.3 175.3 411.2 167.3C457 159.3 503 147.7 548.8 148.5C594.7 149.3 640.3 162.7 686 167.7C731.7 172.7 777.3 169.3 823 157C868.7 144.7 914.3 123.3 937.2 112.7L960 102L960 0L937.2 0C914.3 0 868.7 0 823 0C777.3 0 731.7 0 686 0C640.3 0 594.7 0 548.8 0C503 0 457 0 411.2 0C365.3 0 319.7 0 274 0C228.3 0 182.7 0 137 0C91.3 0 45.7 0 22.8 0L0 0Z" fill="#59e3ff"></path><path d="M0 91L22.8 89.2C45.7 87.3 91.3 83.7 137 83.2C182.7 82.7 228.3 85.3 274 98.8C319.7 112.3 365.3 136.7 411.2 147.5C457 158.3 503 155.7 548.8 144.7C594.7 133.7 640.3 114.3 686 113C731.7 111.7 777.3 128.3 823 128.8C868.7 129.3 914.3 113.7 937.2 105.8L960 98L960 0L937.2 0C914.3 0 868.7 0 823 0C777.3 0 731.7 0 686 0C640.3 0 594.7 0 548.8 0C503 0 457 0 411.2 0C365.3 0 319.7 0 274 0C228.3 0 182.7 0 137 0C91.3 0 45.7 0 22.8 0L0 0Z" fill="#4cc0ff"></path><path d="M0 94L22.8 92.2C45.7 90.3 91.3 86.7 137 84C182.7 81.3 228.3 79.7 274 77C319.7 74.3 365.3 70.7 411.2 78.3C457 86 503 105 548.8 103.7C594.7 102.3 640.3 80.7 686 69.7C731.7 58.7 777.3 58.3 823 62.7C868.7 67 914.3 76 937.2 80.5L960 85L960 0L937.2 0C914.3 0 868.7 0 823 0C777.3 0 731.7 0 686 0C640.3 0 594.7 0 548.8 0C503 0 457 0 411.2 0C365.3 0 319.7 0 274 0C228.3 0 182.7 0 137 0C91.3 0 45.7 0 22.8 0L0 0Z" fill="#8895f2"></path><path d="M0 95L22.8 90.2C45.7 85.3 91.3 75.7 137 69.2C182.7 62.7 228.3 59.3 274 63.7C319.7 68 365.3 80 411.2 81.8C457 83.7 503 75.3 548.8 69.2C594.7 63 640.3 59 686 61.3C731.7 63.7 777.3 72.3 823 77.7C868.7 83 914.3 85 937.2 86L960 87L960 0L937.2 0C914.3 0 868.7 0 823 0C777.3 0 731.7 0 686 0C640.3 0 594.7 0 548.8 0C503 0 457 0 411.2 0C365.3 0 319.7 0 274 0C228.3 0 182.7 0 137 0C91.3 0 45.7 0 22.8 0L0 0Z" fill="#ba60ba"></path><path d="M0 40L22.8 43.5C45.7 47 91.3 54 137 50.5C182.7 47 228.3 33 274 33.7C319.7 34.3 365.3 49.7 411.2 56C457 62.3 503 59.7 548.8 59.7C594.7 59.7 640.3 62.3 686 57.5C731.7 52.7 777.3 40.3 823 35.2C868.7 30 914.3 32 937.2 33L960 34L960 0L937.2 0C914.3 0 868.7 0 823 0C777.3 0 731.7 0 686 0C640.3 0 594.7 0 548.8 0C503 0 457 0 411.2 0C365.3 0 319.7 0 274 0C228.3 0 182.7 0 137 0C91.3 0 45.7 0 22.8 0L0 0Z" fill="#c62368"></path></svg>