<svg id="visual" viewBox="0 0 900 150" width="900" height="150" xmlns="http://www.w3.org/2000/svg" xmlns:xlink="http://www.w3.org/1999/xlink" version="1.1"><path d="M0 51L129 69L257 62L386 60L514 63L643 67L771 67L900 47L900 0L771 0L643 0L514 0L386 0L257 0L129 0L0 0Z" fill="#001122"></path><path d="M0 58L129 39L257 42L386 36L514 51L643 48L771 43L900 61L900 0L771 0L643 0L514 0L386 0L257 0L129 0L0 0Z" fill="#183e56"></path><path d="M0 26L129 40L257 30L386 36L514 26L643 41L771 33L900 37L900 0L771 0L643 0L514 0L386 0L257 0L129 0L0 0Z" fill="#2d708f"></path><path d="M0 24L129 31L257 24L386 23L514 29L643 26L771 24L900 33L900 0L771 0L643 0L514 0L386 0L257 0L129 0L0 0Z" fill="#41a8c8"></path><path d="M0 11L129 8L257 17L386 19L514 17L643 10L771 18L900 8L900 0L771 0L643 0L514 0L386 0L257 0L129 0L0 0Z" fill="#59e3ff"></path></svg>