<svg id="visual" viewBox="0 0 900 450" width="900" height="450" xmlns="http://www.w3.org/2000/svg" xmlns:xlink="http://www.w3.org/1999/xlink" version="1.1"><path d="M0 98L129 95L257 102L386 108L514 104L643 80L771 103L900 74L900 0L771 0L643 0L514 0L386 0L257 0L129 0L0 0Z" fill="#c62368"></path><path d="M0 70L129 60L257 73L386 70L514 81L643 55L771 64L900 58L900 0L771 0L643 0L514 0L386 0L257 0L129 0L0 0Z" fill="#da678b"></path><path d="M0 59L129 47L257 71L386 43L514 47L643 56L771 47L900 69L900 0L771 0L643 0L514 0L386 0L257 0L129 0L0 0Z" fill="#ea9bb0"></path><path d="M0 45L129 47L257 49L386 35L514 51L643 41L771 33L900 46L900 0L771 0L643 0L514 0L386 0L257 0L129 0L0 0Z" fill="#f7cdd7"></path><path d="M0 20L129 15L257 26L386 23L514 26L643 25L771 14L900 29L900 0L771 0L643 0L514 0L386 0L257 0L129 0L0 0Z" fill="#ffffff"></path></svg>