<svg id="visual" viewBox="0 0 900 150" width="900" height="150" xmlns="http://www.w3.org/2000/svg" xmlns:xlink="http://www.w3.org/1999/xlink" version="1.1"><path d="M0 101L129 101L257 110L386 90L514 102L643 88L771 109L900 96L900 151L771 151L643 151L514 151L386 151L257 151L129 151L0 151Z" fill="#001122"></path><path d="M0 118L129 115L257 114L386 110L514 101L643 102L771 100L900 98L900 151L771 151L643 151L514 151L386 151L257 151L129 151L0 151Z" fill="#183e56"></path><path d="M0 120L129 109L257 120L386 119L514 127L643 110L771 110L900 126L900 151L771 151L643 151L514 151L386 151L257 151L129 151L0 151Z" fill="#2d708f"></path><path d="M0 119L129 133L257 128L386 124L514 131L643 134L771 134L900 123L900 151L771 151L643 151L514 151L386 151L257 151L129 151L0 151Z" fill="#41a8c8"></path><path d="M0 132L129 137L257 135L386 142L514 140L643 142L771 142L900 132L900 151L771 151L643 151L514 151L386 151L257 151L129 151L0 151Z" fill="#59e3ff"></path></svg>