<svg id="visual" viewBox="0 0 900 600" width="900" height="600" xmlns="http://www.w3.org/2000/svg" xmlns:xlink="http://www.w3.org/1999/xlink" version="1.1"><g stroke-width="3" stroke-linejoin="bevel"><path d="M420 300L463 332L468 208Z" fill="#d8f0fa" stroke="#000000"></path><path d="M468 208L403 197L420 300Z" fill="#c6468e" stroke="#000000"></path><path d="M463 332L568 318L468 208Z" fill="#a4abea" stroke="#000000"></path><path d="M568 318L592 214L468 208Z" fill="#c6468e" stroke="#000000"></path><path d="M468 208L421 65L403 197Z" fill="#aed1f5" stroke="#000000"></path><path d="M428 423L510 396L463 332Z" fill="#f4fdff" stroke="#000000"></path><path d="M463 332L510 396L568 318Z" fill="#b67dc9" stroke="#000000"></path><path d="M323 336L428 423L420 300Z" fill="#c063af" stroke="#000000"></path><path d="M420 300L428 423L463 332Z" fill="#a4abea" stroke="#000000"></path><path d="M403 197L323 336L420 300Z" fill="#a4abea" stroke="#000000"></path><path d="M607 438L661 322L568 318Z" fill="#bfe1f7" stroke="#000000"></path><path d="M568 318L661 322L592 214Z" fill="#d8f0fa" stroke="#000000"></path><path d="M522 63L421 65L468 208Z" fill="#a4bff1" stroke="#000000"></path><path d="M403 197L268 185L323 336Z" fill="#d8f0fa" stroke="#000000"></path><path d="M587 67L522 63L592 214Z" fill="#f4fdff" stroke="#000000"></path><path d="M592 214L522 63L468 208Z" fill="#d8f0fa" stroke="#000000"></path><path d="M590 514L607 438L510 396Z" fill="#d8f0fa" stroke="#000000"></path><path d="M510 396L607 438L568 318Z" fill="#c62368" stroke="#000000"></path><path d="M312 99L268 185L403 197Z" fill="#aed1f5" stroke="#000000"></path><path d="M733 97L587 67L592 214Z" fill="#c6468e" stroke="#000000"></path><path d="M421 65L312 99L403 197Z" fill="#d8f0fa" stroke="#000000"></path><path d="M607 438L693 368L661 322Z" fill="#aed1f5" stroke="#000000"></path><path d="M661 322L731 201L592 214Z" fill="#c62368" stroke="#000000"></path><path d="M221 315L267 392L323 336Z" fill="#d8f0fa" stroke="#000000"></path><path d="M323 336L267 392L428 423Z" fill="#c063af" stroke="#000000"></path><path d="M375 507L481 517L428 423Z" fill="#f4fdff" stroke="#000000"></path><path d="M428 423L481 517L510 396Z" fill="#c063af" stroke="#000000"></path><path d="M267 392L375 507L428 423Z" fill="#bfe1f7" stroke="#000000"></path><path d="M268 185L221 315L323 336Z" fill="#a4bff1" stroke="#000000"></path><path d="M830 266L731 201L661 322Z" fill="#bfe1f7" stroke="#000000"></path><path d="M481 517L590 514L510 396Z" fill="#c6468e" stroke="#000000"></path><path d="M607 438L687 538L693 368Z" fill="#d8f0fa" stroke="#000000"></path><path d="M623 0L478 0L522 63Z" fill="#aed1f5" stroke="#000000"></path><path d="M522 63L478 0L421 65Z" fill="#bfe1f7" stroke="#000000"></path><path d="M421 65L415 0L312 99Z" fill="#d8f0fa" stroke="#000000"></path><path d="M478 0L415 0L421 65Z" fill="#b67dc9" stroke="#000000"></path><path d="M312 99L234 108L268 185Z" fill="#c62368" stroke="#000000"></path><path d="M268 185L180 197L221 315Z" fill="#c063af" stroke="#000000"></path><path d="M281 0L234 108L312 99Z" fill="#ab95dd" stroke="#000000"></path><path d="M234 108L180 197L268 185Z" fill="#f4fdff" stroke="#000000"></path><path d="M136 289L201 407L221 315Z" fill="#a4bff1" stroke="#000000"></path><path d="M221 315L201 407L267 392Z" fill="#c6468e" stroke="#000000"></path><path d="M267 392L277 511L375 507Z" fill="#c62368" stroke="#000000"></path><path d="M733 97L623 0L587 67Z" fill="#c62368" stroke="#000000"></path><path d="M587 67L623 0L522 63Z" fill="#f4fdff" stroke="#000000"></path><path d="M731 201L733 97L592 214Z" fill="#a4abea" stroke="#000000"></path><path d="M191 478L277 511L267 392Z" fill="#bfe1f7" stroke="#000000"></path><path d="M412 600L492 600L481 517Z" fill="#ab95dd" stroke="#000000"></path><path d="M412 600L481 517L375 507Z" fill="#c6468e" stroke="#000000"></path><path d="M481 517L492 600L590 514Z" fill="#a4bff1" stroke="#000000"></path><path d="M415 0L281 0L312 99Z" fill="#a4bff1" stroke="#000000"></path><path d="M137 120L129 224L180 197Z" fill="#ab95dd" stroke="#000000"></path><path d="M313 600L412 600L375 507Z" fill="#c6468e" stroke="#000000"></path><path d="M180 197L136 289L221 315Z" fill="#a4bff1" stroke="#000000"></path><path d="M590 514L687 538L607 438Z" fill="#a4bff1" stroke="#000000"></path><path d="M693 368L830 266L661 322Z" fill="#bfe1f7" stroke="#000000"></path><path d="M595 600L687 538L590 514Z" fill="#bfe1f7" stroke="#000000"></path><path d="M137 120L180 197L234 108Z" fill="#aed1f5" stroke="#000000"></path><path d="M180 197L129 224L136 289Z" fill="#ab95dd" stroke="#000000"></path><path d="M492 600L595 600L590 514Z" fill="#a4bff1" stroke="#000000"></path><path d="M131 469L191 478L201 407Z" fill="#aed1f5" stroke="#000000"></path><path d="M201 407L191 478L267 392Z" fill="#c62368" stroke="#000000"></path><path d="M277 511L313 600L375 507Z" fill="#bfe1f7" stroke="#000000"></path><path d="M794 430L830 266L693 368Z" fill="#b67dc9" stroke="#000000"></path><path d="M731 201L835 177L733 97Z" fill="#aed1f5" stroke="#000000"></path><path d="M687 538L794 430L693 368Z" fill="#c063af" stroke="#000000"></path><path d="M281 0L231 0L234 108Z" fill="#c063af" stroke="#000000"></path><path d="M217 600L313 600L277 511Z" fill="#c063af" stroke="#000000"></path><path d="M231 0L137 120L234 108Z" fill="#c6468e" stroke="#000000"></path><path d="M830 266L835 177L731 201Z" fill="#c62368" stroke="#000000"></path><path d="M733 97L731 0L623 0Z" fill="#b67dc9" stroke="#000000"></path><path d="M827 0L731 0L733 97Z" fill="#ab95dd" stroke="#000000"></path><path d="M595 600L671 600L687 538Z" fill="#f4fdff" stroke="#000000"></path><path d="M687 538L798 490L794 430Z" fill="#d8f0fa" stroke="#000000"></path><path d="M807 600L798 490L687 538Z" fill="#d8f0fa" stroke="#000000"></path><path d="M900 376L900 260L830 266Z" fill="#c6468e" stroke="#000000"></path><path d="M835 177L835 104L733 97Z" fill="#f4fdff" stroke="#000000"></path><path d="M61 424L131 469L201 407Z" fill="#aed1f5" stroke="#000000"></path><path d="M191 478L217 600L277 511Z" fill="#bfe1f7" stroke="#000000"></path><path d="M61 424L201 407L136 289Z" fill="#bfe1f7" stroke="#000000"></path><path d="M116 600L217 600L191 478Z" fill="#ab95dd" stroke="#000000"></path><path d="M830 266L900 199L835 177Z" fill="#a4bff1" stroke="#000000"></path><path d="M835 177L900 103L835 104Z" fill="#f4fdff" stroke="#000000"></path><path d="M900 376L830 266L794 430Z" fill="#bfe1f7" stroke="#000000"></path><path d="M900 260L900 199L830 266Z" fill="#d8f0fa" stroke="#000000"></path><path d="M900 467L900 376L794 430Z" fill="#a4abea" stroke="#000000"></path><path d="M0 382L61 424L136 289Z" fill="#bfe1f7" stroke="#000000"></path><path d="M131 469L116 600L191 478Z" fill="#c6468e" stroke="#000000"></path><path d="M0 295L136 289L129 224Z" fill="#ab95dd" stroke="#000000"></path><path d="M900 0L827 0L835 104Z" fill="#bfe1f7" stroke="#000000"></path><path d="M835 104L827 0L733 97Z" fill="#bfe1f7" stroke="#000000"></path><path d="M900 199L900 103L835 177Z" fill="#f4fdff" stroke="#000000"></path><path d="M671 600L807 600L687 538Z" fill="#c063af" stroke="#000000"></path><path d="M798 490L900 467L794 430Z" fill="#b67dc9" stroke="#000000"></path><path d="M900 600L900 467L798 490Z" fill="#b67dc9" stroke="#000000"></path><path d="M0 231L0 295L129 224Z" fill="#a4bff1" stroke="#000000"></path><path d="M0 97L0 231L137 120Z" fill="#a4bff1" stroke="#000000"></path><path d="M137 120L0 231L129 224Z" fill="#aed1f5" stroke="#000000"></path><path d="M0 494L116 600L131 469Z" fill="#ab95dd" stroke="#000000"></path><path d="M0 494L131 469L61 424Z" fill="#bfe1f7" stroke="#000000"></path><path d="M0 295L0 382L136 289Z" fill="#d8f0fa" stroke="#000000"></path><path d="M231 0L67 0L137 120Z" fill="#a4bff1" stroke="#000000"></path><path d="M900 103L900 0L835 104Z" fill="#f4fdff" stroke="#000000"></path><path d="M67 0L0 97L137 120Z" fill="#c6468e" stroke="#000000"></path><path d="M0 382L0 494L61 424Z" fill="#bfe1f7" stroke="#000000"></path><path d="M807 600L900 600L798 490Z" fill="#c6468e" stroke="#000000"></path><path d="M67 0L0 0L0 97Z" fill="#a4abea" stroke="#000000"></path><path d="M0 494L0 600L116 600Z" fill="#f4fdff" stroke="#000000"></path></g></svg>