<svg id="visual" viewBox="0 0 900 70" width="900" height="70" xmlns="http://www.w3.org/2000/svg" xmlns:xlink="http://www.w3.org/1999/xlink" version="1.1"><g stroke-width="1" stroke-linejoin="bevel"><path d="M460 70L474 70L492 4Z" fill="#612e6c" stroke="#612e6c"></path><path d="M492 4L438 0L460 70Z" fill="#ae266f" stroke="#ae266f"></path><path d="M474 70L502 70L492 4Z" fill="#0e203c" stroke="#0e203c"></path><path d="M438 0L423 68L460 70Z" fill="#952a72" stroke="#952a72"></path><path d="M438 0L400 0L423 68Z" fill="#00101c" stroke="#00101c"></path><path d="M502 70L549 0L492 4Z" fill="#312a59" stroke="#312a59"></path><path d="M492 4L549 0L438 0Z" fill="#482d64" stroke="#482d64"></path><path d="M502 70L547 70L549 0Z" fill="#0e203c" stroke="#0e203c"></path><path d="M400 0L384 70L423 68Z" fill="#7b2d71" stroke="#7b2d71"></path><path d="M423 68L384 70L460 70Z" fill="#c62368" stroke="#c62368"></path><path d="M583 34L571 0L549 0Z" fill="#ae266f" stroke="#ae266f"></path><path d="M547 70L583 34L549 0Z" fill="#7b2d71" stroke="#7b2d71"></path><path d="M400 0L344 70L384 70Z" fill="#0e203c" stroke="#0e203c"></path><path d="M326 0L337 70L344 70Z" fill="#0e203c" stroke="#0e203c"></path><path d="M400 0L326 0L344 70Z" fill="#00101c" stroke="#00101c"></path><path d="M326 0L311 0L337 70Z" fill="#482d64" stroke="#482d64"></path><path d="M547 70L634 70L583 34Z" fill="#7b2d71" stroke="#7b2d71"></path><path d="M583 34L668 0L571 0Z" fill="#0e203c" stroke="#0e203c"></path><path d="M311 0L270 20L337 70Z" fill="#7b2d71" stroke="#7b2d71"></path><path d="M634 70L668 0L583 34Z" fill="#612e6c" stroke="#612e6c"></path><path d="M634 70L686 70L668 0Z" fill="#312a59" stroke="#312a59"></path><path d="M722 83L689 72L634 70Z" fill="#06192c" stroke="#06192c"></path><path d="M634 70L689 72L686 70Z" fill="#612e6c" stroke="#612e6c"></path><path d="M686 70L754 0L668 0Z" fill="#312a59" stroke="#312a59"></path><path d="M722 83L634 70L547 70Z" fill="#952a72" stroke="#952a72"></path><path d="M722 83L547 70L502 70Z" fill="#1e264b" stroke="#1e264b"></path><path d="M722 83L502 70L474 70Z" fill="#ae266f" stroke="#ae266f"></path><path d="M722 83L474 70L460 70Z" fill="#952a72" stroke="#952a72"></path><path d="M722 83L460 70L384 70Z" fill="#482d64" stroke="#482d64"></path><path d="M722 83L384 70L344 70Z" fill="#7b2d71" stroke="#7b2d71"></path><path d="M311 0L239 2L270 20Z" fill="#482d64" stroke="#482d64"></path><path d="M270 20L199 70L337 70Z" fill="#0e203c" stroke="#0e203c"></path><path d="M337 70L722 83L344 70Z" fill="#00101c" stroke="#00101c"></path><path d="M689 72L754 0L686 70Z" fill="#06192c" stroke="#06192c"></path><path d="M145 -11L203 0L239 2Z" fill="#c62368" stroke="#c62368"></path><path d="M239 2L199 70L270 20Z" fill="#952a72" stroke="#952a72"></path><path d="M184 45L199 70L239 2Z" fill="#0e203c" stroke="#0e203c"></path><path d="M337 70L199 70L722 83Z" fill="#00101c" stroke="#00101c"></path><path d="M203 0L184 45L239 2Z" fill="#1e264b" stroke="#1e264b"></path><path d="M191 0L184 45L203 0Z" fill="#06192c" stroke="#06192c"></path><path d="M722 83L754 0L689 72Z" fill="#00101c" stroke="#00101c"></path><path d="M759 70L758 0L754 0Z" fill="#312a59" stroke="#312a59"></path><path d="M162 70L175 70L184 45Z" fill="#312a59" stroke="#312a59"></path><path d="M184 45L175 70L199 70Z" fill="#1e264b" stroke="#1e264b"></path><path d="M199 70L175 70L722 83Z" fill="#612e6c" stroke="#612e6c"></path><path d="M722 83L759 70L754 0Z" fill="#06192c" stroke="#06192c"></path><path d="M722 83L768 70L759 70Z" fill="#952a72" stroke="#952a72"></path><path d="M759 70L768 70L758 0Z" fill="#482d64" stroke="#482d64"></path><path d="M145 -11L162 70L184 45Z" fill="#612e6c" stroke="#612e6c"></path><path d="M175 70L162 70L722 83Z" fill="#c62368" stroke="#c62368"></path><path d="M203 0L145 -11L191 0Z" fill="#c62368" stroke="#c62368"></path><path d="M191 0L145 -11L184 45Z" fill="#7b2d71" stroke="#7b2d71"></path><path d="M311 0L145 -11L239 2Z" fill="#c62368" stroke="#c62368"></path><path d="M326 0L145 -11L311 0Z" fill="#7b2d71" stroke="#7b2d71"></path><path d="M400 0L145 -11L326 0Z" fill="#612e6c" stroke="#612e6c"></path><path d="M438 0L145 -11L400 0Z" fill="#1e264b" stroke="#1e264b"></path><path d="M549 0L145 -11L438 0Z" fill="#952a72" stroke="#952a72"></path><path d="M571 0L145 -11L549 0Z" fill="#ae266f" stroke="#ae266f"></path><path d="M668 0L145 -11L571 0Z" fill="#312a59" stroke="#312a59"></path><path d="M754 0L145 -11L668 0Z" fill="#0e203c" stroke="#0e203c"></path><path d="M758 0L145 -11L754 0Z" fill="#ae266f" stroke="#ae266f"></path><path d="M768 70L814 34L758 0Z" fill="#1e264b" stroke="#1e264b"></path><path d="M805 70L803 68L768 70Z" fill="#ae266f" stroke="#ae266f"></path><path d="M722 83L805 70L768 70Z" fill="#c62368" stroke="#c62368"></path><path d="M803 68L814 34L768 70Z" fill="#952a72" stroke="#952a72"></path><path d="M805 70L814 34L803 68Z" fill="#482d64" stroke="#482d64"></path><path d="M900 48L846 0L814 34Z" fill="#00101c" stroke="#00101c"></path><path d="M814 34L846 0L758 0Z" fill="#1e264b" stroke="#1e264b"></path><path d="M758 0L846 0L145 -11Z" fill="#612e6c" stroke="#612e6c"></path><path d="M145 -11L82 70L162 70Z" fill="#ae266f" stroke="#ae266f"></path><path d="M162 70L82 70L722 83Z" fill="#ae266f" stroke="#ae266f"></path><path d="M145 -11L71 0L82 70Z" fill="#c62368" stroke="#c62368"></path><path d="M145 -11L70 0L71 0Z" fill="#00101c" stroke="#00101c"></path><path d="M71 0L70 0L82 70Z" fill="#1e264b" stroke="#1e264b"></path><path d="M900 70L900 48L814 34Z" fill="#952a72" stroke="#952a72"></path><path d="M900 48L900 0L846 0Z" fill="#c62368" stroke="#c62368"></path><path d="M846 0L900 0L145 -11Z" fill="#c62368" stroke="#c62368"></path><path d="M805 70L900 70L814 34Z" fill="#952a72" stroke="#952a72"></path><path d="M722 83L900 70L805 70Z" fill="#06192c" stroke="#06192c"></path><path d="M70 0L15 33L82 70Z" fill="#952a72" stroke="#952a72"></path><path d="M15 33L0 70L82 70Z" fill="#1e264b" stroke="#1e264b"></path><path d="M145 -11L0 0L70 0Z" fill="#c62368" stroke="#c62368"></path><path d="M70 0L0 0L15 33Z" fill="#00101c" stroke="#00101c"></path><path d="M15 33L0 0L0 52Z" fill="#0e203c" stroke="#0e203c"></path><path d="M0 52L0 70L15 33Z" fill="#c62368" stroke="#c62368"></path><path d="M82 70L0 70L722 83Z" fill="#482d64" stroke="#482d64"></path></g></svg>