<svg id="visual" viewBox="0 0 900 70" width="900" height="70" xmlns="http://www.w3.org/2000/svg" xmlns:xlink="http://www.w3.org/1999/xlink" version="1.1"><rect x="0" y="0" width="900" height="70" fill="#ffffff"></rect><defs><linearGradient id="grad1_0" x1="92.2%" y1="100%" x2="100%" y2="0%"><stop offset="-207.14285714285714%" stop-color="#c62368" stop-opacity="1"></stop><stop offset="307.1428571428571%" stop-color="#c62368" stop-opacity="1"></stop></linearGradient></defs><defs><linearGradient id="grad1_1" x1="92.2%" y1="100%" x2="100%" y2="0%"><stop offset="-207.14285714285714%" stop-color="#c62368" stop-opacity="1"></stop><stop offset="307.1428571428571%" stop-color="#d4537f" stop-opacity="1"></stop></linearGradient></defs><defs><linearGradient id="grad1_2" x1="92.2%" y1="100%" x2="100%" y2="0%"><stop offset="-207.14285714285714%" stop-color="#e07897" stop-opacity="1"></stop><stop offset="307.1428571428571%" stop-color="#d4537f" stop-opacity="1"></stop></linearGradient></defs><defs><linearGradient id="grad1_3" x1="92.2%" y1="100%" x2="100%" y2="0%"><stop offset="-207.14285714285714%" stop-color="#e07897" stop-opacity="1"></stop><stop offset="307.1428571428571%" stop-color="#ea9bb0" stop-opacity="1"></stop></linearGradient></defs><defs><linearGradient id="grad1_4" x1="92.2%" y1="100%" x2="100%" y2="0%"><stop offset="-207.14285714285714%" stop-color="#f3bcca" stop-opacity="1"></stop><stop offset="307.1428571428571%" stop-color="#ea9bb0" stop-opacity="1"></stop></linearGradient></defs><defs><linearGradient id="grad1_5" x1="92.2%" y1="100%" x2="100%" y2="0%"><stop offset="-207.14285714285714%" stop-color="#f3bcca" stop-opacity="1"></stop><stop offset="307.1428571428571%" stop-color="#fadee4" stop-opacity="1"></stop></linearGradient></defs><defs><linearGradient id="grad1_6" x1="92.2%" y1="100%" x2="100%" y2="0%"><stop offset="-207.14285714285714%" stop-color="#ffffff" stop-opacity="1"></stop><stop offset="307.1428571428571%" stop-color="#fadee4" stop-opacity="1"></stop></linearGradient></defs><defs><linearGradient id="grad2_0" x1="0%" y1="100%" x2="7.8%" y2="0%"><stop offset="-207.14285714285714%" stop-color="#c62368" stop-opacity="1"></stop><stop offset="307.1428571428571%" stop-color="#c62368" stop-opacity="1"></stop></linearGradient></defs><defs><linearGradient id="grad2_1" x1="0%" y1="100%" x2="7.8%" y2="0%"><stop offset="-207.14285714285714%" stop-color="#d4537f" stop-opacity="1"></stop><stop offset="307.1428571428571%" stop-color="#c62368" stop-opacity="1"></stop></linearGradient></defs><defs><linearGradient id="grad2_2" x1="0%" y1="100%" x2="7.8%" y2="0%"><stop offset="-207.14285714285714%" stop-color="#d4537f" stop-opacity="1"></stop><stop offset="307.1428571428571%" stop-color="#e07897" stop-opacity="1"></stop></linearGradient></defs><defs><linearGradient id="grad2_3" x1="0%" y1="100%" x2="7.8%" y2="0%"><stop offset="-207.14285714285714%" stop-color="#ea9bb0" stop-opacity="1"></stop><stop offset="307.1428571428571%" stop-color="#e07897" stop-opacity="1"></stop></linearGradient></defs><defs><linearGradient id="grad2_4" x1="0%" y1="100%" x2="7.8%" y2="0%"><stop offset="-207.14285714285714%" stop-color="#ea9bb0" stop-opacity="1"></stop><stop offset="307.1428571428571%" stop-color="#f3bcca" stop-opacity="1"></stop></linearGradient></defs><defs><linearGradient id="grad2_5" x1="0%" y1="100%" x2="7.8%" y2="0%"><stop offset="-207.14285714285714%" stop-color="#fadee4" stop-opacity="1"></stop><stop offset="307.1428571428571%" stop-color="#f3bcca" stop-opacity="1"></stop></linearGradient></defs><defs><linearGradient id="grad2_6" x1="0%" y1="100%" x2="7.8%" y2="0%"><stop offset="-207.14285714285714%" stop-color="#fadee4" stop-opacity="1"></stop><stop offset="307.1428571428571%" stop-color="#ffffff" stop-opacity="1"></stop></linearGradient></defs><g transform="translate(900, 70)"><path d="M-67 0C-67.1 -3.5 -67.1 -7 -67.2 -10.6C-67.2 -14.3 -67.3 -18.2 -65.6 -21.3C-64 -24.5 -60.6 -26.9 -58.8 -30C-57 -33.1 -56.7 -36.9 -55 -40C-53.4 -43.1 -50.4 -45.5 -47.4 -47.4C-44.3 -49.3 -41.2 -50.6 -38.8 -53.4C-36.4 -56.2 -34.7 -60.5 -31.8 -62.4C-28.9 -64.3 -24.7 -63.8 -21 -64.7C-17.4 -65.5 -14.2 -67.7 -10.8 -68.2C-7.4 -68.6 -3.7 -67.3 0 -66L0 0Z" fill="#fdeef1"></path><path d="M-57.4 0C-57.5 -3 -57.5 -6 -57.6 -9.1C-57.6 -12.3 -57.7 -15.6 -56.2 -18.3C-54.8 -21 -52 -23 -50.4 -25.7C-48.8 -28.3 -48.6 -31.6 -47.2 -34.3C-45.7 -36.9 -43.2 -39 -40.6 -40.6C-38 -42.2 -35.3 -43.4 -33.3 -45.8C-31.2 -48.2 -29.7 -51.8 -27.2 -53.5C-24.7 -55.1 -21.1 -54.7 -18 -55.4C-14.9 -56.2 -12.2 -58 -9.3 -58.4C-6.3 -58.8 -3.2 -57.7 0 -56.6L0 0Z" fill="#f7cdd7"></path><path d="M-47.9 0C-47.9 -2.5 -47.9 -5 -48 -7.6C-48 -10.2 -48 -13 -46.9 -15.2C-45.7 -17.5 -43.3 -19.2 -42 -21.4C-40.7 -23.6 -40.5 -26.3 -39.3 -28.5C-38.1 -30.8 -36 -32.5 -33.8 -33.8C-31.7 -35.2 -29.4 -36.1 -27.7 -38.1C-26 -40.1 -24.8 -43.2 -22.7 -44.6C-20.6 -45.9 -17.6 -45.6 -15 -46.2C-12.4 -46.8 -10.1 -48.4 -7.7 -48.7C-5.3 -49 -2.6 -48.1 0 -47.1L0 0Z" fill="#efacbd"></path><path d="M-38.3 0C-38.3 -2 -38.3 -4 -38.4 -6.1C-38.4 -8.2 -38.4 -10.4 -37.5 -12.2C-36.6 -14 -34.7 -15.4 -33.6 -17.1C-32.6 -18.9 -32.4 -21.1 -31.4 -22.8C-30.5 -24.6 -28.8 -26 -27.1 -27.1C-25.3 -28.1 -23.5 -28.9 -22.2 -30.5C-20.8 -32.1 -19.8 -34.6 -18.2 -35.6C-16.5 -36.7 -14.1 -36.5 -12 -37C-9.9 -37.4 -8.1 -38.7 -6.2 -38.9C-4.2 -39.2 -2.1 -38.5 0 -37.7L0 0Z" fill="#e58aa4"></path><path d="M-28.7 0C-28.7 -1.5 -28.8 -3 -28.8 -4.6C-28.8 -6.1 -28.8 -7.8 -28.1 -9.1C-27.4 -10.5 -26 -11.5 -25.2 -12.8C-24.4 -14.2 -24.3 -15.8 -23.6 -17.1C-22.9 -18.5 -21.6 -19.5 -20.3 -20.3C-19 -21.1 -17.7 -21.7 -16.6 -22.9C-15.6 -24.1 -14.9 -25.9 -13.6 -26.7C-12.4 -27.5 -10.6 -27.3 -9 -27.7C-7.4 -28.1 -6.1 -29 -4.6 -29.2C-3.2 -29.4 -1.6 -28.8 0 -28.3L0 0Z" fill="#da668b"></path><path d="M-19.1 0C-19.2 -1 -19.2 -2 -19.2 -3C-19.2 -4.1 -19.2 -5.2 -18.7 -6.1C-18.3 -7 -17.3 -7.7 -16.8 -8.6C-16.3 -9.4 -16.2 -10.5 -15.7 -11.4C-15.2 -12.3 -14.4 -13 -13.5 -13.5C-12.7 -14.1 -11.8 -14.5 -11.1 -15.3C-10.4 -16.1 -9.9 -17.3 -9.1 -17.8C-8.2 -18.4 -7 -18.2 -6 -18.5C-5 -18.7 -4.1 -19.3 -3.1 -19.5C-2.1 -19.6 -1.1 -19.2 0 -18.9L0 0Z" fill="#cd3e73"></path><path d="M-9.6 0C-9.6 -0.5 -9.6 -1 -9.6 -1.5C-9.6 -2 -9.6 -2.6 -9.4 -3C-9.1 -3.5 -8.7 -3.8 -8.4 -4.3C-8.1 -4.7 -8.1 -5.3 -7.9 -5.7C-7.6 -6.2 -7.2 -6.5 -6.8 -6.8C-6.3 -7 -5.9 -7.2 -5.5 -7.6C-5.2 -8 -5 -8.6 -4.5 -8.9C-4.1 -9.2 -3.5 -9.1 -3 -9.2C-2.5 -9.4 -2 -9.7 -1.5 -9.7C-1.1 -9.8 -0.5 -9.6 0 -9.4L0 0Z" fill="#c62368"></path></g><g transform="translate(0, 0)"><path d="M68 0C67 3.4 65.9 6.9 65.2 10.3C64.4 13.8 64 17.3 62.8 20.4C61.6 23.5 59.7 26.4 58.8 30C57.9 33.6 58 38 55.8 40.6C53.6 43.1 49.2 43.9 46.7 46.7C44.2 49.4 43.6 54.2 41.1 56.6C38.7 59.1 34.4 59.1 30.9 60.6C27.4 62 24.7 64.9 21.3 65.6C18 66.4 14 65 10.3 65.2C6.7 65.4 3.3 67.2 0 69L0 0Z" fill="#fdeef1"></path><path d="M58.3 0C57.4 2.9 56.5 5.9 55.9 8.8C55.2 11.8 54.8 14.8 53.8 17.5C52.8 20.2 51.2 22.6 50.4 25.7C49.6 28.8 49.7 32.5 47.8 34.8C46 37 42.2 37.6 40 40C37.8 42.4 37.4 46.5 35.3 48.5C33.2 50.6 29.5 50.7 26.5 51.9C23.5 53.2 21.1 55.6 18.3 56.2C15.4 56.9 12 55.7 8.8 55.9C5.7 56.1 2.9 57.6 0 59.1L0 0Z" fill="#f7cdd7"></path><path d="M48.6 0C47.8 2.5 47.1 4.9 46.6 7.4C46 9.8 45.7 12.3 44.8 14.6C44 16.8 42.6 18.8 42 21.4C41.4 24 41.4 27.1 39.9 29C38.3 30.8 35.1 31.4 33.3 33.3C31.5 35.3 31.1 38.7 29.4 40.5C27.6 42.2 24.6 42.2 22.1 43.3C19.5 44.3 17.6 46.4 15.2 46.9C12.8 47.4 10 46.4 7.4 46.6C4.8 46.7 2.4 48 0 49.3L0 0Z" fill="#efacbd"></path><path d="M38.9 0C38.3 2 37.7 3.9 37.2 5.9C36.8 7.9 36.5 9.9 35.9 11.7C35.2 13.5 34.1 15.1 33.6 17.1C33.1 19.2 33.1 21.7 31.9 23.2C30.7 24.7 28.1 25.1 26.7 26.7C25.2 28.2 24.9 31 23.5 32.4C22.1 33.7 19.6 33.8 17.6 34.6C15.6 35.5 14.1 37.1 12.2 37.5C10.3 37.9 8 37.1 5.9 37.2C3.8 37.4 1.9 38.4 0 39.4L0 0Z" fill="#e58aa4"></path><path d="M29.1 0C28.7 1.5 28.3 2.9 27.9 4.4C27.6 5.9 27.4 7.4 26.9 8.7C26.4 10.1 25.6 11.3 25.2 12.8C24.8 14.4 24.9 16.3 23.9 17.4C23 18.5 21.1 18.8 20 20C18.9 21.2 18.7 23.2 17.6 24.3C16.6 25.3 14.7 25.3 13.2 26C11.7 26.6 10.6 27.8 9.1 28.1C7.7 28.4 6 27.8 4.4 27.9C2.9 28 1.4 28.8 0 29.6L0 0Z" fill="#da668b"></path><path d="M19.4 0C19.1 1 18.8 2 18.6 2.9C18.4 3.9 18.3 4.9 17.9 5.8C17.6 6.7 17.1 7.5 16.8 8.6C16.5 9.6 16.6 10.8 15.9 11.6C15.3 12.3 14.1 12.5 13.3 13.3C12.6 14.1 12.5 15.5 11.8 16.2C11.1 16.9 9.8 16.9 8.8 17.3C7.8 17.7 7 18.5 6.1 18.7C5.1 19 4 18.6 2.9 18.6C1.9 18.7 1 19.2 0 19.7L0 0Z" fill="#cd3e73"></path><path d="M9.7 0C9.6 0.5 9.4 1 9.3 1.5C9.2 2 9.1 2.5 9 2.9C8.8 3.4 8.5 3.8 8.4 4.3C8.3 4.8 8.3 5.4 8 5.8C7.7 6.2 7 6.3 6.7 6.7C6.3 7.1 6.2 7.7 5.9 8.1C5.5 8.4 4.9 8.4 4.4 8.7C3.9 8.9 3.5 9.3 3 9.4C2.6 9.5 2 9.3 1.5 9.3C1 9.3 0.5 9.6 0 9.9L0 0Z" fill="#c62368"></path></g></svg>