<svg id="visual" viewBox="0 0 900 70" width="900" height="70" xmlns="http://www.w3.org/2000/svg" xmlns:xlink="http://www.w3.org/1999/xlink" version="1.1"><path d="M0 7L10.7 7.8C21.3 8.7 42.7 10.3 64.2 10.7C85.7 11 107.3 10 128.8 9.2C150.3 8.3 171.7 7.7 193 7.5C214.3 7.3 235.7 7.7 257 7.3C278.3 7 299.7 6 321.2 6.5C342.7 7 364.3 9 385.8 10.2C407.3 11.3 428.7 11.7 450 10.7C471.3 9.7 492.7 7.3 514.2 6.3C535.7 5.3 557.3 5.7 578.8 5.7C600.3 5.7 621.7 5.3 643 6C664.3 6.7 685.7 8.3 707 8.8C728.3 9.3 749.7 8.7 771.2 8.5C792.7 8.3 814.3 8.7 835.8 8.8C857.3 9 878.7 9 889.3 9L900 9L900 0L889.3 0C878.7 0 857.3 0 835.8 0C814.3 0 792.7 0 771.2 0C749.7 0 728.3 0 707 0C685.7 0 664.3 0 643 0C621.7 0 600.3 0 578.8 0C557.3 0 535.7 0 514.2 0C492.7 0 471.3 0 450 0C428.7 0 407.3 0 385.8 0C364.3 0 342.7 0 321.2 0C299.7 0 278.3 0 257 0C235.7 0 214.3 0 193 0C171.7 0 150.3 0 128.8 0C107.3 0 85.7 0 64.2 0C42.7 0 21.3 0 10.7 0L0 0Z" fill="#db789d"></path><path d="M0 17L10.7 17.3C21.3 17.7 42.7 18.3 64.2 17.8C85.7 17.3 107.3 15.7 128.8 15C150.3 14.3 171.7 14.7 193 14.7C214.3 14.7 235.7 14.3 257 14C278.3 13.7 299.7 13.3 321.2 13.8C342.7 14.3 364.3 15.7 385.8 16.8C407.3 18 428.7 19 450 18.2C471.3 17.3 492.7 14.7 514.2 13.3C535.7 12 557.3 12 578.8 12C600.3 12 621.7 12 643 13.5C664.3 15 685.7 18 707 19C728.3 20 749.7 19 771.2 17.8C792.7 16.7 814.3 15.3 835.8 15C857.3 14.7 878.7 15.3 889.3 15.7L900 16L900 7L889.3 7C878.7 7 857.3 7 835.8 6.8C814.3 6.7 792.7 6.3 771.2 6.5C749.7 6.7 728.3 7.3 707 6.8C685.7 6.3 664.3 4.7 643 4C621.7 3.3 600.3 3.7 578.8 3.7C557.3 3.7 535.7 3.3 514.2 4.3C492.7 5.3 471.3 7.7 450 8.7C428.7 9.7 407.3 9.3 385.8 8.2C364.3 7 342.7 5 321.2 4.5C299.7 4 278.3 5 257 5.3C235.7 5.7 214.3 5.3 193 5.5C171.7 5.7 150.3 6.3 128.8 7.2C107.3 8 85.7 9 64.2 8.7C42.7 8.3 21.3 6.7 10.7 5.8L0 5Z" fill="#d25988"></path><path d="M0 44L10.7 43.3C21.3 42.7 42.7 41.3 64.2 39.7C85.7 38 107.3 36 128.8 34.2C150.3 32.3 171.7 30.7 193 32.3C214.3 34 235.7 39 257 41.2C278.3 43.3 299.7 42.7 321.2 43.2C342.7 43.7 364.3 45.3 385.8 45.2C407.3 45 428.7 43 450 42.5C471.3 42 492.7 43 514.2 40.5C535.7 38 557.3 32 578.8 31.3C600.3 30.7 621.7 35.3 643 36.5C664.3 37.7 685.7 35.3 707 35.7C728.3 36 749.7 39 771.2 39C792.7 39 814.3 36 835.8 33.7C857.3 31.3 878.7 29.7 889.3 28.8L900 28L900 14L889.3 13.7C878.7 13.3 857.3 12.7 835.8 13C814.3 13.3 792.7 14.7 771.2 15.8C749.7 17 728.3 18 707 17C685.7 16 664.3 13 643 11.5C621.7 10 600.3 10 578.8 10C557.3 10 535.7 10 514.2 11.3C492.7 12.7 471.3 15.3 450 16.2C428.7 17 407.3 16 385.8 14.8C364.3 13.7 342.7 12.3 321.2 11.8C299.7 11.3 278.3 11.7 257 12C235.7 12.3 214.3 12.7 193 12.7C171.7 12.7 150.3 12.3 128.8 13C107.3 13.7 85.7 15.3 64.2 15.8C42.7 16.3 21.3 15.7 10.7 15.3L0 15Z" fill="#c73572"></path><path d="M0 56L10.7 56C21.3 56 42.7 56 64.2 55.2C85.7 54.3 107.3 52.7 128.8 51C150.3 49.3 171.7 47.7 193 49C214.3 50.3 235.7 54.7 257 55.5C278.3 56.3 299.7 53.7 321.2 54.2C342.7 54.7 364.3 58.3 385.8 59.2C407.3 60 428.7 58 450 57.8C471.3 57.7 492.7 59.3 514.2 57.7C535.7 56 557.3 51 578.8 49.2C600.3 47.3 621.7 48.7 643 49C664.3 49.3 685.7 48.7 707 49.7C728.3 50.7 749.7 53.3 771.2 52.8C792.7 52.3 814.3 48.7 835.8 45.8C857.3 43 878.7 41 889.3 40L900 39L900 26L889.3 26.8C878.7 27.7 857.3 29.3 835.8 31.7C814.3 34 792.7 37 771.2 37C749.7 37 728.3 34 707 33.7C685.7 33.3 664.3 35.7 643 34.5C621.7 33.3 600.3 28.7 578.8 29.3C557.3 30 535.7 36 514.2 38.5C492.7 41 471.3 40 450 40.5C428.7 41 407.3 43 385.8 43.2C364.3 43.3 342.7 41.7 321.2 41.2C299.7 40.7 278.3 41.3 257 39.2C235.7 37 214.3 32 193 30.3C171.7 28.7 150.3 30.3 128.8 32.2C107.3 34 85.7 36 64.2 37.7C42.7 39.3 21.3 40.7 10.7 41.3L0 42Z" fill="#ac2e63"></path><path d="M0 71L10.7 71C21.3 71 42.7 71 64.2 71C85.7 71 107.3 71 128.8 71C150.3 71 171.7 71 193 71C214.3 71 235.7 71 257 71C278.3 71 299.7 71 321.2 71C342.7 71 364.3 71 385.8 71C407.3 71 428.7 71 450 71C471.3 71 492.7 71 514.2 71C535.7 71 557.3 71 578.8 71C600.3 71 621.7 71 643 71C664.3 71 685.7 71 707 71C728.3 71 749.7 71 771.2 71C792.7 71 814.3 71 835.8 71C857.3 71 878.7 71 889.3 71L900 71L900 37L889.3 38C878.7 39 857.3 41 835.8 43.8C814.3 46.7 792.7 50.3 771.2 50.8C749.7 51.3 728.3 48.7 707 47.7C685.7 46.7 664.3 47.3 643 47C621.7 46.7 600.3 45.3 578.8 47.2C557.3 49 535.7 54 514.2 55.7C492.7 57.3 471.3 55.7 450 55.8C428.7 56 407.3 58 385.8 57.2C364.3 56.3 342.7 52.7 321.2 52.2C299.7 51.7 278.3 54.3 257 53.5C235.7 52.7 214.3 48.3 193 47C171.7 45.7 150.3 47.3 128.8 49C107.3 50.7 85.7 52.3 64.2 53.2C42.7 54 21.3 54 10.7 54L0 54Z" fill="#922754"></path></svg>