<svg id="visual" viewBox="0 0 900 100" width="900" height="100" xmlns="http://www.w3.org/2000/svg" xmlns:xlink="http://www.w3.org/1999/xlink" version="1.1"><path d="M0 6L64 14L129 16L193 16L257 3L321 6L386 6L450 16L514 17L579 9L643 12L707 6L771 17L836 6L900 12L900 0L836 0L771 0L707 0L643 0L579 0L514 0L450 0L386 0L321 0L257 0L193 0L129 0L64 0L0 0Z" fill="#c62368"></path><path d="M0 21L64 25L129 19L193 29L257 6L321 20L386 27L450 30L514 33L579 19L643 28L707 22L771 32L836 15L900 27L900 10L836 4L771 15L707 4L643 10L579 7L514 15L450 14L386 4L321 4L257 1L193 14L129 14L64 12L0 4Z" fill="#c44799"></path><path d="M0 59L64 43L129 33L193 40L257 24L321 52L386 33L450 55L514 55L579 47L643 39L707 54L771 58L836 38L900 55L900 25L836 13L771 30L707 20L643 26L579 17L514 31L450 28L386 25L321 18L257 4L193 27L129 17L64 23L0 19Z" fill="#b468c4"></path><path d="M0 61L64 45L129 36L193 47L257 31L321 54L386 34L450 58L514 56L579 55L643 47L707 64L771 66L836 49L900 61L900 53L836 36L771 56L707 52L643 37L579 45L514 53L450 53L386 31L321 50L257 22L193 38L129 31L64 41L0 57Z" fill="#9987e6"></path><path d="M0 66L64 53L129 42L193 49L257 45L321 61L386 39L450 64L514 59L579 62L643 50L707 75L771 71L836 53L900 64L900 59L836 47L771 64L707 62L643 45L579 53L514 54L450 56L386 32L321 52L257 29L193 45L129 34L64 43L0 59Z" fill="#76a2fb"></path><path d="M0 89L64 70L129 67L193 93L257 85L321 83L386 76L450 88L514 71L579 75L643 83L707 89L771 80L836 79L900 92L900 62L836 51L771 69L707 73L643 48L579 60L514 57L450 62L386 37L321 59L257 43L193 47L129 40L64 51L0 64Z" fill="#53bbff"></path><path d="M0 94L64 94L129 88L193 97L257 95L321 96L386 99L450 92L514 88L579 98L643 92L707 91L771 92L836 98L900 100L900 90L836 77L771 78L707 87L643 81L579 73L514 69L450 86L386 74L321 81L257 83L193 91L129 65L64 68L0 87Z" fill="#43d0ff"></path><path d="M0 101L64 101L129 101L193 101L257 101L321 101L386 101L450 101L514 101L579 101L643 101L707 101L771 101L836 101L900 101L900 98L836 96L771 90L707 89L643 90L579 96L514 86L450 90L386 97L321 94L257 93L193 95L129 86L64 92L0 92Z" fill="#59e3ff"></path></svg>