<?xml version="1.0" standalone="no"?>
<svg xmlns:xlink="http://www.w3.org/1999/xlink" id="wave" style="transform:rotate(0deg); transition: 0.3s" viewBox="0 0 1440 150" version="1.1" xmlns="http://www.w3.org/2000/svg"><defs><linearGradient id="sw-gradient-0" x1="0" x2="0" y1="1" y2="0"><stop stop-color="rgba(255, 51, 102, 1)" offset="0%"/><stop stop-color="rgba(89, 227, 255, 1)" offset="100%"/></linearGradient></defs><path style="transform:translate(0, 0px); opacity:1" fill="url(#sw-gradient-0)" d="M0,75L60,82.5C120,90,240,105,360,112.5C480,120,600,120,720,102.5C840,85,960,50,1080,30C1200,10,1320,5,1440,12.5C1560,20,1680,40,1800,62.5C1920,85,2040,110,2160,105C2280,100,2400,65,2520,42.5C2640,20,2760,10,2880,10C3000,10,3120,20,3240,22.5C3360,25,3480,20,3600,30C3720,40,3840,65,3960,80C4080,95,4200,100,4320,90C4440,80,4560,55,4680,55C4800,55,4920,80,5040,80C5160,80,5280,55,5400,37.5C5520,20,5640,10,5760,22.5C5880,35,6000,70,6120,82.5C6240,95,6360,85,6480,72.5C6600,60,6720,45,6840,47.5C6960,50,7080,70,7200,75C7320,80,7440,70,7560,57.5C7680,45,7800,30,7920,27.5C8040,25,8160,35,8280,50C8400,65,8520,85,8580,95L8640,105L8640,150L8580,150C8520,150,8400,150,8280,150C8160,150,8040,150,7920,150C7800,150,7680,150,7560,150C7440,150,7320,150,7200,150C7080,150,6960,150,6840,150C6720,150,6600,150,6480,150C6360,150,6240,150,6120,150C6000,150,5880,150,5760,150C5640,150,5520,150,5400,150C5280,150,5160,150,5040,150C4920,150,4800,150,4680,150C4560,150,4440,150,4320,150C4200,150,4080,150,3960,150C3840,150,3720,150,3600,150C3480,150,3360,150,3240,150C3120,150,3000,150,2880,150C2760,150,2640,150,2520,150C2400,150,2280,150,2160,150C2040,150,1920,150,1800,150C1680,150,1560,150,1440,150C1320,150,1200,150,1080,150C960,150,840,150,720,150C600,150,480,150,360,150C240,150,120,150,60,150L0,150Z"/></svg>